<svg width="423" height="430" viewBox="0 0 423 430" fill="none" xmlns="http://www.w3.org/2000/svg">
<g filter="url(#filter0_d_1_1959)">
<rect x="39.3569" y="0.818237" width="344.289" height="349.979" rx="6.3745" fill="white"/>
<rect x="70.8372" y="201.334" width="279.735" height="46.1645" rx="3.58566" fill="white" stroke="#D7E1F6" stroke-width="0.796813"/>
<path d="M324.533 222.329L328.885 227.491C328.955 227.575 329.042 227.641 329.14 227.687C329.238 227.733 329.344 227.756 329.452 227.756C329.56 227.756 329.666 227.733 329.764 227.687C329.862 227.641 329.949 227.575 330.019 227.491L334.371 222.329C334.786 221.837 334.442 221.075 333.803 221.075H325.099C324.461 221.075 324.117 221.837 324.533 222.329Z" fill="#90A0C2"/>
<rect x="70.8372" y="136.523" width="279.735" height="46.1645" rx="3.58566" fill="white" stroke="#D7E1F6" stroke-width="0.796813"/>
<path opacity="0.8" d="M91.4726 162.883H89.9889L89.4423 161.455H86.0287L85.4821 162.883H83.9985L86.9212 155.443H88.5499L91.4726 162.883ZM89.0742 160.306L87.7355 156.759L86.3969 160.306H89.0742ZM94.706 163.017C93.8879 163.017 93.2186 162.753 92.698 162.225C92.1774 161.69 91.9171 161.009 91.9171 160.184C91.9171 159.366 92.1774 158.693 92.698 158.165C93.2186 157.629 93.8879 157.361 94.706 157.361C95.6058 157.361 96.2937 157.681 96.7697 158.321L96 159.035C95.7025 158.611 95.2898 158.399 94.7617 158.399C94.2709 158.399 93.8768 158.566 93.5793 158.901C93.2818 159.228 93.1331 159.656 93.1331 160.184C93.1331 160.712 93.2818 161.143 93.5793 161.478C93.8768 161.812 94.2709 161.98 94.7617 161.98C95.2749 161.98 95.6876 161.768 96 161.344L96.7697 162.058C96.2937 162.697 95.6058 163.017 94.706 163.017ZM100.251 163.017C99.4329 163.017 98.7636 162.753 98.243 162.225C97.7224 161.69 97.4621 161.009 97.4621 160.184C97.4621 159.366 97.7224 158.693 98.243 158.165C98.7636 157.629 99.4329 157.361 100.251 157.361C101.151 157.361 101.839 157.681 102.315 158.321L101.545 159.035C101.248 158.611 100.835 158.399 100.307 158.399C99.8159 158.399 99.4218 158.566 99.1243 158.901C98.8268 159.228 98.6781 159.656 98.6781 160.184C98.6781 160.712 98.8268 161.143 99.1243 161.478C99.4218 161.812 99.8159 161.98 100.307 161.98C100.82 161.98 101.233 161.768 101.545 161.344L102.315 162.058C101.839 162.697 101.151 163.017 100.251 163.017ZM105.774 163.017C104.941 163.017 104.271 162.746 103.766 162.203C103.26 161.652 103.007 160.979 103.007 160.184C103.007 159.388 103.26 158.719 103.766 158.176C104.271 157.633 104.941 157.361 105.774 157.361C106.614 157.361 107.287 157.633 107.793 158.176C108.299 158.719 108.551 159.388 108.551 160.184C108.551 160.987 108.299 161.66 107.793 162.203C107.287 162.746 106.614 163.017 105.774 163.017ZM105.774 161.98C106.257 161.98 106.636 161.809 106.912 161.467C107.194 161.117 107.335 160.689 107.335 160.184C107.335 159.685 107.194 159.265 106.912 158.923C106.636 158.574 106.257 158.399 105.774 158.399C105.298 158.399 104.918 158.574 104.636 158.923C104.361 159.265 104.223 159.685 104.223 160.184C104.223 160.689 104.361 161.117 104.636 161.467C104.918 161.809 105.298 161.98 105.774 161.98ZM114.545 162.883H113.373V162.169C112.867 162.735 112.232 163.017 111.466 163.017C110.313 163.017 109.737 162.448 109.737 161.31V157.495H110.908V160.886C110.908 161.281 111.001 161.563 111.187 161.734C111.373 161.898 111.64 161.98 111.99 161.98C112.273 161.98 112.537 161.913 112.782 161.779C113.027 161.645 113.224 161.478 113.373 161.277V157.495H114.545V162.883ZM120.874 162.883H119.703V159.514C119.703 158.771 119.342 158.399 118.62 158.399C118.338 158.399 118.074 158.469 117.828 158.611C117.583 158.752 117.386 158.923 117.237 159.124V162.883H116.066V157.495H117.237V158.232C117.438 157.994 117.706 157.789 118.04 157.618C118.375 157.447 118.739 157.361 119.134 157.361C119.706 157.361 120.138 157.51 120.428 157.808C120.725 158.105 120.874 158.533 120.874 159.09V162.883ZM124.013 163.017C123.559 163.017 123.213 162.898 122.975 162.66C122.745 162.422 122.63 162.08 122.63 161.634V158.522H121.737V157.495H122.63V156.023H123.801V157.495H124.894V158.522H123.801V161.344C123.801 161.537 123.845 161.693 123.935 161.812C124.024 161.924 124.15 161.98 124.314 161.98C124.552 161.98 124.727 161.917 124.838 161.79L125.117 162.671C124.872 162.902 124.504 163.017 124.013 163.017ZM133.631 162.883H132.459V159.514C132.459 158.771 132.099 158.399 131.377 158.399C131.095 158.399 130.831 158.469 130.585 158.611C130.34 158.752 130.143 158.923 129.994 159.124V162.883H128.823V157.495H129.994V158.232C130.195 157.994 130.463 157.789 130.797 157.618C131.132 157.447 131.496 157.361 131.89 157.361C132.463 157.361 132.894 157.51 133.184 157.808C133.482 158.105 133.631 158.533 133.631 159.09V162.883ZM139.614 162.883H138.443V162.303C138.026 162.779 137.446 163.017 136.703 163.017C136.212 163.017 135.777 162.861 135.397 162.549C135.018 162.229 134.829 161.79 134.829 161.232C134.829 160.66 135.014 160.225 135.386 159.927C135.766 159.63 136.204 159.481 136.703 159.481C137.469 159.481 138.049 159.711 138.443 160.173V159.369C138.443 159.057 138.328 158.812 138.097 158.633C137.867 158.455 137.562 158.365 137.182 158.365C136.58 158.365 136.048 158.592 135.587 159.046L135.107 158.232C135.717 157.651 136.472 157.361 137.372 157.361C138.034 157.361 138.573 157.518 138.99 157.83C139.406 158.142 139.614 158.637 139.614 159.314V162.883ZM137.16 162.214C137.748 162.214 138.175 162.028 138.443 161.656V160.842C138.175 160.47 137.748 160.284 137.16 160.284C136.825 160.284 136.55 160.373 136.335 160.552C136.119 160.73 136.011 160.965 136.011 161.255C136.011 161.545 136.119 161.779 136.335 161.957C136.55 162.128 136.825 162.214 137.16 162.214ZM148.908 162.883H147.737V159.369C147.737 158.722 147.443 158.399 146.856 158.399C146.61 158.399 146.372 158.469 146.142 158.611C145.911 158.752 145.733 158.919 145.606 159.113V162.883H144.435V159.369C144.435 158.722 144.137 158.399 143.542 158.399C143.304 158.399 143.07 158.469 142.84 158.611C142.616 158.752 142.438 158.923 142.304 159.124V162.883H141.133V157.495H142.304V158.232C142.438 158.031 142.669 157.837 142.996 157.651C143.33 157.458 143.684 157.361 144.056 157.361C144.836 157.361 145.327 157.692 145.528 158.354C145.699 158.086 145.952 157.856 146.287 157.663C146.621 157.462 146.978 157.361 147.358 157.361C148.391 157.361 148.908 157.904 148.908 158.99V162.883ZM152.913 163.017C152.095 163.017 151.418 162.757 150.883 162.236C150.355 161.708 150.091 161.024 150.091 160.184C150.091 159.395 150.347 158.73 150.86 158.187C151.381 157.637 152.035 157.361 152.824 157.361C153.619 157.361 154.259 157.637 154.742 158.187C155.233 158.737 155.479 159.44 155.479 160.295V160.574H151.318C151.362 160.998 151.537 161.351 151.842 161.634C152.147 161.917 152.545 162.058 153.036 162.058C153.311 162.058 153.586 162.006 153.861 161.902C154.144 161.798 154.378 161.652 154.564 161.467L155.099 162.236C154.557 162.757 153.828 163.017 152.913 163.017ZM154.341 159.749C154.326 159.377 154.188 159.046 153.928 158.756C153.675 158.466 153.307 158.321 152.824 158.321C152.363 158.321 152.002 158.466 151.742 158.756C151.481 159.038 151.336 159.369 151.307 159.749H154.341Z" fill="#90A0C2"/>
<path d="M76.4995 47.3671C75.1034 47.3671 73.9321 46.8316 72.9855 45.7607C72.0485 44.6898 71.5799 43.4372 71.5799 42.0029C71.5799 40.5304 72.0198 39.3161 72.8995 38.3599C73.7791 37.3942 74.9313 36.9113 76.356 36.9113C77.4843 36.9113 78.4596 37.1838 79.2819 37.7288C80.1042 38.2643 80.5154 38.9049 80.5154 39.6507C80.5154 39.9854 80.4054 40.2579 80.1855 40.4683C79.9752 40.6786 79.6883 40.7838 79.325 40.7838C78.9999 40.7838 78.7082 40.6882 78.4501 40.4969C78.1919 40.2961 77.9768 40.0571 77.8046 39.7798C77.6421 39.5025 77.4748 39.2252 77.3026 38.9479C77.1305 38.6611 76.9202 38.422 76.6716 38.2308C76.4325 38.03 76.1552 37.9296 75.8397 37.9296C75.3616 37.9296 74.9505 38.1543 74.6062 38.6037C74.2716 39.0531 74.1042 39.6603 74.1042 40.4252C74.1042 41.7734 74.4293 42.8826 75.0795 43.7527C75.7297 44.6133 76.4803 45.0436 77.3313 45.0436C77.6469 45.0436 77.9337 44.9957 78.1919 44.9001C78.4596 44.8045 78.6939 44.6706 78.8947 44.4985C79.105 44.3169 79.2628 44.1591 79.368 44.0252C79.4827 43.8914 79.6118 43.724 79.7552 43.5232C79.8891 43.3607 80.0564 43.3081 80.2572 43.3655C80.458 43.4133 80.5536 43.5519 80.5441 43.7814C80.5058 44.7758 80.1377 45.622 79.4397 46.32C78.7513 47.0181 77.7712 47.3671 76.4995 47.3671ZM85.8955 40.1957C86.3066 40.1957 86.6317 40.3296 86.8708 40.5973C87.1194 40.8651 87.2437 41.2045 87.2437 41.6157C87.2437 42.5145 86.8755 42.9639 86.1393 42.9639C85.8429 42.9639 85.6182 42.8969 85.4652 42.7631C85.3122 42.6196 85.2213 42.4619 85.1927 42.2898C85.1735 42.1177 85.1257 41.9647 85.0492 41.8308C84.9727 41.6874 84.858 41.6157 84.705 41.6157C84.3512 41.6157 84.1743 42.0746 84.1743 42.9926V45.6603C84.1743 45.8993 84.2986 46.1384 84.5472 46.3774C84.8054 46.6069 84.9345 46.779 84.9345 46.8938V46.9511C84.9345 47.1328 84.8198 47.2236 84.5903 47.2236H81.5066C81.2771 47.2236 81.1624 47.1328 81.1624 46.9511V46.8938C81.1624 46.779 81.258 46.6069 81.4492 46.3774C81.6405 46.1384 81.7361 45.8993 81.7361 45.6603V42.8061C81.7361 42.6149 81.6787 42.4523 81.564 42.3185C81.4492 42.1846 81.3345 42.0698 81.2198 41.9742C81.105 41.8786 81.0476 41.7734 81.0476 41.6587V41.6157C81.0476 41.4531 81.1576 41.3145 81.3775 41.1997L83.3998 40.2531C83.5911 40.1862 83.7249 40.1814 83.8014 40.2388C83.8779 40.2961 83.9162 40.4061 83.9162 40.5687V41.6157C84.2413 40.6691 84.901 40.1957 85.8955 40.1957ZM93.4001 44.9575C93.5053 44.8523 93.62 44.8236 93.7443 44.8714C93.8782 44.9097 93.9404 45.0053 93.9308 45.1583C93.9117 45.6364 93.6344 46.124 93.0989 46.6212C92.5635 47.1185 91.8702 47.3671 91.0192 47.3671C89.977 47.3671 89.126 47.0324 88.4663 46.3631C87.8065 45.6938 87.4766 44.8189 87.4766 43.7384C87.4766 42.7057 87.8208 41.8595 88.5093 41.1997C89.2073 40.5304 90.0392 40.1957 91.0049 40.1957C91.875 40.1957 92.5491 40.3965 93.0272 40.7981C93.5053 41.1997 93.7443 41.6539 93.7443 42.1607C93.7443 42.5623 93.5579 42.8587 93.185 43.0499L90.3308 44.6563C90.7228 45.2778 91.2679 45.5886 91.9659 45.5886C92.2623 45.5886 92.5396 45.5312 92.7977 45.4165C93.0655 45.2922 93.2663 45.1392 93.4001 44.9575ZM90.7467 40.8985C90.4599 40.8985 90.2256 41.042 90.0439 41.3288C89.8718 41.6157 89.7858 41.9742 89.7858 42.4045C89.7858 42.9782 89.8575 43.4802 90.0009 43.9105L91.3348 43.1073C91.5834 42.9352 91.7077 42.6914 91.7077 42.3758C91.7077 42.0603 91.6264 41.7352 91.4639 41.4005C91.3109 41.0659 91.0718 40.8985 90.7467 40.8985ZM101.35 45.6603C101.378 45.8898 101.431 46.0762 101.507 46.2196C101.593 46.3535 101.675 46.4396 101.751 46.4778C101.837 46.5161 101.914 46.5639 101.981 46.6212C102.048 46.6786 102.081 46.7503 102.081 46.8364C102.081 47.1519 101.541 47.3097 100.46 47.3097C100.021 47.3097 99.6907 47.2571 99.4708 47.1519C99.2604 47.0467 99.1265 46.8698 99.0692 46.6212C98.7058 47.1185 98.0986 47.3671 97.2476 47.3671C96.4445 47.3671 95.7895 47.1806 95.2827 46.8077C94.7855 46.4348 94.5369 45.8945 94.5369 45.187C94.5369 44.4985 94.7855 43.9631 95.2827 43.5806C95.7799 43.1886 96.3919 42.9926 97.1186 42.9926C97.6827 42.9926 98.1656 43.1121 98.5672 43.3511V43.3081C98.4715 42.3615 98.3616 41.7208 98.2373 41.3862C98.1225 41.0515 97.8931 40.8842 97.5488 40.8842C97.3289 40.8842 97.152 40.9846 97.0182 41.1854C96.8843 41.3862 96.7839 41.6061 96.717 41.8451C96.6596 42.0842 96.5449 42.3041 96.3727 42.5049C96.2006 42.7057 95.9711 42.8061 95.6843 42.8061C95.3879 42.8061 95.1441 42.72 94.9528 42.5479C94.7711 42.3758 94.6803 42.1511 94.6803 41.8738C94.6803 41.3193 94.9576 40.9033 95.5122 40.626C96.0668 40.3392 96.7457 40.1957 97.5488 40.1957C98.505 40.1957 99.2939 40.4587 99.9154 40.9846C100.546 41.5009 100.919 42.2037 101.034 43.093L101.35 45.6603ZM98.0365 46.6356C98.2564 46.6356 98.4333 46.5304 98.5672 46.32C98.7106 46.1097 98.7823 45.8706 98.7823 45.6029L98.7249 44.9432C98.6293 44.1495 98.3329 43.7527 97.8357 43.7527C97.6158 43.7527 97.4389 43.8436 97.305 44.0252C97.1711 44.1973 97.1042 44.4316 97.1042 44.728C97.1042 45.2635 97.1855 45.7177 97.348 46.0906C97.5202 46.4539 97.7496 46.6356 98.0365 46.6356ZM105.322 47.3671C104.595 47.3671 104.021 47.1376 103.601 46.6786C103.189 46.2196 102.984 45.5647 102.984 44.7137V41.3145H102.439C102.343 41.3145 102.262 41.2858 102.195 41.2284C102.138 41.1615 102.109 41.0802 102.109 40.9846V40.6691C102.109 40.4491 102.219 40.3392 102.439 40.3392H102.711C103.151 40.3392 103.529 40.2101 103.844 39.9519C104.16 39.6842 104.366 39.3304 104.461 38.8906C104.509 38.642 104.638 38.5177 104.848 38.5177H105.178C105.437 38.5177 105.566 38.642 105.566 38.8906V40.3392H107.043C107.138 40.3392 107.215 40.3726 107.272 40.4396C107.339 40.4969 107.373 40.5734 107.373 40.6691V40.9846C107.373 41.0802 107.339 41.1615 107.272 41.2284C107.215 41.2858 107.138 41.3145 107.043 41.3145H105.566V44.7567C105.566 44.9957 105.628 45.187 105.752 45.3304C105.876 45.4643 106.029 45.5312 106.211 45.5312C106.622 45.5312 106.938 45.3543 107.158 45.0005C107.225 44.9145 107.301 44.8667 107.387 44.8571C107.473 44.838 107.545 44.8523 107.602 44.9001C107.669 44.9479 107.703 45.0149 107.703 45.1009C107.703 45.7033 107.487 46.234 107.057 46.693C106.637 47.1424 106.058 47.3671 105.322 47.3671ZM113.948 44.9575C114.053 44.8523 114.168 44.8236 114.292 44.8714C114.426 44.9097 114.488 45.0053 114.478 45.1583C114.459 45.6364 114.182 46.124 113.646 46.6212C113.111 47.1185 112.418 47.3671 111.567 47.3671C110.525 47.3671 109.674 47.0324 109.014 46.3631C108.354 45.6938 108.024 44.8189 108.024 43.7384C108.024 42.7057 108.368 41.8595 109.057 41.1997C109.755 40.5304 110.587 40.1957 111.552 40.1957C112.423 40.1957 113.097 40.3965 113.575 40.7981C114.053 41.1997 114.292 41.6539 114.292 42.1607C114.292 42.5623 114.105 42.8587 113.732 43.0499L110.878 44.6563C111.27 45.2778 111.815 45.5886 112.513 45.5886C112.81 45.5886 113.087 45.5312 113.345 45.4165C113.613 45.2922 113.814 45.1392 113.948 44.9575ZM111.294 40.8985C111.007 40.8985 110.773 41.042 110.591 41.3288C110.419 41.6157 110.333 41.9742 110.333 42.4045C110.333 42.9782 110.405 43.4802 110.548 43.9105L111.882 43.1073C112.131 42.9352 112.255 42.6914 112.255 42.3758C112.255 42.0603 112.174 41.7352 112.011 41.4005C111.858 41.0659 111.619 40.8985 111.294 40.8985ZM126.488 45.6603C126.593 45.9185 126.755 46.1575 126.975 46.3774C127.205 46.5878 127.32 46.7599 127.32 46.8938V46.9511C127.32 47.1328 127.205 47.2236 126.975 47.2236H123.261C123.041 47.2236 122.931 47.1328 122.931 46.9511V46.8938C122.931 46.7886 122.998 46.6786 123.131 46.5639C123.275 46.4396 123.394 46.3057 123.49 46.1623C123.595 46.0189 123.614 45.8515 123.547 45.6603L123.232 44.771H119.589L119.273 45.6603C119.206 45.8515 119.221 46.0189 119.316 46.1623C119.422 46.3057 119.541 46.4396 119.675 46.5639C119.818 46.6786 119.89 46.7886 119.89 46.8938V46.9511C119.89 47.1328 119.775 47.2236 119.546 47.2236H117.423C117.194 47.2236 117.079 47.1328 117.079 46.9511V46.8938C117.079 46.7694 117.189 46.5973 117.409 46.3774C117.638 46.1575 117.806 45.9185 117.911 45.6603L120.593 38.7185C120.66 38.5559 120.645 38.3886 120.55 38.2165C120.464 38.0444 120.359 37.8818 120.234 37.7288C120.12 37.5758 120.062 37.4563 120.062 37.3702V37.3129C120.062 37.1312 120.172 37.0404 120.392 37.0404H122.228C122.696 37.0404 123.026 37.2698 123.218 37.7288L126.488 45.6603ZM119.976 43.6953H122.845L121.41 39.6938L119.976 43.6953ZM130.941 47.3671C129.851 47.3671 128.957 47.0133 128.259 46.3057C127.561 45.5886 127.212 44.7424 127.212 43.7671C127.212 42.6866 127.566 41.826 128.273 41.1854C128.981 40.5352 129.841 40.2053 130.855 40.1957C131.706 40.1862 132.428 40.3822 133.021 40.7838C133.614 41.1758 133.91 41.6874 133.91 42.3185C133.91 42.5575 133.824 42.7583 133.652 42.9208C133.489 43.0834 133.226 43.1599 132.863 43.1503C132.538 43.1312 132.256 43.0021 132.017 42.7631C131.787 42.524 131.62 42.2659 131.515 41.9886C131.41 41.7113 131.266 41.4627 131.084 41.2428C130.903 41.0133 130.697 40.8985 130.468 40.8985C130.171 40.9081 129.928 41.0659 129.736 41.3718C129.555 41.6778 129.464 42.0555 129.464 42.5049C129.464 43.442 129.674 44.1926 130.095 44.7567C130.525 45.3208 131.094 45.6029 131.802 45.6029C132.442 45.6029 132.973 45.3256 133.394 44.771C133.489 44.6563 133.604 44.6181 133.738 44.6563C133.872 44.685 133.939 44.7758 133.939 44.9288C133.92 45.5981 133.647 46.1718 133.121 46.6499C132.595 47.128 131.869 47.3671 130.941 47.3671ZM138.224 47.3671C137.134 47.3671 136.24 47.0133 135.542 46.3057C134.844 45.5886 134.495 44.7424 134.495 43.7671C134.495 42.6866 134.849 41.826 135.557 41.1854C136.264 40.5352 137.125 40.2053 138.138 40.1957C138.989 40.1862 139.711 40.3822 140.304 40.7838C140.897 41.1758 141.193 41.6874 141.193 42.3185C141.193 42.5575 141.107 42.7583 140.935 42.9208C140.773 43.0834 140.51 43.1599 140.146 43.1503C139.821 43.1312 139.539 43.0021 139.3 42.7631C139.071 42.524 138.903 42.2659 138.798 41.9886C138.693 41.7113 138.55 41.4627 138.368 41.2428C138.186 41.0133 137.981 40.8985 137.751 40.8985C137.455 40.9081 137.211 41.0659 137.02 41.3718C136.838 41.6778 136.747 42.0555 136.747 42.5049C136.747 43.442 136.957 44.1926 137.378 44.7567C137.808 45.3208 138.377 45.6029 139.085 45.6029C139.726 45.6029 140.256 45.3256 140.677 44.771C140.773 44.6563 140.887 44.6181 141.021 44.6563C141.155 44.685 141.222 44.7758 141.222 44.9288C141.203 45.5981 140.93 46.1718 140.405 46.6499C139.879 47.128 139.152 47.3671 138.224 47.3671ZM145.78 47.3671C144.671 47.3671 143.729 47.0276 142.955 46.3487C142.19 45.6603 141.807 44.7997 141.807 43.7671C141.807 42.7344 142.19 41.8834 142.955 41.2141C143.72 40.5352 144.628 40.1957 145.68 40.1957C146.77 40.1957 147.697 40.5352 148.462 41.2141C149.227 41.893 149.61 42.7535 149.61 43.7957C149.61 44.8284 149.237 45.6842 148.491 46.3631C147.745 47.0324 146.842 47.3671 145.78 47.3671ZM146.081 46.6643C146.693 46.6643 146.999 46.0762 146.999 44.9001C146.999 44.4698 146.937 43.9583 146.813 43.3655C146.698 42.7726 146.497 42.2133 146.211 41.6874C145.933 41.1615 145.623 40.8985 145.278 40.8985C144.944 40.8985 144.705 41.0467 144.561 41.3432C144.418 41.6396 144.346 42.089 144.346 42.6914C144.346 43.0069 144.384 43.3798 144.461 43.8101C144.537 44.2404 144.642 44.6754 144.776 45.1153C144.91 45.5455 145.092 45.9137 145.321 46.2196C145.56 46.5161 145.814 46.6643 146.081 46.6643ZM157.612 45.6459C157.612 45.9041 157.64 46.1001 157.698 46.234C157.765 46.3679 157.836 46.4443 157.913 46.4635C157.999 46.473 158.071 46.5065 158.128 46.5639C158.195 46.6212 158.228 46.7121 158.228 46.8364C158.228 47.0181 158.104 47.1424 157.856 47.2093C157.617 47.2762 157.248 47.3097 156.751 47.3097C156.302 47.3097 155.972 47.2475 155.762 47.1232C155.561 46.9989 155.441 46.7838 155.403 46.4778C155.021 47.0706 154.346 47.3671 153.381 47.3671C152.616 47.3671 151.975 47.1185 151.459 46.6212C150.952 46.1145 150.699 45.4212 150.699 44.5416V42.1463C150.699 41.8977 150.603 41.6587 150.412 41.4292C150.221 41.1997 150.125 41.0372 150.125 40.9416V40.8842C150.125 40.693 150.235 40.583 150.455 40.5543L152.592 40.2675C153.041 40.2101 153.266 40.3057 153.266 40.5543L153.223 44.7997C153.213 45.3734 153.28 45.7894 153.424 46.0475C153.577 46.2961 153.816 46.4204 154.141 46.4204C154.409 46.4204 154.633 46.2914 154.815 46.0332C154.997 45.7655 155.087 45.4165 155.087 44.9862V42.1463C155.087 41.8977 154.992 41.6587 154.801 41.4292C154.609 41.1997 154.514 41.0372 154.514 40.9416V40.8842C154.514 40.693 154.624 40.583 154.844 40.5543L156.981 40.2675C157.401 40.2101 157.612 40.3057 157.612 40.5543V45.6459ZM166.615 45.6603C166.634 45.8993 166.725 46.1384 166.887 46.3774C167.05 46.6069 167.131 46.7838 167.131 46.9081V46.9655C167.131 47.1471 167.016 47.238 166.787 47.238H163.918C163.689 47.238 163.574 47.1471 163.574 46.9655V46.9081C163.574 46.7934 163.665 46.6165 163.847 46.3774C164.028 46.1384 164.109 45.8993 164.09 45.6603L163.947 43.093C163.909 42.3854 163.813 41.8834 163.66 41.587C163.517 41.2906 163.282 41.1424 162.957 41.1424C162.651 41.1424 162.417 41.2667 162.254 41.5153C162.101 41.7639 162.025 42.1033 162.025 42.5336V45.6603C162.025 45.8993 162.13 46.1384 162.341 46.3774C162.551 46.6165 162.656 46.7934 162.656 46.9081V46.9655C162.656 47.1471 162.541 47.238 162.312 47.238H159.214C158.984 47.238 158.87 47.1471 158.87 46.9655V46.9081C158.87 46.7934 158.975 46.6165 159.185 46.3774C159.396 46.1384 159.501 45.8993 159.501 45.6603V42.8348C159.501 42.634 159.439 42.4667 159.314 42.3328C159.19 42.1894 159.061 42.0698 158.927 41.9742C158.803 41.8691 158.741 41.7591 158.741 41.6443V41.6013C158.741 41.477 158.855 41.3575 159.085 41.2428L161.093 40.2531C161.274 40.1766 161.408 40.1766 161.494 40.2531C161.59 40.32 161.638 40.4348 161.638 40.5973V41.2714C162.039 40.5543 162.723 40.1957 163.689 40.1957C164.406 40.1957 165.023 40.43 165.539 40.8985C166.055 41.3671 166.352 42.1272 166.428 43.179L166.615 45.6603ZM170.62 47.3671C169.893 47.3671 169.32 47.1376 168.899 46.6786C168.488 46.2196 168.282 45.5647 168.282 44.7137V41.3145H167.737C167.641 41.3145 167.56 41.2858 167.493 41.2284C167.436 41.1615 167.407 41.0802 167.407 40.9846V40.6691C167.407 40.4491 167.517 40.3392 167.737 40.3392H168.01C168.449 40.3392 168.827 40.2101 169.143 39.9519C169.458 39.6842 169.664 39.3304 169.759 38.8906C169.807 38.642 169.936 38.5177 170.147 38.5177H170.477C170.735 38.5177 170.864 38.642 170.864 38.8906V40.3392H172.341C172.437 40.3392 172.513 40.3726 172.571 40.4396C172.637 40.4969 172.671 40.5734 172.671 40.6691V40.9846C172.671 41.0802 172.637 41.1615 172.571 41.2284C172.513 41.2858 172.437 41.3145 172.341 41.3145H170.864V44.7567C170.864 44.9957 170.926 45.187 171.05 45.3304C171.175 45.4643 171.328 45.5312 171.509 45.5312C171.92 45.5312 172.236 45.3543 172.456 45.0005C172.523 44.9145 172.599 44.8667 172.685 44.8571C172.771 44.838 172.843 44.8523 172.9 44.9001C172.967 44.9479 173.001 45.0149 173.001 45.1009C173.001 45.7033 172.786 46.234 172.355 46.693C171.935 47.1424 171.356 47.3671 170.62 47.3671Z" fill="#001540"/>
<path d="M75.6308 78.7743C74.5525 78.7743 73.6452 78.4173 72.9089 77.7034C72.1726 76.982 71.8045 76.0524 71.8045 74.9145C71.8045 73.7767 72.1726 72.8508 72.9089 72.1368C73.6452 71.4229 74.5525 71.0659 75.6308 71.0659C76.8058 71.0659 77.7689 71.5307 78.5201 72.4603L77.7838 72.9177C77.5458 72.6054 77.2335 72.3562 76.8468 72.1703C76.4675 71.9844 76.0622 71.8914 75.6308 71.8914C74.8128 71.8914 74.1286 72.1777 73.5782 72.7504C73.0353 73.3156 72.7639 74.037 72.7639 74.9145C72.7639 75.7921 73.0353 76.5172 73.5782 77.0898C74.1286 77.6625 74.8128 77.9488 75.6308 77.9488C76.0398 77.9488 76.4191 77.8707 76.7687 77.7145C77.1256 77.5509 77.412 77.3613 77.6276 77.1456V75.6285H75.073V74.803H78.5535V77.4914C77.7875 78.3467 76.8133 78.7743 75.6308 78.7743ZM82.4567 78.7631C81.6535 78.7631 80.9953 78.5028 80.4822 77.9823C79.969 77.4542 79.7125 76.77 79.7125 75.9297C79.7125 75.1414 79.9653 74.4758 80.471 73.9329C80.9767 73.3825 81.6089 73.1074 82.3674 73.1074C83.1632 73.1074 83.7916 73.3825 84.2527 73.9329C84.7212 74.4758 84.9555 75.1637 84.9555 75.9966V76.2086H80.5937C80.6309 76.7366 80.8243 77.1791 81.1738 77.536C81.5234 77.893 81.977 78.0715 82.5348 78.0715C83.2041 78.0715 83.7581 77.8447 84.1969 77.391L84.5985 77.9376C84.0482 78.488 83.3342 78.7631 82.4567 78.7631ZM84.13 75.595C84.1226 75.1339 83.9664 74.7212 83.6615 74.3568C83.3566 73.9849 82.9215 73.799 82.3563 73.799C81.8208 73.799 81.3969 73.9812 81.0846 74.3456C80.7797 74.71 80.616 75.1265 80.5937 75.595H84.13ZM87.6716 78.7631C87.2774 78.7631 86.9799 78.6553 86.7791 78.4396C86.5783 78.224 86.4779 77.9116 86.4779 77.5026V73.9775H85.5855V73.2412H86.4779V71.7687H87.3146V73.2412H88.4078V73.9775H87.3146V77.3241C87.3146 77.5323 87.3592 77.6997 87.4485 77.8261C87.5451 77.9525 87.6827 78.0157 87.8612 78.0157C88.1066 78.0157 88.2963 77.9414 88.4301 77.7926L88.6755 78.4173C88.4301 78.6479 88.0955 78.7631 87.6716 78.7631ZM94.1724 78.7631C93.2577 78.7631 92.5326 78.4805 91.9971 77.9153L92.4322 77.3129C92.6181 77.5286 92.871 77.7108 93.1908 77.8596C93.518 78.0083 93.8564 78.0827 94.2059 78.0827C94.6075 78.0827 94.9199 77.9971 95.143 77.8261C95.3661 77.655 95.4776 77.4319 95.4776 77.1568C95.4776 76.9188 95.3624 76.7329 95.1318 76.599C94.9013 76.4577 94.6224 76.3536 94.2952 76.2866C93.9754 76.2123 93.6519 76.1305 93.3246 76.0412C92.9974 75.9445 92.7185 75.7847 92.488 75.5615C92.2574 75.331 92.1422 75.0298 92.1422 74.658C92.1422 74.2192 92.3207 73.8511 92.6776 73.5536C93.042 73.2561 93.5329 73.1074 94.1501 73.1074C94.9608 73.1074 95.6264 73.3677 96.1469 73.8882L95.7565 74.4683C95.3772 74.0147 94.8418 73.7878 94.1501 73.7878C93.7857 73.7878 93.4957 73.8696 93.28 74.0333C93.0643 74.1894 92.9565 74.3902 92.9565 74.6356C92.9565 74.8513 93.0718 75.0224 93.3023 75.1488C93.5329 75.2678 93.808 75.3645 94.1278 75.4388C94.455 75.5058 94.7823 75.5876 95.1095 75.6843C95.4367 75.7809 95.7156 75.952 95.9462 76.1974C96.1767 76.4354 96.292 76.7477 96.292 77.1345C96.292 77.6104 96.106 78.0009 95.7342 78.3058C95.3624 78.6107 94.8418 78.7631 94.1724 78.7631ZM99.0121 78.7631C98.618 78.7631 98.3205 78.6553 98.1197 78.4396C97.9189 78.224 97.8185 77.9116 97.8185 77.5026V73.9775H96.9261V73.2412H97.8185V71.7687H98.6552V73.2412H99.7484V73.9775H98.6552V77.3241C98.6552 77.5323 98.6998 77.6997 98.789 77.8261C98.8857 77.9525 99.0233 78.0157 99.2018 78.0157C99.4472 78.0157 99.6368 77.9414 99.7707 77.7926L100.016 78.4173C99.7707 78.6479 99.436 78.7631 99.0121 78.7631ZM105.136 78.6293H104.299V78.0157C103.846 78.514 103.251 78.7631 102.514 78.7631C102.016 78.7631 101.577 78.6032 101.198 78.2835C100.819 77.9637 100.629 77.5286 100.629 76.9783C100.629 76.4131 100.815 75.978 101.187 75.6731C101.566 75.3607 102.009 75.2046 102.514 75.2046C103.28 75.2046 103.875 75.45 104.299 75.9408V74.9703C104.299 74.6133 104.173 74.3345 103.92 74.1337C103.667 73.9329 103.34 73.8325 102.938 73.8325C102.306 73.8325 101.756 74.0816 101.287 74.5799L100.897 73.9998C101.469 73.4048 102.187 73.1074 103.05 73.1074C103.667 73.1074 104.169 73.2561 104.556 73.5536C104.942 73.8511 105.136 74.3084 105.136 74.9257V78.6293ZM102.816 78.1607C103.485 78.1607 103.979 77.9376 104.299 77.4914V76.4763C103.979 76.0301 103.485 75.807 102.816 75.807C102.429 75.807 102.109 75.9185 101.856 76.1416C101.611 76.3573 101.488 76.6399 101.488 76.9894C101.488 77.3315 101.611 77.6141 101.856 77.8372C102.109 78.0529 102.429 78.1607 102.816 78.1607ZM107.65 78.6293H106.813V73.2412H107.65V74.1113C108.148 73.4569 108.747 73.1297 109.446 73.1297V73.9886C109.342 73.9663 109.23 73.9552 109.111 73.9552C108.858 73.9552 108.583 74.0444 108.285 74.2229C107.988 74.4014 107.776 74.5985 107.65 74.8141V78.6293ZM111.856 78.7631C111.462 78.7631 111.164 78.6553 110.964 78.4396C110.763 78.224 110.662 77.9116 110.662 77.5026V73.9775H109.77V73.2412H110.662V71.7687H111.499V73.2412H112.592V73.9775H111.499V77.3241C111.499 77.5323 111.544 77.6997 111.633 77.8261C111.73 77.9525 111.867 78.0157 112.046 78.0157C112.291 78.0157 112.481 77.9414 112.615 77.7926L112.86 78.4173C112.615 78.6479 112.28 78.7631 111.856 78.7631ZM116.206 78.7631C115.403 78.7631 114.745 78.5028 114.232 77.9823C113.718 77.4542 113.462 76.77 113.462 75.9297C113.462 75.1414 113.715 74.4758 114.22 73.9329C114.726 73.3825 115.358 73.1074 116.117 73.1074C116.913 73.1074 117.541 73.3825 118.002 73.9329C118.471 74.4758 118.705 75.1637 118.705 75.9966V76.2086H114.343C114.38 76.7366 114.574 77.1791 114.923 77.536C115.273 77.893 115.726 78.0715 116.284 78.0715C116.953 78.0715 117.508 77.8447 117.946 77.391L118.348 77.9376C117.798 78.488 117.084 78.7631 116.206 78.7631ZM117.879 75.595C117.872 75.1339 117.716 74.7212 117.411 74.3568C117.106 73.9849 116.671 73.799 116.106 73.799C115.57 73.799 115.146 73.9812 114.834 74.3456C114.529 74.71 114.365 75.1265 114.343 75.595H117.879ZM124.801 78.6293H123.964V77.8261C123.503 78.4508 122.897 78.7631 122.146 78.7631C121.432 78.7631 120.852 78.5103 120.406 78.0046C119.967 77.4914 119.748 76.8035 119.748 75.9408C119.748 75.0856 119.967 74.4014 120.406 73.8882C120.852 73.3677 121.432 73.1074 122.146 73.1074C122.89 73.1074 123.496 73.4234 123.964 74.0556V71.1886H124.801V78.6293ZM122.347 78.0157C122.674 78.0157 122.986 77.9339 123.284 77.7703C123.581 77.6067 123.808 77.4059 123.964 77.1679V74.7249C123.808 74.4795 123.578 74.275 123.273 74.1113C122.975 73.9403 122.667 73.8548 122.347 73.8548C121.819 73.8548 121.399 74.0518 121.086 74.446C120.774 74.8327 120.618 75.331 120.618 75.9408C120.618 76.5507 120.774 77.0489 121.086 77.4356C121.399 77.8224 121.819 78.0157 122.347 78.0157ZM130.189 77.1679C130.338 77.4059 130.561 77.6067 130.858 77.7703C131.163 77.9339 131.476 78.0157 131.796 78.0157C132.331 78.0157 132.755 77.8224 133.067 77.4356C133.38 77.0489 133.536 76.5507 133.536 75.9408C133.536 75.331 133.38 74.8327 133.067 74.446C132.755 74.0518 132.331 73.8548 131.796 73.8548C131.476 73.8548 131.163 73.9403 130.858 74.1113C130.561 74.275 130.338 74.4795 130.189 74.7249V77.1679ZM130.189 78.6293H129.353V71.1886H130.189V74.0556C130.658 73.4234 131.264 73.1074 132.007 73.1074C132.714 73.1074 133.29 73.3677 133.737 73.8882C134.183 74.4014 134.406 75.0856 134.406 75.9408C134.406 76.8035 134.183 77.4914 133.737 78.0046C133.298 78.5103 132.721 78.7631 132.007 78.7631C131.256 78.7631 130.65 78.4508 130.189 77.8261V78.6293ZM135.468 80.7376L135.602 79.9791C135.736 80.0386 135.888 80.0683 136.059 80.0683C136.252 80.0683 136.412 80.0274 136.539 79.9456C136.665 79.8638 136.773 79.7151 136.862 79.4994L137.219 78.685L134.966 73.2412H135.869L137.665 77.6588L139.45 73.2412H140.365L137.665 79.7225C137.368 80.4364 136.84 80.8009 136.081 80.8157C135.858 80.8157 135.654 80.7897 135.468 80.7376ZM146.49 78.7631C145.694 78.7631 145.047 78.4954 144.549 77.9599C144.051 77.4171 143.801 76.7403 143.801 75.9297C143.801 75.119 144.051 74.446 144.549 73.9105C145.047 73.3751 145.694 73.1074 146.49 73.1074C147.323 73.1074 147.981 73.4197 148.464 74.0444L147.907 74.5576C147.564 74.089 147.107 73.8548 146.534 73.8548C145.969 73.8548 145.516 74.0481 145.174 74.4349C144.839 74.8216 144.672 75.3198 144.672 75.9297C144.672 76.5395 144.839 77.0415 145.174 77.4356C145.516 77.8224 145.969 78.0157 146.534 78.0157C147.1 78.0157 147.557 77.7815 147.907 77.3129L148.464 77.8261C147.981 78.4508 147.323 78.7631 146.49 78.7631ZM150.474 78.6293H149.637V73.2412H150.474V74.1113C150.972 73.4569 151.571 73.1297 152.27 73.1297V73.9886C152.166 73.9663 152.054 73.9552 151.935 73.9552C151.682 73.9552 151.407 74.0444 151.11 74.2229C150.812 74.4014 150.6 74.5985 150.474 74.8141V78.6293ZM155.751 78.7631C154.948 78.7631 154.29 78.5028 153.777 77.9823C153.263 77.4542 153.007 76.77 153.007 75.9297C153.007 75.1414 153.26 74.4758 153.765 73.9329C154.271 73.3825 154.903 73.1074 155.662 73.1074C156.458 73.1074 157.086 73.3825 157.547 73.9329C158.016 74.4758 158.25 75.1637 158.25 75.9966V76.2086H153.888C153.925 76.7366 154.119 77.1791 154.468 77.536C154.818 77.893 155.271 78.0715 155.829 78.0715C156.498 78.0715 157.052 77.8447 157.491 77.391L157.893 77.9376C157.343 78.488 156.629 78.7631 155.751 78.7631ZM157.424 75.595C157.417 75.1339 157.261 74.7212 156.956 74.3568C156.651 73.9849 156.216 73.799 155.651 73.799C155.115 73.799 154.691 73.9812 154.379 74.3456C154.074 74.71 153.91 75.1265 153.888 75.595H157.424ZM163.811 78.6293H162.974V78.0157C162.52 78.514 161.925 78.7631 161.189 78.7631C160.691 78.7631 160.252 78.6032 159.873 78.2835C159.493 77.9637 159.304 77.5286 159.304 76.9783C159.304 76.4131 159.49 75.978 159.862 75.6731C160.241 75.3607 160.683 75.2046 161.189 75.2046C161.955 75.2046 162.55 75.45 162.974 75.9408V74.9703C162.974 74.6133 162.847 74.3345 162.595 74.1337C162.342 73.9329 162.014 73.8325 161.613 73.8325C160.981 73.8325 160.43 74.0816 159.962 74.5799L159.571 73.9998C160.144 73.4048 160.862 73.1074 161.724 73.1074C162.342 73.1074 162.844 73.2561 163.23 73.5536C163.617 73.8511 163.811 74.3084 163.811 74.9257V78.6293ZM161.49 78.1607C162.16 78.1607 162.654 77.9376 162.974 77.4914V76.4763C162.654 76.0301 162.16 75.807 161.49 75.807C161.103 75.807 160.784 75.9185 160.531 76.1416C160.285 76.3573 160.163 76.6399 160.163 76.9894C160.163 77.3315 160.285 77.6141 160.531 77.8372C160.784 78.0529 161.103 78.1607 161.49 78.1607ZM166.849 78.7631C166.454 78.7631 166.157 78.6553 165.956 78.4396C165.755 78.224 165.655 77.9116 165.655 77.5026V73.9775H164.763V73.2412H165.655V71.7687H166.492V73.2412H167.585V73.9775H166.492V77.3241C166.492 77.5323 166.536 77.6997 166.625 77.8261C166.722 77.9525 166.86 78.0157 167.038 78.0157C167.284 78.0157 167.473 77.9414 167.607 77.7926L167.853 78.4173C167.607 78.6479 167.273 78.7631 166.849 78.7631ZM169.179 72.4715C169.031 72.4715 168.901 72.4194 168.789 72.3153C168.677 72.2038 168.622 72.0699 168.622 71.9137C168.622 71.7576 168.677 71.6237 168.789 71.5121C168.901 71.4006 169.031 71.3448 169.179 71.3448C169.336 71.3448 169.47 71.4006 169.581 71.5121C169.693 71.6237 169.748 71.7576 169.748 71.9137C169.748 72.0699 169.693 72.2038 169.581 72.3153C169.47 72.4194 169.336 72.4715 169.179 72.4715ZM169.603 78.6293H168.767V73.2412H169.603V78.6293ZM175.746 78.6293H174.909V75.1042C174.909 74.6505 174.805 74.3307 174.597 74.1448C174.388 73.9515 174.091 73.8548 173.704 73.8548C173.392 73.8548 173.087 73.9366 172.789 74.1002C172.499 74.2638 172.273 74.4609 172.109 74.6914V78.6293H171.272V73.2412H172.109V74.0221C172.317 73.7767 172.596 73.5647 172.946 73.3862C173.295 73.2003 173.656 73.1074 174.028 73.1074C175.173 73.1074 175.746 73.6874 175.746 74.8476V78.6293ZM179.581 80.8157C179.105 80.8157 178.699 80.7562 178.365 80.6372C178.03 80.5257 177.71 80.3175 177.405 80.0125L177.829 79.3878C178.238 79.8787 178.822 80.1241 179.581 80.1241C180.079 80.1241 180.492 79.9902 180.819 79.7225C181.146 79.4622 181.31 79.0569 181.31 78.5066V77.7368C181.109 78.0194 180.849 78.25 180.529 78.4285C180.209 78.607 179.867 78.6962 179.503 78.6962C178.789 78.6962 178.209 78.4471 177.762 77.9488C177.324 77.4431 177.104 76.7626 177.104 75.9074C177.104 75.0521 177.324 74.3716 177.762 73.8659C178.209 73.3602 178.789 73.1074 179.503 73.1074C180.239 73.1074 180.841 73.4234 181.31 74.0556V73.2412H182.146V78.4731C182.146 79.2986 181.905 79.8935 181.421 80.258C180.938 80.6298 180.324 80.8157 179.581 80.8157ZM179.703 77.9599C180.023 77.9599 180.332 77.8744 180.629 77.7034C180.934 77.5323 181.161 77.3241 181.31 77.0787V74.7249C181.161 74.4795 180.938 74.275 180.64 74.1113C180.343 73.9403 180.031 73.8548 179.703 73.8548C179.168 73.8548 178.744 74.0444 178.432 74.4237C178.127 74.803 177.974 75.2975 177.974 75.9074C177.974 76.5098 178.13 77.0043 178.443 77.391C178.755 77.7703 179.175 77.9599 179.703 77.9599ZM190.904 78.6293H190.067V78.0157C189.613 78.514 189.018 78.7631 188.282 78.7631C187.784 78.7631 187.345 78.6032 186.966 78.2835C186.587 77.9637 186.397 77.5286 186.397 76.9783C186.397 76.4131 186.583 75.978 186.955 75.6731C187.334 75.3607 187.776 75.2046 188.282 75.2046C189.048 75.2046 189.643 75.45 190.067 75.9408V74.9703C190.067 74.6133 189.941 74.3345 189.688 74.1337C189.435 73.9329 189.108 73.8325 188.706 73.8325C188.074 73.8325 187.524 74.0816 187.055 74.5799L186.665 73.9998C187.237 73.4048 187.955 73.1074 188.818 73.1074C189.435 73.1074 189.937 73.2561 190.324 73.5536C190.71 73.8511 190.904 74.3084 190.904 74.9257V78.6293ZM188.583 78.1607C189.253 78.1607 189.747 77.9376 190.067 77.4914V76.4763C189.747 76.0301 189.253 75.807 188.583 75.807C188.197 75.807 187.877 75.9185 187.624 76.1416C187.379 76.3573 187.256 76.6399 187.256 76.9894C187.256 77.3315 187.379 77.6141 187.624 77.8372C187.877 78.0529 188.197 78.1607 188.583 78.1607ZM197.054 78.6293H196.217V75.1042C196.217 74.6505 196.113 74.3307 195.905 74.1448C195.697 73.9515 195.399 73.8548 195.013 73.8548C194.7 73.8548 194.395 73.9366 194.098 74.1002C193.808 74.2638 193.581 74.4609 193.417 74.6914V78.6293H192.581V73.2412H193.417V74.0221C193.626 73.7767 193.905 73.5647 194.254 73.3862C194.604 73.2003 194.964 73.1074 195.336 73.1074C196.482 73.1074 197.054 73.6874 197.054 74.8476V78.6293ZM205.807 78.6293H204.97V78.0157C204.516 78.514 203.921 78.7631 203.185 78.7631C202.687 78.7631 202.248 78.6032 201.869 78.2835C201.489 77.9637 201.3 77.5286 201.3 76.9783C201.3 76.4131 201.486 75.978 201.858 75.6731C202.237 75.3607 202.679 75.2046 203.185 75.2046C203.951 75.2046 204.546 75.45 204.97 75.9408V74.9703C204.97 74.6133 204.844 74.3345 204.591 74.1337C204.338 73.9329 204.011 73.8325 203.609 73.8325C202.977 73.8325 202.427 74.0816 201.958 74.5799L201.568 73.9998C202.14 73.4048 202.858 73.1074 203.721 73.1074C204.338 73.1074 204.84 73.2561 205.227 73.5536C205.613 73.8511 205.807 74.3084 205.807 74.9257V78.6293ZM203.486 78.1607C204.156 78.1607 204.65 77.9376 204.97 77.4914V76.4763C204.65 76.0301 204.156 75.807 203.486 75.807C203.1 75.807 202.78 75.9185 202.527 76.1416C202.281 76.3573 202.159 76.6399 202.159 76.9894C202.159 77.3315 202.281 77.6141 202.527 77.8372C202.78 78.0529 203.1 78.1607 203.486 78.1607ZM209.86 78.7631C209.064 78.7631 208.417 78.4954 207.919 77.9599C207.421 77.4171 207.171 76.7403 207.171 75.9297C207.171 75.119 207.421 74.446 207.919 73.9105C208.417 73.3751 209.064 73.1074 209.86 73.1074C210.693 73.1074 211.351 73.4197 211.834 74.0444L211.277 74.5576C210.934 74.089 210.477 73.8548 209.904 73.8548C209.339 73.8548 208.886 74.0481 208.543 74.4349C208.209 74.8216 208.042 75.3198 208.042 75.9297C208.042 76.5395 208.209 77.0415 208.543 77.4356C208.886 77.8224 209.339 78.0157 209.904 78.0157C210.47 78.0157 210.927 77.7815 211.277 77.3129L211.834 77.8261C211.351 78.4508 210.693 78.7631 209.86 78.7631ZM215.383 78.7631C214.587 78.7631 213.94 78.4954 213.442 77.9599C212.944 77.4171 212.695 76.7403 212.695 75.9297C212.695 75.119 212.944 74.446 213.442 73.9105C213.94 73.3751 214.587 73.1074 215.383 73.1074C216.216 73.1074 216.874 73.4197 217.358 74.0444L216.8 74.5576C216.458 74.089 216 73.8548 215.428 73.8548C214.862 73.8548 214.409 74.0481 214.067 74.4349C213.732 74.8216 213.565 75.3198 213.565 75.9297C213.565 76.5395 213.732 77.0415 214.067 77.4356C214.409 77.8224 214.862 78.0157 215.428 78.0157C215.993 78.0157 216.45 77.7815 216.8 77.3129L217.358 77.8261C216.874 78.4508 216.216 78.7631 215.383 78.7631ZM222.814 77.9488C222.33 78.4917 221.687 78.7631 220.884 78.7631C220.081 78.7631 219.434 78.4917 218.943 77.9488C218.46 77.4059 218.218 76.7329 218.218 75.9297C218.218 75.1265 218.46 74.4572 218.943 73.9217C219.434 73.3788 220.081 73.1074 220.884 73.1074C221.687 73.1074 222.33 73.3788 222.814 73.9217C223.305 74.4572 223.55 75.1265 223.55 75.9297C223.55 76.7329 223.305 77.4059 222.814 77.9488ZM219.568 77.4133C219.895 77.8149 220.334 78.0157 220.884 78.0157C221.434 78.0157 221.869 77.8149 222.189 77.4133C222.509 77.0043 222.669 76.5098 222.669 75.9297C222.669 75.3496 222.509 74.8588 222.189 74.4572C221.869 74.0556 221.434 73.8548 220.884 73.8548C220.334 73.8548 219.895 74.0593 219.568 74.4683C219.248 74.8699 219.088 75.357 219.088 75.9297C219.088 76.5098 219.248 77.0043 219.568 77.4133ZM229.387 78.6293H228.551V77.8707C228.328 78.1236 228.045 78.3355 227.703 78.5066C227.368 78.6776 227.011 78.7631 226.632 78.7631C225.487 78.7631 224.914 78.1905 224.914 77.0452V73.2412H225.751V76.7886C225.751 77.2349 225.851 77.5509 226.052 77.7368C226.26 77.9228 226.561 78.0157 226.955 78.0157C227.268 78.0157 227.569 77.9376 227.859 77.7815C228.156 77.6253 228.387 77.4319 228.551 77.2014V73.2412H229.387V78.6293ZM235.531 78.6293H234.695V75.1042C234.695 74.6505 234.591 74.3307 234.382 74.1448C234.174 73.9515 233.877 73.8548 233.49 73.8548C233.178 73.8548 232.873 73.9366 232.575 74.1002C232.285 74.2638 232.058 74.4609 231.895 74.6914V78.6293H231.058V73.2412H231.895V74.0221C232.103 73.7767 232.382 73.5647 232.731 73.3862C233.081 73.2003 233.442 73.1074 233.814 73.1074C234.959 73.1074 235.531 73.6874 235.531 74.8476V78.6293ZM238.563 78.7631C238.169 78.7631 237.872 78.6553 237.671 78.4396C237.47 78.224 237.37 77.9116 237.37 77.5026V73.9775H236.477V73.2412H237.37V71.7687H238.206V73.2412H239.3V73.9775H238.206V77.3241C238.206 77.5323 238.251 77.6997 238.34 77.8261C238.437 77.9525 238.574 78.0157 238.753 78.0157C238.998 78.0157 239.188 77.9414 239.322 77.7926L239.567 78.4173C239.322 78.6479 238.987 78.7631 238.563 78.7631ZM241.608 78.3615C241.608 78.6888 241.523 79.0011 241.352 79.2986C241.18 79.6035 240.961 79.8526 240.693 80.046L240.281 79.7002C240.467 79.5812 240.626 79.4213 240.76 79.2205C240.902 79.0271 240.983 78.8412 241.006 78.6627C240.976 78.6776 240.924 78.685 240.85 78.685C240.693 78.685 240.563 78.633 240.459 78.5289C240.362 78.4173 240.314 78.2797 240.314 78.1161C240.314 77.9525 240.37 77.8112 240.481 77.6922C240.6 77.5732 240.742 77.5137 240.905 77.5137C241.099 77.5137 241.262 77.5918 241.396 77.748C241.537 77.8967 241.608 78.1013 241.608 78.3615ZM250.134 78.6293H249.297V78.0157C248.844 78.514 248.249 78.7631 247.512 78.7631C247.014 78.7631 246.575 78.6032 246.196 78.2835C245.817 77.9637 245.627 77.5286 245.627 76.9783C245.627 76.4131 245.813 75.978 246.185 75.6731C246.564 75.3607 247.007 75.2046 247.512 75.2046C248.278 75.2046 248.873 75.45 249.297 75.9408V74.9703C249.297 74.6133 249.171 74.3345 248.918 74.1337C248.665 73.9329 248.338 73.8325 247.936 73.8325C247.304 73.8325 246.754 74.0816 246.285 74.5799L245.895 73.9998C246.468 73.4048 247.185 73.1074 248.048 73.1074C248.665 73.1074 249.167 73.2561 249.554 73.5536C249.941 73.8511 250.134 74.3084 250.134 74.9257V78.6293ZM247.814 78.1607C248.483 78.1607 248.978 77.9376 249.297 77.4914V76.4763C248.978 76.0301 248.483 75.807 247.814 75.807C247.427 75.807 247.107 75.9185 246.854 76.1416C246.609 76.3573 246.486 76.6399 246.486 76.9894C246.486 77.3315 246.609 77.6141 246.854 77.8372C247.107 78.0529 247.427 78.1607 247.814 78.1607ZM256.284 78.6293H255.448V75.1042C255.448 74.6505 255.344 74.3307 255.135 74.1448C254.927 73.9515 254.63 73.8548 254.243 73.8548C253.931 73.8548 253.626 73.9366 253.328 74.1002C253.038 74.2638 252.811 74.4609 252.648 74.6914V78.6293H251.811V73.2412H252.648V74.0221C252.856 73.7767 253.135 73.5647 253.484 73.3862C253.834 73.2003 254.195 73.1074 254.566 73.1074C255.712 73.1074 256.284 73.6874 256.284 74.8476V78.6293ZM262.696 78.6293H261.86V77.8261C261.399 78.4508 260.792 78.7631 260.041 78.7631C259.327 78.7631 258.747 78.5103 258.301 78.0046C257.862 77.4914 257.643 76.8035 257.643 75.9408C257.643 75.0856 257.862 74.4014 258.301 73.8882C258.747 73.3677 259.327 73.1074 260.041 73.1074C260.785 73.1074 261.391 73.4234 261.86 74.0556V71.1886H262.696V78.6293ZM260.242 78.0157C260.569 78.0157 260.882 77.9339 261.179 77.7703C261.477 77.6067 261.703 77.4059 261.86 77.1679V74.7249C261.703 74.4795 261.473 74.275 261.168 74.1113C260.871 73.9403 260.562 73.8548 260.242 73.8548C259.714 73.8548 259.294 74.0518 258.982 74.446C258.669 74.8327 258.513 75.331 258.513 75.9408C258.513 76.5507 258.669 77.0489 258.982 77.4356C259.294 77.8224 259.714 78.0157 260.242 78.0157ZM271.453 78.6293H270.617V78.0157C270.163 78.514 269.568 78.7631 268.832 78.7631C268.334 78.7631 267.895 78.6032 267.516 78.2835C267.136 77.9637 266.947 77.5286 266.947 76.9783C266.947 76.4131 267.133 75.978 267.504 75.6731C267.884 75.3607 268.326 75.2046 268.832 75.2046C269.598 75.2046 270.193 75.45 270.617 75.9408V74.9703C270.617 74.6133 270.49 74.3345 270.237 74.1337C269.985 73.9329 269.657 73.8325 269.256 73.8325C268.624 73.8325 268.073 74.0816 267.605 74.5799L267.214 73.9998C267.787 73.4048 268.505 73.1074 269.367 73.1074C269.985 73.1074 270.487 73.2561 270.873 73.5536C271.26 73.8511 271.453 74.3084 271.453 74.9257V78.6293ZM269.133 78.1607C269.802 78.1607 270.297 77.9376 270.617 77.4914V76.4763C270.297 76.0301 269.802 75.807 269.133 75.807C268.746 75.807 268.427 75.9185 268.174 76.1416C267.928 76.3573 267.806 76.6399 267.806 76.9894C267.806 77.3315 267.928 77.6141 268.174 77.8372C268.427 78.0529 268.746 78.1607 269.133 78.1607ZM277.872 78.6293H277.035V77.8261C276.574 78.4508 275.968 78.7631 275.217 78.7631C274.503 78.7631 273.923 78.5103 273.476 78.0046C273.038 77.4914 272.818 76.8035 272.818 75.9408C272.818 75.0856 273.038 74.4014 273.476 73.8882C273.923 73.3677 274.503 73.1074 275.217 73.1074C275.96 73.1074 276.566 73.4234 277.035 74.0556V71.1886H277.872V78.6293ZM275.417 78.0157C275.745 78.0157 276.057 77.9339 276.354 77.7703C276.652 77.6067 276.879 77.4059 277.035 77.1679V74.7249C276.879 74.4795 276.648 74.275 276.343 74.1113C276.046 73.9403 275.737 73.8548 275.417 73.8548C274.889 73.8548 274.469 74.0518 274.157 74.446C273.844 74.8327 273.688 75.331 273.688 75.9408C273.688 76.5507 273.844 77.0489 274.157 77.4356C274.469 77.8224 274.889 78.0157 275.417 78.0157ZM284.288 78.6293H283.451V77.8261C282.99 78.4508 282.384 78.7631 281.633 78.7631C280.919 78.7631 280.339 78.5103 279.893 78.0046C279.454 77.4914 279.235 76.8035 279.235 75.9408C279.235 75.0856 279.454 74.4014 279.893 73.8882C280.339 73.3677 280.919 73.1074 281.633 73.1074C282.377 73.1074 282.983 73.4234 283.451 74.0556V71.1886H284.288V78.6293ZM281.834 78.0157C282.161 78.0157 282.473 77.9339 282.771 77.7703C283.068 77.6067 283.295 77.4059 283.451 77.1679V74.7249C283.295 74.4795 283.065 74.275 282.76 74.1113C282.462 73.9403 282.154 73.8548 281.834 73.8548C281.306 73.8548 280.886 74.0518 280.573 74.446C280.261 74.8327 280.105 75.331 280.105 75.9408C280.105 76.5507 280.261 77.0489 280.573 77.4356C280.886 77.8224 281.306 78.0157 281.834 78.0157ZM286.376 72.4715C286.228 72.4715 286.097 72.4194 285.986 72.3153C285.874 72.2038 285.819 72.0699 285.819 71.9137C285.819 71.7576 285.874 71.6237 285.986 71.5121C286.097 71.4006 286.228 71.3448 286.376 71.3448C286.532 71.3448 286.666 71.4006 286.778 71.5121C286.889 71.6237 286.945 71.7576 286.945 71.9137C286.945 72.0699 286.889 72.2038 286.778 72.3153C286.666 72.4194 286.532 72.4715 286.376 72.4715ZM286.8 78.6293H285.964V73.2412H286.8V78.6293ZM292.942 78.6293H292.106V75.1042C292.106 74.6505 292.002 74.3307 291.793 74.1448C291.585 73.9515 291.288 73.8548 290.901 73.8548C290.589 73.8548 290.284 73.9366 289.986 74.1002C289.696 74.2638 289.469 74.4609 289.306 74.6914V78.6293H288.469V73.2412H289.306V74.0221C289.514 73.7767 289.793 73.5647 290.142 73.3862C290.492 73.2003 290.853 73.1074 291.225 73.1074C292.37 73.1074 292.942 73.6874 292.942 74.8476V78.6293ZM296.777 80.8157C296.302 80.8157 295.896 80.7562 295.562 80.6372C295.227 80.5257 294.907 80.3175 294.602 80.0125L295.026 79.3878C295.435 79.8787 296.019 80.1241 296.777 80.1241C297.276 80.1241 297.688 79.9902 298.016 79.7225C298.343 79.4622 298.507 79.0569 298.507 78.5066V77.7368C298.306 78.0194 298.045 78.25 297.726 78.4285C297.406 78.607 297.064 78.6962 296.699 78.6962C295.985 78.6962 295.405 78.4471 294.959 77.9488C294.52 77.4431 294.301 76.7626 294.301 75.9074C294.301 75.0521 294.52 74.3716 294.959 73.8659C295.405 73.3602 295.985 73.1074 296.699 73.1074C297.436 73.1074 298.038 73.4234 298.507 74.0556V73.2412H299.343V78.4731C299.343 79.2986 299.102 79.8935 298.618 80.258C298.135 80.6298 297.521 80.8157 296.777 80.8157ZM296.9 77.9599C297.22 77.9599 297.529 77.8744 297.826 77.7034C298.131 77.5323 298.358 77.3241 298.507 77.0787V74.7249C298.358 74.4795 298.135 74.275 297.837 74.1113C297.54 73.9403 297.227 73.8548 296.9 73.8548C296.365 73.8548 295.941 74.0444 295.628 74.4237C295.324 74.803 295.171 75.2975 295.171 75.9074C295.171 76.5098 295.327 77.0043 295.64 77.391C295.952 77.7703 296.372 77.9599 296.9 77.9599ZM305.602 78.7631C304.687 78.7631 303.962 78.4805 303.426 77.9153L303.861 77.3129C304.047 77.5286 304.3 77.7108 304.62 77.8596C304.947 78.0083 305.286 78.0827 305.635 78.0827C306.037 78.0827 306.349 77.9971 306.572 77.8261C306.795 77.655 306.907 77.4319 306.907 77.1568C306.907 76.9188 306.792 76.7329 306.561 76.599C306.331 76.4577 306.052 76.3536 305.724 76.2866C305.405 76.2123 305.081 76.1305 304.754 76.0412C304.427 75.9445 304.148 75.7847 303.917 75.5615C303.687 75.331 303.571 75.0298 303.571 74.658C303.571 74.2192 303.75 73.8511 304.107 73.5536C304.471 73.2561 304.962 73.1074 305.579 73.1074C306.39 73.1074 307.056 73.3677 307.576 73.8882L307.186 74.4683C306.807 74.0147 306.271 73.7878 305.579 73.7878C305.215 73.7878 304.925 73.8696 304.709 74.0333C304.494 74.1894 304.386 74.3902 304.386 74.6356C304.386 74.8513 304.501 75.0224 304.732 75.1488C304.962 75.2678 305.237 75.3645 305.557 75.4388C305.884 75.5058 306.212 75.5876 306.539 75.6843C306.866 75.7809 307.145 75.952 307.375 76.1974C307.606 76.4354 307.721 76.7477 307.721 77.1345C307.721 77.6104 307.535 78.0009 307.163 78.3058C306.792 78.6107 306.271 78.7631 305.602 78.7631ZM311.512 78.7631C310.709 78.7631 310.051 78.5028 309.538 77.9823C309.025 77.4542 308.768 76.77 308.768 75.9297C308.768 75.1414 309.021 74.4758 309.527 73.9329C310.032 73.3825 310.665 73.1074 311.423 73.1074C312.219 73.1074 312.847 73.3825 313.308 73.9329C313.777 74.4758 314.011 75.1637 314.011 75.9966V76.2086H309.649C309.687 76.7366 309.88 77.1791 310.229 77.536C310.579 77.893 311.033 78.0715 311.59 78.0715C312.26 78.0715 312.814 77.8447 313.253 77.391L313.654 77.9376C313.104 78.488 312.39 78.7631 311.512 78.7631ZM313.186 75.595C313.178 75.1339 313.022 74.7212 312.717 74.3568C312.412 73.9849 311.977 73.799 311.412 73.799C310.876 73.799 310.453 73.9812 310.14 74.3456C309.835 74.71 309.672 75.1265 309.649 75.595H313.186ZM317.742 78.7631C316.947 78.7631 316.3 78.4954 315.801 77.9599C315.303 77.4171 315.054 76.7403 315.054 75.9297C315.054 75.119 315.303 74.446 315.801 73.9105C316.3 73.3751 316.947 73.1074 317.742 73.1074C318.575 73.1074 319.233 73.4197 319.717 74.0444L319.159 74.5576C318.817 74.089 318.36 73.8548 317.787 73.8548C317.222 73.8548 316.768 74.0481 316.426 74.4349C316.091 74.8216 315.924 75.3198 315.924 75.9297C315.924 76.5395 316.091 77.0415 316.426 77.4356C316.768 77.8224 317.222 78.0157 317.787 78.0157C318.352 78.0157 318.81 77.7815 319.159 77.3129L319.717 77.8261C319.233 78.4508 318.575 78.7631 317.742 78.7631ZM325.363 78.6293H324.526V77.8707C324.303 78.1236 324.02 78.3355 323.678 78.5066C323.344 78.6776 322.987 78.7631 322.607 78.7631C321.462 78.7631 320.889 78.1905 320.889 77.0452V73.2412H321.726V76.7886C321.726 77.2349 321.827 77.5509 322.027 77.7368C322.236 77.9228 322.537 78.0157 322.931 78.0157C323.243 78.0157 323.544 77.9376 323.834 77.7815C324.132 77.6253 324.363 77.4319 324.526 77.2014V73.2412H325.363V78.6293ZM327.87 78.6293H327.034V73.2412H327.87V74.1113C328.369 73.4569 328.967 73.1297 329.666 73.1297V73.9886C329.562 73.9663 329.451 73.9552 329.332 73.9552C329.079 73.9552 328.804 74.0444 328.506 74.2229C328.209 74.4014 327.997 74.5985 327.87 74.8141V78.6293ZM333.148 78.7631C332.344 78.7631 331.686 78.5028 331.173 77.9823C330.66 77.4542 330.403 76.77 330.403 75.9297C330.403 75.1414 330.656 74.4758 331.162 73.9329C331.668 73.3825 332.3 73.1074 333.058 73.1074C333.854 73.1074 334.483 73.3825 334.944 73.9329C335.412 74.4758 335.646 75.1637 335.646 75.9966V76.2086H331.285C331.322 76.7366 331.515 77.1791 331.865 77.536C332.214 77.893 332.668 78.0715 333.226 78.0715C333.895 78.0715 334.449 77.8447 334.888 77.391L335.29 77.9376C334.739 78.488 334.025 78.7631 333.148 78.7631ZM334.821 75.595C334.814 75.1339 334.657 74.7212 334.352 74.3568C334.048 73.9849 333.612 73.799 333.047 73.799C332.512 73.799 332.088 73.9812 331.776 74.3456C331.471 74.71 331.307 75.1265 331.285 75.595H334.821ZM341.743 78.6293H340.906V77.8261C340.445 78.4508 339.839 78.7631 339.088 78.7631C338.374 78.7631 337.794 78.5103 337.347 78.0046C336.909 77.4914 336.689 76.8035 336.689 75.9408C336.689 75.0856 336.909 74.4014 337.347 73.8882C337.794 73.3677 338.374 73.1074 339.088 73.1074C339.831 73.1074 340.437 73.4234 340.906 74.0556V71.1886H341.743V78.6293ZM339.288 78.0157C339.616 78.0157 339.928 77.9339 340.226 77.7703C340.523 77.6067 340.75 77.4059 340.906 77.1679V74.7249C340.75 74.4795 340.519 74.275 340.214 74.1113C339.917 73.9403 339.608 73.8548 339.288 73.8548C338.76 73.8548 338.34 74.0518 338.028 74.446C337.716 74.8327 337.559 75.331 337.559 75.9408C337.559 76.5507 337.716 77.0489 338.028 77.4356C338.34 77.8224 338.76 78.0157 339.288 78.0157ZM76.2778 97.6293H75.4412V97.0157C74.9875 97.514 74.3926 97.7631 73.6563 97.7631C73.158 97.7631 72.7193 97.6032 72.34 97.2835C71.9607 96.9637 71.7711 96.5286 71.7711 95.9783C71.7711 95.4131 71.957 94.978 72.3288 94.6731C72.7081 94.3607 73.1506 94.2046 73.6563 94.2046C74.4223 94.2046 75.0173 94.45 75.4412 94.9408V93.9703C75.4412 93.6133 75.3147 93.3345 75.0619 93.1337C74.809 92.9329 74.4818 92.8325 74.0802 92.8325C73.4481 92.8325 72.8977 93.0816 72.4292 93.5799L72.0388 92.9998C72.6114 92.4048 73.3291 92.1074 74.1918 92.1074C74.809 92.1074 75.311 92.2561 75.6977 92.5536C76.0845 92.8511 76.2778 93.3084 76.2778 93.9257V97.6293ZM73.9575 97.1607C74.6268 97.1607 75.1214 96.9376 75.4412 96.4914V95.4763C75.1214 95.0301 74.6268 94.807 73.9575 94.807C73.5708 94.807 73.251 94.9185 72.9981 95.1416C72.7527 95.3573 72.63 95.6399 72.63 95.9894C72.63 96.3315 72.7527 96.6141 72.9981 96.8372C73.251 97.0529 73.5708 97.1607 73.9575 97.1607ZM79.6617 97.7631C78.747 97.7631 78.0219 97.4805 77.4864 96.9153L77.9215 96.3129C78.1074 96.5286 78.3603 96.7108 78.6801 96.8596C79.0073 97.0083 79.3457 97.0827 79.6952 97.0827C80.0968 97.0827 80.4092 96.9971 80.6323 96.8261C80.8554 96.655 80.9669 96.4319 80.9669 96.1568C80.9669 95.9188 80.8516 95.7329 80.6211 95.599C80.3906 95.4577 80.1117 95.3536 79.7845 95.2866C79.4647 95.2123 79.1412 95.1305 78.8139 95.0412C78.4867 94.9445 78.2078 94.7847 77.9773 94.5615C77.7467 94.331 77.6315 94.0298 77.6315 93.658C77.6315 93.2192 77.8099 92.8511 78.1669 92.5536C78.5313 92.2561 79.0222 92.1074 79.6394 92.1074C80.4501 92.1074 81.1157 92.3677 81.6362 92.8882L81.2458 93.4683C80.8665 93.0147 80.3311 92.7878 79.6394 92.7878C79.275 92.7878 78.985 92.8696 78.7693 93.0333C78.5536 93.1894 78.4458 93.3902 78.4458 93.6356C78.4458 93.8513 78.5611 94.0224 78.7916 94.1488C79.0222 94.2678 79.2973 94.3645 79.6171 94.4388C79.9443 94.5058 80.2716 94.5876 80.5988 94.6843C80.926 94.7809 81.2049 94.952 81.4354 95.1974C81.666 95.4354 81.7813 95.7477 81.7813 96.1345C81.7813 96.6104 81.5953 97.0009 81.2235 97.3058C80.8516 97.6107 80.3311 97.7631 79.6617 97.7631ZM84.8472 97.7631C83.9325 97.7631 83.2074 97.4805 82.672 96.9153L83.107 96.3129C83.2929 96.5286 83.5458 96.7108 83.8656 96.8596C84.1928 97.0083 84.5312 97.0827 84.8807 97.0827C85.2823 97.0827 85.5947 96.9971 85.8178 96.8261C86.0409 96.655 86.1524 96.4319 86.1524 96.1568C86.1524 95.9188 86.0372 95.7329 85.8066 95.599C85.5761 95.4577 85.2972 95.3536 84.97 95.2866C84.6502 95.2123 84.3267 95.1305 83.9994 95.0412C83.6722 94.9445 83.3933 94.7847 83.1628 94.5615C82.9322 94.331 82.817 94.0298 82.817 93.658C82.817 93.2192 82.9955 92.8511 83.3524 92.5536C83.7168 92.2561 84.2077 92.1074 84.8249 92.1074C85.6356 92.1074 86.3012 92.3677 86.8218 92.8882L86.4313 93.4683C86.052 93.0147 85.5166 92.7878 84.8249 92.7878C84.4605 92.7878 84.1705 92.8696 83.9548 93.0333C83.7391 93.1894 83.6313 93.3902 83.6313 93.6356C83.6313 93.8513 83.7466 94.0224 83.9771 94.1488C84.2077 94.2678 84.4828 94.3645 84.8026 94.4388C85.1299 94.5058 85.4571 94.5876 85.7843 94.6843C86.1115 94.7809 86.3904 94.952 86.621 95.1974C86.8515 95.4354 86.9668 95.7477 86.9668 96.1345C86.9668 96.6104 86.7808 97.0009 86.409 97.3058C86.0372 97.6107 85.5166 97.7631 84.8472 97.7631ZM90.7579 97.7631C89.9547 97.7631 89.2965 97.5028 88.7834 96.9823C88.2702 96.4542 88.0136 95.77 88.0136 94.9297C88.0136 94.1414 88.2665 93.4758 88.7722 92.9329C89.2779 92.3825 89.91 92.1074 90.6686 92.1074C91.4644 92.1074 92.0928 92.3825 92.5539 92.9329C93.0224 93.4758 93.2567 94.1637 93.2567 94.9966V95.2086H88.8949C88.9321 95.7366 89.1255 96.1791 89.475 96.536C89.8245 96.893 90.2782 97.0715 90.8359 97.0715C91.5053 97.0715 92.0593 96.8447 92.4981 96.391L92.8997 96.9376C92.3494 97.488 91.6354 97.7631 90.7579 97.7631ZM92.4312 94.595C92.4237 94.1339 92.2676 93.7212 91.9626 93.3568C91.6577 92.9849 91.2227 92.799 90.6575 92.799C90.122 92.799 89.6981 92.9812 89.3857 93.3456C89.0808 93.71 88.9172 94.1265 88.8949 94.595H92.4312ZM95.9727 97.7631C95.5786 97.7631 95.2811 97.6553 95.0803 97.4396C94.8795 97.224 94.7791 96.9116 94.7791 96.5026V92.9775H93.8867V92.2412H94.7791V90.7687H95.6158V92.2412H96.709V92.9775H95.6158V96.3241C95.6158 96.5323 95.6604 96.6997 95.7496 96.8261C95.8463 96.9525 95.9839 97.0157 96.1624 97.0157C96.4078 97.0157 96.5974 96.9414 96.7313 96.7926L96.9767 97.4173C96.7313 97.6479 96.3966 97.7631 95.9727 97.7631ZM99.5976 97.7631C98.6829 97.7631 97.9578 97.4805 97.4223 96.9153L97.8574 96.3129C98.0433 96.5286 98.2962 96.7108 98.6159 96.8596C98.9432 97.0083 99.2816 97.0827 99.6311 97.0827C100.033 97.0827 100.345 96.9971 100.568 96.8261C100.791 96.655 100.903 96.4319 100.903 96.1568C100.903 95.9188 100.788 95.7329 100.557 95.599C100.326 95.4577 100.048 95.3536 99.7203 95.2866C99.4005 95.2123 99.077 95.1305 98.7498 95.0412C98.4226 94.9445 98.1437 94.7847 97.9132 94.5615C97.6826 94.331 97.5673 94.0298 97.5673 93.658C97.5673 93.2192 97.7458 92.8511 98.1028 92.5536C98.4672 92.2561 98.958 92.1074 99.5753 92.1074C100.386 92.1074 101.052 92.3677 101.572 92.8882L101.182 93.4683C100.802 93.0147 100.267 92.7878 99.5753 92.7878C99.2109 92.7878 98.9209 92.8696 98.7052 93.0333C98.4895 93.1894 98.3817 93.3902 98.3817 93.6356C98.3817 93.8513 98.497 94.0224 98.7275 94.1488C98.958 94.2678 99.2332 94.3645 99.553 94.4388C99.8802 94.5058 100.207 94.5876 100.535 94.6843C100.862 94.7809 101.141 94.952 101.371 95.1974C101.602 95.4354 101.717 95.7477 101.717 96.1345C101.717 96.6104 101.531 97.0009 101.159 97.3058C100.788 97.6107 100.267 97.7631 99.5976 97.7631ZM107.313 97.7631C106.919 97.7631 106.622 97.6553 106.421 97.4396C106.22 97.224 106.12 96.9116 106.12 96.5026V92.9775H105.227V92.2412H106.12V90.7687H106.956V92.2412H108.05V92.9775H106.956V96.3241C106.956 96.5323 107.001 96.6997 107.09 96.8261C107.187 96.9525 107.324 97.0157 107.503 97.0157C107.748 97.0157 107.938 96.9414 108.072 96.7926L108.317 97.4173C108.072 97.6479 107.737 97.7631 107.313 97.7631ZM113.716 97.6293H112.879V94.0819C112.879 93.6356 112.775 93.3196 112.567 93.1337C112.359 92.9477 112.057 92.8548 111.663 92.8548C111.358 92.8548 111.057 92.9366 110.76 93.1002C110.47 93.2638 110.239 93.4609 110.068 93.6914V97.6293H109.231V90.1886H110.068V93.0221C110.276 92.7767 110.555 92.5647 110.905 92.3862C111.254 92.2003 111.619 92.1074 111.998 92.1074C113.143 92.1074 113.716 92.68 113.716 93.8253V97.6293ZM119.592 97.6293H118.755V97.0157C118.302 97.514 117.707 97.7631 116.971 97.7631C116.472 97.7631 116.034 97.6032 115.654 97.2835C115.275 96.9637 115.085 96.5286 115.085 95.9783C115.085 95.4131 115.271 94.978 115.643 94.6731C116.022 94.3607 116.465 94.2046 116.971 94.2046C117.737 94.2046 118.332 94.45 118.755 94.9408V93.9703C118.755 93.6133 118.629 93.3345 118.376 93.1337C118.123 92.9329 117.796 92.8325 117.394 92.8325C116.762 92.8325 116.212 93.0816 115.743 93.5799L115.353 92.9998C115.926 92.4048 116.643 92.1074 117.506 92.1074C118.123 92.1074 118.625 92.2561 119.012 92.5536C119.399 92.8511 119.592 93.3084 119.592 93.9257V97.6293ZM117.272 97.1607C117.941 97.1607 118.436 96.9376 118.755 96.4914V95.4763C118.436 95.0301 117.941 94.807 117.272 94.807C116.885 94.807 116.565 94.9185 116.312 95.1416C116.067 95.3573 115.944 95.6399 115.944 95.9894C115.944 96.3315 116.067 96.6141 116.312 96.8372C116.565 97.0529 116.885 97.1607 117.272 97.1607ZM122.63 97.7631C122.236 97.7631 121.939 97.6553 121.738 97.4396C121.537 97.224 121.437 96.9116 121.437 96.5026V92.9775H120.544V92.2412H121.437V90.7687H122.273V92.2412H123.366V92.9775H122.273V96.3241C122.273 96.5323 122.318 96.6997 122.407 96.8261C122.504 96.9525 122.641 97.0157 122.82 97.0157C123.065 97.0157 123.255 96.9414 123.389 96.7926L123.634 97.4173C123.389 97.6479 123.054 97.7631 122.63 97.7631ZM132.924 97.6293H132.087L130.682 93.301L129.276 97.6293H128.439L126.721 92.2412H127.592L128.908 96.536L130.325 92.2412H131.039L132.455 96.536L133.772 92.2412H134.642L132.924 97.6293ZM139.9 96.9488C139.417 97.4917 138.773 97.7631 137.97 97.7631C137.167 97.7631 136.52 97.4917 136.029 96.9488C135.546 96.4059 135.304 95.7329 135.304 94.9297C135.304 94.1265 135.546 93.4572 136.029 92.9217C136.52 92.3788 137.167 92.1074 137.97 92.1074C138.773 92.1074 139.417 92.3788 139.9 92.9217C140.391 93.4572 140.636 94.1265 140.636 94.9297C140.636 95.7329 140.391 96.4059 139.9 96.9488ZM136.654 96.4133C136.981 96.8149 137.42 97.0157 137.97 97.0157C138.521 97.0157 138.956 96.8149 139.275 96.4133C139.595 96.0043 139.755 95.5098 139.755 94.9297C139.755 94.3496 139.595 93.8588 139.275 93.4572C138.956 93.0556 138.521 92.8548 137.97 92.8548C137.42 92.8548 136.981 93.0593 136.654 93.4683C136.334 93.8699 136.174 94.357 136.174 94.9297C136.174 95.5098 136.334 96.0043 136.654 96.4133ZM146.474 97.6293H145.637V96.8707C145.414 97.1236 145.131 97.3355 144.789 97.5066C144.455 97.6776 144.098 97.7631 143.718 97.7631C142.573 97.7631 142 97.1905 142 96.0452V92.2412H142.837V95.7886C142.837 96.2349 142.937 96.5509 143.138 96.7368C143.346 96.9228 143.648 97.0157 144.042 97.0157C144.354 97.0157 144.655 96.9376 144.945 96.7815C145.243 96.6253 145.473 96.4319 145.637 96.2014V92.2412H146.474V97.6293ZM148.981 97.6293H148.145V90.1886H148.981V97.6293ZM155.391 97.6293H154.555V96.8261C154.093 97.4508 153.487 97.7631 152.736 97.7631C152.022 97.7631 151.442 97.5103 150.996 97.0046C150.557 96.4914 150.338 95.8035 150.338 94.9408C150.338 94.0856 150.557 93.4014 150.996 92.8882C151.442 92.3677 152.022 92.1074 152.736 92.1074C153.48 92.1074 154.086 92.4234 154.555 93.0556V90.1886H155.391V97.6293ZM152.937 97.0157C153.264 97.0157 153.577 96.9339 153.874 96.7703C154.172 96.6067 154.398 96.4059 154.555 96.1679V93.7249C154.398 93.4795 154.168 93.275 153.863 93.1113C153.565 92.9403 153.257 92.8548 152.937 92.8548C152.409 92.8548 151.989 93.0518 151.676 93.446C151.364 93.8327 151.208 94.331 151.208 94.9408C151.208 95.5507 151.364 96.0489 151.676 96.4356C151.989 96.8224 152.409 97.0157 152.937 97.0157ZM160.779 96.1679C160.928 96.4059 161.151 96.6067 161.449 96.7703C161.754 96.9339 162.066 97.0157 162.386 97.0157C162.921 97.0157 163.345 96.8224 163.657 96.4356C163.97 96.0489 164.126 95.5507 164.126 94.9408C164.126 94.331 163.97 93.8327 163.657 93.446C163.345 93.0518 162.921 92.8548 162.386 92.8548C162.066 92.8548 161.754 92.9403 161.449 93.1113C161.151 93.275 160.928 93.4795 160.779 93.7249V96.1679ZM160.779 97.6293H159.943V90.1886H160.779V93.0556C161.248 92.4234 161.854 92.1074 162.598 92.1074C163.304 92.1074 163.88 92.3677 164.327 92.8882C164.773 93.4014 164.996 94.0856 164.996 94.9408C164.996 95.8035 164.773 96.4914 164.327 97.0046C163.888 97.5103 163.312 97.7631 162.598 97.7631C161.846 97.7631 161.24 97.4508 160.779 96.8261V97.6293ZM168.791 97.7631C167.988 97.7631 167.33 97.5028 166.817 96.9823C166.303 96.4542 166.047 95.77 166.047 94.9297C166.047 94.1414 166.3 93.4758 166.805 92.9329C167.311 92.3825 167.943 92.1074 168.702 92.1074C169.498 92.1074 170.126 92.3825 170.587 92.9329C171.056 93.4758 171.29 94.1637 171.29 94.9966V95.2086H166.928C166.965 95.7366 167.159 96.1791 167.508 96.536C167.858 96.893 168.311 97.0715 168.869 97.0715C169.538 97.0715 170.092 96.8447 170.531 96.391L170.933 96.9376C170.383 97.488 169.669 97.7631 168.791 97.7631ZM170.464 94.595C170.457 94.1339 170.301 93.7212 169.996 93.3568C169.691 92.9849 169.256 92.799 168.691 92.799C168.155 92.799 167.731 92.9812 167.419 93.3456C167.114 93.71 166.95 94.1265 166.928 94.595H170.464ZM179.994 97.6293H179.158V96.8707C178.934 97.1236 178.652 97.3355 178.31 97.5066C177.975 97.6776 177.618 97.7631 177.239 97.7631C176.094 97.7631 175.521 97.1905 175.521 96.0452V92.2412H176.358V95.7886C176.358 96.2349 176.458 96.5509 176.659 96.7368C176.867 96.9228 177.168 97.0157 177.562 97.0157C177.875 97.0157 178.176 96.9376 178.466 96.7815C178.763 96.6253 178.994 96.4319 179.158 96.2014V92.2412H179.994V97.6293ZM183.372 97.7631C182.457 97.7631 181.732 97.4805 181.197 96.9153L181.632 96.3129C181.818 96.5286 182.07 96.7108 182.39 96.8596C182.717 97.0083 183.056 97.0827 183.405 97.0827C183.807 97.0827 184.119 96.9971 184.342 96.8261C184.566 96.655 184.677 96.4319 184.677 96.1568C184.677 95.9188 184.562 95.7329 184.331 95.599C184.101 95.4577 183.822 95.3536 183.495 95.2866C183.175 95.2123 182.851 95.1305 182.524 95.0412C182.197 94.9445 181.918 94.7847 181.687 94.5615C181.457 94.331 181.342 94.0298 181.342 93.658C181.342 93.2192 181.52 92.8511 181.877 92.5536C182.241 92.2561 182.732 92.1074 183.35 92.1074C184.16 92.1074 184.826 92.3677 185.346 92.8882L184.956 93.4683C184.577 93.0147 184.041 92.7878 183.35 92.7878C182.985 92.7878 182.695 92.8696 182.479 93.0333C182.264 93.1894 182.156 93.3902 182.156 93.6356C182.156 93.8513 182.271 94.0224 182.502 94.1488C182.732 94.2678 183.007 94.3645 183.327 94.4388C183.655 94.5058 183.982 94.5876 184.309 94.6843C184.636 94.7809 184.915 94.952 185.146 95.1974C185.376 95.4354 185.491 95.7477 185.491 96.1345C185.491 96.6104 185.306 97.0009 184.934 97.3058C184.562 97.6107 184.041 97.7631 183.372 97.7631ZM189.283 97.7631C188.479 97.7631 187.821 97.5028 187.308 96.9823C186.795 96.4542 186.538 95.77 186.538 94.9297C186.538 94.1414 186.791 93.4758 187.297 92.9329C187.803 92.3825 188.435 92.1074 189.193 92.1074C189.989 92.1074 190.617 92.3825 191.079 92.9329C191.547 93.4758 191.781 94.1637 191.781 94.9966V95.2086H187.42C187.457 95.7366 187.65 96.1791 188 96.536C188.349 96.893 188.803 97.0715 189.361 97.0715C190.03 97.0715 190.584 96.8447 191.023 96.391L191.424 96.9376C190.874 97.488 190.16 97.7631 189.283 97.7631ZM190.956 94.595C190.948 94.1339 190.792 93.7212 190.487 93.3568C190.182 92.9849 189.747 92.799 189.182 92.799C188.647 92.799 188.223 92.9812 187.91 93.3456C187.605 93.71 187.442 94.1265 187.42 94.595H190.956ZM197.877 97.6293H197.041V96.8261C196.58 97.4508 195.974 97.7631 195.222 97.7631C194.509 97.7631 193.928 97.5103 193.482 97.0046C193.043 96.4914 192.824 95.8035 192.824 94.9408C192.824 94.0856 193.043 93.4014 193.482 92.8882C193.928 92.3677 194.509 92.1074 195.222 92.1074C195.966 92.1074 196.572 92.4234 197.041 93.0556V90.1886H197.877V97.6293ZM195.423 97.0157C195.751 97.0157 196.063 96.9339 196.36 96.7703C196.658 96.6067 196.885 96.4059 197.041 96.1679V93.7249C196.885 93.4795 196.654 93.275 196.349 93.1113C196.052 92.9403 195.743 92.8548 195.423 92.8548C194.895 92.8548 194.475 93.0518 194.163 93.446C193.85 93.8327 193.694 94.331 193.694 94.9408C193.694 95.5507 193.85 96.0489 194.163 96.4356C194.475 96.8224 194.895 97.0157 195.423 97.0157ZM203.5 97.6293H202.663V92.9775H201.771V92.2412H202.663V91.8285C202.663 91.2781 202.801 90.8505 203.076 90.5456C203.359 90.2333 203.742 90.0771 204.225 90.0771C204.686 90.0771 205.065 90.2147 205.363 90.4898L205.017 91.0364C204.816 90.858 204.593 90.7687 204.348 90.7687C204.072 90.7687 203.861 90.8617 203.712 91.0476C203.571 91.2261 203.5 91.4864 203.5 91.8285V92.2412H204.593V92.9775H203.5V97.6293ZM209.872 96.9488C209.388 97.4917 208.745 97.7631 207.942 97.7631C207.139 97.7631 206.492 97.4917 206.001 96.9488C205.518 96.4059 205.276 95.7329 205.276 94.9297C205.276 94.1265 205.518 93.4572 206.001 92.9217C206.492 92.3788 207.139 92.1074 207.942 92.1074C208.745 92.1074 209.388 92.3788 209.872 92.9217C210.363 93.4572 210.608 94.1265 210.608 94.9297C210.608 95.7329 210.363 96.4059 209.872 96.9488ZM206.626 96.4133C206.953 96.8149 207.392 97.0157 207.942 97.0157C208.492 97.0157 208.927 96.8149 209.247 96.4133C209.567 96.0043 209.727 95.5098 209.727 94.9297C209.727 94.3496 209.567 93.8588 209.247 93.4572C208.927 93.0556 208.492 92.8548 207.942 92.8548C207.392 92.8548 206.953 93.0593 206.626 93.4683C206.306 93.8699 206.146 94.357 206.146 94.9297C206.146 95.5098 206.306 96.0043 206.626 96.4133ZM212.809 97.6293H211.972V92.2412H212.809V93.1113C213.307 92.4569 213.906 92.1297 214.605 92.1297V92.9886C214.501 92.9663 214.389 92.9552 214.27 92.9552C214.017 92.9552 213.742 93.0444 213.445 93.2229C213.147 93.4014 212.935 93.5985 212.809 93.8141V97.6293ZM219.891 97.7631C219.497 97.7631 219.199 97.6553 218.999 97.4396C218.798 97.224 218.697 96.9116 218.697 96.5026V92.9775H217.805V92.2412H218.697V90.7687H219.534V92.2412H220.627V92.9775H219.534V96.3241C219.534 96.5323 219.579 96.6997 219.668 96.8261C219.765 96.9525 219.902 97.0157 220.081 97.0157C220.326 97.0157 220.516 96.9414 220.65 96.7926L220.895 97.4173C220.65 97.6479 220.315 97.7631 219.891 97.7631ZM222.646 97.6293H221.809V92.2412H222.646V93.1113C223.144 92.4569 223.743 92.1297 224.442 92.1297V92.9886C224.338 92.9663 224.226 92.9552 224.107 92.9552C223.854 92.9552 223.579 93.0444 223.282 93.2229C222.984 93.4014 222.772 93.5985 222.646 93.8141V97.6293ZM229.697 97.6293H228.86V97.0157C228.407 97.514 227.812 97.7631 227.075 97.7631C226.577 97.7631 226.138 97.6032 225.759 97.2835C225.38 96.9637 225.19 96.5286 225.19 95.9783C225.19 95.4131 225.376 94.978 225.748 94.6731C226.127 94.3607 226.57 94.2046 227.075 94.2046C227.841 94.2046 228.436 94.45 228.86 94.9408V93.9703C228.86 93.6133 228.734 93.3345 228.481 93.1337C228.228 92.9329 227.901 92.8325 227.499 92.8325C226.867 92.8325 226.317 93.0816 225.848 93.5799L225.458 92.9998C226.031 92.4048 226.748 92.1074 227.611 92.1074C228.228 92.1074 228.73 92.2561 229.117 92.5536C229.504 92.8511 229.697 93.3084 229.697 93.9257V97.6293ZM227.377 97.1607C228.046 97.1607 228.541 96.9376 228.86 96.4914V95.4763C228.541 95.0301 228.046 94.807 227.377 94.807C226.99 94.807 226.67 94.9185 226.417 95.1416C226.172 95.3573 226.049 95.6399 226.049 95.9894C226.049 96.3315 226.172 96.6141 226.417 96.8372C226.67 97.0529 226.99 97.1607 227.377 97.1607ZM235.847 97.6293H235.011V94.1042C235.011 93.6505 234.907 93.3307 234.698 93.1448C234.49 92.9515 234.193 92.8548 233.806 92.8548C233.494 92.8548 233.189 92.9366 232.891 93.1002C232.601 93.2638 232.374 93.4609 232.211 93.6914V97.6293H231.374V92.2412H232.211V93.0221C232.419 92.7767 232.698 92.5647 233.047 92.3862C233.397 92.2003 233.758 92.1074 234.129 92.1074C235.275 92.1074 235.847 92.6874 235.847 93.8476V97.6293ZM239.225 97.7631C238.31 97.7631 237.585 97.4805 237.05 96.9153L237.485 96.3129C237.671 96.5286 237.924 96.7108 238.243 96.8596C238.571 97.0083 238.909 97.0827 239.259 97.0827C239.66 97.0827 239.972 96.9971 240.196 96.8261C240.419 96.655 240.53 96.4319 240.53 96.1568C240.53 95.9188 240.415 95.7329 240.184 95.599C239.954 95.4577 239.675 95.3536 239.348 95.2866C239.028 95.2123 238.704 95.1305 238.377 95.0412C238.05 94.9445 237.771 94.7847 237.541 94.5615C237.31 94.331 237.195 94.0298 237.195 93.658C237.195 93.2192 237.373 92.8511 237.73 92.5536C238.095 92.2561 238.585 92.1074 239.203 92.1074C240.013 92.1074 240.679 92.3677 241.2 92.8882L240.809 93.4683C240.43 93.0147 239.894 92.7878 239.203 92.7878C238.838 92.7878 238.548 92.8696 238.333 93.0333C238.117 93.1894 238.009 93.3902 238.009 93.6356C238.009 93.8513 238.124 94.0224 238.355 94.1488C238.585 94.2678 238.861 94.3645 239.18 94.4388C239.508 94.5058 239.835 94.5876 240.162 94.6843C240.489 94.7809 240.768 94.952 240.999 95.1974C241.229 95.4354 241.345 95.7477 241.345 96.1345C241.345 96.6104 241.159 97.0009 240.787 97.3058C240.415 97.6107 239.894 97.7631 239.225 97.7631ZM246.909 97.6293H246.073V97.0157C245.619 97.514 245.024 97.7631 244.288 97.7631C243.79 97.7631 243.351 97.6032 242.972 97.2835C242.592 96.9637 242.403 96.5286 242.403 95.9783C242.403 95.4131 242.589 94.978 242.96 94.6731C243.34 94.3607 243.782 94.2046 244.288 94.2046C245.054 94.2046 245.649 94.45 246.073 94.9408V93.9703C246.073 93.6133 245.946 93.3345 245.693 93.1337C245.441 92.9329 245.113 92.8325 244.712 92.8325C244.08 92.8325 243.529 93.0816 243.061 93.5799L242.67 92.9998C243.243 92.4048 243.961 92.1074 244.823 92.1074C245.441 92.1074 245.943 92.2561 246.329 92.5536C246.716 92.8511 246.909 93.3084 246.909 93.9257V97.6293ZM244.589 97.1607C245.258 97.1607 245.753 96.9376 246.073 96.4914V95.4763C245.753 95.0301 245.258 94.807 244.589 94.807C244.202 94.807 243.883 94.9185 243.63 95.1416C243.384 95.3573 243.262 95.6399 243.262 95.9894C243.262 96.3315 243.384 96.6141 243.63 96.8372C243.883 97.0529 244.202 97.1607 244.589 97.1607ZM250.963 97.7631C250.167 97.7631 249.52 97.4954 249.022 96.9599C248.523 96.4171 248.274 95.7403 248.274 94.9297C248.274 94.119 248.523 93.446 249.022 92.9105C249.52 92.3751 250.167 92.1074 250.963 92.1074C251.796 92.1074 252.454 92.4197 252.937 93.0444L252.379 93.5576C252.037 93.089 251.58 92.8548 251.007 92.8548C250.442 92.8548 249.988 93.0481 249.646 93.4349C249.312 93.8216 249.144 94.3198 249.144 94.9297C249.144 95.5395 249.312 96.0415 249.646 96.4356C249.988 96.8224 250.442 97.0157 251.007 97.0157C251.572 97.0157 252.03 96.7815 252.379 96.3129L252.937 96.8261C252.454 97.4508 251.796 97.7631 250.963 97.7631ZM255.471 97.7631C255.077 97.7631 254.779 97.6553 254.578 97.4396C254.377 97.224 254.277 96.9116 254.277 96.5026V92.9775H253.385V92.2412H254.277V90.7687H255.114V92.2412H256.207V92.9775H255.114V96.3241C255.114 96.5323 255.158 96.6997 255.248 96.8261C255.344 96.9525 255.482 97.0157 255.66 97.0157C255.906 97.0157 256.095 96.9414 256.229 96.7926L256.475 97.4173C256.229 97.6479 255.895 97.7631 255.471 97.7631ZM257.802 91.4715C257.653 91.4715 257.523 91.4194 257.411 91.3153C257.3 91.2038 257.244 91.0699 257.244 90.9137C257.244 90.7576 257.3 90.6237 257.411 90.5121C257.523 90.4006 257.653 90.3448 257.802 90.3448C257.958 90.3448 258.092 90.4006 258.203 90.5121C258.315 90.6237 258.37 90.7576 258.37 90.9137C258.37 91.0699 258.315 91.2038 258.203 91.3153C258.092 91.4194 257.958 91.4715 257.802 91.4715ZM258.225 97.6293H257.389V92.2412H258.225V97.6293ZM264.178 96.9488C263.695 97.4917 263.051 97.7631 262.248 97.7631C261.445 97.7631 260.798 97.4917 260.307 96.9488C259.824 96.4059 259.582 95.7329 259.582 94.9297C259.582 94.1265 259.824 93.4572 260.307 92.9217C260.798 92.3788 261.445 92.1074 262.248 92.1074C263.051 92.1074 263.695 92.3788 264.178 92.9217C264.669 93.4572 264.914 94.1265 264.914 94.9297C264.914 95.7329 264.669 96.4059 264.178 96.9488ZM260.932 96.4133C261.259 96.8149 261.698 97.0157 262.248 97.0157C262.799 97.0157 263.234 96.8149 263.553 96.4133C263.873 96.0043 264.033 95.5098 264.033 94.9297C264.033 94.3496 263.873 93.8588 263.553 93.4572C263.234 93.0556 262.799 92.8548 262.248 92.8548C261.698 92.8548 261.259 93.0593 260.932 93.4683C260.612 93.8699 260.452 94.357 260.452 94.9297C260.452 95.5098 260.612 96.0043 260.932 96.4133ZM270.752 97.6293H269.915V94.1042C269.915 93.6505 269.811 93.3307 269.603 93.1448C269.394 92.9515 269.097 92.8548 268.71 92.8548C268.398 92.8548 268.093 92.9366 267.795 93.1002C267.505 93.2638 267.278 93.4609 267.115 93.6914V97.6293H266.278V92.2412H267.115V93.0221C267.323 92.7767 267.602 92.5647 267.952 92.3862C268.301 92.2003 268.662 92.1074 269.034 92.1074C270.179 92.1074 270.752 92.6874 270.752 93.8476V97.6293ZM274.129 97.7631C273.214 97.7631 272.489 97.4805 271.954 96.9153L272.389 96.3129C272.575 96.5286 272.828 96.7108 273.148 96.8596C273.475 97.0083 273.813 97.0827 274.163 97.0827C274.564 97.0827 274.877 96.9971 275.1 96.8261C275.323 96.655 275.434 96.4319 275.434 96.1568C275.434 95.9188 275.319 95.7329 275.089 95.599C274.858 95.4577 274.579 95.3536 274.252 95.2866C273.932 95.2123 273.609 95.1305 273.281 95.0412C272.954 94.9445 272.675 94.7847 272.445 94.5615C272.214 94.331 272.099 94.0298 272.099 93.658C272.099 93.2192 272.277 92.8511 272.634 92.5536C272.999 92.2561 273.49 92.1074 274.107 92.1074C274.917 92.1074 275.583 92.3677 276.104 92.8882L275.713 93.4683C275.334 93.0147 274.799 92.7878 274.107 92.7878C273.742 92.7878 273.452 92.8696 273.237 93.0333C273.021 93.1894 272.913 93.3902 272.913 93.6356C272.913 93.8513 273.029 94.0224 273.259 94.1488C273.49 94.2678 273.765 94.3645 274.085 94.4388C274.412 94.5058 274.739 94.5876 275.066 94.6843C275.393 94.7809 275.672 94.952 275.903 95.1974C276.133 95.4354 276.249 95.7477 276.249 96.1345C276.249 96.6104 276.063 97.0009 275.691 97.3058C275.319 97.6107 274.799 97.7631 274.129 97.7631Z" fill="#647AA8"/>
<path d="M183.295 305.682C182.164 305.682 181.22 305.325 180.461 304.611C179.71 303.89 179.335 302.964 179.335 301.833C179.335 300.703 179.71 299.781 180.461 299.067C181.22 298.345 182.164 297.985 183.295 297.985C184.686 297.985 185.723 298.591 186.407 299.803L185.046 300.472C184.883 300.16 184.641 299.903 184.321 299.703C184.009 299.494 183.667 299.39 183.295 299.39C182.618 299.39 182.06 299.621 181.622 300.082C181.183 300.543 180.963 301.127 180.963 301.833C180.963 302.54 181.183 303.124 181.622 303.585C182.06 304.046 182.618 304.276 183.295 304.276C183.667 304.276 184.009 304.176 184.321 303.975C184.641 303.774 184.883 303.514 185.046 303.194L186.407 303.852C185.701 305.072 184.663 305.682 183.295 305.682ZM191.968 305.548H190.552V304.99C190.165 305.451 189.596 305.682 188.845 305.682C188.362 305.682 187.926 305.526 187.54 305.213C187.16 304.894 186.971 304.455 186.971 303.897C186.971 303.317 187.157 302.882 187.529 302.592C187.908 302.302 188.347 302.157 188.845 302.157C189.611 302.157 190.18 302.376 190.552 302.815V302.09C190.552 301.815 190.444 301.595 190.228 301.432C190.012 301.268 189.726 301.186 189.369 301.186C188.782 301.186 188.257 301.398 187.796 301.822L187.261 300.874C187.9 300.309 188.685 300.026 189.615 300.026C190.306 300.026 190.871 300.186 191.31 300.506C191.749 300.826 191.968 301.346 191.968 302.068V305.548ZM189.414 304.723C189.942 304.723 190.321 304.566 190.552 304.254V303.585C190.321 303.272 189.942 303.116 189.414 303.116C189.124 303.116 188.882 303.191 188.689 303.339C188.495 303.481 188.399 303.678 188.399 303.931C188.399 304.176 188.495 304.369 188.689 304.511C188.882 304.652 189.124 304.723 189.414 304.723ZM198.427 305.548H197.01V302.291C197.01 301.621 196.679 301.287 196.017 301.287C195.504 301.287 195.095 301.499 194.79 301.923V305.548H193.374V300.16H194.79V300.863C195.259 300.305 195.887 300.026 196.676 300.026C197.256 300.026 197.691 300.179 197.981 300.484C198.278 300.788 198.427 301.209 198.427 301.744V305.548ZM202.344 305.682C201.511 305.682 200.827 305.418 200.291 304.89C199.756 304.362 199.488 303.681 199.488 302.848C199.488 302.023 199.756 301.346 200.291 300.818C200.827 300.29 201.511 300.026 202.344 300.026C203.296 300.026 204.006 300.35 204.474 300.997L203.548 301.867C203.288 301.48 202.909 301.287 202.411 301.287C201.979 301.287 201.626 301.432 201.351 301.722C201.083 302.004 200.949 302.38 200.949 302.848C200.949 303.317 201.083 303.696 201.351 303.986C201.626 304.276 201.979 304.421 202.411 304.421C202.894 304.421 203.273 304.228 203.548 303.841L204.474 304.7C204.006 305.355 203.296 305.682 202.344 305.682ZM207.933 305.682C207.1 305.682 206.412 305.422 205.869 304.901C205.326 304.38 205.055 303.696 205.055 302.848C205.055 302.053 205.315 301.383 205.836 300.841C206.364 300.298 207.033 300.026 207.844 300.026C208.647 300.026 209.297 300.301 209.796 300.852C210.294 301.395 210.543 302.109 210.543 302.994V303.306H206.538C206.583 303.663 206.743 303.96 207.018 304.198C207.293 304.436 207.65 304.555 208.089 304.555C208.327 304.555 208.584 304.507 208.859 304.41C209.141 304.314 209.364 304.183 209.528 304.02L210.153 304.935C209.61 305.433 208.87 305.682 207.933 305.682ZM209.171 302.347C209.149 302.042 209.026 301.766 208.803 301.521C208.587 301.276 208.267 301.153 207.844 301.153C207.442 301.153 207.13 301.276 206.907 301.521C206.683 301.759 206.553 302.034 206.516 302.347H209.171ZM212.983 305.548H211.566V298.107H212.983V305.548Z" fill="#5285F2"/>
<path d="M252.147 289.986C252.147 287.777 253.938 285.986 256.147 285.986H345.892C348.102 285.986 349.892 287.777 349.892 289.986V314.11C349.892 316.319 348.102 318.11 345.892 318.11H256.147C253.938 318.11 252.147 316.319 252.147 314.11V289.986Z" fill="#5285F2"/>
<path d="M288.441 305.682C287.311 305.682 286.366 305.325 285.608 304.611C284.857 303.89 284.481 302.964 284.481 301.833C284.481 300.703 284.857 299.781 285.608 299.067C286.366 298.345 287.311 297.985 288.441 297.985C289.832 297.985 290.869 298.591 291.554 299.803L290.193 300.472C290.029 300.16 289.787 299.903 289.467 299.703C289.155 299.494 288.813 299.39 288.441 299.39C287.764 299.39 287.207 299.621 286.768 300.082C286.329 300.543 286.11 301.127 286.11 301.833C286.11 302.54 286.329 303.124 286.768 303.585C287.207 304.046 287.764 304.276 288.441 304.276C288.813 304.276 289.155 304.176 289.467 303.975C289.787 303.774 290.029 303.514 290.193 303.194L291.554 303.852C290.847 305.072 289.81 305.682 288.441 305.682ZM293.88 305.548H292.463V300.16H293.88V300.896C294.081 300.643 294.337 300.435 294.649 300.272C294.962 300.108 295.278 300.026 295.598 300.026V301.409C295.501 301.387 295.371 301.376 295.207 301.376C294.969 301.376 294.716 301.435 294.449 301.554C294.181 301.673 293.991 301.818 293.88 301.99V305.548ZM299.015 305.682C298.182 305.682 297.494 305.422 296.951 304.901C296.408 304.38 296.137 303.696 296.137 302.848C296.137 302.053 296.397 301.383 296.918 300.841C297.446 300.298 298.115 300.026 298.926 300.026C299.729 300.026 300.38 300.301 300.878 300.852C301.376 301.395 301.625 302.109 301.625 302.994V303.306H297.621C297.665 303.663 297.825 303.96 298.1 304.198C298.376 304.436 298.732 304.555 299.171 304.555C299.409 304.555 299.666 304.507 299.941 304.41C300.224 304.314 300.447 304.183 300.61 304.02L301.235 304.935C300.692 305.433 299.952 305.682 299.015 305.682ZM300.253 302.347C300.231 302.042 300.108 301.766 299.885 301.521C299.67 301.276 299.35 301.153 298.926 301.153C298.524 301.153 298.212 301.276 297.989 301.521C297.766 301.759 297.636 302.034 297.598 302.347H300.253ZM307.301 305.548H305.884V304.99C305.497 305.451 304.928 305.682 304.177 305.682C303.694 305.682 303.259 305.526 302.872 305.213C302.493 304.894 302.303 304.455 302.303 303.897C302.303 303.317 302.489 302.882 302.861 302.592C303.24 302.302 303.679 302.157 304.177 302.157C304.943 302.157 305.512 302.376 305.884 302.815V302.09C305.884 301.815 305.776 301.595 305.56 301.432C305.345 301.268 305.058 301.186 304.701 301.186C304.114 301.186 303.59 301.398 303.128 301.822L302.593 300.874C303.233 300.309 304.017 300.026 304.947 300.026C305.638 300.026 306.204 300.186 306.642 300.506C307.081 300.826 307.301 301.346 307.301 302.068V305.548ZM304.746 304.723C305.274 304.723 305.653 304.566 305.884 304.254V303.585C305.653 303.272 305.274 303.116 304.746 303.116C304.456 303.116 304.214 303.191 304.021 303.339C303.828 303.481 303.731 303.678 303.731 303.931C303.731 304.176 303.828 304.369 304.021 304.511C304.214 304.652 304.456 304.723 304.746 304.723ZM310.513 305.682C310.015 305.682 309.635 305.556 309.375 305.303C309.115 305.05 308.985 304.685 308.985 304.209V301.398H308.092V300.16H308.985V298.688H310.413V300.16H311.506V301.398H310.413V303.83C310.413 304.001 310.457 304.143 310.546 304.254C310.636 304.366 310.755 304.421 310.903 304.421C311.127 304.421 311.29 304.369 311.394 304.265L311.695 305.336C311.435 305.567 311.041 305.682 310.513 305.682ZM315.007 305.682C314.174 305.682 313.487 305.422 312.944 304.901C312.401 304.38 312.129 303.696 312.129 302.848C312.129 302.053 312.39 301.383 312.91 300.841C313.438 300.298 314.108 300.026 314.918 300.026C315.721 300.026 316.372 300.301 316.87 300.852C317.369 301.395 317.618 302.109 317.618 302.994V303.306H313.613C313.658 303.663 313.817 303.96 314.093 304.198C314.368 304.436 314.725 304.555 315.164 304.555C315.402 304.555 315.658 304.507 315.933 304.41C316.216 304.314 316.439 304.183 316.603 304.02L317.227 304.935C316.684 305.433 315.944 305.682 315.007 305.682ZM316.246 302.347C316.223 302.042 316.101 301.766 315.878 301.521C315.662 301.276 315.342 301.153 314.918 301.153C314.517 301.153 314.204 301.276 313.981 301.521C313.758 301.759 313.628 302.034 313.591 302.347H316.246Z" fill="white"/>
<rect x="83.9873" y="214.695" width="62.1514" height="19.1235" rx="9.56175" fill="#F5F6FA"/>
<path d="M94.6396 226.882H91.4173V220.504H94.5536C95.1209 220.504 95.5639 220.66 95.8827 220.973C96.2078 221.279 96.3703 221.664 96.3703 222.13C96.3703 222.512 96.2619 222.837 96.0452 223.105C95.8348 223.366 95.5735 223.529 95.2611 223.593C95.6054 223.644 95.8954 223.822 96.1313 224.128C96.3735 224.428 96.4946 224.772 96.4946 225.161C96.4946 225.671 96.3289 226.085 95.9974 226.404C95.6723 226.722 95.2197 226.882 94.6396 226.882ZM94.3241 223.143C94.6046 223.143 94.8245 223.067 94.9839 222.914C95.1432 222.761 95.2229 222.563 95.2229 222.321C95.2229 222.072 95.1432 221.871 94.9839 221.718C94.8245 221.566 94.6046 221.489 94.3241 221.489H92.536V223.143H94.3241ZM94.3719 225.897C94.6779 225.897 94.9169 225.82 95.089 225.667C95.2611 225.508 95.3472 225.288 95.3472 225.008C95.3472 224.759 95.2611 224.552 95.089 224.386C94.9169 224.214 94.6779 224.128 94.3719 224.128H92.536V225.897H94.3719ZM98.086 221.699C97.9203 221.699 97.7737 221.639 97.6462 221.518C97.5251 221.397 97.4645 221.25 97.4645 221.078C97.4645 220.906 97.5251 220.759 97.6462 220.638C97.7737 220.517 97.9203 220.456 98.086 220.456C98.2582 220.456 98.4048 220.517 98.5259 220.638C98.647 220.759 98.7076 220.906 98.7076 221.078C98.7076 221.25 98.647 221.397 98.5259 221.518C98.4048 221.639 98.2582 221.699 98.086 221.699ZM98.5928 226.882H97.5888V222.264H98.5928V226.882ZM101.282 226.997C100.893 226.997 100.596 226.895 100.392 226.691C100.195 226.487 100.096 226.193 100.096 225.811V223.143H99.3311V222.264H100.096V221.001H101.1V222.264H102.037V223.143H101.1V225.562C101.1 225.728 101.138 225.862 101.215 225.964C101.291 226.06 101.4 226.107 101.54 226.107C101.744 226.107 101.894 226.053 101.989 225.945L102.228 226.7C102.018 226.898 101.702 226.997 101.282 226.997ZM105.052 226.997C104.351 226.997 103.777 226.77 103.331 226.318C102.885 225.859 102.662 225.275 102.662 224.568C102.662 223.867 102.885 223.29 103.331 222.837C103.777 222.378 104.351 222.149 105.052 222.149C105.824 222.149 106.413 222.423 106.821 222.971L106.161 223.583C105.906 223.22 105.553 223.038 105.1 223.038C104.679 223.038 104.341 223.181 104.086 223.468C103.832 223.749 103.704 224.115 103.704 224.568C103.704 225.02 103.832 225.39 104.086 225.677C104.341 225.964 104.679 226.107 105.1 226.107C105.54 226.107 105.894 225.926 106.161 225.562L106.821 226.174C106.413 226.722 105.824 226.997 105.052 226.997ZM109.786 226.997C109.072 226.997 108.498 226.764 108.065 226.299C107.631 225.827 107.415 225.25 107.415 224.568C107.415 223.886 107.631 223.312 108.065 222.847C108.498 222.381 109.072 222.149 109.786 222.149C110.506 222.149 111.083 222.381 111.517 222.847C111.95 223.312 112.167 223.886 112.167 224.568C112.167 225.256 111.95 225.833 111.517 226.299C111.083 226.764 110.506 226.997 109.786 226.997ZM109.786 226.107C110.2 226.107 110.525 225.961 110.761 225.667C111.003 225.368 111.125 225.001 111.125 224.568C111.125 224.141 111.003 223.781 110.761 223.487C110.525 223.188 110.2 223.038 109.786 223.038C109.378 223.038 109.053 223.188 108.811 223.487C108.575 223.781 108.457 224.141 108.457 224.568C108.457 225.001 108.575 225.368 108.811 225.667C109.053 225.961 109.378 226.107 109.786 226.107ZM113.68 221.699C113.514 221.699 113.368 221.639 113.24 221.518C113.119 221.397 113.058 221.25 113.058 221.078C113.058 220.906 113.119 220.759 113.24 220.638C113.368 220.517 113.514 220.456 113.68 220.456C113.852 220.456 113.999 220.517 114.12 220.638C114.241 220.759 114.301 220.906 114.301 221.078C114.301 221.25 114.241 221.397 114.12 221.518C113.999 221.639 113.852 221.699 113.68 221.699ZM114.187 226.882H113.183V222.264H114.187V226.882ZM119.61 226.882H118.606V223.994C118.606 223.357 118.297 223.038 117.679 223.038C117.437 223.038 117.21 223.099 117 223.22C116.79 223.341 116.621 223.487 116.493 223.66V226.882H115.489V222.264H116.493V222.895C116.665 222.691 116.895 222.515 117.182 222.369C117.468 222.222 117.781 222.149 118.119 222.149C118.609 222.149 118.979 222.276 119.228 222.531C119.483 222.786 119.61 223.153 119.61 223.631V226.882Z" fill="#001540"/>
<path d="M133.39 219.077C130.534 219.077 128.21 221.4 128.21 224.256C128.21 227.112 130.534 229.436 133.39 229.436C136.246 229.436 138.569 227.112 138.569 224.256C138.569 221.4 136.246 219.077 133.39 219.077ZM135.265 225.568C135.304 225.605 135.334 225.649 135.356 225.698C135.377 225.746 135.388 225.799 135.389 225.852C135.39 225.905 135.38 225.958 135.36 226.007C135.34 226.057 135.31 226.101 135.272 226.139C135.235 226.176 135.19 226.206 135.141 226.226C135.091 226.246 135.039 226.256 134.985 226.256C134.932 226.255 134.88 226.244 134.831 226.222C134.782 226.201 134.738 226.17 134.702 226.132L133.39 224.82L132.078 226.132C132.002 226.203 131.902 226.242 131.798 226.241C131.694 226.24 131.595 226.198 131.522 226.124C131.448 226.051 131.406 225.952 131.405 225.848C131.404 225.744 131.443 225.644 131.514 225.568L132.826 224.256L131.514 222.944C131.443 222.869 131.404 222.769 131.405 222.665C131.406 222.561 131.448 222.462 131.522 222.388C131.595 222.315 131.694 222.273 131.798 222.272C131.902 222.27 132.002 222.309 132.078 222.381L133.39 223.693L134.702 222.381C134.777 222.309 134.877 222.27 134.981 222.272C135.085 222.273 135.184 222.315 135.258 222.388C135.331 222.462 135.373 222.561 135.375 222.665C135.376 222.769 135.337 222.869 135.265 222.944L133.953 224.256L135.265 225.568Z" fill="#001540"/>
<rect x="152.526" y="214.695" width="73.3068" height="19.1235" rx="9.56175" fill="#F5F6FA"/>
<path d="M163.988 226.882H159.619V220.504H163.988V221.489H160.737V223.143H163.921V224.128H160.737V225.897H163.988V226.882ZM166.495 226.997C166.106 226.997 165.81 226.895 165.606 226.691C165.408 226.487 165.309 226.193 165.309 225.811V223.143H164.544V222.264H165.309V221.001H166.313V222.264H167.25V223.143H166.313V225.562C166.313 225.728 166.352 225.862 166.428 225.964C166.505 226.06 166.613 226.107 166.753 226.107C166.957 226.107 167.107 226.053 167.203 225.945L167.442 226.7C167.231 226.898 166.916 226.997 166.495 226.997ZM172.293 226.882H171.289V223.975C171.289 223.637 171.206 223.398 171.04 223.258C170.881 223.111 170.651 223.038 170.352 223.038C170.116 223.038 169.893 223.099 169.682 223.22C169.472 223.341 169.3 223.487 169.166 223.66V226.882H168.162V220.504H169.166V222.895C169.338 222.691 169.568 222.515 169.854 222.369C170.148 222.222 170.463 222.149 170.801 222.149C171.795 222.149 172.293 222.636 172.293 223.612V226.882ZM175.729 226.997C175.028 226.997 174.447 226.773 173.988 226.327C173.536 225.875 173.31 225.288 173.31 224.568C173.31 223.892 173.53 223.322 173.969 222.856C174.416 222.385 174.977 222.149 175.652 222.149C176.334 222.149 176.883 222.385 177.297 222.856C177.718 223.328 177.928 223.93 177.928 224.664V224.903H174.361C174.4 225.266 174.549 225.569 174.811 225.811C175.072 226.053 175.413 226.174 175.834 226.174C176.07 226.174 176.306 226.13 176.541 226.04C176.784 225.951 176.985 225.827 177.144 225.667L177.603 226.327C177.137 226.773 176.513 226.997 175.729 226.997ZM176.953 224.195C176.94 223.876 176.822 223.593 176.599 223.344C176.382 223.095 176.067 222.971 175.652 222.971C175.257 222.971 174.948 223.095 174.725 223.344C174.502 223.586 174.377 223.87 174.352 224.195H176.953ZM179.923 226.882H178.919V222.264H179.923V222.942C180.101 222.713 180.324 222.525 180.592 222.378C180.86 222.232 181.137 222.158 181.424 222.158V223.153C181.335 223.134 181.23 223.124 181.109 223.124C180.898 223.124 180.672 223.188 180.43 223.315C180.194 223.436 180.025 223.577 179.923 223.736V226.882ZM184.366 226.997C183.665 226.997 183.085 226.773 182.626 226.327C182.173 225.875 181.947 225.288 181.947 224.568C181.947 223.892 182.167 223.322 182.607 222.856C183.053 222.385 183.614 222.149 184.29 222.149C184.972 222.149 185.52 222.385 185.934 222.856C186.355 223.328 186.565 223.93 186.565 224.664V224.903H182.999C183.037 225.266 183.187 225.569 183.448 225.811C183.709 226.053 184.051 226.174 184.471 226.174C184.707 226.174 184.943 226.13 185.179 226.04C185.421 225.951 185.622 225.827 185.781 225.667L186.24 226.327C185.775 226.773 185.15 226.997 184.366 226.997ZM185.59 224.195C185.577 223.876 185.459 223.593 185.236 223.344C185.019 223.095 184.704 222.971 184.29 222.971C183.894 222.971 183.585 223.095 183.362 223.344C183.139 223.586 183.015 223.87 182.989 224.195H185.59ZM191.677 226.882H190.673V226.27C190.24 226.754 189.695 226.997 189.038 226.997C188.05 226.997 187.556 226.509 187.556 225.534V222.264H188.56V225.17C188.56 225.508 188.64 225.75 188.799 225.897C188.959 226.037 189.188 226.107 189.488 226.107C189.73 226.107 189.956 226.05 190.167 225.935C190.377 225.82 190.546 225.677 190.673 225.505V222.264H191.677V226.882ZM199.646 226.882H198.642V223.87C198.642 223.315 198.39 223.038 197.887 223.038C197.676 223.038 197.472 223.099 197.275 223.22C197.077 223.341 196.924 223.484 196.816 223.65V226.882H195.812V223.87C195.812 223.315 195.557 223.038 195.047 223.038C194.843 223.038 194.642 223.099 194.444 223.22C194.253 223.341 194.1 223.487 193.985 223.66V226.882H192.981V222.264H193.985V222.895C194.1 222.722 194.298 222.557 194.578 222.397C194.865 222.232 195.168 222.149 195.487 222.149C196.156 222.149 196.577 222.432 196.749 223C196.895 222.77 197.112 222.573 197.399 222.407C197.686 222.235 197.992 222.149 198.317 222.149C199.203 222.149 199.646 222.614 199.646 223.545V226.882Z" fill="#001540"/>
<path d="M213.084 219.077C210.228 219.077 207.905 221.4 207.905 224.256C207.905 227.112 210.228 229.436 213.084 229.436C215.94 229.436 218.264 227.112 218.264 224.256C218.264 221.4 215.94 219.077 213.084 219.077ZM214.96 225.568C214.998 225.605 215.029 225.649 215.05 225.698C215.072 225.746 215.083 225.799 215.084 225.852C215.084 225.905 215.074 225.958 215.054 226.007C215.034 226.057 215.004 226.101 214.967 226.139C214.929 226.176 214.885 226.206 214.835 226.226C214.786 226.246 214.733 226.256 214.68 226.256C214.627 226.255 214.574 226.244 214.526 226.222C214.477 226.201 214.433 226.17 214.396 226.132L213.084 224.82L211.772 226.132C211.697 226.203 211.597 226.242 211.493 226.241C211.389 226.24 211.29 226.198 211.216 226.124C211.143 226.051 211.101 225.952 211.1 225.848C211.098 225.744 211.138 225.644 211.209 225.568L212.521 224.256L211.209 222.944C211.138 222.869 211.098 222.769 211.1 222.665C211.101 222.561 211.143 222.462 211.216 222.388C211.29 222.315 211.389 222.273 211.493 222.272C211.597 222.27 211.697 222.309 211.772 222.381L213.084 223.693L214.396 222.381C214.472 222.309 214.572 222.27 214.676 222.272C214.78 222.273 214.879 222.315 214.952 222.388C215.026 222.462 215.068 222.561 215.069 222.665C215.07 222.769 215.031 222.869 214.96 222.944L213.648 224.256L214.96 225.568Z" fill="#001540"/>
</g>
<defs>
<filter id="filter0_d_1_1959" x="0.956938" y="0.818237" width="421.089" height="428.379" filterUnits="userSpaceOnUse" color-interpolation-filters="sRGB">
<feFlood flood-opacity="0" result="BackgroundImageFix"/>
<feColorMatrix in="SourceAlpha" type="matrix" values="0 0 0 0 0 0 0 0 0 0 0 0 0 0 0 0 0 0 127 0" result="hardAlpha"/>
<feMorphology radius="25.6" operator="erode" in="SourceAlpha" result="effect1_dropShadow_1_1959"/>
<feOffset dy="40"/>
<feGaussianBlur stdDeviation="32"/>
<feComposite in2="hardAlpha" operator="out"/>
<feColorMatrix type="matrix" values="0 0 0 0 0.321569 0 0 0 0 0.521569 0 0 0 0 0.94902 0 0 0 0.07 0"/>
<feBlend mode="normal" in2="BackgroundImageFix" result="effect1_dropShadow_1_1959"/>
<feBlend mode="normal" in="SourceGraphic" in2="effect1_dropShadow_1_1959" result="shape"/>
</filter>
</defs>
</svg>
