<svg width="333" height="255" viewBox="0 0 333 255" fill="none" xmlns="http://www.w3.org/2000/svg">
<g filter="url(#filter0_d_1_2006)">
<rect x="49.2014" y="21.2694" width="232.927" height="145.825" rx="6.3745" fill="#0047CC" fill-opacity="0.3"/>
<rect x="62.8027" y="46.3835" width="205.724" height="129.622" rx="6.3745" fill="#0047CC" fill-opacity="0.1"/>
<path d="M284.27 0.205933H48.7588C43.3691 0.205933 39 4.52816 39 9.8599V147.719C39 153.05 43.3691 157.373 48.7588 157.373H284.27C289.66 157.373 294.029 153.05 294.029 147.719V9.8599C294.029 4.52816 289.66 0.205933 284.27 0.205933Z" fill="url(#paint0_radial_1_2006)"/>
<path style="mix-blend-mode:screen" d="M286.265 0.205819H143.562L218.666 157.372H286.265C288.324 157.372 290.299 156.355 291.755 154.545C293.211 152.734 294.029 150.279 294.029 147.718V9.84691C294.029 8.57974 293.828 7.32501 293.438 6.15445C293.048 4.9839 292.476 3.9205 291.754 3.02508C291.033 2.12965 290.177 1.41976 289.235 0.936005C288.294 0.452252 287.284 0.204127 286.265 0.205819V0.205819Z" fill="white" fill-opacity="0.03"/>
<path d="M63.2145 84.1188V82.3977C61.3532 82.2319 59.8488 81.569 58.7014 80.4088L60.1739 78.3435C61.0153 79.2359 62.0289 79.7841 63.2145 79.9881V76.9666C62.7428 76.8518 62.3412 76.7435 62.0098 76.6415C61.691 76.5267 61.3277 76.3674 60.9197 76.1634C60.5245 75.9467 60.2058 75.7172 59.9635 75.4749C59.7213 75.22 59.5173 74.8949 59.3516 74.4996C59.1859 74.0917 59.103 73.6391 59.103 73.1419C59.103 72.1475 59.4727 71.2933 60.2121 70.5793C60.9516 69.8526 61.9524 69.4255 63.2145 69.2981V67.5196H65.0313V69.3363C66.5612 69.502 67.8552 70.0694 68.9133 71.0383L67.4026 73.0271C66.7396 72.4279 65.9492 72.0136 65.0313 71.7841V74.4805C65.503 74.5953 65.9046 74.71 66.2361 74.8247C66.5675 74.9395 66.9309 75.1052 67.3261 75.322C67.7341 75.5259 68.0592 75.7554 68.3014 76.0104C68.5564 76.2654 68.7667 76.5969 68.9325 77.0048C69.111 77.4 69.2002 77.8463 69.2002 78.3435C69.2002 79.4399 68.8432 80.3514 68.1293 81.0781C67.4153 81.8048 66.3827 82.2383 65.0313 82.3785V84.1188H63.2145ZM66.4464 78.6494C66.4464 78.1395 65.9747 77.7315 65.0313 77.4255V79.9881C65.4775 79.8989 65.8217 79.7331 66.0639 79.4909C66.3189 79.2359 66.4464 78.9554 66.4464 78.6494ZM61.8759 72.9124C61.8759 73.3841 62.3221 73.7475 63.2145 74.0024V71.6694C62.7938 71.7204 62.4623 71.8606 62.2201 72.0901C61.9906 72.3068 61.8759 72.5809 61.8759 72.9124ZM76.0322 82.4359C74.1964 82.4359 72.8195 81.824 71.9015 80.6C70.9836 79.3761 70.5246 77.7953 70.5246 75.8574C70.5246 73.8813 71.0537 72.2877 72.1119 71.0765C73.1701 69.8654 74.6235 69.2598 76.4721 69.2598C77.9509 69.2598 79.2067 69.6996 80.2394 70.5793L79.0155 72.6638C78.3143 72.0008 77.4665 71.6694 76.4721 71.6694C75.5414 71.6694 74.7764 72.02 74.1772 72.7212C73.578 73.4096 73.2784 74.2638 73.2784 75.2837C73.2784 75.3985 73.2848 75.4877 73.2976 75.5514C73.6163 75.0925 74.0752 74.7036 74.6744 74.3849C75.2737 74.0662 75.9047 73.9068 76.5677 73.9068C77.7788 73.9068 78.8051 74.2765 79.6466 75.016C80.488 75.7427 80.9087 76.7562 80.9087 78.0566C80.9087 79.3188 80.4561 80.3642 79.5509 81.1929C78.6458 82.0216 77.4729 82.4359 76.0322 82.4359ZM75.8792 80.0263C76.5677 80.0263 77.1159 79.8351 77.5238 79.4526C77.9446 79.0702 78.1549 78.6367 78.1549 78.1522C78.1549 77.5275 77.9254 77.0558 77.4665 76.7371C77.0075 76.4056 76.4466 76.2399 75.7836 76.2399C74.7637 76.2399 73.935 76.6415 73.2976 77.4447C73.3613 78.1586 73.6035 78.7706 74.0242 79.2805C74.445 79.7777 75.0633 80.0263 75.8792 80.0263ZM90.8032 82.2064H88.0876V79.5674H81.9872V77.4255L87.055 69.451H90.8032V77.1769H92.4478V79.5674H90.8032V82.2064ZM88.0876 77.1769V71.8606L84.6454 77.1769H88.0876ZM97.0313 81.2694C97.0313 81.9706 96.8528 82.6271 96.4959 83.2391C96.1389 83.8638 95.6608 84.3929 95.0616 84.8263L94.0098 83.9658C94.3285 83.8 94.6345 83.5387 94.9277 83.1817C95.221 82.8375 95.4058 82.4996 95.4823 82.1682C95.3676 82.2064 95.2465 82.2255 95.119 82.2255C94.7492 82.2255 94.4369 82.0981 94.1819 81.8431C93.9397 81.5881 93.8186 81.2566 93.8186 80.8487C93.8186 80.4279 93.9652 80.071 94.2584 79.7777C94.5516 79.4718 94.9022 79.3188 95.3102 79.3188C95.7819 79.3188 96.1835 79.4973 96.515 79.8542C96.8592 80.1985 97.0313 80.6702 97.0313 81.2694ZM106.294 81.4606C105.478 82.1108 104.49 82.4359 103.33 82.4359C102.17 82.4359 101.176 82.1108 100.347 81.4606C99.5309 80.7977 98.9445 79.9817 98.5875 79.0128C98.2305 78.0439 98.052 76.9857 98.052 75.8383C98.052 74.6909 98.2305 73.6327 98.5875 72.6638C98.9445 71.6949 99.5309 70.8853 100.347 70.2351C101.176 69.5849 102.17 69.2598 103.33 69.2598C104.49 69.2598 105.478 69.5849 106.294 70.2351C107.11 70.8853 107.697 71.6949 108.054 72.6638C108.423 73.6327 108.608 74.6909 108.608 75.8383C108.608 76.9857 108.423 78.0439 108.054 79.0128C107.697 79.9817 107.11 80.7977 106.294 81.4606ZM101.418 78.8789C101.826 79.6439 102.463 80.0263 103.33 80.0263C104.197 80.0263 104.828 79.6439 105.223 78.8789C105.631 78.114 105.835 77.1004 105.835 75.8383C105.835 74.5761 105.631 73.569 105.223 72.8168C104.828 72.0518 104.197 71.6694 103.33 71.6694C102.463 71.6694 101.826 72.0518 101.418 72.8168C101.01 73.569 100.806 74.5761 100.806 75.8383C100.806 77.1004 101.01 78.114 101.418 78.8789ZM118.153 81.4606C117.337 82.1108 116.349 82.4359 115.189 82.4359C114.029 82.4359 113.034 82.1108 112.206 81.4606C111.39 80.7977 110.803 79.9817 110.446 79.0128C110.089 78.0439 109.911 76.9857 109.911 75.8383C109.911 74.6909 110.089 73.6327 110.446 72.6638C110.803 71.6949 111.39 70.8853 112.206 70.2351C113.034 69.5849 114.029 69.2598 115.189 69.2598C116.349 69.2598 117.337 69.5849 118.153 70.2351C118.969 70.8853 119.555 71.6949 119.912 72.6638C120.282 73.6327 120.467 74.6909 120.467 75.8383C120.467 76.9857 120.282 78.0439 119.912 79.0128C119.555 79.9817 118.969 80.7977 118.153 81.4606ZM113.277 78.8789C113.685 79.6439 114.322 80.0263 115.189 80.0263C116.056 80.0263 116.687 79.6439 117.082 78.8789C117.49 78.114 117.694 77.1004 117.694 75.8383C117.694 74.5761 117.49 73.569 117.082 72.8168C116.687 72.0518 116.056 71.6694 115.189 71.6694C114.322 71.6694 113.685 72.0518 113.277 72.8168C112.869 73.569 112.665 74.5761 112.665 75.8383C112.665 77.1004 112.869 78.114 113.277 78.8789ZM130.012 81.4606C129.196 82.1108 128.208 82.4359 127.048 82.4359C125.888 82.4359 124.893 82.1108 124.064 81.4606C123.249 80.7977 122.662 79.9817 122.305 79.0128C121.948 78.0439 121.77 76.9857 121.77 75.8383C121.77 74.6909 121.948 73.6327 122.305 72.6638C122.662 71.6949 123.249 70.8853 124.064 70.2351C124.893 69.5849 125.888 69.2598 127.048 69.2598C128.208 69.2598 129.196 69.5849 130.012 70.2351C130.828 70.8853 131.414 71.6949 131.771 72.6638C132.141 73.6327 132.326 74.6909 132.326 75.8383C132.326 76.9857 132.141 78.0439 131.771 79.0128C131.414 79.9817 130.828 80.7977 130.012 81.4606ZM125.135 78.8789C125.543 79.6439 126.181 80.0263 127.048 80.0263C127.915 80.0263 128.546 79.6439 128.941 78.8789C129.349 78.114 129.553 77.1004 129.553 75.8383C129.553 74.5761 129.349 73.569 128.941 72.8168C128.546 72.0518 127.915 71.6694 127.048 71.6694C126.181 71.6694 125.543 72.0518 125.135 72.8168C124.727 73.569 124.523 74.5761 124.523 75.8383C124.523 77.1004 124.727 78.114 125.135 78.8789ZM136.105 81.9578C135.799 82.2638 135.436 82.4168 135.015 82.4168C134.595 82.4168 134.231 82.2638 133.925 81.9578C133.619 81.6518 133.466 81.2885 133.466 80.8678C133.466 80.4471 133.619 80.0837 133.925 79.7777C134.231 79.4718 134.595 79.3188 135.015 79.3188C135.436 79.3188 135.799 79.4718 136.105 79.7777C136.411 80.0837 136.564 80.4471 136.564 80.8678C136.564 81.2885 136.411 81.6518 136.105 81.9578ZM145.942 81.4606C145.126 82.1108 144.138 82.4359 142.978 82.4359C141.818 82.4359 140.823 82.1108 139.995 81.4606C139.179 80.7977 138.592 79.9817 138.235 79.0128C137.878 78.0439 137.7 76.9857 137.7 75.8383C137.7 74.6909 137.878 73.6327 138.235 72.6638C138.592 71.6949 139.179 70.8853 139.995 70.2351C140.823 69.5849 141.818 69.2598 142.978 69.2598C144.138 69.2598 145.126 69.5849 145.942 70.2351C146.758 70.8853 147.344 71.6949 147.701 72.6638C148.071 73.6327 148.256 74.6909 148.256 75.8383C148.256 76.9857 148.071 78.0439 147.701 79.0128C147.344 79.9817 146.758 80.7977 145.942 81.4606ZM141.065 78.8789C141.473 79.6439 142.111 80.0263 142.978 80.0263C143.845 80.0263 144.476 79.6439 144.871 78.8789C145.279 78.114 145.483 77.1004 145.483 75.8383C145.483 74.5761 145.279 73.569 144.871 72.8168C144.476 72.0518 143.845 71.6694 142.978 71.6694C142.111 71.6694 141.473 72.0518 141.065 72.8168C140.657 73.569 140.453 74.5761 140.453 75.8383C140.453 77.1004 140.657 78.114 141.065 78.8789ZM157.801 81.4606C156.985 82.1108 155.997 82.4359 154.837 82.4359C153.676 82.4359 152.682 82.1108 151.853 81.4606C151.037 80.7977 150.451 79.9817 150.094 79.0128C149.737 78.0439 149.559 76.9857 149.559 75.8383C149.559 74.6909 149.737 73.6327 150.094 72.6638C150.451 71.6949 151.037 70.8853 151.853 70.2351C152.682 69.5849 153.676 69.2598 154.837 69.2598C155.997 69.2598 156.985 69.5849 157.801 70.2351C158.617 70.8853 159.203 71.6949 159.56 72.6638C159.93 73.6327 160.115 74.6909 160.115 75.8383C160.115 76.9857 159.93 78.0439 159.56 79.0128C159.203 79.9817 158.617 80.7977 157.801 81.4606ZM152.924 78.8789C153.332 79.6439 153.97 80.0263 154.837 80.0263C155.704 80.0263 156.335 79.6439 156.73 78.8789C157.138 78.114 157.342 77.1004 157.342 75.8383C157.342 74.5761 157.138 73.569 156.73 72.8168C156.335 72.0518 155.704 71.6694 154.837 71.6694C153.97 71.6694 153.332 72.0518 152.924 72.8168C152.516 73.569 152.312 74.5761 152.312 75.8383C152.312 77.1004 152.516 78.114 152.924 78.8789Z" fill="white"/>
<path d="M39 43.9531C41.235 45.4204 209.951 44.5645 294.029 43.9531" stroke="white" stroke-opacity="0.15" stroke-width="0.796813"/>
<path d="M66.0034 24.7883H64.609L63.1588 19.2999L61.7197 24.7883H60.3253L58.1946 17.3477H59.656L61.1062 23.0816L62.6456 17.3477H63.6831L65.2225 23.0816L66.6616 17.3477H68.1229L66.0034 24.7883ZM72.9786 24.7883H71.8073V24.2083C71.3908 24.6842 70.8108 24.9222 70.0671 24.9222C69.5762 24.9222 69.1412 24.766 68.7619 24.4537C68.3826 24.1339 68.193 23.6951 68.193 23.1373C68.193 22.5647 68.3789 22.1296 68.7507 21.8322C69.13 21.5347 69.5688 21.3859 70.0671 21.3859C70.8331 21.3859 71.4132 21.6165 71.8073 22.0776V21.2744C71.8073 20.962 71.692 20.7166 71.4615 20.5381C71.231 20.3596 70.926 20.2704 70.5468 20.2704C69.9444 20.2704 69.4126 20.4972 68.9515 20.9509L68.4719 20.1365C69.0817 19.5565 69.8365 19.2664 70.7364 19.2664C71.3983 19.2664 71.9375 19.4226 72.3539 19.7349C72.7704 20.0473 72.9786 20.5418 72.9786 21.2186V24.7883ZM70.5244 24.119C71.112 24.119 71.5396 23.9331 71.8073 23.5612V22.7469C71.5396 22.375 71.112 22.1891 70.5244 22.1891C70.1898 22.1891 69.9146 22.2784 69.699 22.4569C69.4833 22.6353 69.3754 22.8696 69.3754 23.1596C69.3754 23.4497 69.4833 23.6839 69.699 23.8624C69.9146 24.0335 70.1898 24.119 70.5244 24.119ZM75.6686 24.7883H74.4972V17.3477H75.6686V24.7883ZM78.3594 24.7883H77.188V17.3477H78.3594V24.7883ZM82.3665 24.9222C81.5484 24.9222 80.8717 24.6619 80.3362 24.1413C79.8082 23.6133 79.5442 22.9291 79.5442 22.0887C79.5442 21.3004 79.8008 20.6348 80.3139 20.0919C80.8345 19.5416 81.4889 19.2664 82.2772 19.2664C83.073 19.2664 83.7126 19.5416 84.196 20.0919C84.6868 20.6422 84.9322 21.345 84.9322 22.2003V22.4792H80.7713C80.8159 22.9031 80.9907 23.2563 81.2956 23.5389C81.6005 23.8215 81.9984 23.9628 82.4892 23.9628C82.7644 23.9628 83.0395 23.9108 83.3147 23.8067C83.5973 23.7025 83.8316 23.5575 84.0175 23.3716L84.5529 24.1413C84.0101 24.6619 83.2812 24.9222 82.3665 24.9222ZM83.7944 21.6537C83.7795 21.2818 83.6419 20.9509 83.3816 20.6608C83.1288 20.3708 82.7606 20.2258 82.2772 20.2258C81.8162 20.2258 81.4555 20.3708 81.1952 20.6608C80.9349 20.9434 80.7899 21.2744 80.7601 21.6537H83.7944ZM87.7059 24.9222C87.2523 24.9222 86.9064 24.8032 86.6685 24.5652C86.4379 24.3272 86.3226 23.9851 86.3226 23.5389V20.4266H85.4302V19.4003H86.3226V17.9278H87.494V19.4003H88.5872V20.4266H87.494V23.2489C87.494 23.4422 87.5386 23.5984 87.6278 23.7174C87.7171 23.829 87.8435 23.8847 88.0071 23.8847C88.2451 23.8847 88.4199 23.8215 88.5314 23.6951L88.8103 24.5764C88.5649 24.8069 88.1967 24.9222 87.7059 24.9222ZM92.6273 25.0114H91.7572L94.4011 17.1246H95.2712L92.6273 25.0114ZM100.238 24.7883H98.9331V17.3477H102.202C102.953 17.3477 103.544 17.5708 103.975 18.017C104.414 18.4632 104.633 19.0173 104.633 19.6792C104.633 20.3336 104.414 20.8877 103.975 21.3413C103.544 21.7875 102.953 22.0106 102.202 22.0106H100.238V24.7883ZM102.023 20.8616C102.395 20.8616 102.7 20.7538 102.938 20.5381C103.176 20.3225 103.295 20.0361 103.295 19.6792C103.295 19.3222 103.176 19.0359 102.938 18.8202C102.7 18.6045 102.395 18.4967 102.023 18.4967H100.238V20.8616H102.023ZM107.955 24.9222C107.122 24.9222 106.453 24.6507 105.947 24.1079C105.441 23.5575 105.188 22.8845 105.188 22.0887C105.188 21.293 105.441 20.6237 105.947 20.0808C106.453 19.5379 107.122 19.2664 107.955 19.2664C108.795 19.2664 109.468 19.5379 109.974 20.0808C110.48 20.6237 110.733 21.293 110.733 22.0887C110.733 22.8919 110.48 23.565 109.974 24.1079C109.468 24.6507 108.795 24.9222 107.955 24.9222ZM107.955 23.8847C108.438 23.8847 108.818 23.7137 109.093 23.3716C109.375 23.0221 109.517 22.5944 109.517 22.0887C109.517 21.5905 109.375 21.1703 109.093 20.8282C108.818 20.4786 108.438 20.3039 107.955 20.3039C107.479 20.3039 107.1 20.4786 106.817 20.8282C106.542 21.1703 106.404 21.5905 106.404 22.0887C106.404 22.5944 106.542 23.0221 106.817 23.3716C107.1 23.7137 107.479 23.8847 107.955 23.8847ZM113.089 24.7883H111.918V19.4003H113.089V20.1923C113.297 19.9246 113.558 19.7052 113.87 19.5341C114.182 19.3631 114.506 19.2776 114.841 19.2776V20.4377C114.736 20.4154 114.614 20.4043 114.472 20.4043C114.227 20.4043 113.963 20.4786 113.68 20.6274C113.405 20.7687 113.208 20.9323 113.089 21.1182V24.7883ZM117.403 24.9222C116.949 24.9222 116.603 24.8032 116.365 24.5652C116.135 24.3272 116.019 23.9851 116.019 23.5389V20.4266H115.127V19.4003H116.019V17.9278H117.191V19.4003H118.284V20.4266H117.191V23.2489C117.191 23.4422 117.235 23.5984 117.325 23.7174C117.414 23.829 117.54 23.8847 117.704 23.8847C117.942 23.8847 118.117 23.8215 118.228 23.6951L118.507 24.5764C118.262 24.8069 117.894 24.9222 117.403 24.9222ZM120.798 24.7883H119.626V20.4266H118.734V19.4003H119.626V19.0991C119.626 18.519 119.779 18.0654 120.084 17.7381C120.396 17.4035 120.813 17.2361 121.333 17.2361C121.891 17.2361 122.322 17.3923 122.627 17.7047L122.17 18.4298C121.999 18.2736 121.791 18.1955 121.545 18.1955C121.315 18.1955 121.132 18.2736 120.999 18.4298C120.865 18.5785 120.798 18.8016 120.798 19.0991V19.4003H121.891V20.4266H120.798V24.7883ZM125.211 24.9222C124.378 24.9222 123.709 24.6507 123.203 24.1079C122.697 23.5575 122.444 22.8845 122.444 22.0887C122.444 21.293 122.697 20.6237 123.203 20.0808C123.709 19.5379 124.378 19.2664 125.211 19.2664C126.051 19.2664 126.724 19.5379 127.23 20.0808C127.736 20.6237 127.989 21.293 127.989 22.0887C127.989 22.8919 127.736 23.565 127.23 24.1079C126.724 24.6507 126.051 24.9222 125.211 24.9222ZM125.211 23.8847C125.694 23.8847 126.074 23.7137 126.349 23.3716C126.631 23.0221 126.773 22.5944 126.773 22.0887C126.773 21.5905 126.631 21.1703 126.349 20.8282C126.074 20.4786 125.694 20.3039 125.211 20.3039C124.735 20.3039 124.356 20.4786 124.073 20.8282C123.798 21.1703 123.66 21.5905 123.66 22.0887C123.66 22.5944 123.798 23.0221 124.073 23.3716C124.356 23.7137 124.735 23.8847 125.211 23.8847ZM130.345 24.7883H129.174V17.3477H130.345V24.7883ZM132.445 18.7421C132.251 18.7421 132.08 18.6715 131.932 18.5302C131.79 18.3889 131.72 18.2178 131.72 18.017C131.72 17.8162 131.79 17.6452 131.932 17.5039C132.08 17.3626 132.251 17.2919 132.445 17.2919C132.646 17.2919 132.817 17.3626 132.958 17.5039C133.099 17.6452 133.17 17.8162 133.17 18.017C133.17 18.2178 133.099 18.3889 132.958 18.5302C132.817 18.6715 132.646 18.7421 132.445 18.7421ZM133.036 24.7883H131.865V19.4003H133.036V24.7883ZM136.987 24.9222C136.154 24.9222 135.485 24.6507 134.979 24.1079C134.474 23.5575 134.221 22.8845 134.221 22.0887C134.221 21.293 134.474 20.6237 134.979 20.0808C135.485 19.5379 136.154 19.2664 136.987 19.2664C137.828 19.2664 138.501 19.5379 139.006 20.0808C139.512 20.6237 139.765 21.293 139.765 22.0887C139.765 22.8919 139.512 23.565 139.006 24.1079C138.501 24.6507 137.828 24.9222 136.987 24.9222ZM136.987 23.8847C137.471 23.8847 137.85 23.7137 138.125 23.3716C138.408 23.0221 138.549 22.5944 138.549 22.0887C138.549 21.5905 138.408 21.1703 138.125 20.8282C137.85 20.4786 137.471 20.3039 136.987 20.3039C136.511 20.3039 136.132 20.4786 135.849 20.8282C135.574 21.1703 135.437 21.5905 135.437 22.0887C135.437 22.5944 135.574 23.0221 135.849 23.3716C136.132 23.7137 136.511 23.8847 136.987 23.8847Z" fill="white"/>
<path d="M62.6788 133.347H58.9195V125.906H62.5784C63.2403 125.906 63.7572 126.088 64.129 126.453C64.5083 126.81 64.698 127.259 64.698 127.802C64.698 128.249 64.5715 128.628 64.3187 128.94C64.0733 129.245 63.7683 129.435 63.4039 129.509C63.8055 129.569 64.1439 129.777 64.4191 130.134C64.7017 130.483 64.843 130.885 64.843 131.339C64.843 131.934 64.6496 132.417 64.2629 132.789C63.8836 133.161 63.3556 133.347 62.6788 133.347ZM62.3107 128.985C62.6379 128.985 62.8945 128.896 63.0804 128.717C63.2664 128.539 63.3593 128.308 63.3593 128.025C63.3593 127.735 63.2664 127.501 63.0804 127.323C62.8945 127.144 62.6379 127.055 62.3107 127.055H60.2247V128.985H62.3107ZM62.3665 132.198C62.7235 132.198 63.0023 132.108 63.2031 131.93C63.4039 131.744 63.5043 131.487 63.5043 131.16C63.5043 130.87 63.4039 130.628 63.2031 130.435C63.0023 130.234 62.7235 130.134 62.3665 130.134H60.2247V132.198H62.3665ZM66.6997 127.3C66.5063 127.3 66.3352 127.23 66.1865 127.088C66.0452 126.947 65.9746 126.776 65.9746 126.575C65.9746 126.374 66.0452 126.203 66.1865 126.062C66.3352 125.921 66.5063 125.85 66.6997 125.85C66.9004 125.85 67.0715 125.921 67.2128 126.062C67.3541 126.203 67.4248 126.374 67.4248 126.575C67.4248 126.776 67.3541 126.947 67.2128 127.088C67.0715 127.23 66.9004 127.3 66.6997 127.3ZM67.2909 133.347H66.1196V127.959H67.2909V133.347ZM70.4279 133.48C69.9743 133.48 69.6284 133.361 69.3905 133.123C69.1599 132.885 69.0446 132.543 69.0446 132.097V128.985H68.1522V127.959H69.0446V126.486H70.2159V127.959H71.3092V128.985H70.2159V131.807C70.2159 132 70.2606 132.157 70.3498 132.276C70.4391 132.387 70.5655 132.443 70.7291 132.443C70.9671 132.443 71.1418 132.38 71.2534 132.253L71.5323 133.135C71.2869 133.365 70.9187 133.48 70.4279 133.48ZM77.1807 133.347H76.0093V129.978C76.0093 129.234 75.6486 128.862 74.9273 128.862C74.6447 128.862 74.3807 128.933 74.1352 129.074C73.8898 129.215 73.6927 129.386 73.544 129.587V133.347H72.3727V127.959H73.544V128.695C73.7448 128.457 74.0125 128.252 74.3472 128.081C74.6818 127.91 75.0463 127.825 75.4404 127.825C76.0131 127.825 76.4444 127.973 76.7344 128.271C77.0319 128.568 77.1807 128.996 77.1807 129.554V133.347ZM83.1642 133.347H81.9929V132.766C81.5764 133.242 80.9963 133.48 80.2527 133.48C79.7618 133.48 79.3268 133.324 78.9475 133.012C78.5682 132.692 78.3785 132.253 78.3785 131.696C78.3785 131.123 78.5645 130.688 78.9363 130.39C79.3156 130.093 79.7544 129.944 80.2527 129.944C81.0187 129.944 81.5987 130.175 81.9929 130.636V129.833C81.9929 129.52 81.8776 129.275 81.6471 129.096C81.4165 128.918 81.1116 128.829 80.7323 128.829C80.1299 128.829 79.5982 129.055 79.1371 129.509L78.6574 128.695C79.2673 128.115 80.0221 127.825 80.922 127.825C81.5839 127.825 82.123 127.981 82.5395 128.293C82.956 128.606 83.1642 129.1 83.1642 129.777V133.347ZM80.71 132.677C81.2975 132.677 81.7252 132.491 81.9929 132.119V131.305C81.7252 130.933 81.2975 130.747 80.71 130.747C80.3754 130.747 80.1002 130.837 79.8845 131.015C79.6689 131.194 79.561 131.428 79.561 131.718C79.561 132.008 79.6689 132.242 79.8845 132.421C80.1002 132.592 80.3754 132.677 80.71 132.677ZM92.4581 133.347H91.2868V129.833C91.2868 129.186 90.993 128.862 90.4055 128.862C90.1601 128.862 89.9221 128.933 89.6916 129.074C89.461 129.215 89.2826 129.383 89.1561 129.576V133.347H87.9848V129.833C87.9848 129.186 87.6873 128.862 87.0924 128.862C86.8544 128.862 86.6201 128.933 86.3896 129.074C86.1665 129.215 85.988 129.386 85.8541 129.587V133.347H84.6828V127.959H85.8541V128.695C85.988 128.494 86.2185 128.301 86.5458 128.115C86.8804 127.921 87.2337 127.825 87.6055 127.825C88.3864 127.825 88.8772 128.156 89.078 128.817C89.2491 128.55 89.5019 128.319 89.8366 128.126C90.1713 127.925 90.5282 127.825 90.9075 127.825C91.9413 127.825 92.4581 128.368 92.4581 129.453V133.347ZM94.5554 127.3C94.3621 127.3 94.191 127.23 94.0423 127.088C93.901 126.947 93.8303 126.776 93.8303 126.575C93.8303 126.374 93.901 126.203 94.0423 126.062C94.191 125.921 94.3621 125.85 94.5554 125.85C94.7562 125.85 94.9273 125.921 95.0686 126.062C95.2099 126.203 95.2805 126.374 95.2805 126.575C95.2805 126.776 95.2099 126.947 95.0686 127.088C94.9273 127.23 94.7562 127.3 94.5554 127.3ZM95.1467 133.347H93.9753V127.959H95.1467V133.347ZM103.134 133.48C102.019 133.48 101.089 133.123 100.346 132.41C99.6019 131.688 99.23 130.762 99.23 129.632C99.23 128.501 99.6019 127.579 100.346 126.865C101.089 126.144 102.019 125.783 103.134 125.783C104.428 125.783 105.425 126.341 106.124 127.457L105.009 128.025C104.823 127.706 104.559 127.445 104.216 127.245C103.882 127.044 103.521 126.943 103.134 126.943C102.398 126.943 101.785 127.196 101.294 127.702C100.81 128.208 100.569 128.851 100.569 129.632C100.569 130.413 100.81 131.056 101.294 131.562C101.785 132.067 102.398 132.32 103.134 132.32C103.529 132.32 103.893 132.22 104.228 132.019C104.562 131.818 104.823 131.558 105.009 131.238L106.124 131.807C105.41 132.923 104.414 133.48 103.134 133.48ZM109.567 133.48C108.734 133.48 108.065 133.209 107.559 132.666C107.053 132.116 106.801 131.443 106.801 130.647C106.801 129.851 107.053 129.182 107.559 128.639C108.065 128.096 108.734 127.825 109.567 127.825C110.407 127.825 111.08 128.096 111.586 128.639C112.092 129.182 112.345 129.851 112.345 130.647C112.345 131.45 112.092 132.123 111.586 132.666C111.08 133.209 110.407 133.48 109.567 133.48ZM109.567 132.443C110.05 132.443 110.43 132.272 110.705 131.93C110.988 131.58 111.129 131.153 111.129 130.647C111.129 130.149 110.988 129.728 110.705 129.386C110.43 129.037 110.05 128.862 109.567 128.862C109.091 128.862 108.712 129.037 108.429 129.386C108.154 129.728 108.016 130.149 108.016 130.647C108.016 131.153 108.154 131.58 108.429 131.93C108.712 132.272 109.091 132.443 109.567 132.443ZM114.701 133.347H113.53V127.959H114.701V128.751C114.909 128.483 115.17 128.263 115.482 128.092C115.794 127.921 116.118 127.836 116.453 127.836V128.996C116.349 128.974 116.226 128.962 116.085 128.962C115.839 128.962 115.575 129.037 115.292 129.186C115.017 129.327 114.82 129.491 114.701 129.676V133.347ZM120.298 133.48C119.584 133.48 119.007 133.187 118.569 132.599V135.399H117.397V127.959H118.569V128.695C119 128.115 119.576 127.825 120.298 127.825C121.004 127.825 121.577 128.078 122.016 128.583C122.462 129.089 122.685 129.777 122.685 130.647C122.685 131.517 122.462 132.209 122.016 132.722C121.577 133.228 121.004 133.48 120.298 133.48ZM119.952 132.443C120.413 132.443 120.781 132.276 121.056 131.941C121.331 131.606 121.469 131.175 121.469 130.647C121.469 130.119 121.331 129.691 121.056 129.364C120.781 129.029 120.413 128.862 119.952 128.862C119.684 128.862 119.42 128.933 119.16 129.074C118.9 129.215 118.702 129.386 118.569 129.587V131.718C118.702 131.919 118.9 132.09 119.16 132.231C119.42 132.372 119.684 132.443 119.952 132.443ZM126.278 133.48C125.445 133.48 124.776 133.209 124.27 132.666C123.765 132.116 123.512 131.443 123.512 130.647C123.512 129.851 123.765 129.182 124.27 128.639C124.776 128.096 125.445 127.825 126.278 127.825C127.119 127.825 127.792 128.096 128.297 128.639C128.803 129.182 129.056 129.851 129.056 130.647C129.056 131.45 128.803 132.123 128.297 132.666C127.792 133.209 127.119 133.48 126.278 133.48ZM126.278 132.443C126.762 132.443 127.141 132.272 127.416 131.93C127.699 131.58 127.84 131.153 127.84 130.647C127.84 130.149 127.699 129.728 127.416 129.386C127.141 129.037 126.762 128.862 126.278 128.862C125.802 128.862 125.423 129.037 125.141 129.386C124.865 129.728 124.728 130.149 124.728 130.647C124.728 131.153 124.865 131.58 125.141 131.93C125.423 132.272 125.802 132.443 126.278 132.443ZM131.413 133.347H130.241V127.959H131.413V128.751C131.621 128.483 131.881 128.263 132.193 128.092C132.506 127.921 132.829 127.836 133.164 127.836V128.996C133.06 128.974 132.937 128.962 132.796 128.962C132.55 128.962 132.286 129.037 132.004 129.186C131.729 129.327 131.532 129.491 131.413 129.676V133.347ZM138.571 133.347H137.399V132.766C136.983 133.242 136.403 133.48 135.659 133.48C135.168 133.48 134.733 133.324 134.354 133.012C133.975 132.692 133.785 132.253 133.785 131.696C133.785 131.123 133.971 130.688 134.343 130.39C134.722 130.093 135.161 129.944 135.659 129.944C136.425 129.944 137.005 130.175 137.399 130.636V129.833C137.399 129.52 137.284 129.275 137.054 129.096C136.823 128.918 136.518 128.829 136.139 128.829C135.536 128.829 135.005 129.055 134.544 129.509L134.064 128.695C134.674 128.115 135.429 127.825 136.328 127.825C136.99 127.825 137.53 127.981 137.946 128.293C138.362 128.606 138.571 129.1 138.571 129.777V133.347ZM136.117 132.677C136.704 132.677 137.132 132.491 137.399 132.119V131.305C137.132 130.933 136.704 130.747 136.117 130.747C135.782 130.747 135.507 130.837 135.291 131.015C135.075 131.194 134.968 131.428 134.968 131.718C134.968 132.008 135.075 132.242 135.291 132.421C135.507 132.592 135.782 132.677 136.117 132.677ZM141.707 133.48C141.253 133.48 140.907 133.361 140.669 133.123C140.439 132.885 140.324 132.543 140.324 132.097V128.985H139.431V127.959H140.324V126.486H141.495V127.959H142.588V128.985H141.495V131.807C141.495 132 141.54 132.157 141.629 132.276C141.718 132.387 141.844 132.443 142.008 132.443C142.246 132.443 142.421 132.38 142.532 132.253L142.811 133.135C142.566 133.365 142.198 133.48 141.707 133.48ZM144.232 127.3C144.038 127.3 143.867 127.23 143.719 127.088C143.577 126.947 143.507 126.776 143.507 126.575C143.507 126.374 143.577 126.203 143.719 126.062C143.867 125.921 144.038 125.85 144.232 125.85C144.433 125.85 144.604 125.921 144.745 126.062C144.886 126.203 144.957 126.374 144.957 126.575C144.957 126.776 144.886 126.947 144.745 127.088C144.604 127.23 144.433 127.3 144.232 127.3ZM144.823 133.347H143.652V127.959H144.823V133.347ZM148.774 133.48C147.941 133.48 147.272 133.209 146.766 132.666C146.261 132.116 146.008 131.443 146.008 130.647C146.008 129.851 146.261 129.182 146.766 128.639C147.272 128.096 147.941 127.825 148.774 127.825C149.615 127.825 150.288 128.096 150.793 128.639C151.299 129.182 151.552 129.851 151.552 130.647C151.552 131.45 151.299 132.123 150.793 132.666C150.288 133.209 149.615 133.48 148.774 133.48ZM148.774 132.443C149.258 132.443 149.637 132.272 149.912 131.93C150.195 131.58 150.336 131.153 150.336 130.647C150.336 130.149 150.195 129.728 149.912 129.386C149.637 129.037 149.258 128.862 148.774 128.862C148.298 128.862 147.919 129.037 147.636 129.386C147.361 129.728 147.224 130.149 147.224 130.647C147.224 131.153 147.361 131.58 147.636 131.93C147.919 132.272 148.298 132.443 148.774 132.443ZM157.545 133.347H156.374V129.978C156.374 129.234 156.013 128.862 155.292 128.862C155.009 128.862 154.745 128.933 154.5 129.074C154.254 129.215 154.057 129.386 153.908 129.587V133.347H152.737V127.959H153.908V128.695C154.109 128.457 154.377 128.252 154.712 128.081C155.046 127.91 155.411 127.825 155.805 127.825C156.378 127.825 156.809 127.973 157.099 128.271C157.396 128.568 157.545 128.996 157.545 129.554V133.347Z" fill="white"/>
<path d="M59.6669 116.954H58.8733V110.576H61.4358C62.0541 110.576 62.5418 110.761 62.8988 111.131C63.2557 111.501 63.4342 111.956 63.4342 112.498C63.4342 113.04 63.2525 113.496 62.8892 113.866C62.5322 114.235 62.0478 114.42 61.4358 114.42H59.6669V116.954ZM61.3402 113.713C61.7163 113.713 62.0223 113.601 62.2581 113.378C62.494 113.149 62.6119 112.855 62.6119 112.498C62.6119 112.141 62.494 111.851 62.2581 111.628C62.0223 111.399 61.7163 111.284 61.3402 111.284H59.6669V113.713H61.3402ZM68.0068 116.371C67.5925 116.836 67.0411 117.069 66.3526 117.069C65.6642 117.069 65.1096 116.836 64.6889 116.371C64.2746 115.905 64.0674 115.329 64.0674 114.64C64.0674 113.952 64.2746 113.378 64.6889 112.919C65.1096 112.454 65.6642 112.221 66.3526 112.221C67.0411 112.221 67.5925 112.454 68.0068 112.919C68.4275 113.378 68.6379 113.952 68.6379 114.64C68.6379 115.329 68.4275 115.905 68.0068 116.371ZM65.2244 115.912C65.5048 116.256 65.8809 116.428 66.3526 116.428C66.8244 116.428 67.1973 116.256 67.4714 115.912C67.7455 115.561 67.8825 115.137 67.8825 114.64C67.8825 114.143 67.7455 113.722 67.4714 113.378C67.1973 113.034 66.8244 112.862 66.3526 112.862C65.8809 112.862 65.5048 113.037 65.2244 113.388C64.9502 113.732 64.8132 114.149 64.8132 114.64C64.8132 115.137 64.9502 115.561 65.2244 115.912ZM70.5241 116.954H69.807V112.336H70.5241V113.082C70.9512 112.521 71.4643 112.24 72.0635 112.24V112.976C71.9743 112.957 71.8787 112.948 71.7767 112.948C71.56 112.948 71.3241 113.024 71.0691 113.177C70.8141 113.33 70.6325 113.499 70.5241 113.684V116.954ZM74.1296 117.069C73.7918 117.069 73.5368 116.976 73.3647 116.792C73.1926 116.607 73.1065 116.339 73.1065 115.988V112.967H72.3416V112.336H73.1065V111.074H73.8237V112.336H74.7607V112.967H73.8237V115.835C73.8237 116.014 73.8619 116.157 73.9384 116.266C74.0213 116.374 74.1392 116.428 74.2922 116.428C74.5025 116.428 74.6651 116.364 74.7798 116.237L74.9902 116.772C74.7798 116.97 74.493 117.069 74.1296 117.069ZM76.6917 116.954H75.9745V112.967H75.2096V112.336H75.9745V111.982C75.9745 111.51 76.0925 111.144 76.3283 110.882C76.5705 110.615 76.8988 110.481 77.3132 110.481C77.7084 110.481 78.0335 110.599 78.2885 110.835L77.9921 111.303C77.8199 111.15 77.6287 111.074 77.4184 111.074C77.1825 111.074 77.0008 111.153 76.8733 111.313C76.7522 111.466 76.6917 111.689 76.6917 111.982V112.336H77.6287V112.967H76.6917V116.954ZM82.1534 116.371C81.739 116.836 81.1876 117.069 80.4992 117.069C79.8107 117.069 79.2562 116.836 78.8354 116.371C78.4211 115.905 78.2139 115.329 78.2139 114.64C78.2139 113.952 78.4211 113.378 78.8354 112.919C79.2562 112.454 79.8107 112.221 80.4992 112.221C81.1876 112.221 81.739 112.454 82.1534 112.919C82.5741 113.378 82.7844 113.952 82.7844 114.64C82.7844 115.329 82.5741 115.905 82.1534 116.371ZM79.3709 115.912C79.6514 116.256 80.0275 116.428 80.4992 116.428C80.9709 116.428 81.3438 116.256 81.6179 115.912C81.892 115.561 82.0291 115.137 82.0291 114.64C82.0291 114.143 81.892 113.722 81.6179 113.378C81.3438 113.034 80.9709 112.862 80.4992 112.862C80.0275 112.862 79.6514 113.037 79.3709 113.388C79.0968 113.732 78.9597 114.149 78.9597 114.64C78.9597 115.137 79.0968 115.561 79.3709 115.912ZM84.6706 116.954H83.9535V110.576H84.6706V116.954ZM86.455 111.676C86.3275 111.676 86.2159 111.631 86.1203 111.542C86.0247 111.447 85.9769 111.332 85.9769 111.198C85.9769 111.064 86.0247 110.949 86.1203 110.854C86.2159 110.758 86.3275 110.71 86.455 110.71C86.5888 110.71 86.7036 110.758 86.7992 110.854C86.8948 110.949 86.9426 111.064 86.9426 111.198C86.9426 111.332 86.8948 111.447 86.7992 111.542C86.7036 111.631 86.5888 111.676 86.455 111.676ZM86.8183 116.954H86.1012V112.336H86.8183V116.954ZM91.9205 116.371C91.5062 116.836 90.9548 117.069 90.2664 117.069C89.5779 117.069 89.0233 116.836 88.6026 116.371C88.1883 115.905 87.9811 115.329 87.9811 114.64C87.9811 113.952 88.1883 113.378 88.6026 112.919C89.0233 112.454 89.5779 112.221 90.2664 112.221C90.9548 112.221 91.5062 112.454 91.9205 112.919C92.3413 113.378 92.5516 113.952 92.5516 114.64C92.5516 115.329 92.3413 115.905 91.9205 116.371ZM89.1381 115.912C89.4186 116.256 89.7946 116.428 90.2664 116.428C90.7381 116.428 91.111 116.256 91.3851 115.912C91.6592 115.561 91.7962 115.137 91.7962 114.64C91.7962 114.143 91.6592 113.722 91.3851 113.378C91.111 113.034 90.7381 112.862 90.2664 112.862C89.7946 112.862 89.4186 113.037 89.1381 113.388C88.864 113.732 88.7269 114.149 88.7269 114.64C88.7269 115.137 88.864 115.561 89.1381 115.912ZM99.8575 116.371C99.4432 116.836 98.8918 117.069 98.2034 117.069C97.5149 117.069 96.9603 116.836 96.5396 116.371C96.1253 115.905 95.9181 115.329 95.9181 114.64C95.9181 113.952 96.1253 113.378 96.5396 112.919C96.9603 112.454 97.5149 112.221 98.2034 112.221C98.8918 112.221 99.4432 112.454 99.8575 112.919C100.278 113.378 100.489 113.952 100.489 114.64C100.489 115.329 100.278 115.905 99.8575 116.371ZM97.0751 115.912C97.3556 116.256 97.7316 116.428 98.2034 116.428C98.6751 116.428 99.048 116.256 99.3221 115.912C99.5962 115.561 99.7332 115.137 99.7332 114.64C99.7332 114.143 99.5962 113.722 99.3221 113.378C99.048 113.034 98.6751 112.862 98.2034 112.862C97.7316 112.862 97.3556 113.037 97.0751 113.388C96.801 113.732 96.6639 114.149 96.6639 114.64C96.6639 115.137 96.801 115.561 97.0751 115.912ZM106.372 116.954H105.655L104.45 113.244L103.245 116.954H102.528L101.055 112.336H101.801L102.929 116.017L104.144 112.336H104.756L105.97 116.017L107.098 112.336H107.844L106.372 116.954ZM112.514 116.954H111.797V113.933C111.797 113.544 111.707 113.27 111.529 113.11C111.351 112.945 111.096 112.862 110.764 112.862C110.496 112.862 110.235 112.932 109.98 113.072C109.731 113.212 109.537 113.381 109.397 113.579V116.954H108.68V112.336H109.397V113.005C109.575 112.795 109.814 112.613 110.114 112.46C110.413 112.301 110.723 112.221 111.041 112.221C112.023 112.221 112.514 112.718 112.514 113.713V116.954ZM116.031 117.069C115.342 117.069 114.778 116.846 114.338 116.4C113.898 115.947 113.678 115.36 113.678 114.64C113.678 113.964 113.895 113.394 114.329 112.929C114.762 112.457 115.304 112.221 115.954 112.221C116.636 112.221 117.175 112.457 117.57 112.929C117.972 113.394 118.172 113.984 118.172 114.698V114.879H114.434C114.466 115.332 114.631 115.711 114.931 116.017C115.231 116.323 115.619 116.476 116.097 116.476C116.671 116.476 117.146 116.282 117.522 115.893L117.866 116.361C117.395 116.833 116.783 117.069 116.031 117.069ZM117.465 114.353C117.458 113.958 117.325 113.604 117.063 113.292C116.802 112.973 116.429 112.814 115.944 112.814C115.485 112.814 115.122 112.97 114.854 113.282C114.593 113.595 114.453 113.952 114.434 114.353H117.465ZM120.051 116.954H119.334V112.336H120.051V113.082C120.478 112.521 120.991 112.24 121.59 112.24V112.976C121.501 112.957 121.406 112.948 121.304 112.948C121.087 112.948 120.851 113.024 120.596 113.177C120.341 113.33 120.159 113.499 120.051 113.684V116.954Z" fill="white"/>
<g clip-path="url(#clip0_1_2006)">
<g clip-path="url(#clip1_1_2006)">
<g clip-path="url(#clip2_1_2006)">
<path d="M244.317 20.1838C246.197 20.1838 247.428 21.6122 247.428 23.6283C247.428 25.6342 246.104 27.0966 244.246 27.0966C243.8 27.0966 243.389 27.0144 243.047 26.8661L243.002 26.8459L243.002 29.2265H240.468V20.3266H242.943L242.943 20.5146L242.948 20.5117C243.309 20.3179 243.755 20.1979 244.231 20.185L244.279 20.184L244.317 20.1838ZM251.594 20.1481C253.59 20.1481 255.098 21.629 255.098 23.6402C255.098 25.6533 253.588 27.1442 251.594 27.1442C249.609 27.1442 248.09 25.6495 248.09 23.6402C248.09 21.6328 249.607 20.1481 251.594 20.1481ZM226.998 17.6256V20.4923L227.025 20.4787C227.378 20.3042 227.809 20.1972 228.262 20.185L228.31 20.184L228.349 20.1838C230.229 20.1838 231.46 21.6122 231.46 23.6283C231.46 25.6342 230.136 27.0966 228.277 27.0966C227.815 27.0966 227.387 26.9897 227.033 26.7996L226.998 26.7803L226.974 26.7669V26.9658H224.5V17.6256H226.998ZM238.684 18.6013L238.684 20.3266H239.838V22.6346H238.684L238.684 24.485C238.684 24.6978 238.714 24.7364 238.927 24.7406L238.976 24.741C239.089 24.741 239.203 24.7259 239.333 24.6987L239.373 24.6901L239.814 24.592V26.7677L239.614 26.868C239.378 26.9858 239.016 27.0728 238.512 27.0728C237.104 27.0728 236.192 26.2063 236.174 24.8476L236.174 24.8063L236.174 22.6346H235.127V20.3266H235.787C236.153 20.3266 236.333 20.1289 236.34 19.7478L236.34 19.7256V18.6013H238.684ZM234.576 20.2909V26.9658H232.042V20.2909H234.576ZM254.922 20.3266H257.571L258.313 22.954L259.189 20.3266H261.628L262.493 22.956L263.233 20.3266H265.773L263.715 26.9658H261.391L260.369 23.9306L259.367 26.9658H257.006L254.922 20.3266ZM269.924 20.2671C270.119 20.2671 270.319 20.2911 270.474 20.3332L270.505 20.3419L270.763 20.4194V22.9322L270.317 22.8273C270.166 22.7917 270.014 22.7774 269.829 22.7774C269.198 22.7774 268.821 23.1475 268.812 23.9907L268.812 24.021V26.9658H266.278V20.3266H268.752L268.752 20.5746L268.775 20.5614C269.094 20.3762 269.469 20.2793 269.85 20.2682L269.892 20.2673L269.924 20.2671ZM243.948 22.5394C243.371 22.5394 242.978 22.9275 242.978 23.6402C242.978 24.3487 243.38 24.7529 243.948 24.7529C244.532 24.7529 244.93 24.3575 244.93 23.6402C244.93 22.9261 244.536 22.5394 243.948 22.5394ZM251.588 22.4791C251.011 22.4791 250.619 22.8671 250.619 23.5799C250.619 24.2883 251.02 24.6925 251.588 24.6925C252.172 24.6925 252.57 24.2971 252.57 23.5799C252.57 22.8658 252.176 22.4791 251.588 22.4791ZM227.956 22.5394C227.37 22.5394 226.974 22.9232 226.974 23.6402C226.974 24.3456 227.384 24.7529 227.956 24.7529C228.529 24.7529 228.926 24.3561 228.926 23.6402C228.926 22.9201 228.538 22.5394 227.956 22.5394ZM233.299 17.618C234.007 17.618 234.579 18.1859 234.579 18.8877C234.579 19.5895 234.007 20.1574 233.299 20.1574C232.608 20.1574 232.04 19.5851 232.04 18.8877C232.04 18.1903 232.608 17.618 233.299 17.618Z" fill="white"/>
<path fill-rule="evenodd" clip-rule="evenodd" d="M209.64 18.1619C211.242 18.1619 212.536 16.8626 212.529 15.2598C212.522 13.657 211.217 12.3577 209.614 12.3577C208.012 12.3577 206.718 13.657 206.725 15.2598C206.732 16.8626 208.037 18.1619 209.64 18.1619Z" fill="url(#paint1_linear_1_2006)"/>
<path fill-rule="evenodd" clip-rule="evenodd" d="M209.533 25.1295C209.438 25.2829 209.427 25.4748 209.505 25.6405C209.591 25.821 209.77 25.9396 209.971 25.9466L211.508 26.0024L210.936 29.6591C210.897 29.9059 211.035 30.147 211.268 30.2407L211.448 30.278C211.473 30.2789 211.5 30.279 211.528 30.2782C211.03 30.6859 210.393 30.9305 209.698 30.9305C208.095 30.9305 206.79 29.6311 206.783 28.0283C206.776 26.4736 207.993 25.2045 209.529 25.1297L209.533 25.1295ZM216.057 25.1262C217.66 25.1262 218.965 26.4256 218.972 28.0283C218.979 29.6311 217.685 30.9305 216.082 30.9305C214.564 30.9305 213.313 29.7641 213.179 28.2783L215.176 25.2626C215.454 25.174 215.75 25.1262 216.057 25.1262ZM209.645 18.7416C211.102 18.7416 212.313 19.8153 212.526 21.2146L209.99 24.5284C209.885 24.5399 209.778 24.5458 209.67 24.5458C208.067 24.5458 206.762 23.2465 206.755 21.6437C206.748 20.0409 208.042 18.7416 209.645 18.7416ZM216.029 18.7416C217.632 18.7416 218.937 20.0409 218.944 21.6437C218.951 23.2465 217.657 24.5458 216.055 24.5458C215.923 24.5458 215.794 24.5371 215.668 24.5202L215.85 24.2448C215.96 24.084 215.972 23.8769 215.885 23.7028C215.796 23.5286 215.621 23.4166 215.425 23.4087L213.891 23.412L214.499 20.3105C214.546 20.0672 214.419 19.8222 214.193 19.7191C214.098 19.677 213.997 19.6639 213.899 19.6771C214.427 19.1019 215.185 18.7416 216.029 18.7416Z" fill="url(#paint2_linear_1_2006)"/>
<path d="M211.942 27.8129L212.301 25.2651H211.017C210.856 25.2651 210.726 25.1351 210.725 24.9748C210.725 24.9127 210.744 24.8523 210.781 24.8023L212.931 21.8769C213.025 21.748 213.207 21.7207 213.336 21.816C213.424 21.8804 213.468 21.988 213.452 22.095L213.15 24.0412H214.552C214.712 24.0412 214.843 24.1711 214.843 24.3314C214.843 24.3885 214.827 24.4443 214.795 24.4919L212.472 28.0151C212.384 28.1486 212.204 28.185 212.07 28.0964C211.976 28.0343 211.926 27.9239 211.942 27.8129Z" fill="white"/>
<path opacity="0.302" fill-rule="evenodd" clip-rule="evenodd" d="M209.492 18.3946C211.095 18.3946 212.389 17.0952 212.382 15.4924C212.375 13.8897 211.07 12.5903 209.467 12.5903C207.864 12.5903 206.571 13.8897 206.578 15.4924C206.585 17.0952 207.89 18.3946 209.492 18.3946Z" fill="url(#paint3_linear_1_2006)"/>
<path opacity="0.302" fill-rule="evenodd" clip-rule="evenodd" d="M209.384 25.362C209.289 25.5154 209.278 25.7074 209.356 25.873C209.441 26.0536 209.62 26.1721 209.821 26.1791L211.358 26.2349L210.786 29.8917C210.748 30.1384 210.886 30.3796 211.118 30.4733L211.298 30.5105C211.324 30.5114 211.351 30.5116 211.379 30.5107C210.881 30.9185 210.244 31.163 209.548 31.163C207.946 31.163 206.641 29.8637 206.634 28.2609C206.627 26.7062 207.844 25.437 209.38 25.3623L209.384 25.362ZM215.908 25.3588C217.511 25.3588 218.816 26.6581 218.823 28.2609C218.829 29.8637 217.536 31.163 215.933 31.163C214.414 31.163 213.163 29.9966 213.03 28.5109L215.027 25.4952C215.304 25.4066 215.6 25.3588 215.908 25.3588ZM209.495 18.9741C210.952 18.9741 212.163 20.0478 212.377 21.4472L209.84 24.7609C209.735 24.7724 209.629 24.7784 209.521 24.7784C207.918 24.7784 206.613 23.479 206.606 21.8762C206.599 20.2734 207.892 18.9741 209.495 18.9741ZM215.88 18.9741C217.483 18.9741 218.788 20.2734 218.795 21.8762C218.802 23.479 217.508 24.7784 215.905 24.7784C215.774 24.7784 215.645 24.7696 215.518 24.7528L215.7 24.4774C215.81 24.3165 215.823 24.1095 215.735 23.9353C215.646 23.7611 215.471 23.6491 215.276 23.6412L213.742 23.6446L214.349 20.543C214.396 20.2998 214.27 20.0548 214.043 19.9517C213.949 19.9095 213.847 19.8964 213.75 19.9096C214.278 19.3344 215.036 18.9741 215.88 18.9741Z" fill="url(#paint4_linear_1_2006)"/>
<path opacity="0.302" d="M211.791 28.0454L212.15 25.4976H210.866C210.705 25.4976 210.575 25.3677 210.574 25.2074C210.574 25.1453 210.594 25.0848 210.63 25.0349L212.78 22.1094C212.874 21.9805 213.056 21.9533 213.185 22.0485C213.273 22.1129 213.317 22.2205 213.301 22.3275L213 24.2737H214.401C214.561 24.2737 214.692 24.4036 214.692 24.5639C214.693 24.621 214.676 24.6769 214.645 24.7244L212.321 28.2476C212.233 28.3812 212.053 28.4176 211.919 28.3289C211.825 28.2668 211.775 28.1565 211.791 28.0454Z" fill="#CCCCCC"/>
<path fill-rule="evenodd" clip-rule="evenodd" d="M209.278 18.5683C210.88 18.5683 212.174 17.2689 212.167 15.6662C212.16 14.0634 210.855 12.764 209.252 12.764C207.65 12.764 206.356 14.0634 206.363 15.6662C206.37 17.2689 207.675 18.5683 209.278 18.5683Z" fill="white"/>
<path fill-rule="evenodd" clip-rule="evenodd" d="M209.167 25.5365C209.073 25.6899 209.062 25.8818 209.14 26.0475C209.225 26.228 209.404 26.3465 209.605 26.3536L211.142 26.4094L210.57 30.0661C210.532 30.3129 210.67 30.554 210.902 30.6477L211.082 30.685C211.108 30.6859 211.135 30.686 211.163 30.6852C210.665 31.0929 210.027 31.3374 209.332 31.3374C207.729 31.3374 206.424 30.0381 206.417 28.4353C206.411 26.8806 207.628 25.6114 209.163 25.5367L209.167 25.5365ZM215.692 25.5332C217.294 25.5332 218.599 26.8325 218.606 28.4353C218.613 30.0381 217.32 31.3374 215.717 31.3374C214.198 31.3374 212.947 30.1711 212.814 28.6853L214.81 25.6696C215.088 25.581 215.384 25.5332 215.692 25.5332ZM209.279 19.1486C210.736 19.1486 211.947 20.2223 212.16 21.6216L209.624 24.9354C209.519 24.9469 209.412 24.9528 209.304 24.9528C207.702 24.9528 206.397 23.6535 206.39 22.0507C206.383 20.4479 207.676 19.1486 209.279 19.1486ZM215.664 19.1486C217.266 19.1486 218.571 20.4479 218.578 22.0507C218.585 23.6535 217.292 24.9528 215.689 24.9528C215.558 24.9528 215.429 24.9441 215.302 24.9272L215.484 24.6518C215.594 24.491 215.607 24.2839 215.519 24.1098C215.43 23.9355 215.255 23.8236 215.059 23.8157L213.526 23.819L214.133 20.7175C214.18 20.4742 214.054 20.2292 213.827 20.1261C213.733 20.084 213.631 20.0708 213.534 20.0841C214.061 19.5088 214.82 19.1486 215.664 19.1486Z" fill="white"/>
<path d="M211.576 28.2199L211.935 25.672H210.651C210.49 25.672 210.36 25.5421 210.359 25.3818C210.359 25.3197 210.379 25.2593 210.415 25.2093L212.565 22.2839C212.66 22.155 212.841 22.1277 212.97 22.223C213.058 22.2874 213.102 22.395 213.086 22.502L212.785 24.4482H214.186C214.346 24.4482 214.477 24.5781 214.477 24.7384C214.478 24.7955 214.461 24.8513 214.43 24.8989L212.106 28.4221C212.018 28.5556 211.838 28.592 211.704 28.5033C211.61 28.4413 211.56 28.3309 211.576 28.2199Z" fill="white"/>
</g>
</g>
</g>
</g>
<defs>
<filter id="filter0_d_1_2006" x="0.381376" y="0.205811" width="332.051" height="254.2" filterUnits="userSpaceOnUse" color-interpolation-filters="sRGB">
<feFlood flood-opacity="0" result="BackgroundImageFix"/>
<feColorMatrix in="SourceAlpha" type="matrix" values="0 0 0 0 0 0 0 0 0 0 0 0 0 0 0 0 0 0 127 0" result="hardAlpha"/>
<feMorphology radius="25.6" operator="erode" in="SourceAlpha" result="effect1_dropShadow_1_2006"/>
<feOffset dy="40"/>
<feGaussianBlur stdDeviation="32"/>
<feComposite in2="hardAlpha" operator="out"/>
<feColorMatrix type="matrix" values="0 0 0 0 0.321569 0 0 0 0 0.521569 0 0 0 0 0.94902 0 0 0 0.07 0"/>
<feBlend mode="normal" in2="BackgroundImageFix" result="effect1_dropShadow_1_2006"/>
<feBlend mode="normal" in="SourceGraphic" in2="effect1_dropShadow_1_2006" result="shape"/>
</filter>
<radialGradient id="paint0_radial_1_2006" cx="0" cy="0" r="1" gradientUnits="userSpaceOnUse" gradientTransform="translate(161.579 0.205932) scale(199.17 310.841)">
<stop stop-color="#5285F2"/>
<stop offset="1" stop-color="#2250E7"/>
</radialGradient>
<linearGradient id="paint1_linear_1_2006" x1="206.725" y1="10.4755" x2="210.834" y2="20.9938" gradientUnits="userSpaceOnUse">
<stop stop-color="#6297F6"/>
<stop offset="1" stop-color="#2250E7"/>
</linearGradient>
<linearGradient id="paint2_linear_1_2006" x1="206.755" y1="14.8349" x2="215.37" y2="36.8357" gradientUnits="userSpaceOnUse">
<stop stop-color="#6297F6"/>
<stop offset="1" stop-color="#2250E7"/>
</linearGradient>
<linearGradient id="paint3_linear_1_2006" x1="206.578" y1="10.7082" x2="210.687" y2="21.2265" gradientUnits="userSpaceOnUse">
<stop stop-color="#6297F6"/>
<stop offset="1" stop-color="#2250E7"/>
</linearGradient>
<linearGradient id="paint4_linear_1_2006" x1="206.606" y1="15.0675" x2="215.221" y2="37.0683" gradientUnits="userSpaceOnUse">
<stop stop-color="#6297F6"/>
<stop offset="1" stop-color="#2250E7"/>
</linearGradient>
<clipPath id="clip0_1_2006">
<rect width="68.5391" height="19.0552" fill="white" transform="translate(206.363 12.3577)"/>
</clipPath>
<clipPath id="clip1_1_2006">
<rect width="64.5418" height="19.0552" fill="white" transform="translate(206.363 12.3577)"/>
</clipPath>
<clipPath id="clip2_1_2006">
<rect width="64.5418" height="19.0451" fill="white" transform="translate(206.363 12.3577)"/>
</clipPath>
</defs>
</svg>
