<svg width="305" height="235" viewBox="0 0 305 235" fill="none" xmlns="http://www.w3.org/2000/svg">
<ellipse cx="3" cy="3.16827" rx="3" ry="3.04034" fill="#4ECC4E"/>
<ellipse cx="3" cy="28.5044" rx="3" ry="3.04034" fill="#4ECC4E"/>
<ellipse cx="3" cy="53.8406" rx="3" ry="3.04034" fill="#4ECC4E"/>
<ellipse cx="3" cy="79.1768" rx="3" ry="3.04034" fill="#4ECC4E"/>
<ellipse cx="3" cy="104.513" rx="3" ry="3.04034" fill="#4ECC4E"/>
<ellipse cx="3" cy="129.849" rx="3" ry="3.04034" fill="#4ECC4E"/>
<ellipse cx="3" cy="155.185" rx="3" ry="3.04034" fill="#4ECC4E"/>
<ellipse cx="3" cy="180.521" rx="3" ry="3.04034" fill="#4ECC4E"/>
<ellipse cx="3" cy="205.858" rx="3" ry="3.04034" fill="#4ECC4E"/>
<ellipse cx="3" cy="231.194" rx="3" ry="3.04034" fill="#4ECC4E"/>
<ellipse cx="27" cy="3.16827" rx="3" ry="3.04034" fill="#4ECC4E"/>
<ellipse cx="52" cy="3.16827" rx="3" ry="3.04034" fill="#4ECC4E"/>
<ellipse cx="77" cy="3.16827" rx="3" ry="3.04034" fill="#4ECC4E"/>
<ellipse cx="102" cy="3.16827" rx="3" ry="3.04034" fill="#4ECC4E"/>
<ellipse cx="127" cy="3.16827" rx="3" ry="3.04034" fill="#4ECC4E"/>
<ellipse cx="152" cy="3.16827" rx="3" ry="3.04034" fill="#4ECC4E"/>
<ellipse cx="177" cy="3.16827" rx="3" ry="3.04034" fill="#4ECC4E"/>
<ellipse cx="202" cy="3.16827" rx="3" ry="3.04034" fill="#4ECC4E"/>
<ellipse cx="227" cy="3.16827" rx="3" ry="3.04034" fill="#4ECC4E"/>
<ellipse cx="252" cy="3.16827" rx="3" ry="3.04034" fill="#4ECC4E"/>
<ellipse cx="277" cy="3.16827" rx="3" ry="3.04034" fill="#4ECC4E"/>
<ellipse cx="302" cy="3.16827" rx="3" ry="3.04034" fill="#4ECC4E"/>
<ellipse cx="27" cy="28.5044" rx="3" ry="3.04034" fill="#4ECC4E"/>
<ellipse cx="52" cy="28.5044" rx="3" ry="3.04034" fill="#4ECC4E"/>
<ellipse cx="77" cy="28.5044" rx="3" ry="3.04034" fill="#4ECC4E"/>
<ellipse cx="102" cy="28.5044" rx="3" ry="3.04034" fill="#4ECC4E"/>
<ellipse cx="127" cy="28.5044" rx="3" ry="3.04034" fill="#4ECC4E"/>
<ellipse cx="152" cy="28.5044" rx="3" ry="3.04034" fill="#4ECC4E"/>
<ellipse cx="177" cy="28.5044" rx="3" ry="3.04034" fill="#4ECC4E"/>
<ellipse cx="202" cy="28.5044" rx="3" ry="3.04034" fill="#4ECC4E"/>
<ellipse cx="227" cy="28.5044" rx="3" ry="3.04034" fill="#4ECC4E"/>
<ellipse cx="252" cy="28.5044" rx="3" ry="3.04034" fill="#4ECC4E"/>
<ellipse cx="277" cy="28.5044" rx="3" ry="3.04034" fill="#4ECC4E"/>
<ellipse cx="302" cy="28.5044" rx="3" ry="3.04034" fill="#4ECC4E"/>
<ellipse cx="27" cy="53.8406" rx="3" ry="3.04034" fill="#4ECC4E"/>
<ellipse cx="52" cy="53.8406" rx="3" ry="3.04034" fill="#4ECC4E"/>
<ellipse cx="77" cy="53.8406" rx="3" ry="3.04034" fill="#4ECC4E"/>
<ellipse cx="102" cy="53.8406" rx="3" ry="3.04034" fill="#4ECC4E"/>
<ellipse cx="127" cy="53.8406" rx="3" ry="3.04034" fill="#4ECC4E"/>
<ellipse cx="152" cy="53.8406" rx="3" ry="3.04034" fill="#4ECC4E"/>
<ellipse cx="177" cy="53.8406" rx="3" ry="3.04034" fill="#4ECC4E"/>
<ellipse cx="202" cy="53.8406" rx="3" ry="3.04034" fill="#4ECC4E"/>
<ellipse cx="227" cy="53.8406" rx="3" ry="3.04034" fill="#4ECC4E"/>
<ellipse cx="252" cy="53.8406" rx="3" ry="3.04034" fill="#4ECC4E"/>
<ellipse cx="277" cy="53.8406" rx="3" ry="3.04034" fill="#4ECC4E"/>
<ellipse cx="302" cy="53.8406" rx="3" ry="3.04034" fill="#4ECC4E"/>
<ellipse cx="27" cy="79.1768" rx="3" ry="3.04034" fill="#4ECC4E"/>
<ellipse cx="52" cy="79.1768" rx="3" ry="3.04034" fill="#4ECC4E"/>
<ellipse cx="77" cy="79.1768" rx="3" ry="3.04034" fill="#4ECC4E"/>
<ellipse cx="102" cy="79.1768" rx="3" ry="3.04034" fill="#4ECC4E"/>
<ellipse cx="127" cy="79.1768" rx="3" ry="3.04034" fill="#4ECC4E"/>
<ellipse cx="152" cy="79.1768" rx="3" ry="3.04034" fill="#4ECC4E"/>
<ellipse cx="177" cy="79.1768" rx="3" ry="3.04034" fill="#4ECC4E"/>
<ellipse cx="202" cy="79.1768" rx="3" ry="3.04034" fill="#4ECC4E"/>
<ellipse cx="227" cy="79.1768" rx="3" ry="3.04034" fill="#4ECC4E"/>
<ellipse cx="252" cy="79.1768" rx="3" ry="3.04034" fill="#4ECC4E"/>
<ellipse cx="277" cy="79.1768" rx="3" ry="3.04034" fill="#4ECC4E"/>
<ellipse cx="302" cy="79.1768" rx="3" ry="3.04034" fill="#4ECC4E"/>
<ellipse cx="27" cy="104.513" rx="3" ry="3.04034" fill="#4ECC4E"/>
<ellipse cx="52" cy="104.513" rx="3" ry="3.04034" fill="#4ECC4E"/>
<ellipse cx="77" cy="104.513" rx="3" ry="3.04034" fill="#4ECC4E"/>
<ellipse cx="102" cy="104.513" rx="3" ry="3.04034" fill="#4ECC4E"/>
<ellipse cx="127" cy="104.513" rx="3" ry="3.04034" fill="#4ECC4E"/>
<ellipse cx="152" cy="104.513" rx="3" ry="3.04034" fill="#4ECC4E"/>
<ellipse cx="177" cy="104.513" rx="3" ry="3.04034" fill="#4ECC4E"/>
<ellipse cx="202" cy="104.513" rx="3" ry="3.04034" fill="#4ECC4E"/>
<ellipse cx="227" cy="104.513" rx="3" ry="3.04034" fill="#4ECC4E"/>
<ellipse cx="252" cy="104.513" rx="3" ry="3.04034" fill="#4ECC4E"/>
<ellipse cx="277" cy="104.513" rx="3" ry="3.04034" fill="#4ECC4E"/>
<ellipse cx="302" cy="104.513" rx="3" ry="3.04034" fill="#4ECC4E"/>
<ellipse cx="27" cy="129.849" rx="3" ry="3.04034" fill="#4ECC4E"/>
<ellipse cx="52" cy="129.849" rx="3" ry="3.04034" fill="#4ECC4E"/>
<ellipse cx="77" cy="129.849" rx="3" ry="3.04034" fill="#4ECC4E"/>
<ellipse cx="102" cy="129.849" rx="3" ry="3.04034" fill="#4ECC4E"/>
<ellipse cx="127" cy="129.849" rx="3" ry="3.04034" fill="#4ECC4E"/>
<ellipse cx="152" cy="129.849" rx="3" ry="3.04034" fill="#4ECC4E"/>
<ellipse cx="177" cy="129.849" rx="3" ry="3.04034" fill="#4ECC4E"/>
<ellipse cx="202" cy="129.849" rx="3" ry="3.04034" fill="#4ECC4E"/>
<ellipse cx="227" cy="129.849" rx="3" ry="3.04034" fill="#4ECC4E"/>
<ellipse cx="252" cy="129.849" rx="3" ry="3.04034" fill="#4ECC4E"/>
<ellipse cx="277" cy="129.849" rx="3" ry="3.04034" fill="#4ECC4E"/>
<ellipse cx="302" cy="129.849" rx="3" ry="3.04034" fill="#4ECC4E"/>
<ellipse cx="27" cy="155.185" rx="3" ry="3.04034" fill="#4ECC4E"/>
<ellipse cx="52" cy="155.185" rx="3" ry="3.04034" fill="#4ECC4E"/>
<ellipse cx="77" cy="155.185" rx="3" ry="3.04034" fill="#4ECC4E"/>
<ellipse cx="102" cy="155.185" rx="3" ry="3.04034" fill="#4ECC4E"/>
<ellipse cx="127" cy="155.185" rx="3" ry="3.04034" fill="#4ECC4E"/>
<ellipse cx="152" cy="155.185" rx="3" ry="3.04034" fill="#4ECC4E"/>
<ellipse cx="177" cy="155.185" rx="3" ry="3.04034" fill="#4ECC4E"/>
<ellipse cx="202" cy="155.185" rx="3" ry="3.04034" fill="#4ECC4E"/>
<ellipse cx="227" cy="155.185" rx="3" ry="3.04034" fill="#4ECC4E"/>
<ellipse cx="252" cy="155.185" rx="3" ry="3.04034" fill="#4ECC4E"/>
<ellipse cx="277" cy="155.185" rx="3" ry="3.04034" fill="#4ECC4E"/>
<ellipse cx="302" cy="155.185" rx="3" ry="3.04034" fill="#4ECC4E"/>
<ellipse cx="27" cy="180.521" rx="3" ry="3.04034" fill="#4ECC4E"/>
<ellipse cx="52" cy="180.521" rx="3" ry="3.04034" fill="#4ECC4E"/>
<ellipse cx="77" cy="180.521" rx="3" ry="3.04034" fill="#4ECC4E"/>
<ellipse cx="102" cy="180.521" rx="3" ry="3.04034" fill="#4ECC4E"/>
<ellipse cx="127" cy="180.521" rx="3" ry="3.04034" fill="#4ECC4E"/>
<ellipse cx="152" cy="180.521" rx="3" ry="3.04034" fill="#4ECC4E"/>
<ellipse cx="177" cy="180.521" rx="3" ry="3.04034" fill="#4ECC4E"/>
<ellipse cx="202" cy="180.521" rx="3" ry="3.04034" fill="#4ECC4E"/>
<ellipse cx="227" cy="180.521" rx="3" ry="3.04034" fill="#4ECC4E"/>
<ellipse cx="252" cy="180.521" rx="3" ry="3.04034" fill="#4ECC4E"/>
<ellipse cx="277" cy="180.521" rx="3" ry="3.04034" fill="#4ECC4E"/>
<ellipse cx="302" cy="180.521" rx="3" ry="3.04034" fill="#4ECC4E"/>
<ellipse cx="27" cy="205.858" rx="3" ry="3.04034" fill="#4ECC4E"/>
<ellipse cx="52" cy="205.858" rx="3" ry="3.04034" fill="#4ECC4E"/>
<ellipse cx="77" cy="205.858" rx="3" ry="3.04034" fill="#4ECC4E"/>
<ellipse cx="102" cy="205.858" rx="3" ry="3.04034" fill="#4ECC4E"/>
<ellipse cx="127" cy="205.858" rx="3" ry="3.04034" fill="#4ECC4E"/>
<ellipse cx="152" cy="205.858" rx="3" ry="3.04034" fill="#4ECC4E"/>
<ellipse cx="177" cy="205.858" rx="3" ry="3.04034" fill="#4ECC4E"/>
<ellipse cx="202" cy="205.858" rx="3" ry="3.04034" fill="#4ECC4E"/>
<ellipse cx="227" cy="205.858" rx="3" ry="3.04034" fill="#4ECC4E"/>
<ellipse cx="252" cy="205.858" rx="3" ry="3.04034" fill="#4ECC4E"/>
<ellipse cx="277" cy="205.858" rx="3" ry="3.04034" fill="#4ECC4E"/>
<ellipse cx="302" cy="205.858" rx="3" ry="3.04034" fill="#4ECC4E"/>
<ellipse cx="27" cy="231.194" rx="3" ry="3.04034" fill="#4ECC4E"/>
<ellipse cx="52" cy="231.194" rx="3" ry="3.04034" fill="#4ECC4E"/>
<ellipse cx="77" cy="231.194" rx="3" ry="3.04034" fill="#4ECC4E"/>
<ellipse cx="102" cy="231.194" rx="3" ry="3.04034" fill="#4ECC4E"/>
<ellipse cx="127" cy="231.194" rx="3" ry="3.04034" fill="#4ECC4E"/>
<ellipse cx="152" cy="231.194" rx="3" ry="3.04034" fill="#4ECC4E"/>
<ellipse cx="177" cy="231.194" rx="3" ry="3.04034" fill="#4ECC4E"/>
<ellipse cx="202" cy="231.194" rx="3" ry="3.04034" fill="#4ECC4E"/>
<ellipse cx="227" cy="231.194" rx="3" ry="3.04034" fill="#4ECC4E"/>
<ellipse cx="252" cy="231.194" rx="3" ry="3.04034" fill="#4ECC4E"/>
<ellipse cx="277" cy="231.194" rx="3" ry="3.04034" fill="#4ECC4E"/>
<ellipse cx="302" cy="231.194" rx="3" ry="3.04034" fill="#4ECC4E"/>
</svg>
