<svg width="770" height="757" viewBox="0 0 770 757" fill="none" xmlns="http://www.w3.org/2000/svg">
<path d="M585.672 129.473C589.624 122.179 600.228 122.592 603.601 130.172L636.348 203.777C639.29 210.39 634.45 217.842 627.212 217.842H554.583C547.005 217.842 542.181 209.741 545.791 203.078L585.672 129.473Z" stroke="#FFA85C" stroke-width="20"/>
<g opacity="0.2" filter="url(#filter0_f_1_1241)">
<ellipse cx="494" cy="424.957" rx="129" ry="131.241" fill="#F57200"/>
</g>
<g opacity="0.2" filter="url(#filter1_f_1_1241)">
<ellipse cx="329" cy="331.72" rx="129" ry="131.241" fill="#5285F2"/>
</g>
<ellipse cx="109" cy="403.168" rx="3" ry="3.04034" fill="#4ECC4E"/>
<ellipse cx="109" cy="428.504" rx="3" ry="3.04034" fill="#4ECC4E"/>
<ellipse cx="109" cy="453.841" rx="3" ry="3.04034" fill="#4ECC4E"/>
<ellipse cx="109" cy="479.177" rx="3" ry="3.04034" fill="#4ECC4E"/>
<ellipse cx="109" cy="504.513" rx="3" ry="3.04034" fill="#4ECC4E"/>
<ellipse cx="109" cy="529.849" rx="3" ry="3.04034" fill="#4ECC4E"/>
<ellipse cx="109" cy="555.185" rx="3" ry="3.04034" fill="#4ECC4E"/>
<ellipse cx="109" cy="580.521" rx="3" ry="3.04034" fill="#4ECC4E"/>
<ellipse cx="109" cy="605.858" rx="3" ry="3.04034" fill="#4ECC4E"/>
<ellipse cx="109" cy="631.194" rx="3" ry="3.04034" fill="#4ECC4E"/>
<ellipse cx="133" cy="403.168" rx="3" ry="3.04034" fill="#4ECC4E"/>
<ellipse cx="158" cy="403.168" rx="3" ry="3.04034" fill="#4ECC4E"/>
<ellipse cx="183" cy="403.168" rx="3" ry="3.04034" fill="#4ECC4E"/>
<ellipse cx="208" cy="403.168" rx="3" ry="3.04034" fill="#4ECC4E"/>
<ellipse cx="233" cy="403.168" rx="3" ry="3.04034" fill="#4ECC4E"/>
<ellipse cx="258" cy="403.168" rx="3" ry="3.04034" fill="#4ECC4E"/>
<ellipse cx="283" cy="403.168" rx="3" ry="3.04034" fill="#4ECC4E"/>
<ellipse cx="308" cy="403.168" rx="3" ry="3.04034" fill="#4ECC4E"/>
<ellipse cx="333" cy="403.168" rx="3" ry="3.04034" fill="#4ECC4E"/>
<ellipse cx="358" cy="403.168" rx="3" ry="3.04034" fill="#4ECC4E"/>
<ellipse cx="383" cy="403.168" rx="3" ry="3.04034" fill="#4ECC4E"/>
<ellipse cx="408" cy="403.168" rx="3" ry="3.04034" fill="#4ECC4E"/>
<ellipse cx="133" cy="428.504" rx="3" ry="3.04034" fill="#4ECC4E"/>
<ellipse cx="158" cy="428.504" rx="3" ry="3.04034" fill="#4ECC4E"/>
<ellipse cx="183" cy="428.504" rx="3" ry="3.04034" fill="#4ECC4E"/>
<ellipse cx="208" cy="428.504" rx="3" ry="3.04034" fill="#4ECC4E"/>
<ellipse cx="233" cy="428.504" rx="3" ry="3.04034" fill="#4ECC4E"/>
<ellipse cx="258" cy="428.504" rx="3" ry="3.04034" fill="#4ECC4E"/>
<ellipse cx="283" cy="428.504" rx="3" ry="3.04034" fill="#4ECC4E"/>
<ellipse cx="308" cy="428.504" rx="3" ry="3.04034" fill="#4ECC4E"/>
<ellipse cx="333" cy="428.504" rx="3" ry="3.04034" fill="#4ECC4E"/>
<ellipse cx="358" cy="428.504" rx="3" ry="3.04034" fill="#4ECC4E"/>
<ellipse cx="383" cy="428.504" rx="3" ry="3.04034" fill="#4ECC4E"/>
<ellipse cx="408" cy="428.504" rx="3" ry="3.04034" fill="#4ECC4E"/>
<ellipse cx="133" cy="453.841" rx="3" ry="3.04034" fill="#4ECC4E"/>
<ellipse cx="158" cy="453.841" rx="3" ry="3.04034" fill="#4ECC4E"/>
<ellipse cx="183" cy="453.841" rx="3" ry="3.04034" fill="#4ECC4E"/>
<ellipse cx="208" cy="453.841" rx="3" ry="3.04034" fill="#4ECC4E"/>
<ellipse cx="233" cy="453.841" rx="3" ry="3.04034" fill="#4ECC4E"/>
<ellipse cx="258" cy="453.841" rx="3" ry="3.04034" fill="#4ECC4E"/>
<ellipse cx="283" cy="453.841" rx="3" ry="3.04034" fill="#4ECC4E"/>
<ellipse cx="308" cy="453.841" rx="3" ry="3.04034" fill="#4ECC4E"/>
<ellipse cx="333" cy="453.841" rx="3" ry="3.04034" fill="#4ECC4E"/>
<ellipse cx="358" cy="453.841" rx="3" ry="3.04034" fill="#4ECC4E"/>
<ellipse cx="383" cy="453.841" rx="3" ry="3.04034" fill="#4ECC4E"/>
<ellipse cx="408" cy="453.841" rx="3" ry="3.04034" fill="#4ECC4E"/>
<ellipse cx="133" cy="479.177" rx="3" ry="3.04034" fill="#4ECC4E"/>
<ellipse cx="158" cy="479.177" rx="3" ry="3.04034" fill="#4ECC4E"/>
<ellipse cx="183" cy="479.177" rx="3" ry="3.04034" fill="#4ECC4E"/>
<ellipse cx="208" cy="479.177" rx="3" ry="3.04034" fill="#4ECC4E"/>
<ellipse cx="233" cy="479.177" rx="3" ry="3.04034" fill="#4ECC4E"/>
<ellipse cx="258" cy="479.177" rx="3" ry="3.04034" fill="#4ECC4E"/>
<ellipse cx="283" cy="479.177" rx="3" ry="3.04034" fill="#4ECC4E"/>
<ellipse cx="308" cy="479.177" rx="3" ry="3.04034" fill="#4ECC4E"/>
<ellipse cx="333" cy="479.177" rx="3" ry="3.04034" fill="#4ECC4E"/>
<ellipse cx="358" cy="479.177" rx="3" ry="3.04034" fill="#4ECC4E"/>
<ellipse cx="383" cy="479.177" rx="3" ry="3.04034" fill="#4ECC4E"/>
<ellipse cx="408" cy="479.177" rx="3" ry="3.04034" fill="#4ECC4E"/>
<ellipse cx="133" cy="504.513" rx="3" ry="3.04034" fill="#4ECC4E"/>
<ellipse cx="158" cy="504.513" rx="3" ry="3.04034" fill="#4ECC4E"/>
<ellipse cx="183" cy="504.513" rx="3" ry="3.04034" fill="#4ECC4E"/>
<ellipse cx="208" cy="504.513" rx="3" ry="3.04034" fill="#4ECC4E"/>
<ellipse cx="233" cy="504.513" rx="3" ry="3.04034" fill="#4ECC4E"/>
<ellipse cx="258" cy="504.513" rx="3" ry="3.04034" fill="#4ECC4E"/>
<ellipse cx="283" cy="504.513" rx="3" ry="3.04034" fill="#4ECC4E"/>
<ellipse cx="308" cy="504.513" rx="3" ry="3.04034" fill="#4ECC4E"/>
<ellipse cx="333" cy="504.513" rx="3" ry="3.04034" fill="#4ECC4E"/>
<ellipse cx="358" cy="504.513" rx="3" ry="3.04034" fill="#4ECC4E"/>
<ellipse cx="383" cy="504.513" rx="3" ry="3.04034" fill="#4ECC4E"/>
<ellipse cx="408" cy="504.513" rx="3" ry="3.04034" fill="#4ECC4E"/>
<ellipse cx="133" cy="529.849" rx="3" ry="3.04034" fill="#4ECC4E"/>
<ellipse cx="158" cy="529.849" rx="3" ry="3.04034" fill="#4ECC4E"/>
<ellipse cx="183" cy="529.849" rx="3" ry="3.04034" fill="#4ECC4E"/>
<ellipse cx="208" cy="529.849" rx="3" ry="3.04034" fill="#4ECC4E"/>
<ellipse cx="233" cy="529.849" rx="3" ry="3.04034" fill="#4ECC4E"/>
<ellipse cx="258" cy="529.849" rx="3" ry="3.04034" fill="#4ECC4E"/>
<ellipse cx="283" cy="529.849" rx="3" ry="3.04034" fill="#4ECC4E"/>
<ellipse cx="308" cy="529.849" rx="3" ry="3.04034" fill="#4ECC4E"/>
<ellipse cx="333" cy="529.849" rx="3" ry="3.04034" fill="#4ECC4E"/>
<ellipse cx="358" cy="529.849" rx="3" ry="3.04034" fill="#4ECC4E"/>
<ellipse cx="383" cy="529.849" rx="3" ry="3.04034" fill="#4ECC4E"/>
<ellipse cx="408" cy="529.849" rx="3" ry="3.04034" fill="#4ECC4E"/>
<ellipse cx="133" cy="555.185" rx="3" ry="3.04034" fill="#4ECC4E"/>
<ellipse cx="158" cy="555.185" rx="3" ry="3.04034" fill="#4ECC4E"/>
<ellipse cx="183" cy="555.185" rx="3" ry="3.04034" fill="#4ECC4E"/>
<ellipse cx="208" cy="555.185" rx="3" ry="3.04034" fill="#4ECC4E"/>
<ellipse cx="233" cy="555.185" rx="3" ry="3.04034" fill="#4ECC4E"/>
<ellipse cx="258" cy="555.185" rx="3" ry="3.04034" fill="#4ECC4E"/>
<ellipse cx="283" cy="555.185" rx="3" ry="3.04034" fill="#4ECC4E"/>
<ellipse cx="308" cy="555.185" rx="3" ry="3.04034" fill="#4ECC4E"/>
<ellipse cx="333" cy="555.185" rx="3" ry="3.04034" fill="#4ECC4E"/>
<ellipse cx="358" cy="555.185" rx="3" ry="3.04034" fill="#4ECC4E"/>
<ellipse cx="383" cy="555.185" rx="3" ry="3.04034" fill="#4ECC4E"/>
<ellipse cx="408" cy="555.185" rx="3" ry="3.04034" fill="#4ECC4E"/>
<ellipse cx="133" cy="580.521" rx="3" ry="3.04034" fill="#4ECC4E"/>
<ellipse cx="158" cy="580.521" rx="3" ry="3.04034" fill="#4ECC4E"/>
<ellipse cx="183" cy="580.521" rx="3" ry="3.04034" fill="#4ECC4E"/>
<ellipse cx="208" cy="580.521" rx="3" ry="3.04034" fill="#4ECC4E"/>
<ellipse cx="233" cy="580.521" rx="3" ry="3.04034" fill="#4ECC4E"/>
<ellipse cx="258" cy="580.521" rx="3" ry="3.04034" fill="#4ECC4E"/>
<ellipse cx="283" cy="580.521" rx="3" ry="3.04034" fill="#4ECC4E"/>
<ellipse cx="308" cy="580.521" rx="3" ry="3.04034" fill="#4ECC4E"/>
<ellipse cx="333" cy="580.521" rx="3" ry="3.04034" fill="#4ECC4E"/>
<ellipse cx="358" cy="580.521" rx="3" ry="3.04034" fill="#4ECC4E"/>
<ellipse cx="383" cy="580.521" rx="3" ry="3.04034" fill="#4ECC4E"/>
<ellipse cx="408" cy="580.521" rx="3" ry="3.04034" fill="#4ECC4E"/>
<ellipse cx="133" cy="605.858" rx="3" ry="3.04034" fill="#4ECC4E"/>
<ellipse cx="158" cy="605.858" rx="3" ry="3.04034" fill="#4ECC4E"/>
<ellipse cx="183" cy="605.858" rx="3" ry="3.04034" fill="#4ECC4E"/>
<ellipse cx="208" cy="605.858" rx="3" ry="3.04034" fill="#4ECC4E"/>
<ellipse cx="233" cy="605.858" rx="3" ry="3.04034" fill="#4ECC4E"/>
<ellipse cx="258" cy="605.858" rx="3" ry="3.04034" fill="#4ECC4E"/>
<ellipse cx="283" cy="605.858" rx="3" ry="3.04034" fill="#4ECC4E"/>
<ellipse cx="308" cy="605.858" rx="3" ry="3.04034" fill="#4ECC4E"/>
<ellipse cx="333" cy="605.858" rx="3" ry="3.04034" fill="#4ECC4E"/>
<ellipse cx="358" cy="605.858" rx="3" ry="3.04034" fill="#4ECC4E"/>
<ellipse cx="383" cy="605.858" rx="3" ry="3.04034" fill="#4ECC4E"/>
<ellipse cx="408" cy="605.858" rx="3" ry="3.04034" fill="#4ECC4E"/>
<ellipse cx="133" cy="631.194" rx="3" ry="3.04034" fill="#4ECC4E"/>
<ellipse cx="158" cy="631.194" rx="3" ry="3.04034" fill="#4ECC4E"/>
<ellipse cx="183" cy="631.194" rx="3" ry="3.04034" fill="#4ECC4E"/>
<ellipse cx="208" cy="631.194" rx="3" ry="3.04034" fill="#4ECC4E"/>
<ellipse cx="233" cy="631.194" rx="3" ry="3.04034" fill="#4ECC4E"/>
<ellipse cx="258" cy="631.194" rx="3" ry="3.04034" fill="#4ECC4E"/>
<ellipse cx="283" cy="631.194" rx="3" ry="3.04034" fill="#4ECC4E"/>
<ellipse cx="308" cy="631.194" rx="3" ry="3.04034" fill="#4ECC4E"/>
<ellipse cx="333" cy="631.194" rx="3" ry="3.04034" fill="#4ECC4E"/>
<ellipse cx="358" cy="631.194" rx="3" ry="3.04034" fill="#4ECC4E"/>
<ellipse cx="383" cy="631.194" rx="3" ry="3.04034" fill="#4ECC4E"/>
<ellipse cx="408" cy="631.194" rx="3" ry="3.04034" fill="#4ECC4E"/>
<defs>
<filter id="filter0_f_1_1241" x="165" y="93.7161" width="658" height="662.483" filterUnits="userSpaceOnUse" color-interpolation-filters="sRGB">
<feFlood flood-opacity="0" result="BackgroundImageFix"/>
<feBlend mode="normal" in="SourceGraphic" in2="BackgroundImageFix" result="shape"/>
<feGaussianBlur stdDeviation="100" result="effect1_foregroundBlur_1_1241"/>
</filter>
<filter id="filter1_f_1_1241" x="0" y="0.479126" width="658" height="662.483" filterUnits="userSpaceOnUse" color-interpolation-filters="sRGB">
<feFlood flood-opacity="0" result="BackgroundImageFix"/>
<feBlend mode="normal" in="SourceGraphic" in2="BackgroundImageFix" result="shape"/>
<feGaussianBlur stdDeviation="100" result="effect1_foregroundBlur_1_1241"/>
</filter>
</defs>
</svg>
