<svg width="770" height="756" viewBox="0 0 770 756" fill="none" xmlns="http://www.w3.org/2000/svg">
<rect x="501" y="152.411" width="92" height="93.506" rx="10" stroke="#FFA85C" stroke-width="20"/>
<g opacity="0.2" filter="url(#filter0_f_1_1106)">
<ellipse cx="494" cy="424.656" rx="129" ry="131.241" fill="#F57200"/>
</g>
<g opacity="0.2" filter="url(#filter1_f_1_1106)">
<ellipse cx="329" cy="331.419" rx="129" ry="131.241" fill="#5285F2"/>
</g>
<ellipse cx="109" cy="402.867" rx="3" ry="3.04034" fill="#5285F2"/>
<ellipse cx="109" cy="428.203" rx="3" ry="3.04034" fill="#5285F2"/>
<ellipse cx="109" cy="453.539" rx="3" ry="3.04034" fill="#5285F2"/>
<ellipse cx="109" cy="478.875" rx="3" ry="3.04034" fill="#5285F2"/>
<ellipse cx="109" cy="504.211" rx="3" ry="3.04034" fill="#5285F2"/>
<ellipse cx="109" cy="529.548" rx="3" ry="3.04034" fill="#5285F2"/>
<ellipse cx="109" cy="554.884" rx="3" ry="3.04034" fill="#5285F2"/>
<ellipse cx="109" cy="580.22" rx="3" ry="3.04034" fill="#5285F2"/>
<ellipse cx="109" cy="605.556" rx="3" ry="3.04034" fill="#5285F2"/>
<ellipse cx="109" cy="630.892" rx="3" ry="3.04034" fill="#5285F2"/>
<ellipse cx="133" cy="402.867" rx="3" ry="3.04034" fill="#5285F2"/>
<ellipse cx="158" cy="402.867" rx="3" ry="3.04034" fill="#5285F2"/>
<ellipse cx="183" cy="402.867" rx="3" ry="3.04034" fill="#5285F2"/>
<ellipse cx="208" cy="402.867" rx="3" ry="3.04034" fill="#5285F2"/>
<ellipse cx="233" cy="402.867" rx="3" ry="3.04034" fill="#5285F2"/>
<ellipse cx="258" cy="402.867" rx="3" ry="3.04034" fill="#5285F2"/>
<ellipse cx="283" cy="402.867" rx="3" ry="3.04034" fill="#5285F2"/>
<ellipse cx="308" cy="402.867" rx="3" ry="3.04034" fill="#5285F2"/>
<ellipse cx="333" cy="402.867" rx="3" ry="3.04034" fill="#5285F2"/>
<ellipse cx="358" cy="402.867" rx="3" ry="3.04034" fill="#5285F2"/>
<ellipse cx="383" cy="402.867" rx="3" ry="3.04034" fill="#5285F2"/>
<ellipse cx="408" cy="402.867" rx="3" ry="3.04034" fill="#5285F2"/>
<ellipse cx="133" cy="428.203" rx="3" ry="3.04034" fill="#5285F2"/>
<ellipse cx="158" cy="428.203" rx="3" ry="3.04034" fill="#5285F2"/>
<ellipse cx="183" cy="428.203" rx="3" ry="3.04034" fill="#5285F2"/>
<ellipse cx="208" cy="428.203" rx="3" ry="3.04034" fill="#5285F2"/>
<ellipse cx="233" cy="428.203" rx="3" ry="3.04034" fill="#5285F2"/>
<ellipse cx="258" cy="428.203" rx="3" ry="3.04034" fill="#5285F2"/>
<ellipse cx="283" cy="428.203" rx="3" ry="3.04034" fill="#5285F2"/>
<ellipse cx="308" cy="428.203" rx="3" ry="3.04034" fill="#5285F2"/>
<ellipse cx="333" cy="428.203" rx="3" ry="3.04034" fill="#5285F2"/>
<ellipse cx="358" cy="428.203" rx="3" ry="3.04034" fill="#5285F2"/>
<ellipse cx="383" cy="428.203" rx="3" ry="3.04034" fill="#5285F2"/>
<ellipse cx="408" cy="428.203" rx="3" ry="3.04034" fill="#5285F2"/>
<ellipse cx="133" cy="453.539" rx="3" ry="3.04034" fill="#5285F2"/>
<ellipse cx="158" cy="453.539" rx="3" ry="3.04034" fill="#5285F2"/>
<ellipse cx="183" cy="453.539" rx="3" ry="3.04034" fill="#5285F2"/>
<ellipse cx="208" cy="453.539" rx="3" ry="3.04034" fill="#5285F2"/>
<ellipse cx="233" cy="453.539" rx="3" ry="3.04034" fill="#5285F2"/>
<ellipse cx="258" cy="453.539" rx="3" ry="3.04034" fill="#5285F2"/>
<ellipse cx="283" cy="453.539" rx="3" ry="3.04034" fill="#5285F2"/>
<ellipse cx="308" cy="453.539" rx="3" ry="3.04034" fill="#5285F2"/>
<ellipse cx="333" cy="453.539" rx="3" ry="3.04034" fill="#5285F2"/>
<ellipse cx="358" cy="453.539" rx="3" ry="3.04034" fill="#5285F2"/>
<ellipse cx="383" cy="453.539" rx="3" ry="3.04034" fill="#5285F2"/>
<ellipse cx="408" cy="453.539" rx="3" ry="3.04034" fill="#5285F2"/>
<ellipse cx="133" cy="478.875" rx="3" ry="3.04034" fill="#5285F2"/>
<ellipse cx="158" cy="478.875" rx="3" ry="3.04034" fill="#5285F2"/>
<ellipse cx="183" cy="478.875" rx="3" ry="3.04034" fill="#5285F2"/>
<ellipse cx="208" cy="478.875" rx="3" ry="3.04034" fill="#5285F2"/>
<ellipse cx="233" cy="478.875" rx="3" ry="3.04034" fill="#5285F2"/>
<ellipse cx="258" cy="478.875" rx="3" ry="3.04034" fill="#5285F2"/>
<ellipse cx="283" cy="478.875" rx="3" ry="3.04034" fill="#5285F2"/>
<ellipse cx="308" cy="478.875" rx="3" ry="3.04034" fill="#5285F2"/>
<ellipse cx="333" cy="478.875" rx="3" ry="3.04034" fill="#5285F2"/>
<ellipse cx="358" cy="478.875" rx="3" ry="3.04034" fill="#5285F2"/>
<ellipse cx="383" cy="478.875" rx="3" ry="3.04034" fill="#5285F2"/>
<ellipse cx="408" cy="478.875" rx="3" ry="3.04034" fill="#5285F2"/>
<ellipse cx="133" cy="504.211" rx="3" ry="3.04034" fill="#5285F2"/>
<ellipse cx="158" cy="504.211" rx="3" ry="3.04034" fill="#5285F2"/>
<ellipse cx="183" cy="504.211" rx="3" ry="3.04034" fill="#5285F2"/>
<ellipse cx="208" cy="504.211" rx="3" ry="3.04034" fill="#5285F2"/>
<ellipse cx="233" cy="504.211" rx="3" ry="3.04034" fill="#5285F2"/>
<ellipse cx="258" cy="504.211" rx="3" ry="3.04034" fill="#5285F2"/>
<ellipse cx="283" cy="504.211" rx="3" ry="3.04034" fill="#5285F2"/>
<ellipse cx="308" cy="504.211" rx="3" ry="3.04034" fill="#5285F2"/>
<ellipse cx="333" cy="504.211" rx="3" ry="3.04034" fill="#5285F2"/>
<ellipse cx="358" cy="504.211" rx="3" ry="3.04034" fill="#5285F2"/>
<ellipse cx="383" cy="504.211" rx="3" ry="3.04034" fill="#5285F2"/>
<ellipse cx="408" cy="504.211" rx="3" ry="3.04034" fill="#5285F2"/>
<ellipse cx="133" cy="529.548" rx="3" ry="3.04034" fill="#5285F2"/>
<ellipse cx="158" cy="529.548" rx="3" ry="3.04034" fill="#5285F2"/>
<ellipse cx="183" cy="529.548" rx="3" ry="3.04034" fill="#5285F2"/>
<ellipse cx="208" cy="529.548" rx="3" ry="3.04034" fill="#5285F2"/>
<ellipse cx="233" cy="529.548" rx="3" ry="3.04034" fill="#5285F2"/>
<ellipse cx="258" cy="529.548" rx="3" ry="3.04034" fill="#5285F2"/>
<ellipse cx="283" cy="529.548" rx="3" ry="3.04034" fill="#5285F2"/>
<ellipse cx="308" cy="529.548" rx="3" ry="3.04034" fill="#5285F2"/>
<ellipse cx="333" cy="529.548" rx="3" ry="3.04034" fill="#5285F2"/>
<ellipse cx="358" cy="529.548" rx="3" ry="3.04034" fill="#5285F2"/>
<ellipse cx="383" cy="529.548" rx="3" ry="3.04034" fill="#5285F2"/>
<ellipse cx="408" cy="529.548" rx="3" ry="3.04034" fill="#5285F2"/>
<ellipse cx="133" cy="554.884" rx="3" ry="3.04034" fill="#5285F2"/>
<ellipse cx="158" cy="554.884" rx="3" ry="3.04034" fill="#5285F2"/>
<ellipse cx="183" cy="554.884" rx="3" ry="3.04034" fill="#5285F2"/>
<ellipse cx="208" cy="554.884" rx="3" ry="3.04034" fill="#5285F2"/>
<ellipse cx="233" cy="554.884" rx="3" ry="3.04034" fill="#5285F2"/>
<ellipse cx="258" cy="554.884" rx="3" ry="3.04034" fill="#5285F2"/>
<ellipse cx="283" cy="554.884" rx="3" ry="3.04034" fill="#5285F2"/>
<ellipse cx="308" cy="554.884" rx="3" ry="3.04034" fill="#5285F2"/>
<ellipse cx="333" cy="554.884" rx="3" ry="3.04034" fill="#5285F2"/>
<ellipse cx="358" cy="554.884" rx="3" ry="3.04034" fill="#5285F2"/>
<ellipse cx="383" cy="554.884" rx="3" ry="3.04034" fill="#5285F2"/>
<ellipse cx="408" cy="554.884" rx="3" ry="3.04034" fill="#5285F2"/>
<ellipse cx="133" cy="580.22" rx="3" ry="3.04034" fill="#5285F2"/>
<ellipse cx="158" cy="580.22" rx="3" ry="3.04034" fill="#5285F2"/>
<ellipse cx="183" cy="580.22" rx="3" ry="3.04034" fill="#5285F2"/>
<ellipse cx="208" cy="580.22" rx="3" ry="3.04034" fill="#5285F2"/>
<ellipse cx="233" cy="580.22" rx="3" ry="3.04034" fill="#5285F2"/>
<ellipse cx="258" cy="580.22" rx="3" ry="3.04034" fill="#5285F2"/>
<ellipse cx="283" cy="580.22" rx="3" ry="3.04034" fill="#5285F2"/>
<ellipse cx="308" cy="580.22" rx="3" ry="3.04034" fill="#5285F2"/>
<ellipse cx="333" cy="580.22" rx="3" ry="3.04034" fill="#5285F2"/>
<ellipse cx="358" cy="580.22" rx="3" ry="3.04034" fill="#5285F2"/>
<ellipse cx="383" cy="580.22" rx="3" ry="3.04034" fill="#5285F2"/>
<ellipse cx="408" cy="580.22" rx="3" ry="3.04034" fill="#5285F2"/>
<ellipse cx="133" cy="605.556" rx="3" ry="3.04034" fill="#5285F2"/>
<ellipse cx="158" cy="605.556" rx="3" ry="3.04034" fill="#5285F2"/>
<ellipse cx="183" cy="605.556" rx="3" ry="3.04034" fill="#5285F2"/>
<ellipse cx="208" cy="605.556" rx="3" ry="3.04034" fill="#5285F2"/>
<ellipse cx="233" cy="605.556" rx="3" ry="3.04034" fill="#5285F2"/>
<ellipse cx="258" cy="605.556" rx="3" ry="3.04034" fill="#5285F2"/>
<ellipse cx="283" cy="605.556" rx="3" ry="3.04034" fill="#5285F2"/>
<ellipse cx="308" cy="605.556" rx="3" ry="3.04034" fill="#5285F2"/>
<ellipse cx="333" cy="605.556" rx="3" ry="3.04034" fill="#5285F2"/>
<ellipse cx="358" cy="605.556" rx="3" ry="3.04034" fill="#5285F2"/>
<ellipse cx="383" cy="605.556" rx="3" ry="3.04034" fill="#5285F2"/>
<ellipse cx="408" cy="605.556" rx="3" ry="3.04034" fill="#5285F2"/>
<ellipse cx="133" cy="630.892" rx="3" ry="3.04034" fill="#5285F2"/>
<ellipse cx="158" cy="630.892" rx="3" ry="3.04034" fill="#5285F2"/>
<ellipse cx="183" cy="630.892" rx="3" ry="3.04034" fill="#5285F2"/>
<ellipse cx="208" cy="630.892" rx="3" ry="3.04034" fill="#5285F2"/>
<ellipse cx="233" cy="630.892" rx="3" ry="3.04034" fill="#5285F2"/>
<ellipse cx="258" cy="630.892" rx="3" ry="3.04034" fill="#5285F2"/>
<ellipse cx="283" cy="630.892" rx="3" ry="3.04034" fill="#5285F2"/>
<ellipse cx="308" cy="630.892" rx="3" ry="3.04034" fill="#5285F2"/>
<ellipse cx="333" cy="630.892" rx="3" ry="3.04034" fill="#5285F2"/>
<ellipse cx="358" cy="630.892" rx="3" ry="3.04034" fill="#5285F2"/>
<ellipse cx="383" cy="630.892" rx="3" ry="3.04034" fill="#5285F2"/>
<ellipse cx="408" cy="630.892" rx="3" ry="3.04034" fill="#5285F2"/>
<defs>
<filter id="filter0_f_1_1106" x="165" y="93.4146" width="658" height="662.483" filterUnits="userSpaceOnUse" color-interpolation-filters="sRGB">
<feFlood flood-opacity="0" result="BackgroundImageFix"/>
<feBlend mode="normal" in="SourceGraphic" in2="BackgroundImageFix" result="shape"/>
<feGaussianBlur stdDeviation="100" result="effect1_foregroundBlur_1_1106"/>
</filter>
<filter id="filter1_f_1_1106" x="0" y="0.177567" width="658" height="662.483" filterUnits="userSpaceOnUse" color-interpolation-filters="sRGB">
<feFlood flood-opacity="0" result="BackgroundImageFix"/>
<feBlend mode="normal" in="SourceGraphic" in2="BackgroundImageFix" result="shape"/>
<feGaussianBlur stdDeviation="100" result="effect1_foregroundBlur_1_1106"/>
</filter>
</defs>
</svg>
