<svg width="104" height="30" viewBox="0 0 104 30" fill="none" xmlns="http://www.w3.org/2000/svg">
<g clip-path="url(#clip0_1_1831)">
<path d="M60.7587 12.628C63.7929 12.628 65.7793 14.9329 65.7793 18.1861C65.7793 21.4229 63.6427 23.7827 60.6435 23.7827C59.9244 23.7827 59.2612 23.6501 58.7097 23.4107L58.6369 23.3781L58.6369 27.2195H54.5478V12.8584H58.5409L58.5409 13.1617L58.5496 13.1571C59.1321 12.8443 59.8522 12.6507 60.6204 12.6298L60.6973 12.6283L60.7587 12.628ZM72.5015 12.5704C75.721 12.5704 78.1556 14.96 78.1556 18.2053C78.1556 21.4537 75.7177 23.8595 72.5015 23.8595C69.298 23.8595 66.8473 21.4475 66.8473 18.2053C66.8473 14.9662 69.2946 12.5704 72.5015 12.5704ZM32.812 8.49997V13.1258L32.8559 13.1038C33.4252 12.8222 34.1205 12.6495 34.8514 12.6299L34.9298 12.6283L34.9915 12.628C38.0257 12.628 40.012 14.9329 40.012 18.1861C40.012 21.4229 37.8754 23.7827 34.8763 23.7827C34.1311 23.7827 33.4397 23.6101 32.8683 23.3034L32.8116 23.2723L32.7736 23.2506V23.5715H28.7805V8.49997H32.812ZM51.6689 10.0744L51.6688 12.8584H53.5313V16.5827H51.6688L51.6689 19.5685C51.6689 19.9119 51.717 19.9741 52.0611 19.9809L52.1395 19.9816C52.3231 19.9816 52.5068 19.9573 52.7167 19.9133L52.7805 19.8995L53.4929 19.7412V23.2519L53.1693 23.4137C52.789 23.6038 52.2047 23.7443 51.3907 23.7443C49.1193 23.7443 47.6478 22.3461 47.6186 20.1536L47.6182 20.0869L47.6181 16.5827H45.9286V12.8584H46.9939C47.5843 12.8584 47.8759 12.5394 47.8867 11.9243L47.887 11.8885V10.0744H51.6689ZM45.0409 12.8008V23.5715H40.9517V12.8008H45.0409ZM77.8714 12.8584H82.1453L83.3422 17.0981L84.7556 12.8584H88.6924L90.0875 17.1012L91.2813 12.8584H95.3797L92.0601 23.5715H88.3088L86.661 18.674L85.0438 23.5715H81.2341L77.8714 12.8584ZM102.079 12.7624C102.393 12.7624 102.717 12.801 102.967 12.8691L103.016 12.8831L103.433 13.0082V17.0628L102.713 16.8935C102.47 16.8362 102.223 16.8131 101.926 16.8131C100.908 16.8131 100.298 17.4103 100.284 18.7708L100.284 18.8197V23.5715H96.1948V12.8584H100.188L100.188 13.2585L100.224 13.2373C100.739 12.9385 101.344 12.7821 101.959 12.7641L102.028 12.7627L102.079 12.7624ZM60.1635 16.4291C59.2324 16.4291 58.5985 17.0553 58.5985 18.2053C58.5985 19.3486 59.2468 20.0008 60.1635 20.0008C61.1059 20.0008 61.7478 19.3627 61.7478 18.2053C61.7478 17.053 61.1123 16.4291 60.1635 16.4291ZM72.4919 16.3317C71.5607 16.3317 70.9269 16.9579 70.9269 18.1079C70.9269 19.2511 71.5751 19.9034 72.4919 19.9034C73.4342 19.9034 74.0761 19.2653 74.0761 18.1079C74.0761 16.9556 73.4407 16.3317 72.4919 16.3317ZM34.3579 16.4291C33.412 16.4291 32.7736 17.0484 32.7736 18.2053C32.7736 19.3436 33.4348 20.0008 34.3579 20.0008C35.2826 20.0008 35.9229 19.3604 35.9229 18.2053C35.9229 17.0434 35.2972 16.4291 34.3579 16.4291ZM42.9791 8.48779C44.1216 8.48779 45.0451 9.40415 45.0451 10.5366C45.0451 11.669 44.1216 12.5854 42.9791 12.5854C41.8638 12.5854 40.9475 11.6619 40.9475 10.5366C40.9475 9.41128 41.8638 8.48779 42.9791 8.48779Z" fill="white"/>
<path fill-rule="evenodd" clip-rule="evenodd" d="M4.80316 9.36585C7.38947 9.36585 9.47695 7.26924 9.46572 4.68293C9.4544 2.09662 7.34864 0 4.76233 0C2.17602 0 0.0885471 2.09662 0.0997765 4.68293C0.111097 7.26924 2.21685 9.36585 4.80316 9.36585ZM4.62722 20.6101C4.47423 20.8577 4.45637 21.1674 4.5821 21.4347C4.71994 21.726 5.00932 21.9173 5.33354 21.9286L7.81343 22.0187L6.89072 27.9193C6.82849 28.3174 7.05139 28.7066 7.42659 28.8577L7.71652 28.9179C7.75803 28.9194 7.8017 28.9196 7.84654 28.9182C7.04302 29.5762 6.01494 29.9707 4.89299 29.9707C2.30668 29.9707 0.200923 27.8741 0.189603 25.2878C0.178711 22.7791 2.14249 20.7311 4.62078 20.6105L4.62722 20.6101ZM15.1546 20.6049C17.7409 20.6049 19.8467 22.7015 19.858 25.2878C19.8692 27.8741 17.7817 29.9707 15.1954 29.9707C12.745 29.9707 10.726 28.0887 10.511 25.6912L13.7327 20.8249C14.1808 20.682 14.6585 20.6049 15.1546 20.6049ZM4.80725 10.3024C7.15831 10.3024 9.11227 12.035 9.45674 14.293L5.36426 19.6402C5.1948 19.6588 5.02257 19.6683 4.84808 19.6683C2.26177 19.6683 0.15601 17.5717 0.14469 14.9854C0.13346 12.3991 2.22094 10.3024 4.80725 10.3024ZM15.1097 10.3024C17.696 10.3024 19.8018 12.3991 19.8131 14.9854C19.8243 17.5717 17.7368 19.6683 15.1505 19.6683C14.9388 19.6683 14.7303 19.6542 14.526 19.627L14.8201 19.1826C14.9972 18.9231 15.0178 18.589 14.8762 18.3079C14.7328 18.0268 14.45 17.8461 14.1345 17.8334L11.6599 17.8388L12.6399 12.8341C12.7157 12.4416 12.512 12.0462 12.1459 11.8798C11.9938 11.8118 11.8297 11.7906 11.6725 11.812C12.5242 10.8838 13.7478 10.3024 15.1097 10.3024Z" fill="white"/>
<path d="M8.51385 24.9394L9.09272 20.8281H7.02076C6.76213 20.8281 6.55155 20.6184 6.55042 20.3598C6.54999 20.2596 6.5817 20.1621 6.64091 20.0815L10.1094 15.3609C10.2622 15.1529 10.5552 15.1089 10.7639 15.2626C10.9049 15.3665 10.9767 15.5401 10.95 15.7128L10.464 18.8532H12.7252C12.9838 18.8532 13.1944 19.0629 13.1955 19.3215C13.1959 19.4137 13.1691 19.5038 13.1185 19.5805L9.36884 25.2656C9.22673 25.4811 8.93635 25.5398 8.72026 25.3968C8.56899 25.2966 8.48862 25.1185 8.51385 24.9394Z" fill="url(#paint0_linear_1_1831)"/>
<path opacity="0.302" d="M8.27178 25.3139L8.85066 21.2026H6.77869C6.52006 21.2026 6.30949 20.993 6.30835 20.7343C6.30792 20.6341 6.33964 20.5366 6.39884 20.456L9.8673 15.7354C10.0201 15.5274 10.3131 15.4834 10.5218 15.6371C10.6629 15.7411 10.7346 15.9146 10.7079 16.0873L10.222 19.2277H12.4831C12.7418 19.2277 12.9523 19.4374 12.9535 19.696C12.9539 19.7882 12.9271 19.8783 12.8764 19.955L9.12678 25.6402C8.98466 25.8556 8.69428 25.9143 8.47819 25.7713C8.32693 25.6711 8.24655 25.493 8.27178 25.3139Z" fill="url(#paint1_linear_1_1831)"/>
<path opacity="0.154" d="M7.92632 25.5951L8.5052 21.4839H6.43323C6.1746 21.4839 5.96403 21.2742 5.96289 21.0156C5.96246 20.9154 5.99418 20.8178 6.05338 20.7372L9.52184 16.0166C9.67465 15.8087 9.96769 15.7647 10.1763 15.9184C10.3174 16.0223 10.3892 16.1959 10.3624 16.3686L9.87652 19.509H12.1377C12.3963 19.509 12.6069 19.7186 12.608 19.9773C12.6084 20.0694 12.5816 20.1595 12.531 20.2363L8.78132 25.9214C8.6392 26.1369 8.34882 26.1956 8.13273 26.0525C7.98147 25.9524 7.90109 25.7743 7.92632 25.5951Z" fill="url(#paint2_linear_1_1831)"/>
</g>
<defs>
<linearGradient id="paint0_linear_1_1831" x1="9.87297" y1="15.1709" x2="9.87297" y2="25.475" gradientUnits="userSpaceOnUse">
<stop stop-color="#F1D930"/>
<stop offset="1" stop-color="#FFB000"/>
</linearGradient>
<linearGradient id="paint1_linear_1_1831" x1="9.63091" y1="15.5454" x2="9.63091" y2="25.8495" gradientUnits="userSpaceOnUse">
<stop stop-color="#F1D930"/>
<stop offset="1" stop-color="#FFB000"/>
</linearGradient>
<linearGradient id="paint2_linear_1_1831" x1="9.28545" y1="15.8267" x2="9.28545" y2="26.1307" gradientUnits="userSpaceOnUse">
<stop stop-color="#F1D930"/>
<stop offset="1" stop-color="#FFB000"/>
</linearGradient>
<clipPath id="clip0_1_1831">
<rect width="103.659" height="30" fill="white"/>
</clipPath>
</defs>
</svg>
