<svg width="1440" height="900" viewBox="0 0 1440 900" fill="none" xmlns="http://www.w3.org/2000/svg">
<g opacity="0.1" clip-path="url(#clip0_1_715)">
<path d="M1081.69 419.687H2327.62V422.187H1081.69V419.687Z" fill="#5285F2"/>
<path d="M1082 424.688C1079.81 424.688 1078.25 422.813 1078.25 420.938C1078.25 418.75 1080.13 417.188 1082 417.188C1084.19 417.188 1085.75 419.062 1085.75 420.938C1085.75 423.125 1084.19 424.688 1082 424.688Z" fill="#5285F2"/>
<path d="M1621.37 356.25H1940.44V353.438H1622.31L1480.75 211.875H927.311L896.999 181.562H746.061L694.499 233.437H476.686L437.624 272.5L439.186 274.375L477.936 235.938H695.436L747.311 184.375H896.061L926.061 214.375H1479.5L1621.37 356.25Z" fill="#5285F2"/>
<path d="M441.375 276.25C439.812 277.812 437.312 277.812 435.75 276.25C434.187 274.688 434.187 272.187 435.75 270.625C437.312 269.063 439.812 269.063 441.375 270.625C442.625 272.187 442.625 274.688 441.375 276.25Z" fill="#5285F2"/>
<path d="M937.626 322.188H1519.81V319.375H938.876L884.501 265H646.689V267.813H883.251L937.626 322.188Z" fill="#5285F2"/>
<path d="M647 270.312C644.813 270.312 643.25 268.438 643.25 266.563C643.25 264.375 645.125 262.812 647 262.812C649.188 262.812 650.75 264.688 650.75 266.563C650.75 268.438 649.188 270.312 647 270.312Z" fill="#5285F2"/>
<path d="M2083.56 332.813H2274.5V330.313H2084.5L1979.81 225.313H1801.06L1610.75 35.0005H918.562V37.5005H1609.81L1800.12 227.813H1978.56L2083.56 332.813Z" fill="#5285F2"/>
<path d="M918.875 40.3125C916.688 40.3125 915.125 38.4375 915.125 36.5625C915.125 34.6875 917 32.8125 918.875 32.8125C921.063 32.8125 922.625 34.6875 922.625 36.5625C922.625 38.4375 921.063 40.3125 918.875 40.3125Z" fill="#5285F2"/>
<path d="M1659.81 313.126L1661.69 311.251L1517.63 167.188H1239.19L1186.69 114.688H805.75L778.875 141.563H580.438L532 190.001L533.875 191.876L581.375 144.063H779.813L806.688 117.188H1185.75L1238.25 169.688H1516.38L1659.81 313.126Z" fill="#5285F2"/>
<path d="M535.749 193.438C534.186 195 531.686 195 530.124 193.438C528.561 191.875 528.561 189.375 530.124 187.813C531.686 186.25 534.186 186.25 535.749 187.813C537.311 189.688 537.311 191.875 535.749 193.438Z" fill="#5285F2"/>
<path d="M1682.94 235.312L1684.81 233.437L1558.88 107.5H1306.38L1270.75 71.875H718.564L689.501 42.8125L687.939 44.6875L717.626 74.6875H1269.81L1305.44 110H1557.94L1682.94 235.312Z" fill="#5285F2"/>
<path d="M686.062 46.5625C684.499 45 684.499 42.5 686.062 40.9375C687.624 39.375 690.124 39.375 691.687 40.9375C693.249 42.5 693.249 45 691.687 46.5625C690.124 48.125 687.624 48.125 686.062 46.5625Z" fill="#5285F2"/>
<path d="M965.126 279.688H1466.69V282.188H965.126V279.688Z" fill="#5285F2"/>
<path d="M965.438 285C963.251 285 961.688 283.125 961.688 281.25C961.688 279.062 963.563 277.5 965.438 277.5C967.313 277.5 969.188 279.375 969.188 281.25C969.188 283.125 967.626 285 965.438 285Z" fill="#5285F2"/>
<path d="M705.126 700H1236.06L1373.88 561.875H1995.44L2083.25 458.437H2281.06V455.937H2082.31L1994.19 559.375H1372.63L1234.81 697.187H705.126V700Z" fill="#5285F2"/>
<path d="M705.124 702.5C702.937 702.5 701.374 700.625 701.374 698.75C701.374 696.562 703.249 695 705.124 695C707.312 695 708.874 696.875 708.874 698.75C709.186 700.625 707.312 702.5 705.124 702.5Z" fill="#5285F2"/>
<path d="M647.938 589.063H1095.44L1184.81 499.688H1997V497.188H1183.87L1094.5 586.563H647.938V589.063Z" fill="#5285F2"/>
<path d="M648.249 591.875C646.062 591.875 644.499 590 644.499 588.125C644.499 585.937 646.374 584.375 648.249 584.375C650.436 584.375 651.999 586.25 651.999 588.125C651.999 590 650.436 591.875 648.249 591.875Z" fill="#5285F2"/>
<path d="M584.5 651.25H899.813L929.188 622.188H1175.75L1272.63 525.313L1270.75 523.438L1174.81 619.688H927.938L898.876 648.75H584.5V651.25Z" fill="#5285F2"/>
<path d="M1271.38 528.438C1269.3 528.438 1267.62 526.759 1267.62 524.688C1267.62 522.617 1269.3 520.938 1271.38 520.938C1273.45 520.938 1275.12 522.617 1275.12 524.688C1275.12 526.759 1273.45 528.438 1271.38 528.438Z" fill="#5285F2"/>
<path d="M584.812 654.063C582.625 654.063 581.062 652.188 581.062 650.314C581.062 648.126 582.937 646.563 584.812 646.563C587 646.563 588.562 648.439 588.562 650.314C588.562 652.188 587 654.063 584.812 654.063Z" fill="#5285F2"/>
<path d="M1105.12 460.313H1614.19V462.813H1105.12V460.313Z" fill="#5285F2"/>
<path d="M1105.13 465.625C1102.94 465.625 1101.38 463.75 1101.38 461.875C1101.38 459.687 1103.25 458.125 1105.13 458.125C1107.31 458.125 1108.88 460 1108.88 461.875C1109.19 463.75 1107.31 465.625 1105.13 465.625Z" fill="#5285F2"/>
<path d="M902.627 542.501H1096.38V540.001H903.876L826.064 462.188H470.127V465.001H825.127L902.627 542.501Z" fill="#5285F2"/>
<path d="M1096.06 545C1093.99 545 1092.31 543.321 1092.31 541.25C1092.31 539.179 1093.99 537.5 1096.06 537.5C1098.13 537.5 1099.81 539.179 1099.81 541.25C1099.81 543.321 1098.13 545 1096.06 545Z" fill="#5285F2"/>
<path d="M470.126 467.501C467.938 467.501 466.376 465.626 466.376 463.75C466.376 461.563 468.251 460 470.126 460C472.001 460 473.876 461.875 473.876 463.75C474.188 465.626 472.313 467.501 470.126 467.501Z" fill="#5285F2"/>
<path d="M574.812 416.25H913.562L954.187 375.625H1356.37L1383.87 348.125L1382 346.25L1355.12 372.813H953.249L912.624 413.75H574.812V416.25Z" fill="#5285F2"/>
<path d="M1385.44 350.001C1387 348.438 1387 345.938 1385.44 344.375C1383.87 342.813 1381.37 342.813 1379.81 344.375C1378.25 345.938 1378.25 348.438 1379.81 350.001C1381.37 351.563 1383.87 351.563 1385.44 350.001Z" fill="#5285F2"/>
<path d="M575.125 418.75C572.938 418.75 571.375 416.875 571.375 415C571.375 412.812 573.25 411.25 575.125 411.25C577.313 411.25 578.875 413.125 578.875 415C578.875 417.188 577.313 418.75 575.125 418.75Z" fill="#5285F2"/>
<path d="M422.626 365.312H687.626L732.938 320H873.251V317.188H732.001L686.688 362.5H423.563L384.501 323.75L382.626 325.625L422.626 365.312Z" fill="#5285F2"/>
<path d="M872.937 322.499C875.125 322.499 876.687 320.624 876.687 318.749C876.687 316.562 874.812 315 872.937 315C870.75 315 869.187 316.874 869.187 318.749C869.187 320.624 870.75 322.499 872.937 322.499Z" fill="#5285F2"/>
<path d="M381.063 327.5C379.5 325.938 379.5 323.437 381.063 321.875C382.625 320.313 385.125 320.313 386.688 321.875C388.25 323.437 388.25 325.938 386.688 327.5C385.125 329.062 382.625 329.062 381.063 327.5Z" fill="#5285F2"/>
<path d="M984.188 860.938H1802.31L2174.81 488.75L2172.94 486.875L1801.38 858.438H985.438L909.813 782.813H454.501L379.188 707.188H289.501V710.001H378.251L453.563 785.313H908.563L984.188 860.938Z" fill="#5285F2"/>
<path d="M289.501 712.5C287.313 712.5 285.751 710.625 285.751 708.75C285.751 706.563 287.626 705 289.501 705C291.689 705 293.251 706.875 293.251 708.75C293.564 710.625 291.689 712.5 289.501 712.5Z" fill="#5285F2"/>
<path d="M976.687 785.938H1401.06L1433.25 753.438H1864.19V750.938H1432.31L1399.81 783.438H976.687V785.938Z" fill="#5285F2"/>
<path d="M977 788.437C974.812 788.437 973.25 786.562 973.25 784.687C973.25 782.5 975.125 780.937 977 780.937C979.187 780.937 980.75 782.812 980.75 784.687C980.75 786.875 979.187 788.437 977 788.437Z" fill="#5285F2"/>
<path d="M597.937 734.375H1324.81L1354.5 704.687H1867.94L1946.69 625.937H2002.62V623.437H1945.75L1867 702.187H1353.25L1323.56 731.875H598.875L546.687 679.687H406.687L340.75 613.75H177.625L150.437 586.562L148.562 588.438L176.374 616.25H339.812L405.75 682.187H545.75L597.937 734.375Z" fill="#5285F2"/>
<path d="M147 590.312C145.437 588.75 145.437 586.25 147 584.687C148.562 583.125 151.062 583.125 152.625 584.687C154.187 586.25 154.187 588.75 152.625 590.312C151.062 591.875 148.562 591.875 147 590.312Z" fill="#5285F2"/>
<path d="M432.936 561.875H618.248L676.686 503.75H832.623V501.25H675.436L617.311 559.375H433.873L395.123 520.938L393.561 522.5L432.936 561.875Z" fill="#5285F2"/>
<path d="M832.624 506.25C834.811 506.25 836.374 504.375 836.374 502.5C836.374 500.313 834.499 498.75 832.624 498.75C830.436 498.75 828.874 500.625 828.874 502.5C828.561 504.688 830.436 506.25 832.624 506.25Z" fill="#5285F2"/>
<path d="M391.686 524.688C390.124 523.125 390.124 520.626 391.686 519.063C393.249 517.5 395.749 517.5 397.311 519.063C398.874 520.626 398.874 523.125 397.311 524.688C395.749 526.25 393.249 526.25 391.686 524.688Z" fill="#5285F2"/>
<path d="M396.375 624.062H517.625L561.062 580.312L559.5 578.438L516.375 621.25H396.375V624.062Z" fill="#5285F2"/>
<path d="M562.936 582.188C564.499 580.625 564.499 578.125 562.936 576.562C561.374 575 558.874 575 557.311 576.562C555.749 578.125 555.749 580.625 557.311 582.188C558.874 583.75 561.374 583.75 562.936 582.188Z" fill="#5285F2"/>
<path d="M396.686 626.562C394.499 626.562 392.937 624.688 392.937 622.812C392.937 620.625 394.811 619.062 396.686 619.062C398.874 619.062 400.437 620.937 400.437 622.812C400.437 624.688 398.561 626.562 396.686 626.562Z" fill="#5285F2"/>
<g opacity="0.6">
<g opacity="0.6">
<path opacity="0.6" d="M1372.62 425.937H2328.56V427.812H1372.62V425.937Z" fill="#5285F2"/>
</g>
<g opacity="0.6">
<path opacity="0.6" d="M1372.63 429.688C1371.06 429.688 1369.5 428.438 1369.5 426.562C1369.5 425 1370.75 423.438 1372.63 423.438C1374.5 423.438 1375.75 424.687 1375.75 426.562C1375.75 428.438 1374.5 429.688 1372.63 429.688Z" fill="#5285F2"/>
</g>
</g>
<g opacity="0.6">
<g opacity="0.6">
<path opacity="0.6" d="M1786.69 377.188H2031.38V375.313H1787.31L1678.56 266.563H1253.87L1230.75 243.438H1115.12L1075.44 283.126H908.563L878.25 313.126L879.812 314.688L909.187 285.001H1076.37L1115.75 245.313H1230.13L1253.25 268.438H1677.94L1786.69 377.188Z" fill="#5285F2"/>
</g>
<g opacity="0.6">
<path opacity="0.6" d="M881.063 315.938C879.813 317.188 877.938 317.188 877 315.938C875.75 314.688 875.75 312.813 877 311.876C878.25 310.626 880.125 310.626 881.063 311.876C882.313 312.813 882.313 314.688 881.063 315.938Z" fill="#5285F2"/>
</g>
</g>
<g opacity="0.6">
<g opacity="0.6">
<path opacity="0.6" d="M1262 350.938H1708.56V349.063H1262.94L1221.06 307.5H1038.88V309.375H1220.44L1262 350.938Z" fill="#5285F2"/>
</g>
<g opacity="0.6">
<path opacity="0.6" d="M1038.88 311.25C1037.31 311.25 1035.75 310 1035.75 308.125C1035.75 306.563 1037 305 1038.88 305C1040.44 305 1042 306.25 1042 308.125C1042 310 1040.75 311.25 1038.88 311.25Z" fill="#5285F2"/>
</g>
</g>
<g opacity="0.6">
<g opacity="0.6">
<path opacity="0.6" d="M2141.06 359.376H2287.94V357.189H2142L2061.69 276.876H1924.5L1778.56 130.938H1247.31V132.813H1777.62L1923.56 278.751H2060.75L2141.06 359.376Z" fill="#5285F2"/>
</g>
<g opacity="0.6">
<path opacity="0.6" d="M1247.63 135C1245.9 135 1244.5 133.601 1244.5 131.875C1244.5 130.15 1245.9 128.75 1247.63 128.75C1249.35 128.75 1250.75 130.15 1250.75 131.875C1250.75 133.601 1249.35 135 1247.63 135Z" fill="#5285F2"/>
</g>
</g>
<g opacity="0.6">
<g opacity="0.6">
<path opacity="0.6" d="M1816.06 344.063L1817.63 342.813L1707 232.188H1493.25L1453.25 191.876H1160.75L1140.13 212.501H987.938L950.751 249.688L952.001 251.251L988.876 214.688H1141.06L1161.69 194.063H1452.31L1492.63 234.063H1706.06L1816.06 344.063Z" fill="#5285F2"/>
</g>
<g opacity="0.6">
<path opacity="0.6" d="M953.563 252.501C952.313 253.751 950.438 253.751 949.5 252.501C948.25 251.251 948.25 249.375 949.5 248.438C950.75 247.188 952.625 247.188 953.563 248.438C954.813 249.375 954.813 251.251 953.563 252.501Z" fill="#5285F2"/>
</g>
</g>
<g opacity="0.6">
<g opacity="0.6">
<path opacity="0.6" d="M1833.88 284.688L1835.44 283.126L1738.88 186.563H1545.13L1517.63 159.063H1094.19L1071.69 136.876L1070.44 138.126L1093.25 161.251H1517L1544.19 188.438H1737.94L1833.88 284.688Z" fill="#5285F2"/>
</g>
<g opacity="0.6">
<path opacity="0.6" d="M1069.19 139.688C1067.94 138.438 1067.94 136.563 1069.19 135.625C1070.44 134.375 1072.31 134.375 1073.25 135.625C1074.5 136.875 1074.5 138.75 1073.25 139.688C1072 140.938 1070.13 140.938 1069.19 139.688Z" fill="#5285F2"/>
</g>
</g>
<g opacity="0.6">
<g opacity="0.6">
<path opacity="0.6" d="M1283.25 318.75H1667.94V320.625H1283.25V318.75Z" fill="#5285F2"/>
</g>
<g opacity="0.6">
<path opacity="0.6" d="M1283.25 322.5C1281.69 322.5 1280.13 321.25 1280.13 319.375C1280.13 317.813 1281.38 316.25 1283.25 316.25C1284.81 316.25 1286.38 317.5 1286.38 319.375C1286.38 321.25 1285.13 322.5 1283.25 322.5Z" fill="#5285F2"/>
</g>
</g>
<g opacity="0.6">
<g opacity="0.6">
<path opacity="0.6" d="M1083.56 640.938H1490.75L1596.69 535.313H2073.56L2141.06 455.626H2292.62V453.75H2140.12L2072.62 533.125H1595.75L1490.12 639.063H1083.56V640.938Z" fill="#5285F2"/>
</g>
<g opacity="0.6">
<path opacity="0.6" d="M1083.56 643.125C1081.83 643.125 1080.44 641.725 1080.44 640C1080.44 638.274 1081.83 636.875 1083.56 636.875C1085.29 636.875 1086.69 638.274 1086.69 640C1086.69 641.725 1085.29 643.125 1083.56 643.125Z" fill="#5285F2"/>
</g>
</g>
<g opacity="0.6">
<g opacity="0.6">
<path opacity="0.6" d="M1039.81 555.938H1383.25L1451.69 487.5H2074.81V485.625H1450.75L1382.31 554.063H1039.81V555.938Z" fill="#5285F2"/>
</g>
<g opacity="0.6">
<path opacity="0.6" d="M1040.12 558.125C1038.56 558.125 1037 556.875 1037 555C1037 553.438 1038.25 551.875 1040.12 551.875C1041.69 551.875 1043.25 553.125 1043.25 555C1042.94 556.563 1041.69 558.125 1040.12 558.125Z" fill="#5285F2"/>
</g>
</g>
<g opacity="0.6">
<g opacity="0.6">
<path opacity="0.6" d="M991.063 603.75H1233.25L1255.44 581.25H1444.81L1518.88 507.188L1517.63 505.625L1443.88 579.375H1254.5L1232.31 601.875H991.063V603.75Z" fill="#5285F2"/>
</g>
<g opacity="0.6">
<path opacity="0.6" d="M991.375 605.625C989.813 605.625 988.25 604.375 988.25 602.5C988.25 600.938 989.5 599.375 991.375 599.375C992.938 599.375 994.5 600.625 994.5 602.5C994.188 604.375 992.938 605.625 991.375 605.625Z" fill="#5285F2"/>
</g>
</g>
<g opacity="0.6">
<g opacity="0.6">
<path opacity="0.6" d="M1390.44 457.188H1781.06V459.063H1390.44V457.188Z" fill="#5285F2"/>
</g>
<g opacity="0.6">
<path opacity="0.6" d="M1390.75 461.25C1389.02 461.25 1387.63 459.851 1387.63 458.125C1387.63 456.4 1389.02 455 1390.75 455C1392.48 455 1393.88 456.4 1393.88 458.125C1393.88 459.851 1392.48 461.25 1390.75 461.25Z" fill="#5285F2"/>
</g>
</g>
<g opacity="0.6">
<g opacity="0.6">
<path opacity="0.6" d="M1235.12 520.314H1383.87V518.126H1236.06L1176.37 458.751H903.249V460.626H1175.75L1235.12 520.314Z" fill="#5285F2"/>
</g>
<g opacity="0.6">
<path opacity="0.6" d="M1383.56 522.5C1381.84 522.5 1380.44 521.101 1380.44 519.375C1380.44 517.65 1381.84 516.25 1383.56 516.25C1385.29 516.25 1386.69 517.65 1386.69 519.375C1386.69 521.101 1385.29 522.5 1383.56 522.5Z" fill="#5285F2"/>
</g>
<g opacity="0.6">
<path opacity="0.6" d="M903.25 462.813C901.524 462.813 900.125 461.414 900.125 459.688C900.125 457.962 901.524 456.563 903.25 456.563C904.976 456.563 906.375 457.962 906.375 459.688C906.375 461.414 904.976 462.813 903.25 462.813Z" fill="#5285F2"/>
</g>
</g>
<g opacity="0.6">
<g opacity="0.6">
<path opacity="0.6" d="M983.562 423.438H1243.56L1274.81 392.188H1583.25L1604.19 370.938L1602.94 369.688L1582.31 390.001H1273.87L1242.62 421.563H983.562V423.438Z" fill="#5285F2"/>
</g>
<g opacity="0.6">
<path opacity="0.6" d="M983.875 425.313C982.312 425.313 980.75 424.063 980.75 422.188C980.75 420.625 982 419.063 983.875 419.063C985.437 419.063 987 420.313 987 422.188C986.687 424.063 985.437 425.313 983.875 425.313Z" fill="#5285F2"/>
</g>
</g>
<g opacity="0.6">
<g opacity="0.6">
<path opacity="0.6" d="M866.687 384.063H1070.12L1104.81 349.376H1212.62V347.5H1104.19L1069.5 382.188H867.625L837.625 352.188L836.375 353.75L866.687 384.063Z" fill="#5285F2"/>
</g>
<g opacity="0.6">
<path opacity="0.6" d="M1212.31 351.562C1210.59 351.562 1209.19 350.163 1209.19 348.438C1209.19 346.712 1210.59 345.312 1212.31 345.312C1214.04 345.312 1215.44 346.712 1215.44 348.438C1215.44 350.163 1214.04 351.562 1212.31 351.562Z" fill="#5285F2"/>
</g>
<g opacity="0.6">
<path opacity="0.6" d="M835.127 355.313C833.877 354.063 833.877 352.188 835.127 351.25C836.377 350.313 838.252 350 839.189 351.25C840.439 352.5 840.439 354.375 839.189 355.313C837.939 356.25 836.064 356.25 835.127 355.313Z" fill="#5285F2"/>
</g>
</g>
<g opacity="0.6">
<g opacity="0.6">
<path opacity="0.6" d="M1297.94 764.688H1925.44L2211.37 478.75L2209.81 477.5L1924.5 762.501H1298.56L1240.44 704.688H891.374L833.561 646.563H764.812V648.751H832.624L890.436 706.563H1239.81L1297.94 764.688Z" fill="#5285F2"/>
</g>
<g opacity="0.6">
<path opacity="0.6" d="M764.813 650.625C763.251 650.625 761.688 649.375 761.688 647.5C761.688 645.938 762.938 644.375 764.813 644.375C766.376 644.375 767.938 645.625 767.938 647.5C767.626 649.375 766.376 650.625 764.813 650.625Z" fill="#5285F2"/>
</g>
</g>
<g opacity="0.6">
<g opacity="0.6">
<path opacity="0.6" d="M1292 706.875H1617.62L1642.31 682.188H1972.94V680.313H1641.69L1616.69 705.001H1292V706.875Z" fill="#5285F2"/>
</g>
<g opacity="0.6">
<path opacity="0.6" d="M1292 709.063C1290.44 709.063 1288.88 707.813 1288.88 705.938C1288.88 704.376 1290.13 702.813 1292 702.813C1293.56 702.813 1295.13 704.063 1295.13 705.938C1295.13 707.501 1293.88 709.063 1292 709.063Z" fill="#5285F2"/>
</g>
</g>
<g opacity="0.6">
<g opacity="0.6">
<path opacity="0.6" d="M1001.37 667.5H1559.19L1581.69 644.688H1975.75L2036.37 584.375H2079.19V582.5H2035.44L1975.12 642.813H1581.06L1558.25 665.313H1002L961.999 625.313H854.499L804.187 574.688H678.874L657.937 554.063L656.687 555.313L677.937 576.875H803.249L853.874 627.5H961.374L1001.37 667.5Z" fill="#5285F2"/>
</g>
<g opacity="0.6">
<path opacity="0.6" d="M655.437 556.875C654.187 555.625 654.187 553.75 655.437 552.813C656.687 551.562 658.562 551.562 659.499 552.813C660.749 554.063 660.749 555.938 659.499 556.875C658.249 558.125 656.374 558.125 655.437 556.875Z" fill="#5285F2"/>
</g>
</g>
<g opacity="0.6">
<g opacity="0.6">
<path opacity="0.6" d="M874.812 535.313H1017L1061.69 490.313H1181.38V488.438H1061.06L1016.37 533.126H875.437L845.75 503.438L844.5 505.001L874.812 535.313Z" fill="#5285F2"/>
</g>
<g opacity="0.6">
<path opacity="0.6" d="M1181.38 492.5C1182.94 492.5 1184.5 491.25 1184.5 489.375C1184.5 487.813 1183.25 486.25 1181.38 486.25C1179.81 486.25 1178.25 487.5 1178.25 489.375C1178.25 491.25 1179.81 492.5 1181.38 492.5Z" fill="#5285F2"/>
</g>
<g opacity="0.6">
<path opacity="0.6" d="M843.251 506.563C842.001 505.313 842.001 503.438 843.251 502.5C844.501 501.563 846.376 501.25 847.313 502.5C848.563 503.75 848.563 505.625 847.313 506.563C846.063 507.5 844.188 507.5 843.251 506.563Z" fill="#5285F2"/>
</g>
</g>
<g opacity="0.6">
<g opacity="0.6">
<path opacity="0.6" d="M846.686 582.813H939.811L973.249 549.375L971.686 547.813L938.874 580.625H846.686V582.813Z" fill="#5285F2"/>
</g>
<g opacity="0.6">
<path opacity="0.6" d="M974.499 550.625C975.749 549.375 975.749 547.5 974.499 546.562C973.249 545.313 971.374 545.313 970.437 546.562C969.187 547.812 969.187 549.688 970.437 550.625C971.374 551.875 973.249 551.875 974.499 550.625Z" fill="#5285F2"/>
</g>
<g opacity="0.6">
<path opacity="0.6" d="M847 584.688C845.274 584.688 843.875 583.288 843.875 581.562C843.875 579.837 845.274 578.438 847 578.438C848.726 578.438 850.125 579.837 850.125 581.562C850.125 583.288 848.726 584.688 847 584.688Z" fill="#5285F2"/>
</g>
</g>
</g>
<defs>
<clipPath id="clip0_1_715">
<rect width="1755" height="900" fill="white" transform="matrix(-1 0 0 1 1597 0)"/>
</clipPath>
</defs>
</svg>
