<svg width="786" height="637" viewBox="0 0 786 637" fill="none" xmlns="http://www.w3.org/2000/svg">
<g opacity="0.6">
<g opacity="0.6">
<path opacity="0.6" d="M718.624 297.937H1674.56V299.812H718.624V297.937Z" fill="#5285F2"/>
</g>
<g opacity="0.6">
<path opacity="0.6" d="M718.625 301.688C717.063 301.688 715.5 300.438 715.5 298.562C715.5 297 716.75 295.438 718.625 295.438C720.5 295.438 721.75 296.687 721.75 298.562C721.75 300.438 720.5 301.688 718.625 301.688Z" fill="#5285F2"/>
</g>
</g>
<g opacity="0.6">
<g opacity="0.6">
<path opacity="0.6" d="M1132.69 249.188H1377.38V247.313H1133.31L1024.56 138.563H599.875L576.75 115.438H461.125L421.438 155.126H254.562L224.25 185.126L225.812 186.688L255.188 157.001H422.375L461.75 117.313H576.125L599.25 140.438H1023.94L1132.69 249.188Z" fill="#5285F2"/>
</g>
<g opacity="0.6">
<path opacity="0.6" d="M227.063 187.938C225.813 189.188 223.938 189.188 223 187.938C221.75 186.688 221.75 184.813 223 183.876C224.25 182.626 226.125 182.626 227.063 183.876C228.313 184.813 228.313 186.688 227.063 187.938Z" fill="#5285F2"/>
</g>
</g>
<g opacity="0.6">
<g opacity="0.6">
<path opacity="0.6" d="M608 222.938H1054.56V221.063H608.938L567.063 179.5H384.875V181.375H566.438L608 222.938Z" fill="#5285F2"/>
</g>
<g opacity="0.6">
<path opacity="0.6" d="M384.875 183.25C383.313 183.25 381.75 182 381.75 180.125C381.75 178.563 383 177 384.875 177C386.438 177 388 178.25 388 180.125C388 182 386.75 183.25 384.875 183.25Z" fill="#5285F2"/>
</g>
</g>
<g opacity="0.6">
<g opacity="0.6">
<path opacity="0.6" d="M1487.06 231.376H1633.94V229.189H1488L1407.69 148.876H1270.5L1124.56 2.93848H593.312V4.81347H1123.62L1269.56 150.751H1406.75L1487.06 231.376Z" fill="#5285F2"/>
</g>
<g opacity="0.6">
<path opacity="0.6" d="M593.625 7.00049C591.9 7.00049 590.5 5.60138 590.5 3.87549C590.5 2.1496 591.9 0.750488 593.625 0.750488C595.351 0.750488 596.75 2.1496 596.75 3.87549C596.75 5.60138 595.351 7.00049 593.625 7.00049Z" fill="#5285F2"/>
</g>
</g>
<g opacity="0.6">
<g opacity="0.6">
<path opacity="0.6" d="M1162.06 216.063L1163.63 214.813L1053 104.188H839.251L799.251 63.876H506.751L486.126 84.501H333.938L296.751 121.688L298.001 123.251L334.876 86.6885H487.063L507.688 66.0635H798.314L838.626 106.063H1052.06L1162.06 216.063Z" fill="#5285F2"/>
</g>
<g opacity="0.6">
<path opacity="0.6" d="M299.563 124.501C298.313 125.751 296.438 125.751 295.5 124.501C294.25 123.251 294.25 121.375 295.5 120.438C296.75 119.188 298.625 119.188 299.563 120.438C300.813 121.375 300.813 123.251 299.563 124.501Z" fill="#5285F2"/>
</g>
</g>
<g opacity="0.6">
<g opacity="0.6">
<path opacity="0.6" d="M1179.88 156.688L1181.44 155.126L1084.88 58.5635H891.127L863.627 31.0635H440.189L417.689 8.87598L416.439 10.126L439.252 33.251H863.002L890.189 60.4385H1083.94L1179.88 156.688Z" fill="#5285F2"/>
</g>
<g opacity="0.6">
<path opacity="0.6" d="M415.188 11.688C413.938 10.438 413.938 8.56299 415.188 7.62549C416.438 6.37549 418.313 6.37549 419.25 7.62549C420.5 8.87549 420.5 10.7505 419.25 11.688C418 12.938 416.126 12.938 415.188 11.688Z" fill="#5285F2"/>
</g>
</g>
<g opacity="0.6">
<g opacity="0.6">
<path opacity="0.6" d="M629.25 190.75H1013.94V192.625H629.25V190.75Z" fill="#5285F2"/>
</g>
<g opacity="0.6">
<path opacity="0.6" d="M629.251 194.5C627.689 194.5 626.126 193.25 626.126 191.375C626.126 189.813 627.376 188.25 629.251 188.25C630.814 188.25 632.376 189.5 632.376 191.375C632.376 193.25 631.126 194.5 629.251 194.5Z" fill="#5285F2"/>
</g>
</g>
<g opacity="0.6">
<g opacity="0.6">
<path opacity="0.6" d="M429.562 512.938H836.749L942.687 407.313H1419.56L1487.06 327.626H1638.62V325.75H1486.12L1418.62 405.125H941.749L836.124 511.063H429.562V512.938Z" fill="#5285F2"/>
</g>
<g opacity="0.6">
<path opacity="0.6" d="M429.561 515.125C427.835 515.125 426.436 513.725 426.436 512C426.436 510.274 427.835 508.875 429.561 508.875C431.286 508.875 432.686 510.274 432.686 512C432.686 513.725 431.286 515.125 429.561 515.125Z" fill="#5285F2"/>
</g>
</g>
<g opacity="0.6">
<g opacity="0.6">
<path opacity="0.6" d="M385.811 427.938H729.249L797.686 359.5H1420.81V357.625H796.748L728.311 426.063H385.811V427.938Z" fill="#5285F2"/>
</g>
<g opacity="0.6">
<path opacity="0.6" d="M386.125 430.125C384.562 430.125 383 428.875 383 427C383 425.438 384.25 423.875 386.125 423.875C387.687 423.875 389.25 425.125 389.25 427C388.937 428.563 387.687 430.125 386.125 430.125Z" fill="#5285F2"/>
</g>
</g>
<g opacity="0.6">
<g opacity="0.6">
<path opacity="0.6" d="M337.062 475.75H579.25L601.438 453.25H790.812L864.875 379.188L863.625 377.625L789.875 451.375H600.5L578.312 473.875H337.062V475.75Z" fill="#5285F2"/>
</g>
<g opacity="0.6">
<path opacity="0.6" d="M337.375 477.625C335.813 477.625 334.25 476.375 334.25 474.5C334.25 472.938 335.5 471.375 337.375 471.375C338.938 471.375 340.5 472.625 340.5 474.5C340.188 476.375 338.938 477.625 337.375 477.625Z" fill="#5285F2"/>
</g>
</g>
<g opacity="0.6">
<g opacity="0.6">
<path opacity="0.6" d="M736.438 329.188H1127.06V331.063H736.438V329.188Z" fill="#5285F2"/>
</g>
<g opacity="0.6">
<path opacity="0.6" d="M736.75 333.25C735.024 333.25 733.625 331.851 733.625 330.125C733.625 328.4 735.024 327 736.75 327C738.476 327 739.875 328.4 739.875 330.125C739.875 331.851 738.476 333.25 736.75 333.25Z" fill="#5285F2"/>
</g>
</g>
<g opacity="0.6">
<g opacity="0.6">
<path opacity="0.6" d="M581.124 392.314H729.875V390.126H582.062L522.374 330.751H249.249V332.626H521.749L581.124 392.314Z" fill="#5285F2"/>
</g>
<g opacity="0.6">
<path opacity="0.6" d="M729.563 394.5C727.837 394.5 726.438 393.101 726.438 391.375C726.438 389.65 727.837 388.25 729.563 388.25C731.289 388.25 732.688 389.65 732.688 391.375C732.688 393.101 731.289 394.5 729.563 394.5Z" fill="#5285F2"/>
</g>
<g opacity="0.6">
<path opacity="0.6" d="M249.25 334.813C247.524 334.813 246.125 333.414 246.125 331.688C246.125 329.962 247.524 328.563 249.25 328.563C250.976 328.563 252.375 329.962 252.375 331.688C252.375 333.414 250.976 334.813 249.25 334.813Z" fill="#5285F2"/>
</g>
</g>
<g opacity="0.6">
<g opacity="0.6">
<path opacity="0.6" d="M329.562 295.438H589.562L620.812 264.188H929.25L950.187 242.938L948.937 241.688L928.312 262.001H619.874L588.624 293.563H329.562V295.438Z" fill="#5285F2"/>
</g>
<g opacity="0.6">
<path opacity="0.6" d="M329.875 297.313C328.312 297.313 326.75 296.063 326.75 294.188C326.75 292.625 328 291.063 329.875 291.063C331.437 291.063 333 292.313 333 294.188C332.687 296.063 331.437 297.313 329.875 297.313Z" fill="#5285F2"/>
</g>
</g>
<g opacity="0.6">
<g opacity="0.6">
<path opacity="0.6" d="M212.687 256.063H416.125L450.812 221.376H558.625V219.5H450.188L415.5 254.188H213.625L183.625 224.188L182.375 225.75L212.687 256.063Z" fill="#5285F2"/>
</g>
<g opacity="0.6">
<path opacity="0.6" d="M558.313 223.562C556.587 223.562 555.188 222.163 555.188 220.438C555.188 218.712 556.587 217.312 558.313 217.312C560.039 217.312 561.438 218.712 561.438 220.438C561.438 222.163 560.039 223.562 558.313 223.562Z" fill="#5285F2"/>
</g>
<g opacity="0.6">
<path opacity="0.6" d="M181.127 227.313C179.877 226.063 179.877 224.188 181.127 223.25C182.377 222.313 184.252 222 185.189 223.25C186.439 224.5 186.439 226.375 185.189 227.313C183.939 228.25 182.064 228.25 181.127 227.313Z" fill="#5285F2"/>
</g>
</g>
<g opacity="0.6">
<g opacity="0.6">
<path opacity="0.6" d="M643.937 636.688H1271.44L1557.37 350.75L1555.81 349.5L1270.5 634.5H644.562L586.436 576.688H237.374L179.561 518.563H110.812V520.751H178.624L236.437 578.563H585.811L643.937 636.688Z" fill="#5285F2"/>
</g>
<g opacity="0.6">
<path opacity="0.6" d="M110.813 522.625C109.251 522.625 107.688 521.375 107.688 519.5C107.688 517.938 108.938 516.375 110.813 516.375C112.376 516.375 113.938 517.625 113.938 519.5C113.626 521.375 112.376 522.625 110.813 522.625Z" fill="#5285F2"/>
</g>
</g>
<g opacity="0.6">
<g opacity="0.6">
<path opacity="0.6" d="M638 578.875H963.625L988.312 554.188H1318.94V552.313H987.687L962.687 577.001H638V578.875Z" fill="#5285F2"/>
</g>
<g opacity="0.6">
<path opacity="0.6" d="M638.001 581.063C636.438 581.063 634.876 579.813 634.876 577.938C634.876 576.376 636.126 574.813 638.001 574.813C639.563 574.813 641.126 576.063 641.126 577.938C641.126 579.501 639.876 581.063 638.001 581.063Z" fill="#5285F2"/>
</g>
</g>
<g opacity="0.6">
<g opacity="0.6">
<path opacity="0.6" d="M347.374 539.5H905.187L927.687 516.688H1321.75L1382.37 456.375H1425.19V454.5H1381.44L1321.12 514.813H927.062L904.25 537.313H347.999L307.999 497.313H200.499L150.187 446.688H24.8745L3.93689 426.063L2.68689 427.313L23.9368 448.875H149.25L199.874 499.5H307.374L347.374 539.5Z" fill="#5285F2"/>
</g>
<g opacity="0.6">
<path opacity="0.6" d="M1.43683 428.875C0.18683 427.625 0.18683 425.75 1.43683 424.813C2.68682 423.562 4.56177 423.562 5.49927 424.813C6.74927 426.063 6.74927 427.938 5.49927 428.875C4.24928 430.125 2.37432 430.125 1.43683 428.875Z" fill="#5285F2"/>
</g>
</g>
<g opacity="0.6">
<g opacity="0.6">
<path opacity="0.6" d="M220.812 407.313H363L407.687 362.313H527.375V360.438H407.062L362.375 405.126H221.437L191.75 375.438L190.5 377.001L220.812 407.313Z" fill="#5285F2"/>
</g>
<g opacity="0.6">
<path opacity="0.6" d="M527.375 364.5C528.938 364.5 530.5 363.25 530.5 361.375C530.5 359.813 529.25 358.25 527.375 358.25C525.813 358.25 524.25 359.5 524.25 361.375C524.25 363.25 525.813 364.5 527.375 364.5Z" fill="#5285F2"/>
</g>
<g opacity="0.6">
<path opacity="0.6" d="M189.251 378.563C188.001 377.313 188.001 375.438 189.251 374.5C190.501 373.563 192.376 373.25 193.313 374.5C194.563 375.75 194.563 377.625 193.313 378.563C192.063 379.5 190.188 379.5 189.251 378.563Z" fill="#5285F2"/>
</g>
</g>
<g opacity="0.6">
<g opacity="0.6">
<path opacity="0.6" d="M192.686 454.813H285.811L319.249 421.375L317.686 419.813L284.874 452.625H192.686V454.813Z" fill="#5285F2"/>
</g>
<g opacity="0.6">
<path opacity="0.6" d="M320.499 422.625C321.749 421.375 321.749 419.5 320.499 418.562C319.249 417.313 317.374 417.313 316.437 418.562C315.187 419.812 315.187 421.688 316.437 422.625C317.374 423.875 319.249 423.875 320.499 422.625Z" fill="#5285F2"/>
</g>
<g opacity="0.6">
<path opacity="0.6" d="M193 456.688C191.274 456.688 189.875 455.288 189.875 453.562C189.875 451.837 191.274 450.438 193 450.438C194.726 450.438 196.125 451.837 196.125 453.562C196.125 455.288 194.726 456.688 193 456.688Z" fill="#5285F2"/>
</g>
</g>
</svg>
