<svg width="41" height="40" viewBox="0 0 41 40" fill="none" xmlns="http://www.w3.org/2000/svg">
<g clip-path="url(#clip0_1_1087)">
<path d="M40.9981 19.9996C40.9981 31.0454 31.8201 39.9998 20.4983 39.9998C9.1764 39.9998 -0.00170898 31.0454 -0.00170898 19.9996C-0.00170898 8.95401 9.1764 -0.000244141 20.4983 -0.000244141C31.8199 -0.000244141 40.9981 8.95401 40.9981 19.9996Z" fill="#BEBEBE"/>
<path d="M36.6463 19.9999C36.6463 28.6999 29.4168 35.7536 20.4989 35.7536C11.581 35.7536 4.35107 28.6999 4.35107 19.9999C4.35107 11.2992 11.581 4.24597 20.4989 4.24597C29.417 4.24597 36.6463 11.2991 36.6463 19.9999Z" fill="#BEBEBE"/>
<path d="M19.3007 25.3424L20.6322 20.4509L23.7846 19.3273L24.5688 16.4525L24.542 16.3812L21.4389 17.4872L23.6747 9.2738H17.3339L14.4099 19.9925L11.9686 20.8626L11.162 23.8263L13.6014 22.9569L11.8781 29.2739H28.7536L29.8355 25.3424H19.3007Z" fill="white"/>
</g>
<defs>
<clipPath id="clip0_1_1087">
<rect width="41" height="40" fill="white"/>
</clipPath>
</defs>
</svg>
