<svg width="1440" height="228" viewBox="0 0 1440 228" fill="none" xmlns="http://www.w3.org/2000/svg">
<path d="M-7 -204H1433V432H-7V-204Z" fill="white"/>
<path d="M875.904 92.5312H1756.22V94.2976H875.904V92.5312Z" fill="#5285F2"/>
<path d="M876.126 96.0643C874.581 96.0643 873.477 94.7395 873.477 93.4147C873.477 91.8691 874.801 90.7651 876.126 90.7651C877.672 90.7651 878.776 92.0899 878.776 93.4147C878.776 94.9603 877.672 96.0643 876.126 96.0643Z" fill="#5285F2"/>
<path d="M1546.25 57.6455H1748.94V55.8792H1546.91L1479.34 -11.9058H1311.32V-9.91858H1478.46L1546.25 57.6455Z" fill="#5285F2"/>
<path d="M1257.22 47.7096H1482.66V45.7224H1257.88L1157.86 -54.2989H766.829L745.412 -75.7163H638.767L602.335 -39.0639H448.439L420.839 -11.4642L421.943 -10.1394L449.322 -37.2975H602.998L639.65 -73.7291H744.75L765.946 -52.5325H1156.98L1257.22 47.7096Z" fill="#5285F2"/>
<path d="M774.118 23.6433H1185.46V21.6561H775.001L736.582 -16.7627H568.555V-14.7755H735.699L774.118 23.6433Z" fill="#5285F2"/>
<path d="M1185.24 25.409C1186.79 25.409 1187.89 24.0842 1187.89 22.7594C1187.89 21.2138 1186.57 20.1099 1185.24 20.1099C1183.92 20.1099 1182.59 21.4346 1182.59 22.7594C1182.59 24.0842 1183.7 25.409 1185.24 25.409Z" fill="#5285F2"/>
<path d="M1583.78 31.15H1718.69V29.3836H1584.44L1510.48 -44.8045H1384.18L1249.71 -179.27H760.648V-177.504H1249.05L1383.52 -43.0381H1509.59L1583.78 31.15Z" fill="#5285F2"/>
<path d="M1284.38 17.2398L1285.71 15.915L1183.92 -85.8728H987.187L950.093 -122.967H680.94L661.952 -103.978H521.745L487.521 -69.7545L488.846 -68.4297L522.407 -102.212H662.614L681.603 -121.2H949.43L986.524 -84.1064H1183.03L1284.38 17.2398Z" fill="#5285F2"/>
<path d="M1283.06 18.3441C1284.16 19.4481 1285.93 19.4481 1287.03 18.3441C1288.13 17.2401 1288.13 15.4737 1287.03 14.3697C1285.93 13.2658 1284.16 13.2658 1283.06 14.3697C1281.95 15.4737 1281.95 17.2401 1283.06 18.3441Z" fill="#5285F2"/>
<path d="M609.844 290.587H984.979L1082.35 192.994H1521.52L1583.56 119.91H1723.33V118.144H1582.9L1520.63 191.228H1081.47L984.096 288.6H609.844V290.587Z" fill="#5285F2"/>
<path d="M569.437 212.204H885.62L948.768 149.056H1522.62V147.29H948.105L884.957 210.438H569.437V212.204Z" fill="#5285F2"/>
<path d="M569.658 214.191C568.112 214.191 567.008 212.866 567.008 211.542C567.008 209.996 568.333 208.892 569.658 208.892C571.203 208.892 572.307 210.217 572.307 211.542C572.307 212.866 571.203 214.191 569.658 214.191Z" fill="#5285F2"/>
<path d="M524.616 256.142H747.401L768.156 235.608H942.365L1010.81 167.161L1009.49 165.836L941.703 233.842H767.273L746.738 254.376H524.616V256.142Z" fill="#5285F2"/>
<path d="M1009.93 169.369C1008.47 169.369 1007.28 168.183 1007.28 166.72C1007.28 165.256 1008.47 164.07 1009.93 164.07C1011.39 164.07 1012.58 165.256 1012.58 166.72C1012.58 168.183 1011.39 169.369 1009.93 169.369Z" fill="#5285F2"/>
<path d="M892.465 121.236H1252.14V123.002H892.465V121.236Z" fill="#5285F2"/>
<path d="M1252.14 124.989C1253.69 124.989 1254.79 123.664 1254.79 122.339C1254.79 120.794 1253.47 119.69 1252.14 119.69C1250.6 119.69 1249.49 121.014 1249.49 122.339C1249.27 123.664 1250.6 124.989 1252.14 124.989Z" fill="#5285F2"/>
<path d="M892.465 124.989C890.92 124.989 889.816 123.664 889.816 122.339C889.816 120.794 891.141 119.69 892.465 119.69C894.011 119.69 895.115 121.014 895.115 122.339C895.336 123.664 894.011 124.989 892.465 124.989Z" fill="#5285F2"/>
<path d="M749.389 179.306H886.283V177.539H750.272L695.293 122.561H443.805V124.548H694.631L749.389 179.306Z" fill="#5285F2"/>
<path d="M886.062 181.071C884.599 181.071 883.412 179.885 883.412 178.422C883.412 176.958 884.599 175.772 886.062 175.772C887.525 175.772 888.711 176.958 888.711 178.422C888.711 179.885 887.525 181.071 886.062 181.071Z" fill="#5285F2"/>
<path d="M443.804 126.314C442.258 126.314 441.154 124.989 441.154 123.664C441.154 122.119 442.479 121.015 443.804 121.015C445.129 121.015 446.454 122.339 446.454 123.664C446.674 124.989 445.35 126.314 443.804 126.314Z" fill="#5285F2"/>
<path d="M517.77 90.1032H757.115L785.819 61.3995H1069.99L1089.42 41.9693L1088.09 40.6445L1069.1 59.4123H785.156L756.453 88.3368H517.77V90.1032Z" fill="#5285F2"/>
<path d="M1090.52 43.2938C1091.62 42.1898 1091.62 40.4234 1090.52 39.3195C1089.42 38.2155 1087.65 38.2155 1086.55 39.3195C1085.44 40.4234 1085.44 42.1898 1086.55 43.2938C1087.65 44.3978 1089.42 44.3978 1090.52 43.2938Z" fill="#5285F2"/>
<path d="M517.992 91.8692C516.446 91.8692 515.342 90.5444 515.342 89.2197C515.342 87.6741 516.667 86.5701 517.992 86.5701C519.537 86.5701 520.641 87.8949 520.641 89.2197C520.641 90.7652 519.537 91.8692 517.992 91.8692Z" fill="#5285F2"/>
<path d="M1211.96 65.5942H1406.48V67.3607H1211.96V65.5942Z" fill="#5285F2"/>
<path d="M1406.48 69.3475C1408.03 69.3475 1409.13 68.0227 1409.13 66.6979C1409.13 65.1523 1407.81 64.0483 1406.48 64.0483C1404.94 64.0483 1403.83 65.3731 1403.83 66.6979C1403.61 68.0227 1404.94 69.3475 1406.48 69.3475Z" fill="#5285F2"/>
<path d="M1212.18 69.3475C1210.63 69.3475 1209.53 68.0227 1209.53 66.6979C1209.53 65.1523 1210.85 64.0483 1212.18 64.0483C1213.72 64.0483 1214.83 65.3731 1214.83 66.6979C1215.05 68.0227 1213.72 69.3475 1212.18 69.3475Z" fill="#5285F2"/>
<path d="M410.243 54.1127H597.479L629.495 22.097H728.633V20.1099H628.832L596.817 52.1255H410.905L383.305 24.7466L381.98 26.0714L410.243 54.1127Z" fill="#5285F2"/>
<path d="M728.412 23.8631C729.957 23.8631 731.061 22.5383 731.061 21.2135C731.061 19.6679 729.736 18.564 728.412 18.564C726.866 18.564 725.762 19.8887 725.762 21.2135C725.762 22.5383 726.866 23.8631 728.412 23.8631Z" fill="#5285F2"/>
<path d="M380.876 27.3961C379.772 26.2921 379.772 24.5257 380.876 23.4217C381.98 22.3178 383.747 22.3178 384.851 23.4217C385.955 24.5257 385.955 26.2921 384.851 27.3961C383.747 28.5001 381.98 28.5001 380.876 27.3961Z" fill="#5285F2"/>
<path d="M1139.32 249.74H1418.85L1457.27 211.321L1455.94 210.217L1418.18 247.973H1139.32V249.74Z" fill="#5285F2"/>
<path d="M807.016 404.298H1385.06L1648.26 141.328L1646.93 140.003L1384.4 402.532H807.899L754.466 349.099H432.764L379.552 295.666H316.182V297.653H378.889L432.101 350.865H753.583L807.016 404.298Z" fill="#5285F2"/>
<path d="M534.109 314.875H1047.68L1068.66 293.899H1431.43L1487.07 238.258H1526.59V236.492H1486.41L1430.77 292.133H1067.78L1046.8 313.109H534.772L497.898 276.236H398.981L352.393 229.647H237.136L217.927 210.438L216.602 211.763L236.253 231.414H351.73L398.319 278.002H497.236L534.109 314.875Z" fill="#5285F2"/>
<path d="M215.498 213.087C214.394 211.983 214.394 210.217 215.498 209.113C216.602 208.009 218.369 208.009 219.473 209.113C220.577 210.217 220.577 211.983 219.473 213.087C218.369 214.191 216.602 214.191 215.498 213.087Z" fill="#5285F2"/>
<path d="M417.527 192.994H548.46L589.75 151.926H699.928V150.159H588.866L547.798 191.228H418.19L390.811 164.07L389.707 165.174L417.527 192.994Z" fill="#5285F2"/>
<path d="M699.928 153.692C701.474 153.692 702.578 152.368 702.578 151.043C702.578 149.497 701.253 148.393 699.928 148.393C698.382 148.393 697.278 149.718 697.278 151.043C697.058 152.588 698.382 153.692 699.928 153.692Z" fill="#5285F2"/>
<path d="M388.383 166.719C387.279 165.615 387.279 163.849 388.383 162.745C389.487 161.641 391.253 161.641 392.357 162.745C393.461 163.849 393.461 165.615 392.357 166.719C391.253 167.823 389.487 167.823 388.383 166.719Z" fill="#5285F2"/>
<path d="M391.695 236.933H477.365L508.056 206.022L506.952 204.697L476.482 234.946H391.695V236.933Z" fill="#5285F2"/>
<path d="M509.38 207.346C510.484 206.242 510.484 204.476 509.38 203.372C508.276 202.268 506.509 202.268 505.405 203.372C504.301 204.476 504.301 206.242 505.405 207.346C506.509 208.45 508.276 208.45 509.38 207.346Z" fill="#5285F2"/>
</svg>
