<svg width="823" height="756" viewBox="0 0 823 756" fill="none" xmlns="http://www.w3.org/2000/svg">
<rect x="552" y="111.95" width="92" height="93.506" rx="46" stroke="#B3C9F9" stroke-width="20"/>
<g opacity="0.2" filter="url(#filter0_f_1_1376)">
<ellipse cx="494" cy="424.733" rx="129" ry="131.241" fill="#ED0707"/>
</g>
<g opacity="0.2" filter="url(#filter1_f_1_1376)">
<ellipse cx="329" cy="331.496" rx="129" ry="131.241" fill="#4ECC4E"/>
</g>
<ellipse cx="109" cy="402.944" rx="3" ry="3.04034" fill="#F57200"/>
<ellipse cx="109" cy="428.28" rx="3" ry="3.04034" fill="#F57200"/>
<ellipse cx="109" cy="453.616" rx="3" ry="3.04034" fill="#F57200"/>
<ellipse cx="109" cy="478.952" rx="3" ry="3.04034" fill="#F57200"/>
<ellipse cx="109" cy="504.288" rx="3" ry="3.04034" fill="#F57200"/>
<ellipse cx="109" cy="529.625" rx="3" ry="3.04034" fill="#F57200"/>
<ellipse cx="109" cy="554.961" rx="3" ry="3.04034" fill="#F57200"/>
<ellipse cx="109" cy="580.297" rx="3" ry="3.04034" fill="#F57200"/>
<ellipse cx="109" cy="605.633" rx="3" ry="3.04034" fill="#F57200"/>
<ellipse cx="109" cy="630.969" rx="3" ry="3.04034" fill="#F57200"/>
<ellipse cx="133" cy="402.944" rx="3" ry="3.04034" fill="#F57200"/>
<ellipse cx="158" cy="402.944" rx="3" ry="3.04034" fill="#F57200"/>
<ellipse cx="183" cy="402.944" rx="3" ry="3.04034" fill="#F57200"/>
<ellipse cx="208" cy="402.944" rx="3" ry="3.04034" fill="#F57200"/>
<ellipse cx="233" cy="402.944" rx="3" ry="3.04034" fill="#F57200"/>
<ellipse cx="258" cy="402.944" rx="3" ry="3.04034" fill="#F57200"/>
<ellipse cx="283" cy="402.944" rx="3" ry="3.04034" fill="#F57200"/>
<ellipse cx="308" cy="402.944" rx="3" ry="3.04034" fill="#F57200"/>
<ellipse cx="333" cy="402.944" rx="3" ry="3.04034" fill="#F57200"/>
<ellipse cx="358" cy="402.944" rx="3" ry="3.04034" fill="#F57200"/>
<ellipse cx="383" cy="402.944" rx="3" ry="3.04034" fill="#F57200"/>
<ellipse cx="408" cy="402.944" rx="3" ry="3.04034" fill="#F57200"/>
<ellipse cx="133" cy="428.28" rx="3" ry="3.04034" fill="#F57200"/>
<ellipse cx="158" cy="428.28" rx="3" ry="3.04034" fill="#F57200"/>
<ellipse cx="183" cy="428.28" rx="3" ry="3.04034" fill="#F57200"/>
<ellipse cx="208" cy="428.28" rx="3" ry="3.04034" fill="#F57200"/>
<ellipse cx="233" cy="428.28" rx="3" ry="3.04034" fill="#F57200"/>
<ellipse cx="258" cy="428.28" rx="3" ry="3.04034" fill="#F57200"/>
<ellipse cx="283" cy="428.28" rx="3" ry="3.04034" fill="#F57200"/>
<ellipse cx="308" cy="428.28" rx="3" ry="3.04034" fill="#F57200"/>
<ellipse cx="333" cy="428.28" rx="3" ry="3.04034" fill="#F57200"/>
<ellipse cx="358" cy="428.28" rx="3" ry="3.04034" fill="#F57200"/>
<ellipse cx="383" cy="428.28" rx="3" ry="3.04034" fill="#F57200"/>
<ellipse cx="408" cy="428.28" rx="3" ry="3.04034" fill="#F57200"/>
<ellipse cx="133" cy="453.616" rx="3" ry="3.04034" fill="#F57200"/>
<ellipse cx="158" cy="453.616" rx="3" ry="3.04034" fill="#F57200"/>
<ellipse cx="183" cy="453.616" rx="3" ry="3.04034" fill="#F57200"/>
<ellipse cx="208" cy="453.616" rx="3" ry="3.04034" fill="#F57200"/>
<ellipse cx="233" cy="453.616" rx="3" ry="3.04034" fill="#F57200"/>
<ellipse cx="258" cy="453.616" rx="3" ry="3.04034" fill="#F57200"/>
<ellipse cx="283" cy="453.616" rx="3" ry="3.04034" fill="#F57200"/>
<ellipse cx="308" cy="453.616" rx="3" ry="3.04034" fill="#F57200"/>
<ellipse cx="333" cy="453.616" rx="3" ry="3.04034" fill="#F57200"/>
<ellipse cx="358" cy="453.616" rx="3" ry="3.04034" fill="#F57200"/>
<ellipse cx="383" cy="453.616" rx="3" ry="3.04034" fill="#F57200"/>
<ellipse cx="408" cy="453.616" rx="3" ry="3.04034" fill="#F57200"/>
<ellipse cx="133" cy="478.952" rx="3" ry="3.04034" fill="#F57200"/>
<ellipse cx="158" cy="478.952" rx="3" ry="3.04034" fill="#F57200"/>
<ellipse cx="183" cy="478.952" rx="3" ry="3.04034" fill="#F57200"/>
<ellipse cx="208" cy="478.952" rx="3" ry="3.04034" fill="#F57200"/>
<ellipse cx="233" cy="478.952" rx="3" ry="3.04034" fill="#F57200"/>
<ellipse cx="258" cy="478.952" rx="3" ry="3.04034" fill="#F57200"/>
<ellipse cx="283" cy="478.952" rx="3" ry="3.04034" fill="#F57200"/>
<ellipse cx="308" cy="478.952" rx="3" ry="3.04034" fill="#F57200"/>
<ellipse cx="333" cy="478.952" rx="3" ry="3.04034" fill="#F57200"/>
<ellipse cx="358" cy="478.952" rx="3" ry="3.04034" fill="#F57200"/>
<ellipse cx="383" cy="478.952" rx="3" ry="3.04034" fill="#F57200"/>
<ellipse cx="408" cy="478.952" rx="3" ry="3.04034" fill="#F57200"/>
<ellipse cx="133" cy="504.288" rx="3" ry="3.04034" fill="#F57200"/>
<ellipse cx="158" cy="504.288" rx="3" ry="3.04034" fill="#F57200"/>
<ellipse cx="183" cy="504.288" rx="3" ry="3.04034" fill="#F57200"/>
<ellipse cx="208" cy="504.288" rx="3" ry="3.04034" fill="#F57200"/>
<ellipse cx="233" cy="504.288" rx="3" ry="3.04034" fill="#F57200"/>
<ellipse cx="258" cy="504.288" rx="3" ry="3.04034" fill="#F57200"/>
<ellipse cx="283" cy="504.288" rx="3" ry="3.04034" fill="#F57200"/>
<ellipse cx="308" cy="504.288" rx="3" ry="3.04034" fill="#F57200"/>
<ellipse cx="333" cy="504.288" rx="3" ry="3.04034" fill="#F57200"/>
<ellipse cx="358" cy="504.288" rx="3" ry="3.04034" fill="#F57200"/>
<ellipse cx="383" cy="504.288" rx="3" ry="3.04034" fill="#F57200"/>
<ellipse cx="408" cy="504.288" rx="3" ry="3.04034" fill="#F57200"/>
<ellipse cx="133" cy="529.625" rx="3" ry="3.04034" fill="#F57200"/>
<ellipse cx="158" cy="529.625" rx="3" ry="3.04034" fill="#F57200"/>
<ellipse cx="183" cy="529.625" rx="3" ry="3.04034" fill="#F57200"/>
<ellipse cx="208" cy="529.625" rx="3" ry="3.04034" fill="#F57200"/>
<ellipse cx="233" cy="529.625" rx="3" ry="3.04034" fill="#F57200"/>
<ellipse cx="258" cy="529.625" rx="3" ry="3.04034" fill="#F57200"/>
<ellipse cx="283" cy="529.625" rx="3" ry="3.04034" fill="#F57200"/>
<ellipse cx="308" cy="529.625" rx="3" ry="3.04034" fill="#F57200"/>
<ellipse cx="333" cy="529.625" rx="3" ry="3.04034" fill="#F57200"/>
<ellipse cx="358" cy="529.625" rx="3" ry="3.04034" fill="#F57200"/>
<ellipse cx="383" cy="529.625" rx="3" ry="3.04034" fill="#F57200"/>
<ellipse cx="408" cy="529.625" rx="3" ry="3.04034" fill="#F57200"/>
<ellipse cx="133" cy="554.961" rx="3" ry="3.04034" fill="#F57200"/>
<ellipse cx="158" cy="554.961" rx="3" ry="3.04034" fill="#F57200"/>
<ellipse cx="183" cy="554.961" rx="3" ry="3.04034" fill="#F57200"/>
<ellipse cx="208" cy="554.961" rx="3" ry="3.04034" fill="#F57200"/>
<ellipse cx="233" cy="554.961" rx="3" ry="3.04034" fill="#F57200"/>
<ellipse cx="258" cy="554.961" rx="3" ry="3.04034" fill="#F57200"/>
<ellipse cx="283" cy="554.961" rx="3" ry="3.04034" fill="#F57200"/>
<ellipse cx="308" cy="554.961" rx="3" ry="3.04034" fill="#F57200"/>
<ellipse cx="333" cy="554.961" rx="3" ry="3.04034" fill="#F57200"/>
<ellipse cx="358" cy="554.961" rx="3" ry="3.04034" fill="#F57200"/>
<ellipse cx="383" cy="554.961" rx="3" ry="3.04034" fill="#F57200"/>
<ellipse cx="408" cy="554.961" rx="3" ry="3.04034" fill="#F57200"/>
<ellipse cx="133" cy="580.297" rx="3" ry="3.04034" fill="#F57200"/>
<ellipse cx="158" cy="580.297" rx="3" ry="3.04034" fill="#F57200"/>
<ellipse cx="183" cy="580.297" rx="3" ry="3.04034" fill="#F57200"/>
<ellipse cx="208" cy="580.297" rx="3" ry="3.04034" fill="#F57200"/>
<ellipse cx="233" cy="580.297" rx="3" ry="3.04034" fill="#F57200"/>
<ellipse cx="258" cy="580.297" rx="3" ry="3.04034" fill="#F57200"/>
<ellipse cx="283" cy="580.297" rx="3" ry="3.04034" fill="#F57200"/>
<ellipse cx="308" cy="580.297" rx="3" ry="3.04034" fill="#F57200"/>
<ellipse cx="333" cy="580.297" rx="3" ry="3.04034" fill="#F57200"/>
<ellipse cx="358" cy="580.297" rx="3" ry="3.04034" fill="#F57200"/>
<ellipse cx="383" cy="580.297" rx="3" ry="3.04034" fill="#F57200"/>
<ellipse cx="408" cy="580.297" rx="3" ry="3.04034" fill="#F57200"/>
<ellipse cx="133" cy="605.633" rx="3" ry="3.04034" fill="#F57200"/>
<ellipse cx="158" cy="605.633" rx="3" ry="3.04034" fill="#F57200"/>
<ellipse cx="183" cy="605.633" rx="3" ry="3.04034" fill="#F57200"/>
<ellipse cx="208" cy="605.633" rx="3" ry="3.04034" fill="#F57200"/>
<ellipse cx="233" cy="605.633" rx="3" ry="3.04034" fill="#F57200"/>
<ellipse cx="258" cy="605.633" rx="3" ry="3.04034" fill="#F57200"/>
<ellipse cx="283" cy="605.633" rx="3" ry="3.04034" fill="#F57200"/>
<ellipse cx="308" cy="605.633" rx="3" ry="3.04034" fill="#F57200"/>
<ellipse cx="333" cy="605.633" rx="3" ry="3.04034" fill="#F57200"/>
<ellipse cx="358" cy="605.633" rx="3" ry="3.04034" fill="#F57200"/>
<ellipse cx="383" cy="605.633" rx="3" ry="3.04034" fill="#F57200"/>
<ellipse cx="408" cy="605.633" rx="3" ry="3.04034" fill="#F57200"/>
<ellipse cx="133" cy="630.969" rx="3" ry="3.04034" fill="#F57200"/>
<ellipse cx="158" cy="630.969" rx="3" ry="3.04034" fill="#F57200"/>
<ellipse cx="183" cy="630.969" rx="3" ry="3.04034" fill="#F57200"/>
<ellipse cx="208" cy="630.969" rx="3" ry="3.04034" fill="#F57200"/>
<ellipse cx="233" cy="630.969" rx="3" ry="3.04034" fill="#F57200"/>
<ellipse cx="258" cy="630.969" rx="3" ry="3.04034" fill="#F57200"/>
<ellipse cx="283" cy="630.969" rx="3" ry="3.04034" fill="#F57200"/>
<ellipse cx="308" cy="630.969" rx="3" ry="3.04034" fill="#F57200"/>
<ellipse cx="333" cy="630.969" rx="3" ry="3.04034" fill="#F57200"/>
<ellipse cx="358" cy="630.969" rx="3" ry="3.04034" fill="#F57200"/>
<ellipse cx="383" cy="630.969" rx="3" ry="3.04034" fill="#F57200"/>
<ellipse cx="408" cy="630.969" rx="3" ry="3.04034" fill="#F57200"/>
<defs>
<filter id="filter0_f_1_1376" x="165" y="93.4915" width="658" height="662.483" filterUnits="userSpaceOnUse" color-interpolation-filters="sRGB">
<feFlood flood-opacity="0" result="BackgroundImageFix"/>
<feBlend mode="normal" in="SourceGraphic" in2="BackgroundImageFix" result="shape"/>
<feGaussianBlur stdDeviation="100" result="effect1_foregroundBlur_1_1376"/>
</filter>
<filter id="filter1_f_1_1376" x="0" y="0.254456" width="658" height="662.483" filterUnits="userSpaceOnUse" color-interpolation-filters="sRGB">
<feFlood flood-opacity="0" result="BackgroundImageFix"/>
<feBlend mode="normal" in="SourceGraphic" in2="BackgroundImageFix" result="shape"/>
<feGaussianBlur stdDeviation="100" result="effect1_foregroundBlur_1_1376"/>
</filter>
</defs>
</svg>
