<svg width="1440" height="228" viewBox="0 0 1440 228" fill="none" xmlns="http://www.w3.org/2000/svg">
<g clip-path="url(#clip0_1_1511)">
<rect width="1435" height="228" fill="url(#paint0_radial_1_1511)"/>
<path d="M292.704 107.192C290.976 107.192 289.611 106.627 288.608 105.496L289.392 104.488C290.299 105.501 291.419 106.008 292.752 106.008C293.616 106.008 294.251 105.827 294.656 105.464C295.061 105.091 295.264 104.659 295.264 104.168C295.264 103.795 295.147 103.48 294.912 103.224C294.677 102.968 294.373 102.771 294 102.632C293.637 102.483 293.227 102.349 292.768 102.232C292.32 102.115 291.872 101.987 291.424 101.848C290.976 101.699 290.565 101.523 290.192 101.32C289.829 101.117 289.531 100.829 289.296 100.456C289.061 100.083 288.944 99.64 288.944 99.128C288.944 98.2533 289.291 97.544 289.984 97C290.677 96.4453 291.552 96.168 292.608 96.168C294.197 96.168 295.461 96.664 296.4 97.656L295.6 98.632C294.821 97.7787 293.792 97.352 292.512 97.352C291.872 97.352 291.344 97.512 290.928 97.832C290.523 98.1413 290.32 98.5467 290.32 99.048C290.32 99.4213 290.475 99.7307 290.784 99.976C291.104 100.221 291.493 100.403 291.952 100.52C292.421 100.637 292.928 100.787 293.472 100.968C294.027 101.139 294.533 101.325 294.992 101.528C295.461 101.72 295.851 102.035 296.16 102.472C296.48 102.909 296.64 103.437 296.64 104.056C296.64 104.931 296.315 105.672 295.664 106.28C295.024 106.888 294.037 107.192 292.704 107.192ZM304.991 107H303.791V105.912C303.471 106.275 303.066 106.579 302.575 106.824C302.095 107.069 301.583 107.192 301.039 107.192C299.396 107.192 298.575 106.371 298.575 104.728V99.272H299.775V104.36C299.775 105 299.919 105.453 300.207 105.72C300.506 105.987 300.938 106.12 301.503 106.12C301.951 106.12 302.383 106.008 302.799 105.784C303.226 105.56 303.556 105.283 303.791 104.952V99.272H304.991V107ZM311.196 107.192C310.108 107.192 309.238 106.739 308.588 105.832V109.944H307.388V99.272H308.588V100.424C308.876 100.019 309.249 99.6933 309.708 99.448C310.166 99.2027 310.662 99.08 311.196 99.08C312.22 99.08 313.046 99.448 313.676 100.184C314.316 100.909 314.635 101.891 314.635 103.128C314.635 104.365 314.316 105.352 313.676 106.088C313.046 106.824 312.22 107.192 311.196 107.192ZM310.891 106.12C311.649 106.12 312.252 105.843 312.7 105.288C313.148 104.723 313.372 104.003 313.372 103.128C313.372 102.253 313.148 101.539 312.7 100.984C312.252 100.429 311.649 100.152 310.891 100.152C310.433 100.152 309.985 100.275 309.548 100.52C309.121 100.755 308.801 101.043 308.588 101.384V104.872C308.801 105.224 309.121 105.523 309.548 105.768C309.985 106.003 310.433 106.12 310.891 106.12ZM320.352 107.192C319.264 107.192 318.394 106.739 317.744 105.832V109.944H316.544V99.272H317.744V100.424C318.032 100.019 318.405 99.6933 318.864 99.448C319.322 99.2027 319.818 99.08 320.352 99.08C321.376 99.08 322.202 99.448 322.832 100.184C323.472 100.909 323.792 101.891 323.792 103.128C323.792 104.365 323.472 105.352 322.832 106.088C322.202 106.824 321.376 107.192 320.352 107.192ZM320.048 106.12C320.805 106.12 321.408 105.843 321.856 105.288C322.304 104.723 322.528 104.003 322.528 103.128C322.528 102.253 322.304 101.539 321.856 100.984C321.408 100.429 320.805 100.152 320.048 100.152C319.589 100.152 319.141 100.275 318.704 100.52C318.277 100.755 317.957 101.043 317.744 101.384V104.872C317.957 105.224 318.277 105.523 318.704 105.768C319.141 106.003 319.589 106.12 320.048 106.12ZM331.844 106.024C331.151 106.803 330.228 107.192 329.076 107.192C327.924 107.192 326.996 106.803 326.292 106.024C325.599 105.245 325.252 104.28 325.252 103.128C325.252 101.976 325.599 101.016 326.292 100.248C326.996 99.4693 327.924 99.08 329.076 99.08C330.228 99.08 331.151 99.4693 331.844 100.248C332.548 101.016 332.9 101.976 332.9 103.128C332.9 104.28 332.548 105.245 331.844 106.024ZM327.188 105.256C327.657 105.832 328.287 106.12 329.076 106.12C329.865 106.12 330.489 105.832 330.948 105.256C331.407 104.669 331.636 103.96 331.636 103.128C331.636 102.296 331.407 101.592 330.948 101.016C330.489 100.44 329.865 100.152 329.076 100.152C328.287 100.152 327.657 100.445 327.188 101.032C326.729 101.608 326.5 102.307 326.5 103.128C326.5 103.96 326.729 104.669 327.188 105.256ZM336.056 107H334.856V99.272H336.056V100.52C336.771 99.5813 337.63 99.112 338.632 99.112V100.344C338.483 100.312 338.323 100.296 338.152 100.296C337.79 100.296 337.395 100.424 336.968 100.68C336.542 100.936 336.238 101.219 336.056 101.528V107ZM342.09 107.192C341.524 107.192 341.098 107.037 340.81 106.728C340.522 106.419 340.378 105.971 340.378 105.384V100.328H339.098V99.272H340.378V97.16H341.578V99.272H343.146V100.328H341.578V105.128C341.578 105.427 341.642 105.667 341.77 105.848C341.908 106.029 342.106 106.12 342.362 106.12C342.714 106.12 342.986 106.013 343.178 105.8L343.53 106.696C343.178 107.027 342.698 107.192 342.09 107.192ZM348.329 107.192C347.177 107.192 346.233 106.819 345.497 106.072C344.761 105.315 344.393 104.333 344.393 103.128C344.393 101.997 344.755 101.043 345.481 100.264C346.206 99.4747 347.113 99.08 348.201 99.08C349.342 99.08 350.243 99.4747 350.905 100.264C351.577 101.043 351.913 102.029 351.913 103.224V103.528H345.657C345.71 104.285 345.987 104.92 346.489 105.432C346.99 105.944 347.641 106.2 348.441 106.2C349.401 106.2 350.195 105.875 350.825 105.224L351.401 106.008C350.611 106.797 349.587 107.192 348.329 107.192ZM350.729 102.648C350.718 101.987 350.494 101.395 350.057 100.872C349.619 100.339 348.995 100.072 348.185 100.072C347.417 100.072 346.809 100.333 346.361 100.856C345.923 101.379 345.689 101.976 345.657 102.648H350.729ZM360.656 107H359.456V105.848C358.795 106.744 357.926 107.192 356.848 107.192C355.824 107.192 354.992 106.829 354.352 106.104C353.723 105.368 353.408 104.381 353.408 103.144C353.408 101.917 353.723 100.936 354.352 100.2C354.992 99.4533 355.824 99.08 356.848 99.08C357.915 99.08 358.784 99.5333 359.456 100.44V96.328H360.656V107ZM357.136 106.12C357.606 106.12 358.054 106.003 358.48 105.768C358.907 105.533 359.232 105.245 359.456 104.904V101.4C359.232 101.048 358.902 100.755 358.464 100.52C358.038 100.275 357.595 100.152 357.136 100.152C356.379 100.152 355.776 100.435 355.328 101C354.88 101.555 354.656 102.269 354.656 103.144C354.656 104.019 354.88 104.733 355.328 105.288C355.776 105.843 356.379 106.12 357.136 106.12ZM294.304 131.192C292.747 131.192 291.44 130.68 290.384 129.656C289.339 128.621 288.816 127.293 288.816 125.672C288.816 124.051 289.339 122.728 290.384 121.704C291.44 120.669 292.747 120.152 294.304 120.152C296.011 120.152 297.36 120.856 298.352 122.264L297.232 122.888C296.923 122.429 296.507 122.056 295.984 121.768C295.461 121.48 294.901 121.336 294.304 121.336C293.131 121.336 292.149 121.747 291.36 122.568C290.581 123.379 290.192 124.413 290.192 125.672C290.192 126.931 290.581 127.971 291.36 128.792C292.149 129.603 293.131 130.008 294.304 130.008C294.901 130.008 295.461 129.869 295.984 129.592C296.507 129.304 296.923 128.925 297.232 128.456L298.368 129.08C297.333 130.488 295.979 131.192 294.304 131.192ZM306.157 130.024C305.463 130.803 304.541 131.192 303.389 131.192C302.237 131.192 301.309 130.803 300.605 130.024C299.911 129.245 299.565 128.28 299.565 127.128C299.565 125.976 299.911 125.016 300.605 124.248C301.309 123.469 302.237 123.08 303.389 123.08C304.541 123.08 305.463 123.469 306.157 124.248C306.861 125.016 307.213 125.976 307.213 127.128C307.213 128.28 306.861 129.245 306.157 130.024ZM301.501 129.256C301.97 129.832 302.599 130.12 303.389 130.12C304.178 130.12 304.802 129.832 305.261 129.256C305.719 128.669 305.949 127.96 305.949 127.128C305.949 126.296 305.719 125.592 305.261 125.016C304.802 124.44 304.178 124.152 303.389 124.152C302.599 124.152 301.97 124.445 301.501 125.032C301.042 125.608 300.812 126.307 300.812 127.128C300.812 127.96 301.042 128.669 301.501 129.256ZM315.585 131H314.385V129.912C314.065 130.275 313.659 130.579 313.169 130.824C312.689 131.069 312.177 131.192 311.633 131.192C309.99 131.192 309.169 130.371 309.169 128.728V123.272H310.369V128.36C310.369 129 310.513 129.453 310.801 129.72C311.099 129.987 311.531 130.12 312.097 130.12C312.545 130.12 312.977 130.008 313.393 129.784C313.819 129.56 314.15 129.283 314.385 128.952V123.272H315.585V131ZM324.397 131H323.197V125.944C323.197 125.293 323.048 124.835 322.749 124.568C322.451 124.291 322.024 124.152 321.469 124.152C321.021 124.152 320.584 124.269 320.157 124.504C319.741 124.739 319.416 125.021 319.181 125.352V131H317.981V123.272H319.181V124.392C319.48 124.04 319.88 123.736 320.381 123.48C320.883 123.213 321.4 123.08 321.933 123.08C323.576 123.08 324.397 123.912 324.397 125.576V131ZM328.746 131.192C328.18 131.192 327.754 131.037 327.466 130.728C327.178 130.419 327.034 129.971 327.034 129.384V124.328H325.754V123.272H327.034V121.16H328.234V123.272H329.802V124.328H328.234V129.128C328.234 129.427 328.298 129.667 328.426 129.848C328.564 130.029 328.762 130.12 329.018 130.12C329.37 130.12 329.642 130.013 329.834 129.8L330.186 130.696C329.834 131.027 329.354 131.192 328.746 131.192ZM332.697 131H331.497V123.272H332.697V124.52C333.412 123.581 334.27 123.112 335.273 123.112V124.344C335.124 124.312 334.964 124.296 334.793 124.296C334.43 124.296 334.036 124.424 333.609 124.68C333.182 124.936 332.878 125.219 332.697 125.528V131ZM337.37 122.168C337.157 122.168 336.97 122.093 336.81 121.944C336.65 121.784 336.57 121.592 336.57 121.368C336.57 121.144 336.65 120.952 336.81 120.792C336.97 120.632 337.157 120.552 337.37 120.552C337.594 120.552 337.786 120.632 337.946 120.792C338.106 120.952 338.186 121.144 338.186 121.368C338.186 121.592 338.106 121.784 337.946 121.944C337.786 122.093 337.594 122.168 337.37 122.168ZM337.978 131H336.778V123.272H337.978V131ZM343.86 131.192C342.708 131.192 341.764 130.819 341.028 130.072C340.292 129.315 339.924 128.333 339.924 127.128C339.924 125.997 340.287 125.043 341.012 124.264C341.737 123.475 342.644 123.08 343.732 123.08C344.873 123.08 345.775 123.475 346.436 124.264C347.108 125.043 347.444 126.029 347.444 127.224V127.528H341.188C341.241 128.285 341.519 128.92 342.02 129.432C342.521 129.944 343.172 130.2 343.972 130.2C344.932 130.2 345.727 129.875 346.356 129.224L346.932 130.008C346.143 130.797 345.119 131.192 343.86 131.192ZM346.26 126.648C346.249 125.987 346.025 125.395 345.588 124.872C345.151 124.339 344.527 124.072 343.716 124.072C342.948 124.072 342.34 124.333 341.892 124.856C341.455 125.379 341.22 125.976 341.188 126.648H346.26ZM351.836 131.192C350.524 131.192 349.484 130.787 348.715 129.976L349.34 129.112C349.606 129.421 349.969 129.683 350.428 129.896C350.897 130.109 351.382 130.216 351.884 130.216C352.46 130.216 352.908 130.093 353.228 129.848C353.548 129.603 353.708 129.283 353.708 128.888C353.708 128.547 353.542 128.28 353.212 128.088C352.881 127.885 352.481 127.736 352.012 127.64C351.553 127.533 351.089 127.416 350.62 127.288C350.15 127.149 349.75 126.92 349.42 126.6C349.089 126.269 348.924 125.837 348.924 125.304C348.924 124.675 349.18 124.147 349.692 123.72C350.214 123.293 350.918 123.08 351.804 123.08C352.966 123.08 353.921 123.453 354.668 124.2L354.108 125.032C353.564 124.381 352.796 124.056 351.804 124.056C351.281 124.056 350.865 124.173 350.556 124.408C350.246 124.632 350.092 124.92 350.092 125.272C350.092 125.581 350.257 125.827 350.588 126.008C350.918 126.179 351.313 126.317 351.772 126.424C352.241 126.52 352.71 126.637 353.18 126.776C353.649 126.915 354.049 127.16 354.38 127.512C354.71 127.853 354.876 128.301 354.876 128.856C354.876 129.539 354.609 130.099 354.076 130.536C353.542 130.973 352.796 131.192 351.836 131.192Z" fill="white"/>
<path d="M207.672 131H182.024V127.304C185.907 124.243 188.912 121.816 191.04 120.024C193.205 118.195 195.277 116.272 197.256 114.256C199.272 112.203 200.691 110.392 201.512 108.824C202.333 107.219 202.744 105.632 202.744 104.064C202.744 101.824 201.979 100.125 200.448 98.968C198.917 97.8107 197.088 97.232 194.96 97.232C190.667 97.232 187.288 98.8 184.824 101.936L181.968 98.968C183.387 97.1013 185.235 95.664 187.512 94.656C189.827 93.6107 192.309 93.088 194.96 93.088C198.357 93.088 201.288 94.04 203.752 95.944C206.253 97.848 207.504 100.555 207.504 104.064C207.504 107.536 206.011 111.008 203.024 114.48C200.037 117.915 195.483 122.04 189.36 126.856H207.672V131ZM236.114 131H231.466V121.536H213.714V117.672L229.73 93.648H236.114V117.448H241.378V121.536H236.114V131ZM231.466 117.448V97.96L218.362 117.448H231.466ZM269.468 113.584H258.716V125.512H255.524V113.584H244.772V110.672H255.524V99.08H258.716V110.672H269.468V113.584Z" fill="white"/>
<path d="M563.384 107H561.864L560.92 104.632H555.608L554.664 107H553.144L557.432 96.328H559.08L563.384 107ZM560.52 103.448L558.264 97.704L555.992 103.448H560.52ZM567.795 107H566.483L563.267 99.272H564.563L567.139 105.608L569.699 99.272H571.011L567.795 107ZM578.295 107H577.095V106.12C576.444 106.835 575.591 107.192 574.535 107.192C573.82 107.192 573.191 106.963 572.647 106.504C572.103 106.045 571.831 105.421 571.831 104.632C571.831 103.821 572.097 103.197 572.631 102.76C573.175 102.312 573.809 102.088 574.535 102.088C575.633 102.088 576.487 102.44 577.095 103.144V101.752C577.095 101.24 576.913 100.84 576.551 100.552C576.188 100.264 575.719 100.12 575.143 100.12C574.236 100.12 573.447 100.477 572.775 101.192L572.215 100.36C573.036 99.5067 574.065 99.08 575.303 99.08C576.188 99.08 576.908 99.2933 577.463 99.72C578.017 100.147 578.295 100.803 578.295 101.688V107ZM574.967 106.328C575.927 106.328 576.636 106.008 577.095 105.368V103.912C576.636 103.272 575.927 102.952 574.967 102.952C574.412 102.952 573.953 103.112 573.591 103.432C573.239 103.741 573.062 104.147 573.062 104.648C573.062 105.139 573.239 105.544 573.591 105.864C573.953 106.173 574.412 106.328 574.967 106.328ZM581.292 98.168C581.079 98.168 580.892 98.0933 580.732 97.944C580.572 97.784 580.492 97.592 580.492 97.368C580.492 97.144 580.572 96.952 580.732 96.792C580.892 96.632 581.079 96.552 581.292 96.552C581.516 96.552 581.708 96.632 581.868 96.792C582.028 96.952 582.108 97.144 582.108 97.368C582.108 97.592 582.028 97.784 581.868 97.944C581.708 98.0933 581.516 98.168 581.292 98.168ZM581.9 107H580.7V99.272H581.9V107ZM585.494 107H584.294V96.328H585.494V107ZM593.92 107H592.72V106.12C592.069 106.835 591.216 107.192 590.16 107.192C589.445 107.192 588.816 106.963 588.272 106.504C587.728 106.045 587.456 105.421 587.456 104.632C587.456 103.821 587.722 103.197 588.256 102.76C588.8 102.312 589.434 102.088 590.16 102.088C591.258 102.088 592.112 102.44 592.72 103.144V101.752C592.72 101.24 592.538 100.84 592.176 100.552C591.813 100.264 591.344 100.12 590.768 100.12C589.861 100.12 589.072 100.477 588.4 101.192L587.84 100.36C588.661 99.5067 589.69 99.08 590.928 99.08C591.813 99.08 592.533 99.2933 593.088 99.72C593.642 100.147 593.92 100.803 593.92 101.688V107ZM590.592 106.328C591.552 106.328 592.261 106.008 592.72 105.368V103.912C592.261 103.272 591.552 102.952 590.592 102.952C590.037 102.952 589.578 103.112 589.216 103.432C588.864 103.741 588.688 104.147 588.688 104.648C588.688 105.139 588.864 105.544 589.216 105.864C589.578 106.173 590.037 106.328 590.592 106.328ZM597.525 104.904C597.738 105.245 598.058 105.533 598.485 105.768C598.922 106.003 599.37 106.12 599.829 106.12C600.597 106.12 601.205 105.843 601.653 105.288C602.101 104.733 602.325 104.019 602.325 103.144C602.325 102.269 602.101 101.555 601.653 101C601.205 100.435 600.597 100.152 599.829 100.152C599.37 100.152 598.922 100.275 598.485 100.52C598.058 100.755 597.738 101.048 597.525 101.4V104.904ZM597.525 107H596.325V96.328H597.525V100.44C598.197 99.5333 599.066 99.08 600.133 99.08C601.146 99.08 601.973 99.4533 602.613 100.2C603.253 100.936 603.573 101.917 603.573 103.144C603.573 104.381 603.253 105.368 602.613 106.104C601.984 106.829 601.157 107.192 600.133 107.192C599.056 107.192 598.186 106.744 597.525 105.848V107ZM606.728 107H605.528V96.328H606.728V107ZM612.61 107.192C611.458 107.192 610.514 106.819 609.778 106.072C609.042 105.315 608.674 104.333 608.674 103.128C608.674 101.997 609.037 101.043 609.762 100.264C610.487 99.4747 611.394 99.08 612.482 99.08C613.623 99.08 614.525 99.4747 615.186 100.264C615.858 101.043 616.194 102.029 616.194 103.224V103.528H609.938C609.991 104.285 610.269 104.92 610.77 105.432C611.271 105.944 611.922 106.2 612.722 106.2C613.682 106.2 614.477 105.875 615.106 105.224L615.682 106.008C614.893 106.797 613.869 107.192 612.61 107.192ZM615.01 102.648C614.999 101.987 614.775 101.395 614.338 100.872C613.901 100.339 613.277 100.072 612.466 100.072C611.698 100.072 611.09 100.333 610.642 100.856C610.205 101.379 609.97 101.976 609.938 102.648H615.01ZM559.304 131.192C557.747 131.192 556.44 130.68 555.384 129.656C554.339 128.621 553.816 127.293 553.816 125.672C553.816 124.051 554.339 122.728 555.384 121.704C556.44 120.669 557.747 120.152 559.304 120.152C561.011 120.152 562.36 120.856 563.352 122.264L562.232 122.888C561.923 122.429 561.507 122.056 560.984 121.768C560.461 121.48 559.901 121.336 559.304 121.336C558.131 121.336 557.149 121.747 556.36 122.568C555.581 123.379 555.192 124.413 555.192 125.672C555.192 126.931 555.581 127.971 556.36 128.792C557.149 129.603 558.131 130.008 559.304 130.008C559.901 130.008 560.461 129.869 560.984 129.592C561.507 129.304 561.923 128.925 562.232 128.456L563.368 129.08C562.333 130.488 560.979 131.192 559.304 131.192ZM566.213 131H565.013V123.272H566.213V124.52C566.927 123.581 567.786 123.112 568.789 123.112V124.344C568.639 124.312 568.479 124.296 568.309 124.296C567.946 124.296 567.551 124.424 567.125 124.68C566.698 124.936 566.394 125.219 566.213 125.528V131ZM574.102 131.192C573.014 131.192 572.144 130.739 571.494 129.832V133.944H570.294V123.272H571.494V124.424C571.782 124.019 572.155 123.693 572.614 123.448C573.072 123.203 573.568 123.08 574.102 123.08C575.126 123.08 575.952 123.448 576.582 124.184C577.222 124.909 577.542 125.891 577.542 127.128C577.542 128.365 577.222 129.352 576.582 130.088C575.952 130.824 575.126 131.192 574.102 131.192ZM573.798 130.12C574.555 130.12 575.158 129.843 575.606 129.288C576.054 128.723 576.278 128.003 576.278 127.128C576.278 126.253 576.054 125.539 575.606 124.984C575.158 124.429 574.555 124.152 573.798 124.152C573.339 124.152 572.891 124.275 572.454 124.52C572.027 124.755 571.707 125.043 571.494 125.384V128.872C571.707 129.224 572.027 129.523 572.454 129.768C572.891 130.003 573.339 130.12 573.798 130.12ZM581.402 131.192C580.837 131.192 580.41 131.037 580.122 130.728C579.834 130.419 579.69 129.971 579.69 129.384V124.328H578.41V123.272H579.69V121.16H580.89V123.272H582.458V124.328H580.89V129.128C580.89 129.427 580.954 129.667 581.082 129.848C581.221 130.029 581.418 130.12 581.674 130.12C582.026 130.12 582.298 130.013 582.49 129.8L582.842 130.696C582.49 131.027 582.01 131.192 581.402 131.192ZM590.297 130.024C589.604 130.803 588.681 131.192 587.529 131.192C586.377 131.192 585.449 130.803 584.745 130.024C584.052 129.245 583.705 128.28 583.705 127.128C583.705 125.976 584.052 125.016 584.745 124.248C585.449 123.469 586.377 123.08 587.529 123.08C588.681 123.08 589.604 123.469 590.297 124.248C591.001 125.016 591.353 125.976 591.353 127.128C591.353 128.28 591.001 129.245 590.297 130.024ZM585.641 129.256C586.11 129.832 586.74 130.12 587.529 130.12C588.318 130.12 588.942 129.832 589.401 129.256C589.86 128.669 590.089 127.96 590.089 127.128C590.089 126.296 589.86 125.592 589.401 125.016C588.942 124.44 588.318 124.152 587.529 124.152C586.74 124.152 586.11 124.445 585.641 125.032C585.182 125.608 584.953 126.307 584.953 127.128C584.953 127.96 585.182 128.669 585.641 129.256ZM597.117 131.192C596.029 131.192 595.16 130.739 594.509 129.832V133.944H593.309V123.272H594.509V124.424C594.797 124.019 595.171 123.693 595.629 123.448C596.088 123.203 596.584 123.08 597.117 123.08C598.141 123.08 598.968 123.448 599.597 124.184C600.237 124.909 600.557 125.891 600.557 127.128C600.557 128.365 600.237 129.352 599.597 130.088C598.968 130.824 598.141 131.192 597.117 131.192ZM596.813 130.12C597.571 130.12 598.173 129.843 598.621 129.288C599.069 128.723 599.293 128.003 599.293 127.128C599.293 126.253 599.069 125.539 598.621 124.984C598.173 124.429 597.571 124.152 596.813 124.152C596.355 124.152 595.907 124.275 595.469 124.52C595.043 124.755 594.723 125.043 594.509 125.384V128.872C594.723 129.224 595.043 129.523 595.469 129.768C595.907 130.003 596.355 130.12 596.813 130.12ZM605.874 131.192C604.732 131.192 603.804 130.808 603.09 130.04C602.375 129.261 602.018 128.291 602.018 127.128C602.018 125.965 602.375 125 603.09 124.232C603.804 123.464 604.732 123.08 605.874 123.08C607.068 123.08 608.012 123.528 608.706 124.424L607.906 125.16C607.415 124.488 606.759 124.152 605.938 124.152C605.127 124.152 604.476 124.429 603.986 124.984C603.506 125.539 603.266 126.253 603.266 127.128C603.266 128.003 603.506 128.723 603.986 129.288C604.476 129.843 605.127 130.12 605.938 130.12C606.748 130.12 607.404 129.784 607.906 129.112L608.706 129.848C608.012 130.744 607.068 131.192 605.874 131.192ZM616.804 131H615.604V129.912C615.284 130.275 614.878 130.579 614.388 130.824C613.908 131.069 613.396 131.192 612.852 131.192C611.209 131.192 610.388 130.371 610.388 128.728V123.272H611.588V128.36C611.588 129 611.732 129.453 612.02 129.72C612.318 129.987 612.75 130.12 613.316 130.12C613.764 130.12 614.196 130.008 614.612 129.784C615.038 129.56 615.369 129.283 615.604 128.952V123.272H616.804V131ZM620.4 131H619.2V123.272H620.4V124.52C621.115 123.581 621.973 123.112 622.976 123.112V124.344C622.827 124.312 622.667 124.296 622.496 124.296C622.133 124.296 621.739 124.424 621.312 124.68C620.885 124.936 620.581 125.219 620.4 125.528V131ZM625.681 131H624.481V123.272H625.681V124.52C626.396 123.581 627.255 123.112 628.257 123.112V124.344C628.108 124.312 627.948 124.296 627.777 124.296C627.415 124.296 627.02 124.424 626.593 124.68C626.167 124.936 625.863 125.219 625.681 125.528V131ZM633.251 131.192C632.099 131.192 631.155 130.819 630.419 130.072C629.683 129.315 629.315 128.333 629.315 127.128C629.315 125.997 629.677 125.043 630.403 124.264C631.128 123.475 632.035 123.08 633.123 123.08C634.264 123.08 635.165 123.475 635.827 124.264C636.499 125.043 636.835 126.029 636.835 127.224V127.528H630.579C630.632 128.285 630.909 128.92 631.411 129.432C631.912 129.944 632.563 130.2 633.363 130.2C634.323 130.2 635.117 129.875 635.747 129.224L636.323 130.008C635.533 130.797 634.509 131.192 633.251 131.192ZM635.651 126.648C635.64 125.987 635.416 125.395 634.979 124.872C634.541 124.339 633.917 124.072 633.107 124.072C632.339 124.072 631.731 124.333 631.283 124.856C630.845 125.379 630.611 125.976 630.579 126.648H635.651ZM645.194 131H643.994V125.944C643.994 125.293 643.845 124.835 643.546 124.568C643.247 124.291 642.821 124.152 642.266 124.152C641.818 124.152 641.381 124.269 640.954 124.504C640.538 124.739 640.213 125.021 639.978 125.352V131H638.778V123.272H639.978V124.392C640.277 124.04 640.677 123.736 641.178 123.48C641.679 123.213 642.197 123.08 642.73 123.08C644.373 123.08 645.194 123.912 645.194 125.576V131ZM650.999 131.192C649.857 131.192 648.929 130.808 648.215 130.04C647.5 129.261 647.143 128.291 647.143 127.128C647.143 125.965 647.5 125 648.215 124.232C648.929 123.464 649.857 123.08 650.999 123.08C652.193 123.08 653.137 123.528 653.831 124.424L653.031 125.16C652.54 124.488 651.884 124.152 651.063 124.152C650.252 124.152 649.601 124.429 649.111 124.984C648.631 125.539 648.391 126.253 648.391 127.128C648.391 128.003 648.631 128.723 649.111 129.288C649.601 129.843 650.252 130.12 651.063 130.12C651.873 130.12 652.529 129.784 653.031 129.112L653.831 129.848C653.137 130.744 652.193 131.192 650.999 131.192ZM656.105 122.168C655.891 122.168 655.705 122.093 655.545 121.944C655.385 121.784 655.305 121.592 655.305 121.368C655.305 121.144 655.385 120.952 655.545 120.792C655.705 120.632 655.891 120.552 656.105 120.552C656.329 120.552 656.521 120.632 656.681 120.792C656.841 120.952 656.921 121.144 656.921 121.368C656.921 121.592 656.841 121.784 656.681 121.944C656.521 122.093 656.329 122.168 656.105 122.168ZM656.713 131H655.513V123.272H656.713V131ZM662.594 131.192C661.442 131.192 660.498 130.819 659.762 130.072C659.026 129.315 658.658 128.333 658.658 127.128C658.658 125.997 659.021 125.043 659.746 124.264C660.472 123.475 661.378 123.08 662.466 123.08C663.608 123.08 664.509 123.475 665.17 124.264C665.842 125.043 666.178 126.029 666.178 127.224V127.528H659.922C659.976 128.285 660.253 128.92 660.754 129.432C661.256 129.944 661.906 130.2 662.706 130.2C663.666 130.2 664.461 129.875 665.09 129.224L665.666 130.008C664.877 130.797 663.853 131.192 662.594 131.192ZM664.994 126.648C664.984 125.987 664.76 125.395 664.322 124.872C663.885 124.339 663.261 124.072 662.45 124.072C661.682 124.072 661.074 124.333 660.626 124.856C660.189 125.379 659.954 125.976 659.922 126.648H664.994ZM670.57 131.192C669.258 131.192 668.218 130.787 667.45 129.976L668.074 129.112C668.341 129.421 668.703 129.683 669.162 129.896C669.631 130.109 670.117 130.216 670.618 130.216C671.194 130.216 671.642 130.093 671.962 129.848C672.282 129.603 672.442 129.283 672.442 128.888C672.442 128.547 672.277 128.28 671.946 128.088C671.615 127.885 671.215 127.736 670.746 127.64C670.287 127.533 669.823 127.416 669.354 127.288C668.885 127.149 668.485 126.92 668.154 126.6C667.823 126.269 667.658 125.837 667.658 125.304C667.658 124.675 667.914 124.147 668.426 123.72C668.949 123.293 669.653 123.08 670.538 123.08C671.701 123.08 672.655 123.453 673.402 124.2L672.842 125.032C672.298 124.381 671.53 124.056 670.538 124.056C670.015 124.056 669.599 124.173 669.29 124.408C668.981 124.632 668.826 124.92 668.826 125.272C668.826 125.581 668.991 125.827 669.322 126.008C669.653 126.179 670.047 126.317 670.506 126.424C670.975 126.52 671.445 126.637 671.914 126.776C672.383 126.915 672.783 127.16 673.114 127.512C673.445 127.853 673.61 128.301 673.61 128.856C673.61 129.539 673.343 130.099 672.81 130.536C672.277 130.973 671.53 131.192 670.57 131.192Z" fill="white"/>
<path d="M498.616 131H493.968V99.808L487.976 106.136L485.176 103.28L494.528 93.648H498.616V131ZM520.225 131.672C517.723 131.672 515.521 131.149 513.617 130.104C511.713 129.059 510.201 127.64 509.081 125.848C507.998 124.019 507.177 121.984 506.617 119.744C506.094 117.467 505.833 115.021 505.833 112.408C505.833 108.899 506.355 105.725 507.401 102.888C508.446 100.051 510.126 97.7173 512.441 95.888C514.793 94.0213 517.649 93.088 521.009 93.088C525.302 93.088 528.755 94.5813 531.369 97.568L529.017 101.04C526.851 98.5013 524.182 97.232 521.009 97.232C518.694 97.232 516.715 97.96 515.073 99.416C513.467 100.872 512.291 102.683 511.545 104.848C510.835 106.976 510.481 109.328 510.481 111.904C510.481 112.539 510.499 113.024 510.537 113.36C511.47 111.867 512.907 110.523 514.849 109.328C516.827 108.133 518.918 107.536 521.121 107.536C524.667 107.536 527.579 108.581 529.857 110.672C532.171 112.725 533.329 115.656 533.329 119.464C533.329 122.861 532.134 125.755 529.745 128.144C527.355 130.496 524.182 131.672 520.225 131.672ZM520.057 127.528C522.745 127.528 524.835 126.725 526.329 125.12C527.859 123.477 528.625 121.648 528.625 119.632C528.625 117.019 527.822 115.021 526.217 113.64C524.611 112.259 522.539 111.568 520.001 111.568C518.171 111.568 516.417 112.091 514.737 113.136C513.057 114.144 511.694 115.488 510.649 117.168C510.91 119.931 511.806 122.357 513.337 124.448C514.867 126.501 517.107 127.528 520.057 127.528Z" fill="white"/>
<path d="M947.384 107H945.864L944.92 104.632H939.608L938.664 107H937.144L941.432 96.328H943.08L947.384 107ZM944.52 103.448L942.264 97.704L939.992 103.448H944.52ZM952.139 107.192C950.998 107.192 950.07 106.808 949.355 106.04C948.641 105.261 948.283 104.291 948.283 103.128C948.283 101.965 948.641 101 949.355 100.232C950.07 99.464 950.998 99.08 952.139 99.08C953.334 99.08 954.278 99.528 954.971 100.424L954.171 101.16C953.681 100.488 953.025 100.152 952.203 100.152C951.393 100.152 950.742 100.429 950.251 100.984C949.771 101.539 949.531 102.253 949.531 103.128C949.531 104.003 949.771 104.723 950.251 105.288C950.742 105.843 951.393 106.12 952.203 106.12C953.014 106.12 953.67 105.784 954.171 105.112L954.971 105.848C954.278 106.744 953.334 107.192 952.139 107.192ZM958.605 107.192C958.04 107.192 957.613 107.037 957.325 106.728C957.037 106.419 956.893 105.971 956.893 105.384V100.328H955.613V99.272H956.893V97.16H958.093V99.272H959.661V100.328H958.093V105.128C958.093 105.427 958.157 105.667 958.285 105.848C958.424 106.029 958.621 106.12 958.877 106.12C959.229 106.12 959.501 106.013 959.693 105.8L960.045 106.696C959.693 107.027 959.213 107.192 958.605 107.192ZM961.948 98.168C961.735 98.168 961.548 98.0933 961.388 97.944C961.228 97.784 961.148 97.592 961.148 97.368C961.148 97.144 961.228 96.952 961.388 96.792C961.548 96.632 961.735 96.552 961.948 96.552C962.172 96.552 962.364 96.632 962.524 96.792C962.684 96.952 962.764 97.144 962.764 97.368C962.764 97.592 962.684 97.784 962.524 97.944C962.364 98.0933 962.172 98.168 961.948 98.168ZM962.556 107H961.356V99.272H962.556V107ZM968.326 107H967.014L963.798 99.272H965.094L967.67 105.608L970.23 99.272H971.542L968.326 107ZM976.282 107.192C975.13 107.192 974.186 106.819 973.45 106.072C972.714 105.315 972.346 104.333 972.346 103.128C972.346 101.997 972.708 101.043 973.434 100.264C974.159 99.4747 975.066 99.08 976.154 99.08C977.295 99.08 978.196 99.4747 978.858 100.264C979.53 101.043 979.866 102.029 979.866 103.224V103.528H973.61C973.663 104.285 973.94 104.92 974.442 105.432C974.943 105.944 975.594 106.2 976.394 106.2C977.354 106.2 978.148 105.875 978.778 105.224L979.354 106.008C978.564 106.797 977.54 107.192 976.282 107.192ZM978.682 102.648C978.671 101.987 978.447 101.395 978.01 100.872C977.572 100.339 976.948 100.072 976.138 100.072C975.37 100.072 974.762 100.333 974.314 100.856C973.876 101.379 973.642 101.976 973.61 102.648H978.682ZM945.832 130.04C945.096 130.808 944.019 131.192 942.6 131.192C941.181 131.192 940.099 130.808 939.352 130.04C938.616 129.261 938.248 128.2 938.248 126.856V120.328H939.576V126.824C939.576 127.816 939.837 128.595 940.36 129.16C940.883 129.725 941.629 130.008 942.6 130.008C943.571 130.008 944.317 129.725 944.84 129.16C945.363 128.595 945.624 127.816 945.624 126.824V120.328H946.952V126.84C946.952 128.195 946.579 129.261 945.832 130.04ZM951.851 131.192C950.539 131.192 949.499 130.787 948.731 129.976L949.355 129.112C949.622 129.421 949.984 129.683 950.443 129.896C950.912 130.109 951.398 130.216 951.899 130.216C952.475 130.216 952.923 130.093 953.243 129.848C953.563 129.603 953.723 129.283 953.723 128.888C953.723 128.547 953.558 128.28 953.227 128.088C952.896 127.885 952.496 127.736 952.027 127.64C951.568 127.533 951.104 127.416 950.635 127.288C950.166 127.149 949.766 126.92 949.435 126.6C949.104 126.269 948.939 125.837 948.939 125.304C948.939 124.675 949.195 124.147 949.707 123.72C950.23 123.293 950.934 123.08 951.819 123.08C952.982 123.08 953.936 123.453 954.683 124.2L954.123 125.032C953.579 124.381 952.811 124.056 951.819 124.056C951.296 124.056 950.88 124.173 950.571 124.408C950.262 124.632 950.107 124.92 950.107 125.272C950.107 125.581 950.272 125.827 950.603 126.008C950.934 126.179 951.328 126.317 951.787 126.424C952.256 126.52 952.726 126.637 953.195 126.776C953.664 126.915 954.064 127.16 954.395 127.512C954.726 127.853 954.891 128.301 954.891 128.856C954.891 129.539 954.624 130.099 954.091 130.536C953.558 130.973 952.811 131.192 951.851 131.192ZM960.329 131.192C959.177 131.192 958.233 130.819 957.497 130.072C956.761 129.315 956.393 128.333 956.393 127.128C956.393 125.997 956.755 125.043 957.481 124.264C958.206 123.475 959.113 123.08 960.201 123.08C961.342 123.08 962.243 123.475 962.905 124.264C963.577 125.043 963.913 126.029 963.913 127.224V127.528H957.657C957.71 128.285 957.987 128.92 958.489 129.432C958.99 129.944 959.641 130.2 960.441 130.2C961.401 130.2 962.195 129.875 962.825 129.224L963.401 130.008C962.611 130.797 961.587 131.192 960.329 131.192ZM962.729 126.648C962.718 125.987 962.494 125.395 962.057 124.872C961.619 124.339 960.995 124.072 960.185 124.072C959.417 124.072 958.809 124.333 958.361 124.856C957.923 125.379 957.689 125.976 957.657 126.648H962.729ZM967.056 131H965.856V123.272H967.056V124.52C967.771 123.581 968.63 123.112 969.632 123.112V124.344C969.483 124.312 969.323 124.296 969.152 124.296C968.79 124.296 968.395 124.424 967.968 124.68C967.542 124.936 967.238 125.219 967.056 125.528V131ZM973.586 131.192C972.274 131.192 971.234 130.787 970.465 129.976L971.09 129.112C971.356 129.421 971.719 129.683 972.178 129.896C972.647 130.109 973.132 130.216 973.634 130.216C974.21 130.216 974.658 130.093 974.978 129.848C975.298 129.603 975.458 129.283 975.458 128.888C975.458 128.547 975.292 128.28 974.962 128.088C974.631 127.885 974.231 127.736 973.762 127.64C973.303 127.533 972.839 127.416 972.37 127.288C971.9 127.149 971.5 126.92 971.17 126.6C970.839 126.269 970.674 125.837 970.674 125.304C970.674 124.675 970.93 124.147 971.442 123.72C971.964 123.293 972.668 123.08 973.554 123.08C974.716 123.08 975.671 123.453 976.418 124.2L975.858 125.032C975.314 124.381 974.546 124.056 973.554 124.056C973.031 124.056 972.615 124.173 972.306 124.408C971.996 124.632 971.842 124.92 971.842 125.272C971.842 125.581 972.007 125.827 972.338 126.008C972.668 126.179 973.063 126.317 973.522 126.424C973.991 126.52 974.46 126.637 974.93 126.776C975.399 126.915 975.799 127.16 976.13 127.512C976.46 127.853 976.626 128.301 976.626 128.856C976.626 129.539 976.359 130.099 975.826 130.536C975.292 130.973 974.546 131.192 973.586 131.192Z" fill="white"/>
<path d="M825.672 131H800.024V127.304C803.907 124.243 806.912 121.816 809.04 120.024C811.205 118.195 813.277 116.272 815.256 114.256C817.272 112.203 818.691 110.392 819.512 108.824C820.333 107.219 820.744 105.632 820.744 104.064C820.744 101.824 819.979 100.125 818.448 98.968C816.917 97.8107 815.088 97.232 812.96 97.232C808.667 97.232 805.288 98.8 802.824 101.936L799.968 98.968C801.387 97.1013 803.235 95.664 805.512 94.656C807.827 93.6107 810.309 93.088 812.96 93.088C816.357 93.088 819.288 94.04 821.752 95.944C824.253 97.848 825.504 100.555 825.504 104.064C825.504 107.536 824.011 111.008 821.024 114.48C818.037 117.915 813.483 122.04 807.36 126.856H825.672V131ZM847.058 131.672C844.594 131.672 842.41 131.112 840.506 129.992C838.639 128.835 837.146 127.304 836.026 125.4C834.943 123.496 834.122 121.443 833.562 119.24C833.039 117.037 832.778 114.741 832.778 112.352C832.778 109.963 833.039 107.667 833.562 105.464C834.122 103.261 834.943 101.227 836.026 99.36C837.146 97.456 838.639 95.944 840.506 94.824C842.41 93.6667 844.594 93.088 847.058 93.088C849.485 93.088 851.65 93.6667 853.554 94.824C855.458 95.944 856.951 97.456 858.034 99.36C859.154 101.227 859.975 103.261 860.498 105.464C861.058 107.667 861.338 109.963 861.338 112.352C861.338 114.741 861.058 117.037 860.498 119.24C859.975 121.443 859.154 123.496 858.034 125.4C856.951 127.304 855.458 128.835 853.554 129.992C851.65 131.112 849.485 131.672 847.058 131.672ZM841.458 125.232C842.951 126.763 844.818 127.528 847.058 127.528C849.298 127.528 851.165 126.763 852.658 125.232C854.151 123.664 855.178 121.797 855.738 119.632C856.298 117.467 856.578 115.04 856.578 112.352C856.578 109.664 856.298 107.237 855.738 105.072C855.178 102.907 854.151 101.059 852.658 99.528C851.165 97.9973 849.298 97.232 847.058 97.232C844.818 97.232 842.951 97.9973 841.458 99.528C839.965 101.059 838.938 102.907 838.378 105.072C837.818 107.237 837.538 109.664 837.538 112.352C837.538 115.04 837.818 117.467 838.378 119.632C838.938 121.797 839.965 123.664 841.458 125.232ZM892.211 131H886.835L877.091 118.848L872.611 123.272V131H868.411V93.648H872.611V118.344L886.835 103.952H892.155L880.171 116.216L892.211 131ZM919.297 113.584H908.545V125.512H905.353V113.584H894.601V110.672H905.353V99.08H908.545V110.672H919.297V113.584Z" fill="white"/>
<path d="M1222.38 107H1220.86L1219.92 104.632H1214.61L1213.66 107H1212.14L1216.43 96.328H1218.08L1222.38 107ZM1219.52 103.448L1217.26 97.704L1214.99 103.448H1219.52ZM1227.14 107.192C1226 107.192 1225.07 106.808 1224.36 106.04C1223.64 105.261 1223.28 104.291 1223.28 103.128C1223.28 101.965 1223.64 101 1224.36 100.232C1225.07 99.464 1226 99.08 1227.14 99.08C1228.33 99.08 1229.28 99.528 1229.97 100.424L1229.17 101.16C1228.68 100.488 1228.02 100.152 1227.2 100.152C1226.39 100.152 1225.74 100.429 1225.25 100.984C1224.77 101.539 1224.53 102.253 1224.53 103.128C1224.53 104.003 1224.77 104.723 1225.25 105.288C1225.74 105.843 1226.39 106.12 1227.2 106.12C1228.01 106.12 1228.67 105.784 1229.17 105.112L1229.97 105.848C1229.28 106.744 1228.33 107.192 1227.14 107.192ZM1233.61 107.192C1233.04 107.192 1232.61 107.037 1232.33 106.728C1232.04 106.419 1231.89 105.971 1231.89 105.384V100.328H1230.61V99.272H1231.89V97.16H1233.09V99.272H1234.66V100.328H1233.09V105.128C1233.09 105.427 1233.16 105.667 1233.29 105.848C1233.42 106.029 1233.62 106.12 1233.88 106.12C1234.23 106.12 1234.5 106.013 1234.69 105.8L1235.05 106.696C1234.69 107.027 1234.21 107.192 1233.61 107.192ZM1236.95 98.168C1236.73 98.168 1236.55 98.0933 1236.39 97.944C1236.23 97.784 1236.15 97.592 1236.15 97.368C1236.15 97.144 1236.23 96.952 1236.39 96.792C1236.55 96.632 1236.73 96.552 1236.95 96.552C1237.17 96.552 1237.36 96.632 1237.52 96.792C1237.68 96.952 1237.76 97.144 1237.76 97.368C1237.76 97.592 1237.68 97.784 1237.52 97.944C1237.36 98.0933 1237.17 98.168 1236.95 98.168ZM1237.56 107H1236.36V99.272H1237.56V107ZM1243.33 107H1242.01L1238.8 99.272H1240.09L1242.67 105.608L1245.23 99.272H1246.54L1243.33 107ZM1251.28 107.192C1250.13 107.192 1249.19 106.819 1248.45 106.072C1247.71 105.315 1247.35 104.333 1247.35 103.128C1247.35 101.997 1247.71 101.043 1248.43 100.264C1249.16 99.4747 1250.07 99.08 1251.15 99.08C1252.3 99.08 1253.2 99.4747 1253.86 100.264C1254.53 101.043 1254.87 102.029 1254.87 103.224V103.528H1248.61C1248.66 104.285 1248.94 104.92 1249.44 105.432C1249.94 105.944 1250.59 106.2 1251.39 106.2C1252.35 106.2 1253.15 105.875 1253.78 105.224L1254.35 106.008C1253.56 106.797 1252.54 107.192 1251.28 107.192ZM1253.68 102.648C1253.67 101.987 1253.45 101.395 1253.01 100.872C1252.57 100.339 1251.95 100.072 1251.14 100.072C1250.37 100.072 1249.76 100.333 1249.31 100.856C1248.88 101.379 1248.64 101.976 1248.61 102.648H1253.68ZM1222.38 131H1220.86L1219.92 128.632H1214.61L1213.66 131H1212.14L1216.43 120.328H1218.08L1222.38 131ZM1219.52 127.448L1217.26 121.704L1214.99 127.448H1219.52ZM1226.18 131.192C1224.87 131.192 1223.83 130.787 1223.06 129.976L1223.68 129.112C1223.95 129.421 1224.31 129.683 1224.77 129.896C1225.24 130.109 1225.73 130.216 1226.23 130.216C1226.8 130.216 1227.25 130.093 1227.57 129.848C1227.89 129.603 1228.05 129.283 1228.05 128.888C1228.05 128.547 1227.89 128.28 1227.56 128.088C1227.22 127.885 1226.82 127.736 1226.36 127.64C1225.9 127.533 1225.43 127.416 1224.96 127.288C1224.49 127.149 1224.09 126.92 1223.76 126.6C1223.43 126.269 1223.27 125.837 1223.27 125.304C1223.27 124.675 1223.52 124.147 1224.04 123.72C1224.56 123.293 1225.26 123.08 1226.15 123.08C1227.31 123.08 1228.26 123.453 1229.01 124.2L1228.45 125.032C1227.91 124.381 1227.14 124.056 1226.15 124.056C1225.62 124.056 1225.21 124.173 1224.9 124.408C1224.59 124.632 1224.44 124.92 1224.44 125.272C1224.44 125.581 1224.6 125.827 1224.93 126.008C1225.26 126.179 1225.66 126.317 1226.12 126.424C1226.58 126.52 1227.05 126.637 1227.52 126.776C1227.99 126.915 1228.39 127.16 1228.72 127.512C1229.05 127.853 1229.22 128.301 1229.22 128.856C1229.22 129.539 1228.95 130.099 1228.42 130.536C1227.89 130.973 1227.14 131.192 1226.18 131.192ZM1233.62 131.192C1232.3 131.192 1231.26 130.787 1230.5 129.976L1231.12 129.112C1231.39 129.421 1231.75 129.683 1232.21 129.896C1232.68 130.109 1233.16 130.216 1233.66 130.216C1234.24 130.216 1234.69 130.093 1235.01 129.848C1235.33 129.603 1235.49 129.283 1235.49 128.888C1235.49 128.547 1235.32 128.28 1234.99 128.088C1234.66 127.885 1234.26 127.736 1233.79 127.64C1233.33 127.533 1232.87 127.416 1232.4 127.288C1231.93 127.149 1231.53 126.92 1231.2 126.6C1230.87 126.269 1230.7 125.837 1230.7 125.304C1230.7 124.675 1230.96 124.147 1231.47 123.72C1232 123.293 1232.7 123.08 1233.58 123.08C1234.75 123.08 1235.7 123.453 1236.45 124.2L1235.89 125.032C1235.34 124.381 1234.58 124.056 1233.58 124.056C1233.06 124.056 1232.65 124.173 1232.34 124.408C1232.03 124.632 1231.87 124.92 1231.87 125.272C1231.87 125.581 1232.04 125.827 1232.37 126.008C1232.7 126.179 1233.09 126.317 1233.55 126.424C1234.02 126.52 1234.49 126.637 1234.96 126.776C1235.43 126.915 1235.83 127.16 1236.16 127.512C1236.49 127.853 1236.66 128.301 1236.66 128.856C1236.66 129.539 1236.39 130.099 1235.86 130.536C1235.32 130.973 1234.58 131.192 1233.62 131.192ZM1242.09 131.192C1240.94 131.192 1240 130.819 1239.26 130.072C1238.53 129.315 1238.16 128.333 1238.16 127.128C1238.16 125.997 1238.52 125.043 1239.25 124.264C1239.97 123.475 1240.88 123.08 1241.97 123.08C1243.11 123.08 1244.01 123.475 1244.67 124.264C1245.34 125.043 1245.68 126.029 1245.68 127.224V127.528H1239.42C1239.48 128.285 1239.75 128.92 1240.25 129.432C1240.76 129.944 1241.41 130.2 1242.21 130.2C1243.17 130.2 1243.96 129.875 1244.59 129.224L1245.17 130.008C1244.38 130.797 1243.35 131.192 1242.09 131.192ZM1244.49 126.648C1244.48 125.987 1244.26 125.395 1243.82 124.872C1243.38 124.339 1242.76 124.072 1241.95 124.072C1241.18 124.072 1240.57 124.333 1240.13 124.856C1239.69 125.379 1239.45 125.976 1239.42 126.648H1244.49ZM1249.57 131.192C1249.01 131.192 1248.58 131.037 1248.29 130.728C1248.01 130.419 1247.86 129.971 1247.86 129.384V124.328H1246.58V123.272H1247.86V121.16H1249.06V123.272H1250.63V124.328H1249.06V129.128C1249.06 129.427 1249.13 129.667 1249.25 129.848C1249.39 130.029 1249.59 130.12 1249.85 130.12C1250.2 130.12 1250.47 130.013 1250.66 129.8L1251.01 130.696C1250.66 131.027 1250.18 131.192 1249.57 131.192ZM1254.77 131.192C1253.46 131.192 1252.42 130.787 1251.65 129.976L1252.28 129.112C1252.54 129.421 1252.91 129.683 1253.37 129.896C1253.83 130.109 1254.32 130.216 1254.82 130.216C1255.4 130.216 1255.85 130.093 1256.17 129.848C1256.49 129.603 1256.65 129.283 1256.65 128.888C1256.65 128.547 1256.48 128.28 1256.15 128.088C1255.82 127.885 1255.42 127.736 1254.95 127.64C1254.49 127.533 1254.03 127.416 1253.56 127.288C1253.09 127.149 1252.69 126.92 1252.36 126.6C1252.03 126.269 1251.86 125.837 1251.86 125.304C1251.86 124.675 1252.12 124.147 1252.63 123.72C1253.15 123.293 1253.86 123.08 1254.74 123.08C1255.9 123.08 1256.86 123.453 1257.61 124.2L1257.05 125.032C1256.5 124.381 1255.73 124.056 1254.74 124.056C1254.22 124.056 1253.8 124.173 1253.49 124.408C1253.18 124.632 1253.03 124.92 1253.03 125.272C1253.03 125.581 1253.19 125.827 1253.53 126.008C1253.86 126.179 1254.25 126.317 1254.71 126.424C1255.18 126.52 1255.65 126.637 1256.12 126.776C1256.59 126.915 1256.99 127.16 1257.32 127.512C1257.65 127.853 1257.81 128.301 1257.81 128.856C1257.81 129.539 1257.55 130.099 1257.01 130.536C1256.48 130.973 1255.73 131.192 1254.77 131.192Z" fill="white"/>
<path d="M1117.62 131H1112.97V99.808L1106.98 106.136L1104.18 103.28L1113.53 93.648H1117.62V131ZM1162.91 131H1158.26V100.256L1145.55 131H1143.65L1130.99 100.256V131H1126.34V93.648H1133.01L1144.6 121.76L1156.25 93.648H1162.91V131ZM1193.58 113.584H1182.83V125.512H1179.63V113.584H1168.88V110.672H1179.63V99.08H1182.83V110.672H1193.58V113.584Z" fill="white"/>
<g opacity="0.1">
<path d="M-7 -204H1433V432H-7V-204Z" fill="white"/>
<path d="M875.904 92.5312H1756.22V94.2976H875.904V92.5312Z" fill="#5285F2"/>
<path d="M876.126 96.0643C874.581 96.0643 873.477 94.7395 873.477 93.4147C873.477 91.8691 874.801 90.7651 876.126 90.7651C877.672 90.7651 878.776 92.0899 878.776 93.4147C878.776 94.9603 877.672 96.0643 876.126 96.0643Z" fill="#5285F2"/>
<path d="M1546.25 57.6455H1748.94V55.8792H1546.91L1479.34 -11.9058H1311.32V-9.91858H1478.46L1546.25 57.6455Z" fill="#5285F2"/>
<path d="M1257.22 47.7096H1482.66V45.7224H1257.88L1157.86 -54.2989H766.829L745.412 -75.7163H638.767L602.335 -39.0639H448.439L420.839 -11.4642L421.943 -10.1394L449.322 -37.2975H602.998L639.65 -73.7291H744.75L765.946 -52.5325H1156.98L1257.22 47.7096Z" fill="#5285F2"/>
<path d="M774.118 23.6433H1185.46V21.6561H775.001L736.582 -16.7627H568.555V-14.7755H735.699L774.118 23.6433Z" fill="#5285F2"/>
<path d="M1185.24 25.409C1186.79 25.409 1187.89 24.0842 1187.89 22.7594C1187.89 21.2138 1186.57 20.1099 1185.24 20.1099C1183.92 20.1099 1182.59 21.4346 1182.59 22.7594C1182.59 24.0842 1183.7 25.409 1185.24 25.409Z" fill="#5285F2"/>
<path d="M1583.78 31.15H1718.69V29.3836H1584.44L1510.48 -44.8045H1384.18L1249.71 -179.27H760.648V-177.504H1249.05L1383.52 -43.0381H1509.59L1583.78 31.15Z" fill="#5285F2"/>
<path d="M1284.38 17.2398L1285.71 15.915L1183.92 -85.8728H987.187L950.093 -122.967H680.94L661.952 -103.978H521.745L487.521 -69.7545L488.846 -68.4297L522.407 -102.212H662.614L681.603 -121.2H949.43L986.524 -84.1064H1183.03L1284.38 17.2398Z" fill="#5285F2"/>
<path d="M1283.06 18.3441C1284.16 19.4481 1285.93 19.4481 1287.03 18.3441C1288.13 17.2401 1288.13 15.4737 1287.03 14.3697C1285.93 13.2658 1284.16 13.2658 1283.06 14.3697C1281.95 15.4737 1281.95 17.2401 1283.06 18.3441Z" fill="#5285F2"/>
<path d="M609.844 290.587H984.979L1082.35 192.994H1521.52L1583.56 119.91H1723.33V118.144H1582.9L1520.63 191.228H1081.47L984.096 288.6H609.844V290.587Z" fill="#5285F2"/>
<path d="M569.437 212.204H885.62L948.768 149.056H1522.62V147.29H948.105L884.957 210.438H569.437V212.204Z" fill="#5285F2"/>
<path d="M569.658 214.191C568.112 214.191 567.008 212.866 567.008 211.542C567.008 209.996 568.333 208.892 569.658 208.892C571.203 208.892 572.307 210.217 572.307 211.542C572.307 212.866 571.203 214.191 569.658 214.191Z" fill="#5285F2"/>
<path d="M524.616 256.142H747.401L768.156 235.608H942.365L1010.81 167.161L1009.49 165.836L941.703 233.842H767.273L746.738 254.376H524.616V256.142Z" fill="#5285F2"/>
<path d="M1009.93 169.369C1008.47 169.369 1007.28 168.183 1007.28 166.72C1007.28 165.256 1008.47 164.07 1009.93 164.07C1011.39 164.07 1012.58 165.256 1012.58 166.72C1012.58 168.183 1011.39 169.369 1009.93 169.369Z" fill="#5285F2"/>
<path d="M892.465 121.236H1252.14V123.002H892.465V121.236Z" fill="#5285F2"/>
<path d="M1252.14 124.989C1253.69 124.989 1254.79 123.664 1254.79 122.339C1254.79 120.794 1253.47 119.69 1252.14 119.69C1250.6 119.69 1249.49 121.014 1249.49 122.339C1249.27 123.664 1250.6 124.989 1252.14 124.989Z" fill="#5285F2"/>
<path d="M892.465 124.989C890.92 124.989 889.816 123.664 889.816 122.339C889.816 120.794 891.141 119.69 892.465 119.69C894.011 119.69 895.115 121.014 895.115 122.339C895.336 123.664 894.011 124.989 892.465 124.989Z" fill="#5285F2"/>
<path d="M749.389 179.306H886.283V177.539H750.272L695.293 122.561H443.805V124.548H694.631L749.389 179.306Z" fill="#5285F2"/>
<path d="M886.062 181.071C884.599 181.071 883.412 179.885 883.412 178.422C883.412 176.958 884.599 175.772 886.062 175.772C887.525 175.772 888.711 176.958 888.711 178.422C888.711 179.885 887.525 181.071 886.062 181.071Z" fill="#5285F2"/>
<path d="M443.804 126.314C442.258 126.314 441.154 124.989 441.154 123.664C441.154 122.119 442.479 121.015 443.804 121.015C445.129 121.015 446.454 122.339 446.454 123.664C446.674 124.989 445.35 126.314 443.804 126.314Z" fill="#5285F2"/>
<path d="M517.77 90.1032H757.115L785.819 61.3995H1069.99L1089.42 41.9693L1088.09 40.6445L1069.1 59.4123H785.156L756.453 88.3368H517.77V90.1032Z" fill="#5285F2"/>
<path d="M1090.52 43.2938C1091.62 42.1898 1091.62 40.4234 1090.52 39.3195C1089.42 38.2155 1087.65 38.2155 1086.55 39.3195C1085.44 40.4234 1085.44 42.1898 1086.55 43.2938C1087.65 44.3978 1089.42 44.3978 1090.52 43.2938Z" fill="#5285F2"/>
<path d="M517.992 91.8692C516.446 91.8692 515.342 90.5444 515.342 89.2197C515.342 87.6741 516.667 86.5701 517.992 86.5701C519.537 86.5701 520.641 87.8949 520.641 89.2197C520.641 90.7652 519.537 91.8692 517.992 91.8692Z" fill="#5285F2"/>
<path d="M1211.96 65.5942H1406.48V67.3607H1211.96V65.5942Z" fill="#5285F2"/>
<path d="M1406.48 69.3475C1408.03 69.3475 1409.13 68.0227 1409.13 66.6979C1409.13 65.1523 1407.81 64.0483 1406.48 64.0483C1404.94 64.0483 1403.83 65.3731 1403.83 66.6979C1403.61 68.0227 1404.94 69.3475 1406.48 69.3475Z" fill="#5285F2"/>
<path d="M1212.18 69.3475C1210.63 69.3475 1209.53 68.0227 1209.53 66.6979C1209.53 65.1523 1210.85 64.0483 1212.18 64.0483C1213.72 64.0483 1214.83 65.3731 1214.83 66.6979C1215.05 68.0227 1213.72 69.3475 1212.18 69.3475Z" fill="#5285F2"/>
<path d="M410.243 54.1127H597.479L629.495 22.097H728.633V20.1099H628.832L596.817 52.1255H410.905L383.305 24.7466L381.98 26.0714L410.243 54.1127Z" fill="#5285F2"/>
<path d="M728.412 23.8631C729.957 23.8631 731.061 22.5383 731.061 21.2135C731.061 19.6679 729.736 18.564 728.412 18.564C726.866 18.564 725.762 19.8887 725.762 21.2135C725.762 22.5383 726.866 23.8631 728.412 23.8631Z" fill="#5285F2"/>
<path d="M380.876 27.3961C379.772 26.2921 379.772 24.5257 380.876 23.4217C381.98 22.3178 383.747 22.3178 384.851 23.4217C385.955 24.5257 385.955 26.2921 384.851 27.3961C383.747 28.5001 381.98 28.5001 380.876 27.3961Z" fill="#5285F2"/>
<path d="M1139.32 249.74H1418.85L1457.27 211.321L1455.94 210.217L1418.18 247.973H1139.32V249.74Z" fill="#5285F2"/>
<path d="M807.016 404.298H1385.06L1648.26 141.328L1646.93 140.003L1384.4 402.532H807.899L754.466 349.099H432.764L379.552 295.666H316.182V297.653H378.889L432.101 350.865H753.583L807.016 404.298Z" fill="#5285F2"/>
<path d="M534.109 314.875H1047.68L1068.66 293.899H1431.43L1487.07 238.258H1526.59V236.492H1486.41L1430.77 292.133H1067.78L1046.8 313.109H534.772L497.898 276.236H398.981L352.393 229.647H237.136L217.927 210.438L216.602 211.763L236.253 231.414H351.73L398.319 278.002H497.236L534.109 314.875Z" fill="#5285F2"/>
<path d="M215.498 213.087C214.394 211.983 214.394 210.217 215.498 209.113C216.602 208.009 218.369 208.009 219.473 209.113C220.577 210.217 220.577 211.983 219.473 213.087C218.369 214.191 216.602 214.191 215.498 213.087Z" fill="#5285F2"/>
<path d="M417.527 192.994H548.46L589.75 151.926H699.928V150.159H588.866L547.798 191.228H418.19L390.811 164.07L389.707 165.174L417.527 192.994Z" fill="#5285F2"/>
<path d="M699.928 153.692C701.474 153.692 702.578 152.368 702.578 151.043C702.578 149.497 701.253 148.393 699.928 148.393C698.382 148.393 697.278 149.718 697.278 151.043C697.058 152.588 698.382 153.692 699.928 153.692Z" fill="#5285F2"/>
<path d="M388.383 166.719C387.279 165.615 387.279 163.849 388.383 162.745C389.487 161.641 391.253 161.641 392.357 162.745C393.461 163.849 393.461 165.615 392.357 166.719C391.253 167.823 389.487 167.823 388.383 166.719Z" fill="#5285F2"/>
<path d="M391.695 236.933H477.365L508.056 206.022L506.952 204.697L476.482 234.946H391.695V236.933Z" fill="#5285F2"/>
<path d="M509.38 207.346C510.484 206.242 510.484 204.476 509.38 203.372C508.276 202.268 506.509 202.268 505.405 203.372C504.301 204.476 504.301 206.242 505.405 207.346C506.509 208.45 508.276 208.45 509.38 207.346Z" fill="#5285F2"/>
</g>
</g>
<defs>
<radialGradient id="paint0_radial_1_1511" cx="0" cy="0" r="1" gradientUnits="userSpaceOnUse" gradientTransform="translate(689.726) scale(1120.69 450.934)">
<stop stop-color="#5285F2"/>
<stop offset="1" stop-color="#0D3FAB"/>
</radialGradient>
<clipPath id="clip0_1_1511">
<rect width="1440" height="228" fill="white"/>
</clipPath>
</defs>
</svg>
