<svg width="407" height="403" viewBox="0 0 407 403" fill="none" xmlns="http://www.w3.org/2000/svg">
<path d="M71.6791 393.199C47.1598 390.049 16.073 381.772 3.58698 358.432C0.616412 352.88 -2.36321 342.094 5.13415 338.032C11.987 334.319 20.8489 338.242 25.9417 343.072C29.6866 346.625 32.6089 354.554 36.8096 357.062C42.9681 360.731 46.2828 350.722 46.153 346.586C45.8632 337.347 34.4987 333.564 26.947 331.558C14.4096 328.228 -0.188119 325.369 0.598296 311.246C1.38471 297.122 15.1583 288.644 25.756 294.823C34.4866 299.917 33.2579 310.787 39.2232 317.314C44.5228 323.108 46.3674 313.703 46.0157 309.093C45.2459 299.078 36.4413 291.834 29.9613 285.122C22.6421 277.528 14.5485 262.265 22.3583 252.231C26.8519 246.458 38.2662 245.105 45.0134 246.079C78.0383 250.847 56.1395 293.585 62.144 298.354C68.1485 303.122 73.83 294.775 73.8149 282.083C73.7998 269.392 75.7425 260.031 88.9878 264.093C102.233 268.154 104.754 301.306 89.6293 314.055C74.5048 326.803 90.5787 340.695 94.6391 331.564C97.5704 324.971 100.147 307.706 108.619 305.813C122.734 302.663 122.526 331.487 118.462 338.195C112.769 347.599 99.8965 349.641 92.701 357.754C90.6119 360.111 85.8949 365.949 87.7198 369.394C90.2753 374.198 97.4044 369.059 100.023 366.828C105.91 361.821 114.061 344.806 122.363 356.111C132.606 370.056 115.477 390.735 71.6791 393.199Z" fill="#4ECC4E"/>
<g style="mix-blend-mode:soft-light" opacity="0.8">
<g style="mix-blend-mode:soft-light" opacity="0.8">
<path d="M68.1467 391.122C68.7233 391.122 69.1942 390.463 69.2033 389.885C69.2123 389.385 69.8946 339.026 47.9459 279.243C47.8527 278.975 47.6585 278.754 47.4048 278.627C47.151 278.5 46.8577 278.478 46.5874 278.564C46.4574 278.609 46.3378 278.679 46.2354 278.771C46.1331 278.863 46.0502 278.975 45.9916 279.099C45.9329 279.224 45.8997 279.359 45.894 279.496C45.8882 279.634 45.91 279.771 45.958 279.9C67.7708 339.305 67.0901 389.353 67.0901 389.85C67.0795 390.436 67.5429 391.115 68.1301 391.115L68.1467 391.122Z" fill="white"/>
</g>
</g>
<path d="M52.1698 389.059C52.9924 383.906 62.846 382.436 66.8113 381.686C69.1147 381.251 72.3962 380.804 73.575 378.424C74.8188 375.926 72.929 373.993 70.5064 373.551C66.1682 372.759 61.5026 375.513 57.4709 376.768C53.1403 378.114 48.6483 378.748 44.3539 376.889C40.9305 375.406 37.4241 371.883 36.68 368.176C34.6181 357.912 44.8988 358.504 51.5977 359.945C54.849 360.646 61.2399 361.172 61.8135 356.579C62.4173 351.692 56.2045 349.227 52.363 349.08C47.3426 348.89 42.4007 349.986 37.4196 350.354C32.929 350.68 27.6083 350.191 26.366 345.024C25.4045 341.032 27.652 336.443 30.8943 334.075C38.3977 328.599 48.286 337.936 56.2966 337.916C59.1283 337.916 63.803 335.832 64.5864 332.784C65.3818 329.685 61.3577 327.599 59.1524 326.469C52.6135 323.121 22.5773 318.833 33.3411 305.864C36.049 302.6 41.2807 299.856 45.5041 299.74C53.4709 299.522 62.4233 304.929 68.5607 309.595C78.2211 316.932 86.6618 327.029 92.1471 337.849C104.268 361.761 98.3961 377.794 98.3961 377.794C94.8822 383.589 89.4437 389.616 83.4528 392.88C76.4128 396.718 65.5086 398.403 57.8513 395.42C55.3879 394.461 51.6611 392.246 52.1698 389.059Z" fill="#F57200"/>
<path opacity="0.3" d="M380.016 246.556L369.841 247.243C368.692 242.747 367.151 238.36 365.236 234.134L373.676 228.469C374.224 228.099 374.694 227.624 375.057 227.071C375.421 226.519 375.671 225.9 375.794 225.25C375.917 224.601 375.911 223.933 375.774 223.286C375.638 222.639 375.375 222.025 375 221.48L365.153 206.99C364.401 205.876 363.241 205.103 361.923 204.84C360.606 204.576 359.238 204.842 358.116 205.581L349.56 211.291C346.309 207.957 342.778 204.907 339.006 202.174L343.518 192.911C344.734 190.414 343.669 187.38 341.139 186.135L325.29 178.334C322.75 177.085 319.705 178.099 318.475 180.599L313.933 189.891C309.437 188.592 304.838 187.683 300.187 187.174L299.396 176.759C299.282 175.403 298.643 174.146 297.615 173.256C296.587 172.366 295.251 171.913 293.894 171.995L276.174 173.041C275.506 173.074 274.851 173.241 274.248 173.531C273.645 173.821 273.106 174.229 272.662 174.731C272.219 175.232 271.881 175.817 271.667 176.451C271.453 177.085 271.368 177.756 271.417 178.423L272.209 188.876C267.648 189.945 263.19 191.409 258.884 193.254L252.905 184.547C252.128 183.417 250.941 182.634 249.596 182.364C248.251 182.095 246.854 182.361 245.702 183.106L230.872 192.849C230.307 193.217 229.822 193.695 229.446 194.255C229.07 194.814 228.81 195.444 228.682 196.106C228.554 196.767 228.561 197.448 228.701 198.108C228.842 198.767 229.113 199.391 229.5 199.943L235.497 208.659C232.095 211.876 228.981 215.384 226.191 219.143L216.596 214.51C213.998 213.254 210.875 214.292 209.62 216.83L201.771 232.712C200.514 235.255 201.607 238.331 204.212 239.581L213.737 244.153C212.43 248.669 211.533 253.293 211.054 257.969L200.51 258.68C197.622 258.875 195.454 261.328 195.669 264.158L197.012 281.856C197.227 284.686 199.743 286.816 202.629 286.612L213.088 285.877C214.25 290.47 215.821 294.949 217.782 299.261L209.178 304.997C208.613 305.369 208.127 305.851 207.75 306.413C207.374 306.976 207.114 307.608 206.985 308.272C206.856 308.937 206.862 309.621 207.002 310.283C207.142 310.945 207.413 311.573 207.799 312.129L217.966 326.771C218.761 327.894 219.963 328.662 221.317 328.913C222.67 329.163 224.067 328.875 225.211 328.111L233.749 322.375C237.103 325.769 240.748 328.863 244.642 331.621L240.18 340.748C239.885 341.354 239.713 342.014 239.675 342.687C239.637 343.361 239.734 344.035 239.96 344.671C240.186 345.307 240.536 345.891 240.991 346.389C241.446 346.888 241.995 347.291 242.608 347.574L258.759 355.178C259.997 355.762 261.415 355.836 262.708 355.384C264 354.932 265.063 353.991 265.669 352.763L270.072 343.722C274.68 344.989 279.391 345.847 284.15 346.288L284.905 356.283C284.959 356.953 285.145 357.606 285.451 358.205C285.758 358.803 286.18 359.335 286.693 359.769C287.206 360.204 287.8 360.533 288.44 360.738C289.08 360.943 289.755 361.019 290.425 360.963L308.119 359.566C309.469 359.465 310.725 358.832 311.61 357.807C312.496 356.783 312.94 355.449 312.845 354.098L312.09 344.135C316.688 342.977 321.174 341.415 325.497 339.467L331.145 347.675C331.913 348.785 333.09 349.546 334.418 349.791C335.745 350.037 337.116 349.746 338.23 348.984L352.74 339.091C353.291 338.717 353.762 338.239 354.126 337.683C354.491 337.127 354.743 336.504 354.866 335.851C354.99 335.198 354.983 334.526 354.847 333.875C354.711 333.225 354.447 332.607 354.072 332.058L348.407 323.8C351.759 320.532 354.819 316.976 357.551 313.174L366.608 317.519C367.816 318.1 369.206 318.178 370.471 317.736C371.737 317.294 372.776 316.367 373.359 315.16L380.916 299.474C381.494 298.268 381.57 296.881 381.127 295.618C380.684 294.356 379.758 293.321 378.552 292.741L369.48 288.363C370.724 283.888 371.568 279.311 372.002 274.686L382.094 273.977C382.753 273.931 383.397 273.756 383.988 273.46C384.579 273.165 385.106 272.756 385.538 272.256C385.97 271.756 386.298 271.176 386.505 270.548C386.712 269.921 386.792 269.259 386.742 268.6L385.424 251.252C385.324 249.915 384.699 248.671 383.686 247.792C382.673 246.912 381.354 246.468 380.016 246.556ZM288.292 215.383C316.81 213.572 341.534 234.925 343.67 263.065C345.806 291.205 324.562 315.726 296.067 317.847C267.4 319.978 242.283 298.661 240.125 270.205C237.966 241.749 259.601 217.207 288.292 215.383Z" fill="#BEEEC9"/>
<path opacity="0.3" d="M347.858 92.6492L342.264 93.0265C341.632 90.5547 340.784 88.143 339.731 85.819L344.373 82.705C344.674 82.5014 344.932 82.2402 345.131 81.9365C345.331 81.6328 345.469 81.2926 345.536 80.9355C345.604 80.5783 345.6 80.2114 345.525 79.8558C345.45 79.5001 345.305 79.1629 345.099 78.8635L339.686 70.8982C339.273 70.2863 338.635 69.8618 337.911 69.7169C337.187 69.572 336.435 69.7182 335.817 70.1239L331.114 73.2635C329.326 71.4301 327.385 69.7531 325.312 68.2506L327.792 63.1593C328.11 62.4916 328.151 61.7251 327.906 61.0271C327.662 60.3291 327.15 59.7564 326.485 59.434L317.769 55.1457C317.442 54.9808 317.085 54.8822 316.719 54.8555C316.353 54.8289 315.985 54.8747 315.637 54.9904C315.289 55.1061 314.967 55.2894 314.69 55.5297C314.413 55.7701 314.186 56.0628 314.023 56.391L311.525 61.5004C309.054 60.7852 306.525 60.2843 303.968 60.0031L303.534 54.2748C303.47 53.5313 303.119 52.8419 302.556 52.3529C301.992 51.864 301.26 51.6139 300.515 51.6559L290.773 52.2295C290.405 52.2472 290.044 52.3385 289.712 52.4977C289.38 52.657 289.083 52.8812 288.838 53.157C288.594 53.4328 288.407 53.7548 288.289 54.1038C288.171 54.4529 288.124 54.822 288.151 55.1895L288.587 60.9359C286.08 61.5257 283.629 62.3338 281.262 63.351L277.976 58.5601C277.549 57.9386 276.896 57.5081 276.156 57.3602C275.417 57.2122 274.649 57.3584 274.015 57.7676L265.864 63.1216C265.554 63.3241 265.288 63.5869 265.082 63.8942C264.875 64.2015 264.733 64.5471 264.662 64.9106C264.592 65.2741 264.595 65.648 264.672 66.0101C264.749 66.3723 264.898 66.7153 265.11 67.0189L268.406 71.8099C266.536 73.5786 264.825 75.5075 263.291 77.5744L258.008 75.0265C257.329 74.6922 256.547 74.6386 255.829 74.8773C255.111 75.1161 254.517 75.6279 254.174 76.302L249.858 85.034C249.696 85.3695 249.602 85.7338 249.581 86.1059C249.561 86.478 249.615 86.8504 249.74 87.2016C249.865 87.5527 250.058 87.8755 250.309 88.1512C250.559 88.4269 250.862 88.65 251.2 88.8076L256.436 91.3208C255.718 93.8034 255.225 96.3454 254.962 98.9163L249.164 99.3073C248.79 99.3282 248.424 99.4231 248.087 99.5867C247.75 99.7503 247.449 99.9791 247.202 100.26C246.954 100.541 246.765 100.868 246.645 101.223C246.525 101.578 246.477 101.953 246.503 102.326L247.241 112.056C247.305 112.812 247.666 113.511 248.245 114.002C248.824 114.492 249.573 114.733 250.329 114.672L256.08 114.266C256.718 116.791 257.581 119.255 258.66 121.626L253.935 124.774C253.624 124.979 253.357 125.244 253.149 125.554C252.942 125.863 252.799 126.211 252.729 126.577C252.658 126.943 252.662 127.319 252.74 127.684C252.817 128.048 252.967 128.394 253.18 128.699L258.765 136.749C259.202 137.368 259.863 137.792 260.608 137.93C261.354 138.068 262.123 137.908 262.752 137.485L267.446 134.335C269.29 136.201 271.294 137.902 273.434 139.419L270.981 144.436C270.819 144.77 270.724 145.132 270.703 145.502C270.682 145.873 270.736 146.243 270.86 146.593C270.984 146.942 271.177 147.264 271.427 147.538C271.677 147.812 271.979 148.033 272.316 148.189L281.193 152.37C281.875 152.694 282.657 152.736 283.369 152.486C284.082 152.237 284.668 151.717 284.999 151.039L287.414 146.067C289.948 146.764 292.538 147.236 295.155 147.478L295.571 152.974C295.602 153.342 295.705 153.7 295.874 154.028C296.043 154.356 296.275 154.648 296.557 154.886C296.839 155.125 297.165 155.305 297.517 155.417C297.869 155.529 298.239 155.571 298.607 155.54L308.334 154.771C309.076 154.716 309.767 154.368 310.254 153.805C310.74 153.241 310.984 152.508 310.931 151.765L310.516 146.287C313.044 145.65 315.51 144.791 317.887 143.721L320.992 148.234C321.414 148.844 322.061 149.262 322.791 149.397C323.521 149.532 324.275 149.373 324.888 148.954L332.865 143.52C333.167 143.315 333.426 143.052 333.626 142.746C333.827 142.44 333.965 142.098 334.033 141.739C334.101 141.38 334.097 141.011 334.023 140.653C333.948 140.296 333.803 139.956 333.597 139.654L330.482 135.114C332.325 133.317 334.008 131.362 335.51 129.271L340.491 131.661C341.155 131.98 341.919 132.023 342.615 131.78C343.312 131.537 343.883 131.028 344.204 130.364L348.358 121.741C348.676 121.077 348.717 120.315 348.474 119.62C348.23 118.926 347.721 118.357 347.058 118.038L342.077 115.623C342.761 113.163 343.224 110.647 343.463 108.104L348.999 107.718C349.362 107.693 349.716 107.597 350.041 107.434C350.365 107.272 350.655 107.047 350.893 106.772C351.13 106.498 351.311 106.179 351.425 105.834C351.538 105.489 351.583 105.125 351.555 104.762L350.83 95.2258C350.774 94.4914 350.431 93.8088 349.874 93.3263C349.318 92.8438 348.593 92.6005 347.858 92.6492ZM297.431 75.511C313.11 74.5148 326.702 86.2537 327.875 101.725C329.048 117.197 317.371 130.676 301.706 131.842C285.944 133.014 272.136 121.291 270.95 105.65C269.763 90.0092 281.657 76.5133 297.431 75.511Z" fill="#BEEEC9"/>
<path d="M357.119 381.446C360.177 383.918 360.351 385.672 360.251 386.529C360.092 387.909 359.052 388.445 356.563 391.05C353.196 394.573 353.711 395.044 351.996 396.318C348.212 399.13 342.859 398.945 342.538 397.988C342.31 397.316 344.731 396.77 347.486 393.579C349.18 391.638 350.421 389.344 351.117 386.863C351.453 385.612 351.636 384.325 351.665 383.03L357.119 381.446Z" fill="#001540"/>
<path d="M346.876 373.914L352.899 384.407C354.349 385.05 355.737 384.726 357.023 382.854L354.672 370.097L346.876 373.914Z" fill="url(#paint0_linear_1_2356)"/>
<path d="M339.574 239.31C333.707 249.215 324.19 268.331 322.264 294.18C320.364 319.689 326.792 339.137 329.496 346.389C334.548 359.974 343.331 374.243 348.435 381.043C351.876 379.603 353.902 377.346 357.34 375.911C356.824 374.039 355.227 367.855 354.223 364.171C353.446 361.318 352.011 356.036 351.715 354.909C349.244 345.46 351.195 338.368 350.507 326.682C349.715 313.052 346.592 314.635 347.061 306.456C347.763 294.238 354.685 291.386 362.634 273.701C368.068 261.595 373.789 248.881 368.537 241.931C361.937 233.171 341.82 238.672 339.574 239.31Z" fill="#001540"/>
<path d="M382.032 391.038C383.868 392.205 384.974 394.978 384.138 396.724C383.317 398.44 381.223 397.899 376.138 399.462C370.689 401.136 369.611 402.829 365.594 402.824C363.972 402.824 361.03 402.543 360.784 401.452C360.612 400.685 361.86 399.921 365.972 397.159C371.81 393.234 371.748 393.127 373.052 392.525C376.32 391.02 379.611 389.503 382.032 391.038Z" fill="#001540"/>
<path d="M373.318 382.736L375.554 392.952C375.866 393.404 379.051 394.502 381.282 392.952L380.46 382.736H373.318Z" fill="url(#paint1_linear_1_2356)"/>
<g style="mix-blend-mode:multiply" opacity="0.3">
<path d="M368.549 241.921C361.937 233.167 341.821 238.672 339.567 239.31C336.395 244.675 333.621 250.266 331.266 256.036C338.395 254.634 341.489 255.908 342.93 257.598C348.527 264.161 331.006 278.652 334.607 300.641C336.017 309.245 339.694 313.111 339.021 323.615C338.521 331.431 336.093 335.389 334.414 341.111C333.212 345.257 332.598 349.552 332.591 353.869C337.631 364.948 344.254 375.487 348.423 381.038C351.865 379.598 353.89 377.342 357.329 375.906C356.813 374.035 355.216 367.85 354.212 364.166C353.435 361.313 351.999 356.032 351.703 354.904C349.232 345.455 351.184 338.364 350.496 326.678C349.703 313.047 346.58 314.631 347.05 306.451C347.752 294.234 354.674 291.381 362.622 273.696C368.085 261.586 373.8 248.872 368.549 241.921Z" fill="#001540"/>
</g>
<path d="M355.287 244.679C354.089 292.598 359.619 340.448 371.714 386.831C372.391 387.213 374.763 388.443 377.802 387.867C379.372 387.562 380.832 386.841 382.028 385.779C381.26 380.269 381.048 374.695 381.397 369.142C382.152 357.097 384.994 354.642 386.211 342.178C387.278 331.248 386.154 322.318 385.607 318.178C383.929 305.433 381.651 305.171 381.606 297.539C381.536 285.785 386.91 281.577 389.864 270.38C391.835 262.91 392.883 251.758 387.924 236.464L355.287 244.679Z" fill="#001540"/>
<path d="M343.658 153.738C338.109 156.831 333.13 160.851 328.938 165.624C317.006 179.287 309.628 201.771 317.296 209.127C322.514 214.132 334.888 212.615 339.151 206.677C342.286 202.307 340.029 196.943 338.945 189.319C337.782 181.11 337.83 169.208 343.658 153.738Z" fill="#4ECC4E"/>
<path d="M389.991 241.962C385.573 183.727 371.487 159.888 372.717 152.812C370.945 151.536 363.941 149.511 348.073 151.604C344.909 152.785 342.002 154.563 339.509 156.842C338.813 157.503 338.154 158.203 337.535 158.939C348.682 161.043 360.038 167.391 364.125 176.383C371.206 193.579 358.056 212.797 364.125 227.969C367.315 235.944 372.417 243.011 378.507 249.618C385.472 247.876 390.245 245.319 389.991 241.962Z" fill="url(#paint2_linear_1_2356)"/>
<g style="mix-blend-mode:multiply" opacity="0.3">
<path d="M387.929 236.472L378.373 238.876C380.033 244.612 381.639 253.229 379.716 263.008C377.06 276.511 370.195 279.472 369.185 291.649C368.279 302.603 373.449 304.837 375.924 319.448C378.462 334.42 374.622 341.463 373.811 353.986C373.262 362.556 374.154 373.768 379.367 387.415C380.34 387.029 381.239 386.478 382.024 385.786C381.256 380.276 381.044 374.702 381.393 369.149C382.148 357.104 384.99 354.65 386.207 342.185C387.274 331.255 386.149 322.325 385.603 318.185C383.925 305.441 381.647 305.178 381.601 297.546C381.532 285.792 386.906 281.584 389.86 270.387C391.84 262.909 392.885 251.758 387.929 236.472Z" fill="#001540"/>
</g>
<path d="M339.509 156.837C339.509 156.837 335.283 160.679 332.826 166.324C329.117 174.827 333.111 182.127 334.309 196.012C335.624 211.245 333.765 236.616 329.479 245.711C329.308 246.081 329.244 246.491 329.295 246.895C330.453 255.68 390.88 253.687 389.991 241.962C385.573 183.727 371.487 159.888 372.717 152.812C370.945 151.536 363.941 149.511 348.072 151.604C344.909 152.784 342.002 154.56 339.509 156.837Z" fill="#4ECC4E"/>
<path d="M357.471 136.976C357.471 136.976 361.373 149.224 362.637 150.699C363.9 152.173 357.565 156.025 352.707 154.288C348.247 152.693 352.707 145.894 352.707 145.894L357.471 136.976Z" fill="url(#paint3_linear_1_2356)"/>
<path d="M345.362 134.116C343.833 131.701 344.047 127.722 346.222 125.361C348.096 123.339 350.793 123.248 352.411 123.191C357.09 123.028 362.785 125.435 364.476 129.867C365.478 132.493 362.446 137.538 361.961 138.45C361.413 139.481 360.544 139.78 359.705 140.524C358.538 141.558 356.711 143.203 353.724 145.958C353.552 144.863 353.284 143.785 352.924 142.736C352.763 142.267 352.108 140.429 351.021 138.862C348.838 135.721 346.811 136.397 345.362 134.116Z" fill="#001540"/>
<path d="M357.842 143.78C357.842 143.78 354.392 148.534 348.354 147.65C342.949 146.857 343.136 134.608 346.815 132.302C348.042 131.534 350.39 131.361 352.233 132.042C353.322 132.444 353.661 132.937 355.453 133.552C357.104 134.125 357.596 133.977 358.072 134.447C358.665 135.034 359.026 136.386 357.675 139.863C358.796 138.897 360.073 138.595 360.922 139.082C361.21 139.27 361.441 139.534 361.587 139.845C362.235 141.306 360.821 142.981 357.842 143.78Z" fill="url(#paint4_linear_1_2356)"/>
<path d="M346.094 141.76C346.094 141.76 347.219 142.468 349.255 142.514C349.355 142.514 349.46 142.555 349.47 142.607C349.501 142.803 348.131 143.561 346.958 143.127C346.126 142.825 345.53 141.959 345.66 141.769C345.716 141.68 345.907 141.711 346.094 141.76Z" fill="#001540"/>
<g style="mix-blend-mode:multiply" opacity="0.3">
<path d="M372.953 190.542C366.358 192.857 357.608 199.363 357.021 207.698C356.115 220.501 375.187 227.526 372.646 236.496C371.954 238.942 369.763 241.148 355.49 246.308C349.714 248.392 344.348 250.092 339.477 251.499C356.942 254.072 390.657 250.751 389.991 241.97C388.299 219.677 385.191 202.439 382.068 189.238C378.975 189.093 375.882 189.535 372.953 190.542Z" fill="#4ECC4E"/>
</g>
<path d="M352.192 216.736C362.918 227.625 378.231 231.056 390.003 225.609C406.353 218.043 408.881 196.593 405.07 183.168C398.705 160.756 370.969 147.686 362.231 153.656C355.911 157.974 355.971 174.679 363.502 183.041C370.271 190.558 380.668 188.659 383.497 196.324C385.61 202.06 381.523 207.838 381.171 208.32C376.619 214.551 366.697 216.665 357.322 212.386L352.192 216.736Z" fill="#4ECC4E"/>
<path d="M330.954 197.969C331.828 195.165 334.666 193.726 336.898 193.415C339.083 193.113 342.684 193.607 344.118 196.464C345.458 199.136 344.403 202.873 341.321 204.901C340.888 203.824 340.114 202.408 338.741 201.978C336.224 201.189 334.041 204.47 332.18 203.613C330.698 202.929 330.313 200.03 330.954 197.969Z" fill="url(#paint5_linear_1_2356)"/>
<path d="M341.255 214.978L349.508 216.412C349.877 216.476 350.256 216.448 350.612 216.332C350.967 216.215 351.289 216.014 351.549 215.744C351.809 215.474 351.998 215.145 352.101 214.785C352.204 214.425 352.217 214.046 352.139 213.68L349.135 199.716C349.031 199.224 348.768 198.779 348.386 198.452C348.004 198.125 347.525 197.932 347.022 197.905L337.14 197.375C336.764 197.355 336.388 197.428 336.047 197.588C335.706 197.748 335.41 197.989 335.184 198.291C334.959 198.593 334.811 198.946 334.755 199.319C334.698 199.691 334.735 200.072 334.861 200.427L339.492 213.483C339.627 213.867 339.861 214.207 340.171 214.47C340.481 214.732 340.855 214.908 341.255 214.978Z" fill="white"/>
<path d="M355.661 213.786C354.984 208.924 352.934 207.651 352.19 207.295C350.946 206.691 350.332 207.159 345.991 207.09C342.111 207.028 341.192 206.637 340.708 207.295C339.778 208.551 341.687 211.854 343.852 213.786C346.886 216.503 350.644 216.734 352.196 216.737L355.661 213.786Z" fill="url(#paint6_linear_1_2356)"/>
<path d="M235.339 18.4603L271.057 377.689C271.59 383.039 267.907 387.716 262.859 388.085L88.8214 402.661C78.2131 403.033 72.4878 397.318 71.9157 391.657L33.2154 11.4158C32.6342 5.70412 37.9339 0.649022 48.6508 0.866381L225.054 8.30488C230.178 8.49356 234.8 13.0656 235.339 18.4603Z" fill="#001540"/>
<path d="M243.249 18.0026L279.113 379.082C279.647 384.459 275.943 389.16 270.882 389.532L90.4547 402.759C84.8215 403.171 79.7272 398.854 79.1476 393.164L40.2796 10.9022C39.6955 5.16635 43.9144 0.638051 49.6381 0.85541L232.924 7.79277C238.07 7.98296 242.71 12.5792 243.249 18.0026Z" fill="#26264F"/>
<path d="M239.452 37.9255L272.718 372.594C273.218 377.618 269.757 382.003 265.02 382.339L95.3173 394.403C90.0781 394.774 85.3415 390.745 84.8026 385.446L48.9249 32.3678C48.3815 27.0244 52.2985 22.7904 57.6147 22.9595L229.806 28.4402C234.609 28.5927 238.948 32.8614 239.452 37.9255Z" fill="#D8DEE8"/>
<path d="M148.175 15.7926C148.37 17.7247 147.007 19.2386 145.127 19.1752C143.248 19.1118 141.565 17.4922 141.371 15.5526C141.176 13.6129 142.543 12.102 144.424 12.1699C146.305 12.2379 147.982 13.859 148.175 15.7926Z" fill="white"/>
<g style="mix-blend-mode:soft-light" opacity="0.3">
<g style="mix-blend-mode:soft-light" opacity="0.3">
<path d="M131.472 192.043C113.54 139.062 144.755 112.369 127.075 63.2887C117.452 36.5944 98.2087 16.6985 77.0313 1.89248L49.6381 0.84946C43.9144 0.633611 39.6955 5.15437 40.2796 10.8963L79.1521 393.157C79.7317 398.848 84.826 403.165 90.4593 402.753L246.233 391.334C245.744 351.42 235.603 323.014 224.326 302.819C193.335 247.34 150.04 246.905 131.472 192.043Z" fill="#F5F6FA"/>
</g>
</g>
<path d="M234.109 64.9795L314.703 131.742C245.398 162.907 253.463 258.163 184.159 289.327L103.566 222.566C172.872 191.401 164.805 96.1433 234.109 64.9795Z" fill="#4ECC4E"/>
<path d="M301.116 130.603C242.323 163.731 244.539 247.397 185.747 280.527L117.151 223.704C175.943 190.575 173.727 106.908 232.518 73.7808L301.116 130.603Z" fill="white"/>
<path d="M129.344 213.933C129.646 214.184 129.912 214.421 130.186 214.688L130.256 214.756C133.383 217.764 134.851 221.57 134.482 225.209C134.171 228.389 132.446 231.431 129.178 233.674C128.685 234.008 128.174 234.316 127.648 234.596C125.604 235.696 123.26 236.428 120.774 236.827L103.566 222.569C110.593 219.418 117.198 215.402 123.228 210.613C125.32 211.219 127.534 212.434 129.344 213.933Z" fill="url(#paint7_linear_1_2356)"/>
<path d="M199.538 272.081C201.423 273.643 202.679 275.359 203.731 277.444C197.725 282.201 191.15 286.193 184.159 289.327L166.547 274.737C168.078 273.279 169.806 272.042 171.679 271.06C172.219 270.77 172.773 270.496 173.339 270.239C181.704 266.401 191.961 266.402 198.802 271.496C198.829 271.515 198.854 271.536 198.882 271.557C199.096 271.721 199.328 271.907 199.538 272.081Z" fill="url(#paint8_linear_1_2356)"/>
<path d="M234.109 64.9795L251.317 79.2376C249.785 80.6954 248.057 81.9329 246.184 82.9146C245.644 83.2059 245.092 83.4791 244.532 83.7372C236.251 87.5334 226.145 87.5938 219.305 82.6534C218.985 82.4255 218.723 82.2262 218.422 81.9772C216.61 80.4783 215.148 78.6429 214.437 76.9357C220.47 72.1462 227.079 68.1297 234.109 64.9795Z" fill="#4ECC4E"/>
<path d="M297.09 117.151L314.702 131.742C307.71 134.876 301.136 138.868 295.13 143.625C292.582 142.72 290.51 141.687 288.625 140.125C288.415 139.95 288.19 139.758 287.991 139.572C287.967 139.55 287.941 139.529 287.918 139.506C284.871 136.694 283.305 133.141 283.364 129.663C283.423 126.185 285.145 122.769 288.708 120.326C289.197 119.987 289.705 119.675 290.228 119.391C292.27 118.292 294.604 117.55 297.09 117.151Z" fill="#4ECC4E"/>
<path d="M223.18 149.334C236.044 159.991 239.845 180.804 232.432 196.453C225.02 212.101 207.868 215.559 194.887 204.807C182.022 194.149 178.221 173.337 185.634 157.687C193.047 142.038 210.2 138.581 223.18 149.334Z" fill="url(#paint9_linear_1_2356)"/>
<path d="M213.754 168.012C211.49 168.543 209.147 170.082 206.441 173.235L200.72 168.495L200.944 168.103C201.646 166.883 202.481 165.745 203.433 164.709C203.943 164.161 204.491 163.648 205.073 163.176C205.713 162.661 205.713 161.546 205.088 160.912L202.735 158.542C202.242 158.048 201.528 158.033 201.075 158.501C200.302 159.28 199.54 160.162 198.841 161.011C197.878 162.194 196.993 163.437 196.192 164.735L194.192 163.075C193.608 162.592 192.842 162.667 192.453 163.316C192.27 163.641 192.207 164.021 192.277 164.388C192.346 164.754 192.543 165.085 192.832 165.321L194.874 167.013C193.242 170.382 192.559 173.535 192.871 176.386C193.184 179.238 194.476 181.633 196.741 183.509C198.933 185.321 201.156 185.958 203.41 185.422C205.664 184.886 207.984 183.175 210.371 180.29L216.726 185.585C215.917 187.001 214.975 188.336 213.911 189.571C213.244 190.342 212.527 191.068 211.765 191.745C211.114 192.323 211.103 193.494 211.765 194.145L214.815 197.164C215.324 197.665 216.036 197.65 216.498 197.149C217.278 196.297 218.006 195.399 218.679 194.46C219.665 193.077 220.561 191.632 221.362 190.134C221.464 189.943 221.567 189.751 221.663 189.559L223.84 191.362C224.429 191.848 225.185 191.778 225.522 191.082L225.532 191.06C225.694 190.72 225.739 190.337 225.66 189.969C225.581 189.601 225.382 189.27 225.094 189.028L222.888 187.2C223.935 184.696 224.516 182.302 224.604 180.065C224.651 179.112 224.604 178.156 224.465 177.212C224.012 174.184 222.629 171.751 220.337 169.852C218.207 168.086 216.009 167.491 213.754 168.012ZM212.068 178.234C212.974 177.303 213.879 176.648 214.676 176.491C215.473 176.334 216.255 176.56 217.026 177.197C217.831 177.842 218.366 178.764 218.527 179.783C218.687 180.792 218.491 181.867 217.905 183.07L212.068 178.234ZM202.408 176.875C201.683 177.051 200.979 176.856 200.294 176.293C199.584 175.714 199.125 174.882 199.013 173.973C198.879 173.02 199.093 171.873 199.493 170.856L204.747 175.208C203.888 176.181 203.129 176.699 202.403 176.872L202.408 176.875Z" fill="white"/>
<path style="mix-blend-mode:multiply" opacity="0.2" d="M314.441 131.524L314.702 131.741C245.398 162.907 253.463 258.162 184.158 289.326C157.862 267.542 131.566 245.758 105.269 223.975C109.391 223.53 113.535 223.339 117.68 223.403C123.325 223.5 128.95 224.103 134.488 225.204C141.251 226.541 148.649 228.735 156.848 232.2C197.351 249.388 208.99 234.917 216.018 210.476C217.946 203.996 219.611 196.864 221.629 189.613C222.518 186.425 223.511 183.212 224.617 180.021C226.788 173.773 229.399 167.61 232.554 161.886C242.869 142.315 260.977 129.07 283.372 129.661C287.57 129.728 291.751 130.214 295.852 131.112C296.99 131.355 298.14 131.537 299.298 131.657C303.651 132.129 308.718 131.945 314.441 131.524Z" fill="url(#paint10_linear_1_2356)"/>
<path d="M246.87 145.77C249.274 146.723 250.521 149.269 249.638 151.431L193.961 288.336C193.009 290.664 189.671 292.338 187.191 291.307L96.4908 253.594C94.0622 252.584 93.0554 249.065 94.0546 246.788L150.206 112.036C151.129 109.923 153.81 108.954 156.163 109.886L246.87 145.77Z" fill="url(#paint11_linear_1_2356)"/>
<path d="M248.353 143.059C250.775 144.018 252.028 146.585 251.136 148.765L194.434 287.412C193.476 289.757 190.647 290.825 188.15 289.788L96.8841 251.858C94.4403 250.843 93.2614 248.135 94.2712 245.844L151.018 109.133C151.95 106.999 154.649 106.021 157.018 106.959L248.353 143.059Z" fill="#4ECC4E"/>
<g opacity="0.7">
<path opacity="0.7" d="M179.85 237.921L170.242 260.422C170.023 260.913 169.631 261.306 169.141 261.526C168.651 261.746 168.097 261.779 167.584 261.617L161.919 259.715C161.678 259.638 161.455 259.511 161.266 259.342C161.076 259.172 160.925 258.965 160.822 258.733C160.718 258.501 160.665 258.25 160.665 257.996C160.666 257.742 160.719 257.491 160.824 257.26L170.501 234.769C170.72 234.285 171.111 233.898 171.597 233.682C172.083 233.466 172.632 233.436 173.139 233.598L178.756 235.492C178.995 235.568 179.216 235.694 179.404 235.861C179.591 236.028 179.742 236.233 179.845 236.462C179.948 236.691 180.002 236.94 180.003 237.191C180.004 237.442 179.952 237.691 179.85 237.921Z" fill="#F4F7FA"/>
<path opacity="0.7" d="M192.492 208.312L183.061 230.401C182.842 230.883 182.454 231.269 181.97 231.484C181.486 231.699 180.94 231.728 180.436 231.566L174.825 229.679C174.587 229.604 174.367 229.479 174.18 229.313C173.994 229.146 173.844 228.943 173.741 228.715C173.638 228.487 173.584 228.24 173.583 227.99C173.582 227.74 173.633 227.493 173.734 227.264L183.234 205.187C183.453 204.71 183.839 204.331 184.319 204.12C184.8 203.91 185.341 203.883 185.839 204.046L191.402 205.931C191.637 206.006 191.854 206.129 192.039 206.292C192.223 206.455 192.372 206.656 192.474 206.88C192.577 207.104 192.632 207.347 192.635 207.594C192.638 207.84 192.589 208.085 192.492 208.312Z" fill="#F4F7FA"/>
<path opacity="0.7" d="M204.905 179.24L195.642 200.929C195.425 201.405 195.04 201.783 194.561 201.993C194.083 202.202 193.544 202.228 193.047 202.065L187.492 200.182C187.256 200.108 187.039 199.986 186.853 199.822C186.668 199.658 186.519 199.458 186.417 199.232C186.314 199.007 186.26 198.763 186.258 198.516C186.256 198.269 186.307 198.024 186.406 197.797L195.734 176.12C195.951 175.653 196.333 175.281 196.806 175.077C197.279 174.872 197.811 174.848 198.3 175.01L203.808 176.884C204.043 176.956 204.259 177.076 204.445 177.237C204.63 177.397 204.779 177.595 204.882 177.818C204.986 178.04 205.041 178.281 205.045 178.527C205.049 178.772 205.002 179.015 204.905 179.24Z" fill="#F4F7FA"/>
<path opacity="0.7" d="M217.093 150.691L207.999 171.99C207.783 172.459 207.402 172.831 206.928 173.036C206.454 173.24 205.922 173.262 205.433 173.097L199.931 171.223C199.698 171.151 199.483 171.031 199.299 170.87C199.116 170.71 198.968 170.512 198.866 170.291C198.764 170.069 198.709 169.828 198.707 169.584C198.704 169.341 198.752 169.099 198.849 168.875L208.008 147.592C208.411 146.654 209.555 146.168 210.551 146.508L216.007 148.374C216.237 148.444 216.45 148.562 216.633 148.72C216.815 148.878 216.962 149.073 217.064 149.291C217.167 149.509 217.222 149.747 217.227 149.988C217.232 150.229 217.187 150.468 217.093 150.691Z" fill="#F4F7FA"/>
</g>
<path d="M152.716 239.453L148.188 250.125C147.364 252.066 144.988 252.954 142.905 252.095L131.584 247.416C129.511 246.56 128.499 244.276 129.33 242.341L133.902 231.715C134.73 229.793 137.093 228.916 139.157 229.764L150.434 234.4C152.511 235.251 153.536 237.529 152.716 239.453Z" fill="url(#paint12_linear_1_2356)"/>
<path d="M151.308 239.757L147.415 248.921C146.652 250.717 144.466 251.532 142.544 250.732L132.825 246.715C130.908 245.923 129.975 243.822 130.744 242.036L134.668 232.904C135.432 231.126 137.609 230.318 139.52 231.103L149.207 235.087C151.126 235.878 152.067 237.971 151.308 239.757ZM131.233 242.237C130.57 243.778 131.373 245.588 133.025 246.27L142.742 250.285C144.403 250.969 146.28 250.267 146.937 248.721L150.831 239.558C151.485 238.019 150.68 236.217 149.02 235.539L139.331 231.555C137.684 230.878 135.811 231.573 135.151 233.106L131.233 242.237Z" fill="url(#paint13_linear_1_2356)"/>
<path d="M134.127 246.993L140.626 231.823L134.127 246.993Z" fill="#F4F7FA"/>
<path d="M140.868 231.922L134.368 247.092L133.885 246.891L140.385 231.725L140.868 231.922Z" fill="url(#paint14_linear_1_2356)"/>
<path d="M137.779 248.502L144.269 233.322L137.779 248.502Z" fill="#F4F7FA"/>
<path d="M144.507 233.42L138.021 248.602L137.536 248.403L144.025 233.222L144.507 233.42Z" fill="url(#paint15_linear_1_2356)"/>
<path d="M141.436 250.013L147.913 234.821L141.436 250.013Z" fill="#F4F7FA"/>
<path d="M148.154 234.919L141.678 250.113L141.195 249.914L147.672 234.721L148.154 234.919Z" fill="url(#paint16_linear_1_2356)"/>
<path d="M148.274 241.388L146.462 245.636C146.01 246.715 144.68 247.209 143.524 246.732L135.041 243.23C133.887 242.753 133.321 241.482 133.783 240.406L135.594 236.17C136.047 235.097 137.374 234.606 138.526 235.08L146.995 238.567C148.162 239.038 148.733 240.312 148.274 241.388Z" fill="#FEC045"/>
<path d="M148.515 241.488L146.704 245.736C146.191 246.943 144.721 247.491 143.427 246.957L134.944 243.455C133.653 242.922 133.026 241.511 133.542 240.306L135.361 236.071C135.877 234.863 137.343 234.326 138.63 234.856L147.098 238.342C148.396 238.874 149.027 240.285 148.515 241.488ZM134.025 240.505C133.614 241.461 134.114 242.582 135.137 243.005L143.62 246.505C144.647 246.93 145.813 246.495 146.221 245.536L148.032 241.289C148.44 240.333 147.936 239.213 146.911 238.792L138.443 235.305C137.419 234.884 136.256 235.316 135.847 236.27L134.025 240.505Z" fill="url(#paint17_linear_1_2356)"/>
<path style="mix-blend-mode:multiply" opacity="0.15" d="M189.925 231.989C186.618 244.021 183.689 251.347 177.415 258.374C168.796 268.024 158.059 272.422 151.348 274.496L188.144 289.788C190.64 290.825 193.469 289.756 194.427 287.412L251.135 148.765C252.027 146.585 250.774 144.018 248.352 143.059L233.728 137.266C211.43 152.464 203.013 167.968 199.508 179.589C195.271 193.631 197.778 203.415 189.925 231.989Z" fill="url(#paint18_linear_1_2356)"/>
<g style="mix-blend-mode:multiply" opacity="0.42">
<path style="mix-blend-mode:multiply" opacity="0.42" d="M200.234 238.3L187.428 269.335C187.296 269.626 187.054 269.853 186.756 269.966C186.457 270.079 186.125 270.069 185.834 269.939L180.628 267.786C180.33 267.673 180.09 267.447 179.958 267.157C179.826 266.868 179.814 266.538 179.924 266.239L192.773 235.249C193.013 234.669 193.724 234.404 194.35 234.66L199.521 236.774C200.155 237.032 200.471 237.719 200.234 238.3Z" fill="url(#paint19_linear_1_2356)"/>
<path style="mix-blend-mode:multiply" opacity="0.42" d="M224.98 178.77L207.939 220.054C207.696 220.643 206.98 220.913 206.348 220.658L201.14 218.545C200.993 218.49 200.858 218.407 200.743 218.301C200.628 218.194 200.535 218.066 200.47 217.923C200.404 217.781 200.368 217.627 200.362 217.47C200.356 217.313 200.381 217.157 200.435 217.01L217.537 175.792C217.777 175.216 218.484 174.951 219.11 175.201L224.272 177.272C224.9 177.517 225.217 178.193 224.98 178.77Z" fill="url(#paint20_linear_1_2356)"/>
</g>
<path style="mix-blend-mode:multiply" opacity="0.26" d="M172.094 128.984C178.373 131.482 181.264 138.744 178.568 145.146C175.896 151.485 168.746 154.574 162.581 152.101C156.417 149.629 153.498 142.518 156.056 136.152C158.63 129.725 165.818 126.489 172.094 128.984Z" fill="url(#paint21_linear_1_2356)"/>
<g opacity="0.53">
<path opacity="0.53" d="M148.656 225.692C148.851 226.178 148.848 226.722 148.646 227.205C148.445 227.688 148.061 228.073 147.578 228.276C147.341 228.378 147.085 228.432 146.827 228.433C146.568 228.435 146.312 228.386 146.073 228.287C145.834 228.189 145.617 228.044 145.435 227.86C145.253 227.677 145.109 227.459 145.012 227.22C144.823 226.733 144.831 226.192 145.037 225.712C145.242 225.232 145.628 224.852 146.111 224.654C146.346 224.555 146.599 224.503 146.854 224.501C147.109 224.5 147.362 224.549 147.599 224.645C147.835 224.742 148.05 224.884 148.231 225.064C148.413 225.243 148.557 225.457 148.656 225.692Z" fill="#F4F7FA"/>
<path opacity="0.53" d="M158.187 222.906C158.152 222.995 158.1 223.075 158.034 223.144C157.967 223.212 157.887 223.266 157.799 223.303C157.619 223.377 157.416 223.378 157.236 223.304C157.055 223.23 156.91 223.088 156.833 222.909C154.433 217.375 148.017 214.758 142.343 216.993C142.162 217.068 141.96 217.068 141.78 216.994C141.599 216.921 141.455 216.779 141.378 216.599C141.344 216.51 141.328 216.414 141.331 216.319C141.334 216.223 141.355 216.129 141.395 216.042C141.435 215.954 141.491 215.876 141.561 215.811C141.632 215.746 141.714 215.695 141.804 215.662C148.205 213.159 155.443 216.115 158.169 222.344C158.209 222.432 158.231 222.527 158.234 222.623C158.237 222.72 158.221 222.816 158.187 222.906Z" fill="#F4F7FA"/>
<path opacity="0.53" d="M155.49 224.042C155.455 224.132 155.402 224.214 155.334 224.283C155.266 224.352 155.185 224.407 155.096 224.444C154.915 224.52 154.71 224.52 154.528 224.446C154.346 224.372 154.201 224.228 154.124 224.047C152.373 219.94 147.625 218 143.436 219.679C143.255 219.754 143.051 219.755 142.869 219.681C142.687 219.607 142.542 219.464 142.465 219.283C142.431 219.193 142.414 219.096 142.417 219C142.419 218.903 142.441 218.808 142.481 218.719C142.52 218.631 142.577 218.551 142.647 218.485C142.718 218.418 142.801 218.366 142.891 218.332C147.822 216.37 153.409 218.651 155.483 223.476C155.521 223.565 155.542 223.661 155.543 223.759C155.544 223.856 155.526 223.952 155.49 224.042Z" fill="#F4F7FA"/>
<path opacity="0.53" d="M152.761 225.192C152.705 225.329 152.609 225.446 152.486 225.529C152.363 225.611 152.219 225.655 152.071 225.655C151.923 225.655 151.779 225.611 151.656 225.529C151.533 225.446 151.437 225.329 151.381 225.192C150.84 223.917 149.817 222.908 148.535 222.384C147.253 221.86 145.816 221.864 144.537 222.395C144.446 222.443 144.347 222.471 144.244 222.478C144.142 222.484 144.039 222.469 143.943 222.434C143.846 222.399 143.758 222.344 143.685 222.272C143.611 222.201 143.553 222.115 143.514 222.02C143.475 221.925 143.457 221.823 143.46 221.72C143.463 221.618 143.488 221.517 143.532 221.424C143.576 221.332 143.64 221.249 143.718 221.183C143.796 221.116 143.887 221.066 143.985 221.037C145.632 220.362 147.479 220.362 149.126 221.037C149.938 221.366 150.677 221.852 151.3 222.468C151.923 223.084 152.418 223.817 152.756 224.625C152.832 224.806 152.833 225.01 152.761 225.192Z" fill="#F4F7FA"/>
</g>
<path d="M176.497 212.461C176.497 237.23 157.13 256.714 132.377 255.953C106.617 255.162 84.9502 232.914 84.9502 206.292C84.9502 179.671 106.617 160.341 132.377 163.023C157.13 165.6 176.497 187.695 176.497 212.461Z" fill="url(#paint22_linear_1_2356)"/>
<path d="M183.185 210.327C183.185 235.094 163.817 254.578 139.066 253.819C113.304 253.026 91.6393 230.779 91.6393 204.158C91.6393 177.538 113.304 158.208 139.066 160.89C163.817 163.464 183.185 185.559 183.185 210.327Z" fill="url(#paint23_linear_1_2356)"/>
<path d="M181.243 210.196C181.243 233.873 162.712 252.46 139.066 251.705C114.502 250.91 93.877 229.678 93.877 204.309C93.877 178.94 114.502 160.49 139.066 163.006C162.712 165.426 181.243 186.519 181.243 210.196Z" fill="url(#paint24_linear_1_2356)"/>
<path d="M179.851 210.102C179.851 232.997 161.921 250.957 139.066 250.19C115.355 249.393 95.4708 228.886 95.4708 204.413C95.4708 179.941 115.355 162.114 139.066 164.514C161.921 166.83 179.851 187.206 179.851 210.102Z" fill="url(#paint25_linear_1_2356)"/>
<path d="M138.833 172.304C139.434 172.375 139.988 172.663 140.393 173.113C140.798 173.563 141.025 174.144 141.032 174.75V178.962C143.491 179.239 145.931 179.662 148.339 180.23C150.137 180.653 151.923 181.156 153.698 181.74C154.219 181.914 154.668 182.257 154.972 182.716C155.277 183.174 155.419 183.721 155.376 184.27L154.858 189.553C154.835 189.874 154.733 190.185 154.562 190.459C154.392 190.732 154.157 190.96 153.878 191.122C153.599 191.284 153.285 191.375 152.963 191.389C152.641 191.402 152.321 191.337 152.03 191.198C150.86 190.676 149.66 190.228 148.434 189.858C146.225 189.197 143.952 188.773 141.654 188.591L141.032 188.54V200.615C147.371 202.39 152.037 204.778 155.047 207.782C158.057 210.786 159.538 214.496 159.538 218.969C159.538 223.805 157.882 227.679 154.571 230.591C151.24 233.528 146.558 235.176 140.526 235.536V240.19C140.531 240.478 140.478 240.764 140.368 241.031C140.259 241.297 140.096 241.539 139.889 241.74C139.683 241.941 139.438 242.098 139.169 242.201C138.899 242.304 138.612 242.351 138.324 242.339H138.283C137.686 242.306 137.125 242.046 136.714 241.612C136.303 241.178 136.074 240.603 136.073 240.006V235.417L135.094 235.372C132.368 235.257 129.652 234.969 126.962 234.51C125.066 234.18 123.189 233.749 121.34 233.216C120.802 233.066 120.333 232.734 120.011 232.277C119.69 231.821 119.536 231.267 119.575 230.71L120.179 223.918C120.31 222.449 121.787 221.595 123.183 222.146C124.798 222.783 126.449 223.325 128.128 223.769C130.717 224.453 133.363 224.895 136.034 225.089L136.073 211.655C129.984 210.146 125.424 207.915 122.428 204.959C119.432 202.004 117.909 198.188 117.909 193.566C117.909 188.782 119.542 185.093 122.808 182.499C126.056 179.921 130.661 178.635 136.623 178.642V174.333C136.615 174.049 136.669 173.766 136.78 173.505C136.891 173.243 137.057 173.008 137.266 172.816C137.476 172.624 137.724 172.479 137.994 172.39C138.264 172.302 138.55 172.273 138.833 172.304ZM136.623 188.419C134.74 188.556 133.273 189.073 132.221 189.971C131.17 190.868 130.643 192.076 130.642 193.593C130.642 195.03 131.129 196.231 132.104 197.195C133.078 198.159 134.584 198.927 136.623 199.5V188.419ZM140.525 212.738V225.052C142.571 225.052 144.142 224.563 145.236 223.587C146.329 222.611 146.876 221.23 146.875 219.442C146.875 217.814 146.367 216.463 145.352 215.39C144.336 214.316 142.728 213.432 140.526 212.738H140.525Z" fill="url(#paint26_linear_1_2356)"/>
<path style="mix-blend-mode:multiply" opacity="0.3" d="M131.685 215.708C133.063 202.099 145.572 196.338 143.939 183.819C142.934 176.102 137.084 169.6 130.561 164.522C110.772 166.597 95.4708 182.982 95.4708 204.413C95.4708 228.886 115.355 249.394 139.066 250.19C141.317 250.265 143.57 250.155 145.803 249.861C136.386 240.49 130.502 227.402 131.685 215.708Z" fill="url(#paint27_linear_1_2356)"/>
<path d="M152.895 113.734C152.895 130.415 139.851 143.538 123.179 143.026C105.83 142.493 91.2379 127.509 91.2379 109.577C91.2379 91.6451 105.83 78.6338 123.179 80.436C139.851 82.1719 152.895 97.0534 152.895 113.734Z" fill="url(#paint28_linear_1_2356)"/>
<path d="M157.4 112.296C157.4 128.978 144.357 142.099 127.685 141.588C110.327 141.055 95.7424 126.071 95.7424 108.139C95.7424 90.2066 110.334 77.1953 127.685 78.9976C144.357 80.7334 157.4 95.6149 157.4 112.296Z" fill="url(#paint29_linear_1_2356)"/>
<path d="M156.094 112.208C156.094 128.154 143.613 140.678 127.686 140.163C111.142 139.627 97.2517 125.327 97.2517 108.242C97.2517 91.1563 111.139 78.7277 127.686 80.4228C143.611 82.0575 156.094 96.2612 156.094 112.208Z" fill="url(#paint30_linear_1_2356)"/>
<path d="M155.155 112.145C155.155 127.565 143.08 139.66 127.684 139.144C111.714 138.608 98.322 124.795 98.322 108.312C98.322 91.8291 111.714 79.8246 127.684 81.4442C143.078 83.0005 155.155 96.7242 155.155 112.145Z" fill="url(#paint31_linear_1_2356)"/>
<path d="M127.527 86.6865C127.932 86.7344 128.305 86.9281 128.578 87.2314C128.851 87.5347 129.004 87.9269 129.009 88.3347V91.174C130.665 91.3594 132.308 91.6442 133.93 92.0268C135.137 92.3126 136.34 92.6517 137.539 93.0442C137.89 93.161 138.193 93.3921 138.398 93.7006C138.603 94.0091 138.699 94.3774 138.671 94.7468L138.322 98.3076C138.306 98.5242 138.238 98.7336 138.122 98.9178C138.007 99.1019 137.849 99.2552 137.661 99.3643C137.473 99.4734 137.262 99.5352 137.045 99.5441C136.828 99.553 136.612 99.5089 136.416 99.4155C135.63 99.0631 134.824 98.7606 134.001 98.5098C132.513 98.0647 130.982 97.7788 129.434 97.657L129.015 97.6223V105.755C133.288 106.951 136.426 108.558 138.455 110.585C140.484 112.612 141.474 115.114 141.474 118.12C141.474 121.378 140.359 123.989 138.13 125.953C135.885 127.932 132.732 129.043 128.671 129.284V132.418C128.674 132.612 128.638 132.805 128.564 132.984C128.49 133.163 128.38 133.326 128.241 133.462C128.102 133.597 127.937 133.703 127.756 133.772C127.574 133.842 127.381 133.873 127.187 133.865H127.161C126.759 133.843 126.381 133.668 126.104 133.376C125.827 133.084 125.672 132.697 125.671 132.294V129.203L125.012 129.172C123.174 129.094 121.344 128.899 119.531 128.588C118.254 128.367 116.99 128.076 115.744 127.717C115.382 127.616 115.066 127.392 114.85 127.085C114.634 126.777 114.53 126.405 114.556 126.03L114.967 121.453C115.056 120.463 116.049 119.888 116.991 120.259C118.078 120.689 119.19 121.053 120.321 121.352C122.064 121.812 123.847 122.11 125.646 122.243L125.671 113.197C121.57 112.182 118.507 110.679 116.482 108.688C114.457 106.697 113.443 104.139 113.438 101.014C113.438 97.7939 114.538 95.3093 116.739 93.5604C118.924 91.8246 122.032 90.9612 126.041 90.9627V88.06C126.036 87.8684 126.071 87.6778 126.145 87.5011C126.22 87.3244 126.331 87.1656 126.472 87.0354C126.612 86.9053 126.779 86.8068 126.961 86.7466C127.143 86.6864 127.336 86.6659 127.527 86.6865ZM126.04 97.5408C124.772 97.6334 123.784 97.9815 123.077 98.5853C122.369 99.1891 122.017 100.003 122.02 101.026C122.009 101.476 122.09 101.924 122.26 102.341C122.429 102.759 122.682 103.137 123.004 103.452C123.659 104.101 124.674 104.619 126.047 105.005L126.04 97.5408ZM128.669 113.92V122.222C130.048 122.222 131.104 121.892 131.839 121.234C132.574 120.576 132.941 119.646 132.942 118.443C132.942 117.347 132.6 116.436 131.916 115.713C131.232 114.989 130.149 114.392 128.669 113.92Z" fill="url(#paint32_linear_1_2356)"/>
<path style="mix-blend-mode:multiply" opacity="0.3" d="M122.715 115.921C123.643 106.754 132.073 102.874 130.967 94.442C130.289 89.2451 126.351 84.8647 121.957 81.4458C108.629 82.8435 98.3237 93.879 98.3237 108.314C98.3237 124.797 111.715 138.608 127.685 139.144C129.201 139.194 130.719 139.12 132.223 138.922C125.88 132.611 121.916 123.796 122.715 115.921Z" fill="url(#paint33_linear_1_2356)"/>
<path d="M249.046 238.649L258.989 354.736C259.246 357.731 258.337 360.543 256.423 362.558C254.758 364.357 252.483 365.47 250.041 365.68L103.579 378.015C97.3739 378.537 92.0592 374.124 91.6184 368.204L82.4109 244.699C81.9777 238.884 86.589 233.831 92.7581 233.625L238.311 228.89C243.839 228.717 248.578 233.182 249.046 238.649Z" fill="#4ECC4E"/>
<path style="mix-blend-mode:multiply" opacity="0.2" d="M256.589 362.558C254.899 364.359 252.603 365.47 250.142 365.678L103.629 378.013C97.4237 378.536 92.0592 374.123 91.6184 368.209L82.4109 244.705C81.9777 238.89 86.589 233.837 92.758 233.632L94.4531 233.576C95.0675 236.764 95.8916 240.342 96.6796 243.778C96.7882 244.255 96.8999 244.771 97.0086 245.228C97.9218 249.192 98.7052 252.453 98.8441 252.872C103.412 266.548 109.863 282.262 123.51 289.908C144.355 301.598 170.747 299.499 192.667 305.9C207.104 310.116 221.923 315.814 233.409 325.351C241.801 332.32 248.882 340.911 253.031 350.964C254.551 354.719 255.741 358.598 256.589 362.558Z" fill="url(#paint34_linear_1_2356)"/>
<g opacity="0.7">
<path opacity="0.7" d="M238.327 360.628H238.319L233.275 360.939C232.994 360.951 232.719 360.853 232.508 360.666C232.298 360.48 232.168 360.219 232.146 359.938C232.097 359.366 232.52 358.939 233.094 358.894L238.129 358.56C238.991 358.56 239.832 358.219 240.638 357.956C240.763 357.909 240.897 357.886 241.032 357.891C241.166 357.896 241.298 357.927 241.42 357.983C241.542 358.039 241.652 358.119 241.743 358.218C241.834 358.317 241.904 358.434 241.949 358.56C242.131 359.102 241.844 359.767 241.302 359.944C240.346 360.264 239.355 360.628 238.327 360.628ZM225.373 361.485L217.432 362.134C217.295 362.146 217.157 362.13 217.027 362.088C216.896 362.046 216.775 361.979 216.67 361.89C216.565 361.801 216.479 361.693 216.416 361.571C216.354 361.449 216.315 361.316 216.304 361.179C216.293 361.042 216.309 360.904 216.351 360.774C216.392 360.643 216.46 360.522 216.548 360.417C216.637 360.312 216.746 360.226 216.868 360.163C216.99 360.101 217.123 360.063 217.26 360.051L225.201 359.407C225.339 359.392 225.478 359.406 225.611 359.446C225.744 359.487 225.867 359.553 225.974 359.642C226.081 359.73 226.169 359.839 226.233 359.962C226.297 360.085 226.336 360.22 226.348 360.358C226.359 360.496 226.343 360.636 226.3 360.768C226.257 360.9 226.188 361.022 226.097 361.126C226.006 361.231 225.895 361.317 225.771 361.379C225.647 361.44 225.511 361.477 225.373 361.485ZM209.444 362.789L201.408 363.446C201.262 363.473 201.113 363.469 200.969 363.435C200.825 363.401 200.69 363.337 200.573 363.247C200.455 363.157 200.358 363.044 200.287 362.914C200.216 362.784 200.173 362.641 200.161 362.494C200.149 362.346 200.168 362.198 200.217 362.059C200.265 361.919 200.343 361.791 200.444 361.683C200.545 361.576 200.668 361.491 200.805 361.433C200.941 361.376 201.088 361.348 201.235 361.351L209.272 360.699C209.411 360.684 209.551 360.698 209.685 360.738C209.818 360.779 209.942 360.846 210.05 360.935C210.157 361.024 210.246 361.134 210.31 361.258C210.375 361.382 210.414 361.517 210.426 361.656C210.437 361.795 210.421 361.935 210.377 362.068C210.334 362.201 210.264 362.324 210.173 362.429C210.081 362.535 209.97 362.621 209.845 362.683C209.719 362.745 209.583 362.781 209.444 362.789ZM193.323 364.109L185.192 364.774C184.911 364.797 184.634 364.707 184.42 364.525C184.205 364.343 184.072 364.083 184.05 363.803C184.027 363.523 184.117 363.245 184.299 363.031C184.481 362.817 184.741 362.684 185.021 362.661L193.152 362.003C193.295 361.983 193.44 361.992 193.579 362.03C193.718 362.068 193.848 362.134 193.96 362.224C194.072 362.314 194.165 362.426 194.233 362.554C194.3 362.681 194.341 362.82 194.353 362.964C194.364 363.107 194.347 363.252 194.301 363.388C194.254 363.525 194.181 363.65 194.084 363.757C193.988 363.864 193.871 363.95 193.74 364.01C193.609 364.07 193.467 364.102 193.323 364.106V364.109ZM177.009 365.443L168.774 366.118C168.492 366.14 168.213 366.05 167.999 365.867C167.784 365.684 167.65 365.423 167.628 365.141C167.606 364.86 167.696 364.581 167.879 364.366C168.062 364.151 168.323 364.018 168.605 363.995L176.835 363.328C177.116 363.306 177.393 363.396 177.607 363.578C177.821 363.76 177.954 364.02 177.977 364.3C177.999 364.581 177.909 364.858 177.727 365.072C177.545 365.286 177.285 365.419 177.005 365.441L177.009 365.443ZM160.497 366.801L152.17 367.476C152.026 367.494 151.88 367.483 151.74 367.444C151.601 367.404 151.471 367.336 151.358 367.244C151.246 367.153 151.153 367.039 151.086 366.911C151.018 366.782 150.978 366.642 150.966 366.497C150.955 366.352 150.973 366.207 151.019 366.069C151.066 365.932 151.14 365.805 151.237 365.697C151.334 365.589 151.451 365.502 151.583 365.441C151.715 365.38 151.857 365.346 152.002 365.342L160.333 364.667C160.615 364.645 160.895 364.736 161.11 364.92C161.325 365.103 161.459 365.365 161.481 365.647C161.503 365.93 161.412 366.209 161.228 366.424C161.044 366.64 160.783 366.773 160.5 366.795L160.497 366.801ZM143.785 368.169L135.352 368.859C135.208 368.874 135.064 368.86 134.926 368.818C134.788 368.777 134.659 368.709 134.548 368.617C134.436 368.526 134.344 368.413 134.276 368.286C134.209 368.159 134.167 368.02 134.153 367.876C134.136 367.585 134.235 367.299 134.429 367.08C134.622 366.862 134.894 366.729 135.186 366.711L143.617 366.027C143.76 366.012 143.905 366.025 144.043 366.066C144.181 366.108 144.309 366.176 144.42 366.268C144.53 366.36 144.622 366.473 144.688 366.601C144.754 366.729 144.794 366.868 144.805 367.012C144.817 367.155 144.799 367.299 144.753 367.436C144.708 367.572 144.635 367.698 144.54 367.806C144.445 367.914 144.329 368.002 144.199 368.064C144.07 368.127 143.929 368.162 143.785 368.169ZM126.867 369.553L118.33 370.252C118.186 370.267 118.04 370.253 117.901 370.211C117.762 370.169 117.633 370.1 117.521 370.008C117.409 369.916 117.316 369.803 117.247 369.676C117.179 369.548 117.136 369.408 117.122 369.263C117.107 368.969 117.209 368.681 117.405 368.462C117.601 368.242 117.876 368.109 118.17 368.091L126.706 367.399C126.85 367.384 126.995 367.398 127.134 367.439C127.273 367.481 127.402 367.549 127.514 367.641C127.627 367.732 127.72 367.845 127.788 367.973C127.857 368.101 127.899 368.241 127.913 368.385C127.928 368.677 127.826 368.964 127.63 369.182C127.434 369.399 127.16 369.531 126.867 369.547V369.553ZM109.743 370.703C109.666 370.711 109.589 370.711 109.512 370.703C106.408 370.362 103.503 369.011 101.242 366.859C101.137 366.759 101.054 366.638 100.998 366.505C100.942 366.372 100.914 366.228 100.916 366.084C100.918 365.939 100.949 365.796 101.008 365.664C101.067 365.532 101.153 365.414 101.26 365.316C101.479 365.111 101.769 364.997 102.069 364.997C102.37 364.997 102.66 365.111 102.879 365.316C104.773 367.121 107.206 368.254 109.806 368.542C109.951 368.554 110.091 368.596 110.22 368.664C110.348 368.732 110.461 368.825 110.553 368.938C110.645 369.05 110.713 369.18 110.753 369.32C110.794 369.459 110.806 369.605 110.789 369.749C110.747 370.002 110.621 370.234 110.431 370.406C110.241 370.578 109.998 370.681 109.743 370.697V370.703ZM247.149 355.2C246.956 355.215 246.763 355.175 246.591 355.086C246.419 354.997 246.276 354.861 246.177 354.694C246.078 354.528 246.028 354.337 246.033 354.143C246.037 353.949 246.095 353.761 246.202 353.598C247.525 351.601 248.13 349.213 247.918 346.826C247.906 346.691 247.921 346.556 247.961 346.427C248.002 346.299 248.068 346.179 248.155 346.076C248.242 345.974 248.349 345.889 248.469 345.828C248.589 345.766 248.721 345.729 248.855 345.719C249.128 345.7 249.398 345.788 249.606 345.966C249.814 346.143 249.944 346.396 249.968 346.669C250.222 349.514 249.501 352.361 247.924 354.743C247.838 354.872 247.723 354.98 247.589 355.058C247.455 355.136 247.304 355.183 247.149 355.194V355.2ZM98.5049 359.838C97.8906 359.887 97.3306 359.487 97.2642 358.901C97.246 358.741 97.2128 358.599 97.2008 358.439L96.6181 350.65C96.5728 350.047 96.9517 349.521 97.5826 349.475C97.7231 349.461 97.8648 349.476 97.9991 349.519C98.1334 349.562 98.2573 349.633 98.3632 349.726C98.469 349.82 98.5544 349.934 98.6141 350.062C98.6738 350.19 98.7065 350.328 98.7102 350.469L99.2943 358.251C99.3049 358.386 99.4332 358.506 99.4453 358.641C99.4658 358.784 99.4568 358.928 99.4188 359.067C99.3809 359.205 99.3148 359.335 99.2247 359.447C99.1347 359.558 99.0226 359.651 98.8953 359.717C98.7681 359.784 98.6285 359.824 98.4853 359.834C98.4732 359.829 98.5185 359.831 98.5049 359.832V359.838ZM248.811 343.852C248.245 343.894 247.94 343.472 247.892 342.904L247.229 335.121C247.183 334.554 247.409 334.065 247.975 334.02C248.541 333.974 248.846 334.403 248.894 334.969L249.555 342.746C249.604 343.306 249.377 343.802 248.811 343.846V343.852ZM97.1298 343.422C96.9893 343.435 96.8475 343.42 96.7132 343.376C96.5789 343.333 96.455 343.262 96.3492 343.169C96.2433 343.075 96.1578 342.961 96.0978 342.833C96.0379 342.705 96.0049 342.567 96.0008 342.426L95.3849 334.208C95.3411 333.604 95.7185 333.085 96.3509 333.043C96.4914 333.03 96.6331 333.046 96.7671 333.09C96.9011 333.134 97.0247 333.205 97.1302 333.299C97.2357 333.393 97.321 333.507 97.3806 333.635C97.4402 333.762 97.473 333.901 97.477 334.042L98.0928 342.252C98.1321 342.844 97.7608 343.37 97.1298 343.416V343.422ZM247.489 328.299C246.923 328.338 246.618 327.912 246.57 327.346L245.909 319.579C245.862 319.013 246.088 318.522 246.654 318.486C247.22 318.45 247.525 318.875 247.574 319.44L248.233 327.201C248.282 327.76 248.055 328.246 247.489 328.293V328.299ZM95.8981 327.004C95.7573 327.016 95.6155 326.999 95.4814 326.955C95.3473 326.91 95.2237 326.839 95.1181 326.745C95.0125 326.651 94.9273 326.536 94.8675 326.408C94.8078 326.28 94.7748 326.141 94.7706 326L94.1562 317.801C94.111 317.197 94.4898 316.685 95.1208 316.646C95.2615 316.634 95.4031 316.652 95.5369 316.696C95.6708 316.741 95.7941 316.813 95.8994 316.907C96.0047 317.001 96.0899 317.115 96.1496 317.243C96.2093 317.371 96.2424 317.51 96.2468 317.651L96.8611 325.843C96.9064 326.435 96.5291 326.955 95.8981 326.998V327.004ZM246.17 312.777C245.604 312.813 245.297 312.385 245.251 311.819L244.591 304.068C244.543 303.503 244.771 303.011 245.337 302.984C245.903 302.957 246.206 303.381 246.254 303.944L246.914 311.689C246.962 312.246 246.734 312.735 246.17 312.771V312.777ZM94.6695 310.62C94.5285 310.631 94.3868 310.614 94.2528 310.569C94.1189 310.523 93.9955 310.451 93.8901 310.357C93.7847 310.263 93.6995 310.148 93.6397 310.02C93.5798 309.892 93.5466 309.753 93.5419 309.612L92.9291 301.429C92.8853 300.835 93.2627 300.32 93.8936 300.285C94.0345 300.274 94.1762 300.292 94.31 300.338C94.4438 300.384 94.5669 300.456 94.672 300.55C94.7771 300.645 94.862 300.76 94.9215 300.888C94.981 301.016 95.0138 301.155 95.0181 301.296L95.6325 309.469C95.6777 310.059 95.3004 310.576 94.6695 310.614V310.62ZM244.858 297.287C244.292 297.321 243.987 296.889 243.939 296.324L243.282 288.59C243.234 288.026 243.462 287.545 244.026 287.515C244.591 287.485 244.896 287.917 244.944 288.48L245.602 296.208C245.645 296.765 245.417 297.248 244.849 297.281L244.858 297.287ZM93.4483 294.269C93.3074 294.278 93.1662 294.259 93.0328 294.212C92.8995 294.166 92.7767 294.093 92.6719 293.999C92.5671 293.904 92.4823 293.79 92.4225 293.662C92.3627 293.534 92.3291 293.395 92.3238 293.254L91.7109 285.091C91.6672 284.496 92.0445 283.988 92.6755 283.956C92.8166 283.947 92.9581 283.966 93.0917 284.013C93.2252 284.059 93.348 284.132 93.4529 284.227C93.5578 284.322 93.6425 284.437 93.7022 284.565C93.7618 284.693 93.7951 284.832 93.8 284.973L94.4038 293.124C94.4506 293.721 94.0732 294.231 93.4423 294.266L93.4483 294.269ZM243.543 281.826C242.979 281.856 242.672 281.422 242.626 280.859L241.969 273.139C241.921 272.578 242.149 272.102 242.715 272.074C243.281 272.045 243.583 272.483 243.631 273.044L244.288 280.756C244.33 281.316 244.102 281.793 243.537 281.823L243.543 281.826ZM92.2257 277.956C92.0844 277.965 91.9428 277.946 91.8092 277.899C91.6755 277.853 91.5526 277.78 91.4477 277.685C91.3428 277.59 91.2581 277.475 91.1986 277.346C91.139 277.218 91.1059 277.079 91.1011 276.937L90.4898 268.786C90.446 268.193 90.8234 267.689 91.4543 267.662C91.5957 267.653 91.7374 267.672 91.8711 267.719C92.0047 267.766 92.1276 267.839 92.2324 267.935C92.3371 268.03 92.4217 268.145 92.4809 268.274C92.5402 268.403 92.573 268.542 92.5774 268.684L93.1811 276.821C93.2264 277.416 92.8491 277.923 92.2196 277.953L92.2257 277.956ZM242.232 266.4C241.667 266.427 241.362 265.989 241.314 265.428L240.659 257.73C240.612 257.168 240.84 256.697 241.405 256.673C241.969 256.649 242.272 257.087 242.321 257.648L242.976 265.346C243.017 265.897 242.79 266.371 242.226 266.397L242.232 266.4ZM90.9985 261.68C90.857 261.688 90.7154 261.667 90.5819 261.62C90.4485 261.572 90.3258 261.499 90.2211 261.403C90.1164 261.308 90.0317 261.193 89.9721 261.064C89.9125 260.936 89.8792 260.796 89.874 260.655L89.4211 254.54C89.372 253.811 89.3871 253.079 89.4664 252.353C89.5253 251.764 90.0944 251.352 90.7208 251.419C91.3472 251.485 91.6989 252.022 91.64 252.616C91.5811 253.209 91.4604 253.838 91.5072 254.451L91.96 260.56C92.0053 261.149 91.6279 261.65 90.9985 261.68ZM240.925 251.002C240.36 251.026 240.054 250.585 240.007 250.025L239.88 248.536C239.719 246.635 238.891 244.797 237.779 243.212C237.448 242.742 237.477 242.116 237.939 241.81C238.401 241.503 238.964 241.642 239.297 242.112C240.596 243.992 241.372 246.184 241.545 248.463L241.67 249.952C241.708 250.51 241.48 250.979 240.925 251.002ZM94.2257 246.403C93.907 246.414 93.5965 246.301 93.3608 246.086C93.2536 245.993 93.167 245.878 93.1064 245.75C93.0458 245.622 93.0126 245.482 93.0087 245.34C93.0049 245.198 93.0306 245.057 93.0842 244.926C93.1377 244.794 93.2181 244.675 93.32 244.576C95.556 242.471 98.4254 241.163 101.482 240.857C101.775 240.825 102.07 240.904 102.308 241.078C102.546 241.253 102.709 241.511 102.766 241.801C102.785 241.942 102.775 242.085 102.736 242.222C102.698 242.359 102.631 242.486 102.541 242.597C102.452 242.707 102.34 242.798 102.214 242.863C102.088 242.929 101.949 242.968 101.808 242.978C99.2463 243.235 96.8422 244.333 94.9698 246.099C94.7651 246.29 94.4975 246.398 94.2181 246.403H94.2257ZM232.307 239.025C232.18 239.029 232.053 239.01 231.933 238.969C230.678 238.548 229.357 238.358 228.034 238.406L224.534 238.531C224.257 238.54 223.988 238.444 223.78 238.262C223.572 238.079 223.441 237.825 223.414 237.55C223.402 237.417 223.417 237.284 223.459 237.157C223.501 237.031 223.568 236.914 223.657 236.815C223.746 236.716 223.855 236.636 223.976 236.581C224.097 236.526 224.228 236.496 224.362 236.493L227.863 236.37C229.441 236.314 231.015 236.544 232.511 237.046C232.773 237.128 232.992 237.309 233.123 237.55C233.253 237.791 233.285 238.074 233.211 238.338C233.151 238.534 233.031 238.706 232.867 238.829C232.703 238.953 232.505 239.021 232.3 239.025H232.307ZM216.682 238.813L208.784 239.097C208.506 239.107 208.234 239.01 208.024 238.827C207.814 238.644 207.681 238.387 207.654 238.11C207.643 237.977 207.66 237.842 207.703 237.716C207.746 237.589 207.815 237.473 207.905 237.374C207.995 237.275 208.104 237.195 208.226 237.14C208.348 237.085 208.48 237.055 208.614 237.053L216.511 236.776C216.788 236.767 217.058 236.863 217.267 237.046C217.475 237.229 217.607 237.484 217.634 237.76C217.645 237.893 217.629 238.027 217.586 238.154C217.543 238.281 217.474 238.397 217.384 238.496C217.294 238.595 217.184 238.674 217.062 238.729C216.94 238.783 216.808 238.812 216.674 238.813H216.682ZM200.84 239.382L192.84 239.671C192.559 239.681 192.285 239.585 192.073 239.4C191.861 239.216 191.727 238.957 191.699 238.678C191.688 238.542 191.705 238.407 191.749 238.278C191.793 238.15 191.863 238.032 191.954 237.932C192.045 237.832 192.156 237.752 192.28 237.696C192.403 237.64 192.537 237.611 192.672 237.609L200.662 237.328C200.942 237.318 201.215 237.415 201.426 237.599C201.637 237.783 201.77 238.04 201.799 238.318C201.809 238.453 201.793 238.588 201.749 238.715C201.706 238.843 201.637 238.96 201.546 239.06C201.456 239.16 201.346 239.24 201.223 239.295C201.1 239.351 200.967 239.38 200.832 239.382H200.84ZM184.81 239.959L176.722 240.25C176.439 240.262 176.162 240.165 175.948 239.979C175.733 239.794 175.598 239.533 175.569 239.251C175.559 239.115 175.576 238.978 175.621 238.849C175.666 238.72 175.737 238.601 175.829 238.5C175.921 238.399 176.033 238.319 176.158 238.263C176.283 238.207 176.418 238.178 176.555 238.176L184.641 237.893C184.923 237.881 185.198 237.978 185.412 238.163C185.625 238.347 185.759 238.607 185.788 238.887C185.799 239.024 185.781 239.161 185.737 239.29C185.692 239.419 185.621 239.538 185.529 239.638C185.436 239.739 185.324 239.819 185.199 239.874C185.074 239.93 184.939 239.958 184.802 239.959H184.81ZM168.58 240.548L160.398 240.841C160.112 240.853 159.832 240.757 159.615 240.57C159.399 240.383 159.261 240.121 159.231 239.837C159.221 239.699 159.24 239.561 159.286 239.431C159.332 239.301 159.404 239.181 159.498 239.08C159.592 238.979 159.705 238.898 159.831 238.842C159.957 238.786 160.094 238.757 160.232 238.756L168.414 238.468C168.699 238.456 168.976 238.553 169.192 238.739C169.407 238.925 169.544 239.186 169.574 239.468C169.584 239.606 169.565 239.743 169.52 239.873C169.475 240.003 169.403 240.122 169.31 240.223C169.217 240.324 169.104 240.405 168.979 240.461C168.853 240.517 168.718 240.546 168.58 240.548ZM152.165 241.136L143.883 241.438C143.595 241.451 143.313 241.354 143.094 241.166C142.875 240.978 142.735 240.714 142.704 240.427C142.695 240.288 142.715 240.149 142.761 240.017C142.808 239.886 142.881 239.766 142.976 239.664C143.071 239.562 143.186 239.481 143.314 239.425C143.442 239.37 143.579 239.341 143.719 239.34L151.999 239.049C152.286 239.036 152.567 239.133 152.785 239.32C153.002 239.507 153.14 239.77 153.171 240.056C153.179 240.193 153.159 240.33 153.113 240.46C153.067 240.589 152.995 240.708 152.901 240.808C152.807 240.909 152.694 240.99 152.569 241.045C152.443 241.101 152.307 241.13 152.17 241.132L152.165 241.136ZM135.551 241.74L127.169 242.042C126.878 242.056 126.593 241.959 126.372 241.771C126.151 241.582 126.01 241.315 125.978 241.026C125.969 240.886 125.99 240.745 126.037 240.613C126.085 240.48 126.159 240.359 126.256 240.256C126.352 240.154 126.468 240.072 126.597 240.016C126.726 239.96 126.865 239.931 127.006 239.93L135.388 239.628C135.677 239.615 135.96 239.712 136.18 239.9C136.4 240.089 136.54 240.354 136.571 240.641C136.58 240.781 136.56 240.92 136.513 241.052C136.465 241.183 136.392 241.304 136.296 241.406C136.2 241.508 136.085 241.589 135.957 241.645C135.829 241.7 135.691 241.729 135.551 241.73V241.74ZM118.736 242.344L110.251 242.646C109.957 242.662 109.669 242.564 109.444 242.374C109.22 242.184 109.076 241.915 109.044 241.622C109.036 241.481 109.057 241.339 109.106 241.206C109.155 241.073 109.23 240.951 109.328 240.848C109.425 240.744 109.543 240.662 109.673 240.606C109.803 240.55 109.943 240.521 110.085 240.521L118.57 240.219C118.862 240.204 119.148 240.301 119.371 240.49C119.593 240.68 119.735 240.947 119.767 241.238C119.775 241.378 119.754 241.519 119.706 241.651C119.658 241.784 119.583 241.905 119.487 242.007C119.39 242.11 119.274 242.192 119.145 242.248C119.016 242.305 118.877 242.334 118.736 242.335V242.344Z" fill="white"/>
</g>
<path d="M254.948 270.618C254.52 270.35 254.033 270.19 253.529 270.15C253.026 270.11 252.52 270.193 252.055 270.39L222.272 283.133C217.999 284.979 215.083 289.307 215.469 293.96L216.497 306.33C216.909 311.283 220.914 315.421 225.821 316.502L256.642 323.251C257.126 323.357 257.627 323.35 258.108 323.23C258.589 323.111 259.035 322.881 259.412 322.56C259.783 322.24 260.075 321.838 260.264 321.385C260.452 320.932 260.532 320.442 260.497 319.953L256.471 273.124C256.432 272.616 256.274 272.124 256.009 271.689C255.745 271.254 255.381 270.887 254.948 270.618Z" fill="#35B935"/>
<path d="M235.273 298.741C235.343 299.551 235.249 300.368 234.996 301.141C234.744 301.915 234.339 302.63 233.804 303.244C233.27 303.858 232.618 304.358 231.886 304.714C231.155 305.07 230.359 305.276 229.546 305.319C226.084 305.53 223.036 302.913 222.754 299.474C222.684 298.661 222.779 297.843 223.033 297.067C223.287 296.292 223.695 295.576 224.233 294.962C224.77 294.348 225.426 293.849 226.161 293.495C226.895 293.14 227.694 292.938 228.509 292.899C231.957 292.704 234.983 295.319 235.273 298.741Z" fill="#4ECC4E"/>
<defs>
<linearGradient id="paint0_linear_1_2356" x1="55356.5" y1="39972.2" x2="57630.4" y2="43647.2" gradientUnits="userSpaceOnUse">
<stop stop-color="#F48D60"/>
<stop offset="1" stop-color="#F36F56"/>
</linearGradient>
<linearGradient id="paint1_linear_1_2356" x1="43550.3" y1="30239.8" x2="45233" y2="33071.1" gradientUnits="userSpaceOnUse">
<stop stop-color="#F48D60"/>
<stop offset="1" stop-color="#F36F56"/>
</linearGradient>
<linearGradient id="paint2_linear_1_2356" x1="86253.4" y1="140951" x2="121892" y2="207997" gradientUnits="userSpaceOnUse">
<stop stop-color="#311944"/>
<stop offset="1" stop-color="#893976"/>
</linearGradient>
<linearGradient id="paint3_linear_1_2356" x1="65814.7" y1="48250.1" x2="68602.4" y2="52663.2" gradientUnits="userSpaceOnUse">
<stop stop-color="#F48D60"/>
<stop offset="1" stop-color="#F36F56"/>
</linearGradient>
<linearGradient id="paint4_linear_1_2356" x1="95672" y1="43881" x2="97588.3" y2="48739.2" gradientUnits="userSpaceOnUse">
<stop stop-color="#F48D60"/>
<stop offset="1" stop-color="#F36F56"/>
</linearGradient>
<linearGradient id="paint5_linear_1_2356" x1="22356" y1="22274.7" x2="22405" y2="20692.8" gradientUnits="userSpaceOnUse">
<stop stop-color="#FFC444"/>
<stop offset="1" stop-color="#F36F56"/>
</linearGradient>
<linearGradient id="paint6_linear_1_2356" x1="25221.9" y1="19682.4" x2="25249.5" y2="18541.5" gradientUnits="userSpaceOnUse">
<stop stop-color="#FFC444"/>
<stop offset="1" stop-color="#F36F56"/>
</linearGradient>
<linearGradient id="paint7_linear_1_2356" x1="-66530.4" y1="33251.8" x2="-10593.9" y2="59743.6" gradientUnits="userSpaceOnUse">
<stop stop-color="#AA80F9"/>
<stop offset="1" stop-color="#6165D7"/>
</linearGradient>
<linearGradient id="paint8_linear_1_2356" x1="-77704.1" y1="51522.6" x2="-29786.1" y2="78763" gradientUnits="userSpaceOnUse">
<stop stop-color="#AA80F9"/>
<stop offset="1" stop-color="#6165D7"/>
</linearGradient>
<linearGradient id="paint9_linear_1_2356" x1="-87782.8" y1="34639.6" x2="-63565.3" y2="42983.5" gradientUnits="userSpaceOnUse">
<stop stop-color="#AA80F9"/>
<stop offset="1" stop-color="#6165D7"/>
</linearGradient>
<linearGradient id="paint10_linear_1_2356" x1="-342777" y1="301124" x2="-161640" y2="82476.9" gradientUnits="userSpaceOnUse">
<stop stop-color="#AA80F9"/>
<stop offset="1" stop-color="#6165D7"/>
</linearGradient>
<linearGradient id="paint11_linear_1_2356" x1="-364357" y1="548180" x2="-431547" y2="730930" gradientUnits="userSpaceOnUse">
<stop stop-color="#311944"/>
<stop offset="1" stop-color="#893976"/>
</linearGradient>
<linearGradient id="paint12_linear_1_2356" x1="104.569" y1="272.007" x2="176.787" y2="204.044" gradientUnits="userSpaceOnUse">
<stop stop-color="#F68252"/>
<stop offset="0.04" stop-color="#F99A4D"/>
<stop offset="0.08" stop-color="#FCAD49"/>
<stop offset="0.13" stop-color="#FEBA46"/>
<stop offset="0.2" stop-color="#FFC244"/>
<stop offset="0.32" stop-color="#FFC444"/>
<stop offset="0.45" stop-color="#FDB946"/>
<stop offset="0.69" stop-color="#F99C4C"/>
<stop offset="1" stop-color="#F36F56"/>
</linearGradient>
<linearGradient id="paint13_linear_1_2356" x1="-56285.5" y1="93734.1" x2="-55604.6" y2="91313" gradientUnits="userSpaceOnUse">
<stop stop-color="#FF9085"/>
<stop offset="1" stop-color="#FB6FBB"/>
</linearGradient>
<linearGradient id="paint14_linear_1_2356" x1="-26506.8" y1="28475.9" x2="-26300.6" y2="27742.7" gradientUnits="userSpaceOnUse">
<stop stop-color="#FF9085"/>
<stop offset="1" stop-color="#FB6FBB"/>
</linearGradient>
<linearGradient id="paint15_linear_1_2356" x1="-26111.7" y1="28541.2" x2="-25905.8" y2="27809" gradientUnits="userSpaceOnUse">
<stop stop-color="#FF9085"/>
<stop offset="1" stop-color="#FB6FBB"/>
</linearGradient>
<linearGradient id="paint16_linear_1_2356" x1="-25716.6" y1="28606.8" x2="-25510.9" y2="27875.4" gradientUnits="userSpaceOnUse">
<stop stop-color="#FF9085"/>
<stop offset="1" stop-color="#FB6FBB"/>
</linearGradient>
<linearGradient id="paint17_linear_1_2356" x1="-38616.4" y1="68137" x2="-38333.4" y2="67130.6" gradientUnits="userSpaceOnUse">
<stop stop-color="#FF9085"/>
<stop offset="1" stop-color="#FB6FBB"/>
</linearGradient>
<linearGradient id="paint18_linear_1_2356" x1="172.663" y1="278.017" x2="251.741" y2="32.3592" gradientUnits="userSpaceOnUse">
<stop stop-color="#FB6FBB"/>
<stop offset="1" stop-color="#FF9085"/>
</linearGradient>
<linearGradient id="paint19_linear_1_2356" x1="-57165.4" y1="91037.4" x2="-55841.4" y2="86330" gradientUnits="userSpaceOnUse">
<stop stop-color="#FB6FBB"/>
<stop offset="1" stop-color="#FF9085"/>
</linearGradient>
<linearGradient id="paint20_linear_1_2356" x1="-67367.2" y1="101530" x2="-65286.5" y2="94131.8" gradientUnits="userSpaceOnUse">
<stop stop-color="#FB6FBB"/>
<stop offset="1" stop-color="#FF9085"/>
</linearGradient>
<linearGradient id="paint21_linear_1_2356" x1="-65230.7" y1="87877.4" x2="-64593.3" y2="83893.6" gradientUnits="userSpaceOnUse">
<stop stop-color="#FF9085"/>
<stop offset="1" stop-color="#FB6FBB"/>
</linearGradient>
<linearGradient id="paint22_linear_1_2356" x1="115.035" y1="214.4" x2="61.6461" y2="231.533" gradientUnits="userSpaceOnUse">
<stop stop-color="#FCB148"/>
<stop offset="0.05" stop-color="#FDBA46"/>
<stop offset="0.14" stop-color="#FFC244"/>
<stop offset="0.32" stop-color="#FFC444"/>
<stop offset="0.48" stop-color="#FDB946"/>
<stop offset="0.78" stop-color="#F99C4D"/>
<stop offset="0.87" stop-color="#F8924F"/>
<stop offset="1" stop-color="#F8924F"/>
</linearGradient>
<linearGradient id="paint23_linear_1_2356" x1="158.223" y1="161.255" x2="110.56" y2="266.409" gradientUnits="userSpaceOnUse">
<stop stop-color="#FFDB44"/>
<stop offset="1" stop-color="#FEEF06"/>
</linearGradient>
<linearGradient id="paint24_linear_1_2356" x1="130009" y1="207174" x2="124497" y2="177603" gradientUnits="userSpaceOnUse">
<stop stop-color="#FCB148"/>
<stop offset="0.05" stop-color="#FDBA46"/>
<stop offset="0.14" stop-color="#FFC244"/>
<stop offset="0.32" stop-color="#FFC444"/>
<stop offset="0.48" stop-color="#FDB946"/>
<stop offset="0.78" stop-color="#F99C4D"/>
<stop offset="0.87" stop-color="#F8924F"/>
<stop offset="1" stop-color="#F8924F"/>
</linearGradient>
<linearGradient id="paint25_linear_1_2356" x1="114671" y1="153826" x2="136490" y2="199317" gradientUnits="userSpaceOnUse">
<stop stop-color="#FCB148"/>
<stop offset="0.05" stop-color="#FDBA46"/>
<stop offset="0.14" stop-color="#FFC244"/>
<stop offset="0.32" stop-color="#FFC444"/>
<stop offset="0.48" stop-color="#FDB946"/>
<stop offset="0.78" stop-color="#F99C4D"/>
<stop offset="0.87" stop-color="#F8924F"/>
<stop offset="1" stop-color="#F8924F"/>
</linearGradient>
<linearGradient id="paint26_linear_1_2356" x1="56226.7" y1="117422" x2="69494.2" y2="146971" gradientUnits="userSpaceOnUse">
<stop stop-color="#FFDB44"/>
<stop offset="1" stop-color="#FEEF06"/>
</linearGradient>
<linearGradient id="paint27_linear_1_2356" x1="64720.4" y1="156379" x2="91905.1" y2="190274" gradientUnits="userSpaceOnUse">
<stop stop-color="#FCB148"/>
<stop offset="0.05" stop-color="#FDBA46"/>
<stop offset="0.14" stop-color="#FFC244"/>
<stop offset="0.32" stop-color="#FFC444"/>
<stop offset="0.48" stop-color="#FDB946"/>
<stop offset="0.78" stop-color="#F99C4D"/>
<stop offset="0.87" stop-color="#F8924F"/>
<stop offset="1" stop-color="#F8924F"/>
</linearGradient>
<linearGradient id="paint28_linear_1_2356" x1="76272.6" y1="80773" x2="61536.2" y2="85418.9" gradientUnits="userSpaceOnUse">
<stop stop-color="#FCB148"/>
<stop offset="0.05" stop-color="#FDBA46"/>
<stop offset="0.14" stop-color="#FFC244"/>
<stop offset="0.32" stop-color="#FFC444"/>
<stop offset="0.48" stop-color="#FDB946"/>
<stop offset="0.78" stop-color="#F99C4D"/>
<stop offset="0.87" stop-color="#F8924F"/>
<stop offset="1" stop-color="#F8924F"/>
</linearGradient>
<linearGradient id="paint29_linear_1_2356" x1="88159.2" y1="65887.1" x2="74652.3" y2="95156.9" gradientUnits="userSpaceOnUse">
<stop stop-color="#FFDB44"/>
<stop offset="1" stop-color="#FEEF06"/>
</linearGradient>
<linearGradient id="paint30_linear_1_2356" x1="81838.1" y1="92569.3" x2="79338.3" y2="79155.1" gradientUnits="userSpaceOnUse">
<stop stop-color="#FCB148"/>
<stop offset="0.05" stop-color="#FDBA46"/>
<stop offset="0.14" stop-color="#FFC244"/>
<stop offset="0.32" stop-color="#FFC444"/>
<stop offset="0.48" stop-color="#FDB946"/>
<stop offset="0.78" stop-color="#F99C4D"/>
<stop offset="0.87" stop-color="#F8924F"/>
<stop offset="1" stop-color="#F8924F"/>
</linearGradient>
<linearGradient id="paint31_linear_1_2356" x1="74103.7" y1="68412.8" x2="84000.2" y2="89047.7" gradientUnits="userSpaceOnUse">
<stop stop-color="#FCB148"/>
<stop offset="0.05" stop-color="#FDBA46"/>
<stop offset="0.14" stop-color="#FFC244"/>
<stop offset="0.32" stop-color="#FFC444"/>
<stop offset="0.48" stop-color="#FDB946"/>
<stop offset="0.78" stop-color="#F99C4D"/>
<stop offset="0.87" stop-color="#F8924F"/>
<stop offset="1" stop-color="#F8924F"/>
</linearGradient>
<linearGradient id="paint32_linear_1_2356" x1="36431.9" y1="52167.4" x2="42452.5" y2="65573" gradientUnits="userSpaceOnUse">
<stop stop-color="#FFDB44"/>
<stop offset="1" stop-color="#FEEF06"/>
</linearGradient>
<linearGradient id="paint33_linear_1_2356" x1="42553.2" y1="69578" x2="54884.5" y2="84953.6" gradientUnits="userSpaceOnUse">
<stop stop-color="#FCB148"/>
<stop offset="0.05" stop-color="#FDBA46"/>
<stop offset="0.14" stop-color="#FFC244"/>
<stop offset="0.32" stop-color="#FFC444"/>
<stop offset="0.48" stop-color="#FDB946"/>
<stop offset="0.78" stop-color="#F99C4D"/>
<stop offset="0.87" stop-color="#F8924F"/>
<stop offset="1" stop-color="#F8924F"/>
</linearGradient>
<linearGradient id="paint34_linear_1_2356" x1="847355" y1="186410" x2="119736" y2="517476" gradientUnits="userSpaceOnUse">
<stop stop-color="#AB316D"/>
<stop offset="1" stop-color="#792D3D"/>
</linearGradient>
</defs>
</svg>
